<?xml version="1.0" encoding="utf-8"?>
<!-- Generator: Adobe Illustrator 19.0.0, SVG Export Plug-In . SVG Version: 6.00 Build 0)  -->
<svg version="1.2" baseProfile="tiny" id="Слой_1"
	 xmlns="http://www.w3.org/2000/svg" xmlns:xlink="http://www.w3.org/1999/xlink" x="0px" y="0px" viewBox="0 0 50 24"
	 xml:space="preserve">
<g id="XMLID_20_">
	<rect id="XMLID_37_" x="0" y="1" fill="#7D3E98" width="22.3" height="22.3"/>
	<g id="XMLID_29_">
		<path id="XMLID_34_" fill="#FFFFFF" d="M19.3,7.6L19.3,7.6c-0.4-1.7-2.3-3.5-4-3.8l0,0c-2.8-0.5-5.5-0.5-8.3,0l0,0
			C5.3,4.1,3.4,5.9,3,7.6l0,0c-0.5,2.3-0.5,4.7,0,7l0,0c0.4,1.6,2.1,3.3,3.7,3.8v1.9c0,0.7,0.8,1,1.3,0.5l1.9-2c0.4,0,0.8,0,1.2,0
			c1.4,0,2.8-0.1,4.1-0.4l0,0c1.7-0.4,3.6-2.2,4-3.8l0,0C19.8,12.3,19.8,9.9,19.3,7.6z M17.8,14.2c-0.3,1.1-1.7,2.4-2.8,2.7
			c-1.5,0.3-2.9,0.4-4.4,0.4c0,0-0.1,0-0.1,0c-0.2,0.2-1.4,1.4-1.4,1.4l-1.5,1.5c-0.1,0.1-0.3,0-0.3-0.1V17c0-0.1,0-0.1-0.1-0.1
			c0,0,0,0,0,0c-1.1-0.2-2.5-1.6-2.8-2.7c-0.5-2.1-0.5-4.2,0-6.3c0.3-1.1,1.7-2.4,2.8-2.7c2.6-0.5,5.1-0.5,7.7,0
			c1.1,0.2,2.5,1.6,2.8,2.7C18.3,10,18.3,12.2,17.8,14.2z"/>
		<path id="XMLID_33_" fill="#FFFFFF" d="M13.6,15.7c-0.2-0.1-0.3-0.1-0.5-0.2c-1.6-0.7-3-1.5-4.2-2.8c-0.7-0.7-1.2-1.6-1.6-2.4
			C7.1,9.9,7,9.4,6.8,9C6.6,8.6,6.9,8.2,7.1,7.9C7.3,7.6,7.6,7.4,8,7.3c0.3-0.1,0.5-0.1,0.7,0.2c0.4,0.5,0.8,1,1.1,1.5
			c0.2,0.3,0.1,0.7-0.2,1C9.4,9.9,9.4,10,9.3,10.1c-0.1,0.1-0.1,0.1-0.2,0.2c-0.1,0.1-0.1,0.3,0,0.4c0.4,1.1,1.1,2,2.2,2.5
			c0.2,0.1,0.4,0.2,0.6,0.1c0.4,0,0.5-0.4,0.7-0.6c0.2-0.2,0.5-0.2,0.8,0c0.3,0.2,0.5,0.3,0.8,0.5c0.2,0.2,0.5,0.3,0.7,0.5
			c0.2,0.2,0.3,0.4,0.2,0.7c-0.2,0.5-0.5,0.9-1,1.1C13.9,15.6,13.7,15.6,13.6,15.7C13.4,15.6,13.7,15.6,13.6,15.7z"/>
		<path id="XMLID_32_" fill="#FFFFFF" d="M11.2,6.7c2.1,0.1,3.8,1.4,4.1,3.5c0.1,0.3,0.1,0.7,0.1,1.1c0,0.1-0.1,0.3-0.2,0.3
			c-0.2,0-0.2-0.1-0.3-0.3c0-0.3,0-0.6-0.1-0.9c-0.2-1.5-1.4-2.8-3-3.1c-0.2,0-0.5-0.1-0.7-0.1c-0.1,0-0.3,0-0.4-0.2
			c0-0.2,0.1-0.3,0.2-0.3C11.1,6.7,11.1,6.7,11.2,6.7C13.2,6.8,11.1,6.7,11.2,6.7z"/>
		<path id="XMLID_31_" fill="#FFFFFF" d="M14.3,10.8c0,0,0,0.1,0,0.1c-0.1,0.2-0.4,0.2-0.4,0c0-0.1,0-0.1,0-0.2
			c0-0.4-0.1-0.9-0.3-1.3c-0.2-0.4-0.6-0.7-1-0.9c-0.2-0.1-0.5-0.2-0.8-0.2c-0.1,0-0.2,0-0.4,0c-0.1,0-0.2-0.1-0.2-0.3
			c0-0.1,0.1-0.2,0.2-0.2c0.5,0,0.9,0.1,1.4,0.4c0.9,0.5,1.3,1.2,1.5,2.1c0,0,0,0.1,0,0.1C14.3,10.5,14.3,10.6,14.3,10.8
			C14.3,10.8,14.3,10.6,14.3,10.8z"/>
		<path id="XMLID_30_" fill="#FFFFFF" d="M13,10.7c-0.2,0-0.3-0.1-0.3-0.3c0-0.1,0-0.2,0-0.3c-0.1-0.2-0.2-0.4-0.3-0.5
			c-0.1-0.1-0.2-0.1-0.3-0.1c-0.1,0-0.3,0-0.4-0.1c-0.1,0-0.2-0.1-0.2-0.3c0-0.1,0.1-0.2,0.3-0.2c0.8,0.1,1.4,0.5,1.5,1.4
			c0,0.1,0,0.1,0,0.2C13.2,10.7,13.1,10.7,13,10.7C12.8,10.7,13.1,10.7,13,10.7z"/>
	</g>
	<rect id="XMLID_28_" x="27.6" y="1" fill="#1F9546" width="22.4" height="22.4"/>
	<g id="XMLID_23_">
		<path id="XMLID_25_" fill="#FFFFFF" d="M30,21l1.2-4.4c-0.8-1.3-1.2-2.9-1.2-4.4c0-4.8,3.9-8.8,8.8-8.8s8.8,3.9,8.8,8.8
			s-3.9,8.8-8.8,8.8c-1.5,0-3-0.4-4.3-1.1L30,21z M34.8,18.2l0.3,0.2c1.1,0.7,2.4,1.1,3.8,1.1c4,0,7.3-3.3,7.3-7.3s-3.3-7.3-7.3-7.3
			s-7.3,3.3-7.3,7.3c0,1.4,0.4,2.8,1.1,3.9l0.2,0.3l-0.7,2.5L34.8,18.2z"/>
		<path id="XMLID_24_" fill="#FFFFFF" d="M36.4,8.1l-0.6,0c-0.2,0-0.4,0-0.5,0.2c-0.3,0.2-0.7,0.7-0.9,1.3c-0.2,0.9,0.1,2,0.9,3.1
			c0.8,1.1,2.3,2.9,5,3.6c0.9,0.2,1.5,0.1,2.1-0.3c0.4-0.3,0.7-0.7,0.8-1.2l0.1-0.4c0-0.1,0-0.3-0.2-0.3l-1.9-0.9
			c-0.1-0.1-0.3,0-0.4,0.1l-0.8,1c-0.1,0.1-0.2,0.1-0.2,0.1c-0.5-0.2-2.2-0.9-3.2-2.7c0-0.1,0-0.2,0-0.2l0.7-0.8
			c0.1-0.1,0.1-0.2,0-0.3l-0.8-1.9C36.6,8.2,36.5,8.1,36.4,8.1z"/>
	</g>
</g>
</svg>
