<?xml version="1.0" encoding="utf-8"?>
<!-- Generator: Adobe Illustrator 19.2.1, SVG Export Plug-In . SVG Version: 6.00 Build 0)  -->
<svg version="1.2" baseProfile="tiny" id="Слой_1"
	 xmlns="http://www.w3.org/2000/svg" xmlns:xlink="http://www.w3.org/1999/xlink" x="0px" y="0px" viewBox="0 0 16 16"
	 xml:space="preserve">
<path fill="#B0C1D0" d="M15.3,14.4l-3.7-3.9c1-1.1,1.5-2.6,1.5-4c0-3.5-2.8-6.3-6.3-6.3S0.5,3,0.5,6.5s2.8,6.3,6.3,6.3
	c1.3,0,2.5-0.4,3.6-1.1l3.7,3.9c0.2,0.2,0.4,0.3,0.6,0.3c0.2,0,0.4-0.1,0.6-0.2C15.6,15.2,15.6,14.7,15.3,14.4z M6.8,1.9
	c2.6,0,4.6,2.1,4.6,4.6s-2.1,4.6-4.6,4.6S2.1,9.1,2.1,6.5S4.2,1.9,6.8,1.9z"/>
</svg>
