<?xml version="1.0" standalone="no"?>
<!DOCTYPE svg PUBLIC "-//W3C//DTD SVG 1.1//EN" "http://www.w3.org/Graphics/SVG/1.1/DTD/svg11.dtd" >
<svg>
<metadata>
Created by FontForge 20090914 at Wed Oct  5 13:47:36 2016
 By www-data
Copyright (c) 1989, 1991 Adobe Systems Incorporated.  All Rights Reserved. Utopia is either a registered trademark or trademark of Adobe Systems Incorporated in the United States and/or other countries. Used under license. The Utopia fonts are freely available; see http://tug.org/fonts/utopia.

Copyright (c) 2008-2012 Andrey V. Panov (panov@canopus.iacp.dvo.ru).

</metadata>
<defs>
<font id="Heuristica-Bold" horiz-adv-x="560" >
  <font-face 
    font-family="Heuristica"
    font-weight="700"
    font-stretch="normal"
    units-per-em="1000"
    panose-1="2 2 8 3 6 7 5 2 2 4"
    ascent="750"
    descent="-250"
    x-height="489.999"
    cap-height="691.996"
    bbox="-77 -250 1159 951"
    underline-thickness="50"
    underline-position="-100"
    unicode-range="U+0020-U+04F9"
  />
<missing-glyph horiz-adv-x="608" 
d="M90 0v692h428v-692h-428zM133 93l147 253l-147 254v-507zM153 43h302l-151 261zM153 649l151 -260l150 260h-301zM328 346l147 -253v507z" />
    <glyph glyph-name="f_b" unicode="fb" horiz-adv-x="941" 
d="M27 0v37.999c28.667 1.33301 46.667 4.66602 54 9.99902s11 18.333 11 39v353h-63v50h63v29c0 71.333 20 126.333 60 165s99 58 177 58c48.667 0 93 -10.333 133 -31l92 31l7 -6v-303c60 46 113 69 159 69c53.333 0 97.833 -20.667 133.5 -62
s53.5 -100.666 53.5 -177.999c0 -44 -4.66699 -82.333 -14 -115s-21.666 -59 -36.999 -79s-34.5 -36.167 -57.5 -48.5s-46.667 -20.666 -71 -24.999s-51.833 -6.5 -82.5 -6.5c-56.667 0 -106.334 11.333 -149.001 34l-54 -34l-32 18v606
c-4 21.333 -12.5 40.666 -25.5 57.999s-30.833 26 -53.5 26c-24 0 -44.667 -11 -62 -33s-26 -61 -26 -117v-56h103v-50h-103v-353c0 -10.667 1.16699 -19.167 3.5 -25.5s6.5 -11.166 12.5 -14.499s11.667 -5.5 17 -6.5s14 -1.83301 26 -2.5v-38h-275zM561 153.999
c0 -39.333 5.83301 -69.167 17.5 -89.5s34.5 -30.5 68.5 -30.5c67.333 0 101 67.667 101 203c0 74 -9.16699 123.833 -27.5 149.5s-42.5 38.5 -72.5 38.5c-39.333 0 -66.333 -19 -81 -57c-4 -11.333 -6 -30 -6 -56v-158z" />
    <glyph glyph-name="f_h" unicode="fh" horiz-adv-x="961" 
d="M27 0l0.00195312 38c28.667 1.33301 46.667 4.66602 54 9.99902s11 18.333 11 39v353h-63v50h63v29c0 71.333 20.333 126.333 61 165s100 58 178 58c50 0 95 -10.333 135 -31l92 31l7 -6v-303c26.667 16.667 46.667 28.834 60 36.501s30.166 15 50.499 22
s39.833 10.5 58.5 10.5c51.333 0 89.666 -13.667 114.999 -41s38 -65.333 38 -114v-260c0 -20.667 3.66699 -33.667 11 -39s25.333 -8.66602 54 -9.99902v-38h-269v38l21 2c11.333 1.33301 19.5 4.5 24.5 9.5s7.5 15.167 7.5 30.5v252c0 62 -26.333 93 -79 93
c-38 0 -65.333 -16.333 -82 -49c-6.66699 -13.333 -10 -33 -10 -59v-237c0 -15.333 2.5 -25.5 7.5 -30.5s13.167 -8.16699 24.5 -9.5l21 -2v-38h-257v38l21 2c11.333 1.33301 19.5 4.5 24.5 9.5s7.5 15.167 7.5 30.5v532c-4 21.333 -12.5 40.666 -25.5 57.999
s-31.5 26 -55.5 26c-60 0 -90 -50 -90 -150v-56h103v-50h-103v-360c0 -15.333 2.5 -25.5 7.5 -30.5s13.167 -8.16699 24.5 -9.5l21 -2v-38h-269z" />
    <glyph glyph-name="f_j" unicode="fj" horiz-adv-x="628" 
d="M27 0l-0.00195312 38c28.667 1.33301 46.667 4.66602 54 9.99902s11 18.333 11 39v353h-63v50h63v25c0 71.333 20 127 60 167s102.333 60 187 60c68 0 120.333 -12.167 157 -36.5s55 -51.166 55 -80.499c0 -19.333 -8 -35 -24 -47s-35 -18 -57 -18
c-13.333 0 -24.166 2.5 -32.499 7.5s-13.833 10.167 -16.5 15.5s-5.66699 13 -9 23c-21.333 60 -49 90 -83 90c-22.667 0 -42.667 -11.667 -60 -35s-26 -64.666 -26 -123.999v-47h96c45.333 0 117 4 215 12l7 -6v-471c0 -116 -31 -190.333 -93 -223
c-43.333 -22.667 -99.333 -34 -168 -34l-4 31c34.667 11.333 59.334 26.333 74.001 45c26.667 34 40 96.333 40 187v358c0 21.333 -2.5 35.166 -7.5 41.499s-15.5 9.5 -31.5 9.5h-128v-360c0 -15.333 2.5 -25.5 7.5 -30.5s13.167 -8.16699 24.5 -9.5l21 -2v-38h-269z" />
    <glyph glyph-name="f_k" unicode="fk" horiz-adv-x="912" 
d="M27 0v38.002c28.667 1.33301 46.667 4.66602 54 9.99902s11 18.333 11 39v353h-63v50h63v26c0 70.667 21 126 63 166s100.667 60 176 60c50 0 95 -10.333 135 -31l92 31l7 -6v-464h2l72 102c39.333 54 60 82.667 62 86c16.667 20 36.334 30 59.001 30h145v-32
c-69.333 -14.667 -135.333 -52.334 -198 -113.001l-22 -22c57.333 -90.667 116 -169.667 176 -237c26 -30 47.333 -48 64 -54v-32h-90c-37.333 0 -67 4.16699 -89 12.5s-41.667 23.833 -59 46.5c-41.333 54.667 -81.333 119.667 -120 195h-2v-167
c0 -20.667 3.66699 -33.667 11 -39s25.333 -8.66602 54 -9.99902v-38h-269v38l21 2c11.333 1.33301 19.5 4.5 24.5 9.5s7.5 15.167 7.5 30.5v532c-4 21.333 -12.5 40.666 -25.5 57.999s-31.5 26 -55.5 26c-24.667 0 -45.834 -11.5 -63.501 -34.5s-26.5 -62.5 -26.5 -118.5
v-53h103v-50h-103v-360c0 -15.333 2.5 -25.5 7.5 -30.5s13.167 -8.16699 24.5 -9.5l21 -2v-38h-269z" />
    <glyph glyph-name="ff" unicode="ff" horiz-adv-x="664" 
d="M27 0v38.002c28.667 1.33301 46.667 4.66602 54 9.99902s11 18.333 11 39v353h-63v50h63v33c0 66 15.167 116.667 45.5 152s69.833 53 118.5 53c43.333 0 77.333 -10.333 102 -31s37 -41 37 -61c0 -16.667 -7.16699 -30.167 -21.5 -40.5s-30.5 -15.5 -48.5 -15.5
c-21.333 0 -35.666 10 -42.999 30c-9.33301 28 -17.333 47.333 -24 58s-14 16 -22 16c-12.667 0 -19 -12.333 -19 -37c0 -11.333 4.33301 -36.333 13 -75s13 -66 13 -82h171v36c0 67.333 16.5 120.166 49.5 158.499s76.833 57.5 131.5 57.5
c50 0 87.167 -9.83301 111.5 -29.5s36.5 -40.834 36.5 -63.501c0 -16 -7.83301 -29.667 -23.5 -41s-32.167 -17 -49.5 -17c-18.667 0 -33.667 10 -45 30c-16 30 -27.833 50 -35.5 60s-15.167 15 -22.5 15c-6.66699 0 -12.334 -3.66699 -17.001 -11s-7 -17.333 -7 -30
c0 -11.333 3.66699 -37.5 11 -78.5s11 -69.833 11 -86.5h103v-50h-103v-353c0 -20.667 4.16699 -33.667 12.5 -39s30.5 -8.66602 66.5 -9.99902v-38h-283v38l21 2c11.333 1.33301 19.5 4.5 24.5 9.5s7.5 15.167 7.5 30.5v360h-171v-360c0 -15.333 2.5 -25.5 7.5 -30.5
s13.167 -8.16699 24.5 -9.5l21 -2v-38h-269z" />
    <glyph glyph-name="fi" unicode="fi" horiz-adv-x="639" 
d="M27 0l-0.000976562 37.999c28.667 1.33301 46.667 4.66602 54 9.99902s11 18.333 11 39v353h-63v50h63v25c0 72 20.167 127.833 60.5 167.5s103.5 59.5 189.5 59.5c69.333 0 122.5 -12.167 159.5 -36.5s55.5 -51.166 55.5 -80.499c0 -19.333 -8 -35 -24 -47
s-35 -18 -57 -18c-13.333 0 -24.166 2.5 -32.499 7.5s-13.833 10.167 -16.5 15.5s-5.66699 13 -9 23c-21.333 60 -50 90 -86 90c-24 0 -44.833 -11.667 -62.5 -35s-26.5 -64.666 -26.5 -123.999v-47h100c45.333 0 117 4 215 12l7 -6v-409c0 -20.667 3.66699 -33.667 11 -39
s25.333 -8.66602 54 -9.99902v-38h-269v38l21 2c11.333 1.33301 19.5 4.5 24.5 9.5s7.5 15.167 7.5 30.5v309c0 21.333 -2.5 35.166 -7.5 41.499s-15.5 9.5 -31.5 9.5h-132v-360c0 -15.333 2.5 -25.5 7.5 -30.5s13.167 -8.16699 24.5 -9.5l21 -2v-38h-269z" />
    <glyph glyph-name="fl" unicode="fl" horiz-adv-x="639" 
d="M27 0v38.001c28.667 1.33301 46.667 4.66602 54 9.99902s11 18.333 11 39v353h-63v50h63v29c0 71.333 20.333 126.333 61 165s100 58 178 58c50 0 95 -10.333 135 -31l92 31l7 -6v-649c0 -20.667 3.66699 -33.667 11 -39s25.333 -8.66602 54 -9.99902v-38h-269v38l21 2
c11.333 1.33301 19.5 4.5 24.5 9.5s7.5 15.167 7.5 30.5v532c-4 21.333 -12.5 40.666 -25.5 57.999s-31.5 26 -55.5 26c-60 0 -90 -50 -90 -150v-56h103v-50h-103v-360c0 -15.333 2.5 -25.5 7.5 -30.5s13.167 -8.16699 24.5 -9.5l21 -2v-38h-269z" />
    <glyph glyph-name="ffi" unicode="ffi" horiz-adv-x="961" 
d="M27 0l-0.00195312 37.999c28.667 1.33301 46.667 4.66602 54 9.99902s11 18.333 11 39v353h-63v50h63v33c0 66 15.167 116.667 45.5 152s69.833 53 118.5 53c43.333 0 77.333 -10.333 102 -31s37 -41 37 -61c0 -16.667 -7.16699 -30.167 -21.5 -40.5
s-30.5 -15.5 -48.5 -15.5c-21.333 0 -35.666 10 -42.999 30c-9.33301 28 -17.333 47.333 -24 58s-14 16 -22 16c-12.667 0 -19 -12.333 -19 -37c0 -11.333 4.33301 -36.333 13 -75s13 -66 13 -82h171v25c0 72 20.167 127.833 60.5 167.5s103.5 59.5 189.5 59.5
c69.333 0 122.5 -12.167 159.5 -36.5s55.5 -51.166 55.5 -80.499c0 -19.333 -8 -35 -24 -47s-35 -18 -57 -18c-13.333 0 -24.166 2.5 -32.499 7.5s-13.833 10.167 -16.5 15.5s-5.66699 13 -9 23c-21.333 60 -50 90 -86 90c-24 0 -44.833 -11.667 -62.5 -35
s-26.5 -64.666 -26.5 -123.999v-47h100c45.333 0 117 4 215 12l7 -6v-409c0 -20.667 3.66699 -33.667 11 -39s25.333 -8.66602 54 -9.99902v-38h-269v38l21 2c11.333 1.33301 19.5 4.5 24.5 9.5s7.5 15.167 7.5 30.5v309c0 21.333 -2.5 35.166 -7.5 41.499
s-15.5 9.5 -31.5 9.5h-132v-360c0 -15.333 2.5 -25.5 7.5 -30.5s13.167 -8.16699 24.5 -9.5l21 -2v-38h-257v38l21 2c11.333 1.33301 19.5 4.5 24.5 9.5s7.5 15.167 7.5 30.5v360h-171v-360c0 -15.333 2.5 -25.5 7.5 -30.5s13.167 -8.16699 24.5 -9.5l21 -2v-38h-269z" />
    <glyph glyph-name="ffl" unicode="ffl" horiz-adv-x="961" 
d="M27 0l-0.000976562 38.001c28.667 1.33301 46.667 4.66602 54 9.99902s11 18.333 11 39v353h-63v50h63v33c0 66 15.167 116.667 45.5 152s69.833 53 118.5 53c43.333 0 77.333 -10.333 102 -31s37 -41 37 -61c0 -16.667 -7.16699 -30.167 -21.5 -40.5
s-30.5 -15.5 -48.5 -15.5c-21.333 0 -35.666 10 -42.999 30c-9.33301 28 -17.333 47.333 -24 58s-14 16 -22 16c-12.667 0 -19 -12.333 -19 -37c0 -11.333 4.33301 -36.333 13 -75s13 -66 13 -82h171v29c0 71.333 20.333 126.333 61 165s100 58 178 58
c50 0 95 -10.333 135 -31l92 31l7 -6v-649c0 -20.667 3.66699 -33.667 11 -39s25.333 -8.66602 54 -9.99902v-38h-269v38l21 2c11.333 1.33301 19.5 4.5 24.5 9.5s7.5 15.167 7.5 30.5v532c-4 21.333 -12.5 40.666 -25.5 57.999s-31.5 26 -55.5 26c-60 0 -90 -50 -90 -150
v-56h103v-50h-103v-360c0 -15.333 2.5 -25.5 7.5 -30.5s13.167 -8.16699 24.5 -9.5l21 -2v-38h-257v38l21 2c11.333 1.33301 19.5 4.5 24.5 9.5s7.5 15.167 7.5 30.5v360h-171v-360c0 -15.333 2.5 -25.5 7.5 -30.5s13.167 -8.16699 24.5 -9.5l21 -2v-38h-269z" />
    <glyph glyph-name=".notdef" horiz-adv-x="608" 
d="M90 0v692h428v-692h-428zM133 93l147 253l-147 254v-507zM153 43h302l-151 261zM153 649l151 -260l150 260h-301zM328 346l147 -253v507z" />
    <glyph glyph-name=".notdef" horiz-adv-x="608" 
d="M90 0v692h428v-692h-428zM133 93l147 253l-147 254v-507zM153 43h302l-151 261zM153 649l151 -260l150 260h-301zM328 346l147 -253v507z" />
    <glyph glyph-name="space" unicode=" " horiz-adv-x="210" 
 />
    <glyph glyph-name="exclam" unicode="!" horiz-adv-x="278" 
d="M57 592c-6 42.667 -4 72.5 6 89.5s35.333 25.5 76 25.5c41.333 0 67 -8.5 77 -25.5s12 -46.833 6 -89.5l-51 -373h-64zM46 81c0 27.333 8.66699 49.666 26 66.999s39.666 26 66.999 26s49.666 -8.66699 66.999 -26s26 -39.666 26 -66.999s-8.66699 -49.666 -26 -66.999
s-39.666 -26 -66.999 -26s-49.666 8.66699 -66.999 26s-26 39.666 -26 66.999z" />
    <glyph glyph-name="quotedbl" unicode="&#x22;" horiz-adv-x="473" 
d="M266 630c-5.33301 26.667 -3.16699 46.167 6.5 58.5s29.5 18.5 59.5 18.5s50 -6 60 -18s12.333 -31.667 7 -59l-44 -223h-46zM73.999 630c-5.33301 26.667 -3.16699 46.167 6.5 58.5s29.5 18.5 59.5 18.5s50 -6 60 -18s12.333 -31.667 7 -59l-44 -223h-46z" />
    <glyph glyph-name="numbersign" unicode="#" 
d="M14 219v72h117l32 107h-96v72h118l59 198h76l-59 -198h113l59 198h75l-59 -198h98v-72h-120l-32 -107h99v-72h-120l-65 -219h-76l66 219h-112l-66 -219h-77l66 219h-96zM208 291h112l32 107h-112z" />
    <glyph glyph-name="dollar" unicode="$" 
d="M38 122c0 20 8.16797 37.0029 24.501 51.0029s32.166 21 47.499 21c20.667 0 35.334 -10.667 44.001 -32c28 -70.667 59.333 -109.334 94 -116.001v235l-52 19c-104.667 39.333 -157 98.666 -157 177.999c0 60 19.5 106.167 58.5 138.5s89.167 49.5 150.5 51.5v80h56v-80
c60 -1.33301 107 -13.833 141 -37.5s51 -47.834 51 -72.501c0 -20.667 -8.66699 -36 -26 -46s-33.333 -15 -48 -15c-18.667 0 -31.334 9 -38.001 27c-22 59.333 -48.667 92 -80 98v-206l46 -17c57.333 -22 100.5 -48.167 129.5 -78.5s43.833 -71.5 44.5 -123.5
c-0.666992 -65.333 -23.834 -114.5 -69.501 -147.5s-95.834 -49.5 -150.501 -49.5v-104h-56v104c-39.333 1.33301 -73.666 6.83301 -102.999 16.5s-51.166 21.167 -65.499 34.5s-24.833 26 -31.5 38s-10 23 -10 33zM161.001 530.003
c0 -22.667 7.99902 -42.002 23.999 -58.002s37 -27.333 63 -34v184c-25.333 -1.33301 -46.166 -10.666 -62.499 -27.999s-24.5 -38.666 -24.5 -63.999zM304 46.001c27.333 0 49.333 8.33203 66 24.999s25 39.334 25 68.001c0 58.667 -30.333 99.667 -91 123v-216z" />
    <glyph glyph-name="percent" unicode="%" horiz-adv-x="887" 
d="M40 494c0 124 58.667 186.002 176 186.002c42 0 82.333 -11.333 121 -34c16 -8.66699 31 -13 45 -13h144c27.333 0 46.333 2.5 57 7.5s21 14.833 31 29.5l21 31l47 -33l-430 -699l-47 37l359 584h-186c9.33301 -30.667 14 -62.667 14 -96
c0 -60.667 -15.667 -106.834 -47 -138.501s-76.333 -47.5 -135 -47.5c-55.333 0 -97.5 15.667 -126.5 47s-43.5 77.666 -43.5 138.999zM154 494.002c0 -97.333 20.667 -146 62 -146s62 48.667 62 146c0 53.333 -5.33301 91 -16 113s-26 33 -46 33
c-41.333 0 -62 -48.667 -62 -146zM495 174.002c0 124 59 186 177 186c116.667 0 175 -62 175 -186s-58.333 -186 -175 -186c-118 0 -177 62 -177 186zM609 174.002c0 -97.333 21 -146 63 -146c40.667 0 61 48.667 61 146s-20.333 146 -61 146c-42 0 -63 -48.667 -63 -146z
" />
    <glyph glyph-name="ampersand" unicode="&#x26;" horiz-adv-x="748" 
d="M45 186c0 72.667 46.999 130.334 140.999 173.001c-38 50 -57 97 -57 141c0 53.333 17.333 96.666 52 129.999s80.334 50 137.001 50c50.667 0 92.334 -13.667 125.001 -41s49 -63.333 49 -108c0 -38 -12 -69 -36 -93s-56.667 -45.667 -98 -65
c46.667 -54 106 -116 178 -186c36.667 46 44.667 117 24 213c14 14 32 25 54 33s41 11.333 57 10c20.667 -20 31 -49.333 31 -88c0 -32 -12.833 -67.5 -38.5 -106.5s-53.5 -71.833 -83.5 -98.5c71.333 -70 122.666 -112 153.999 -126l-4 -31l-46 1
c-76 2.66699 -141 23.667 -195 63c-64 -46 -135.667 -69 -215 -69c-64.667 0 -119 17.5 -163 52.5s-66 83.5 -66 145.5zM190.999 218c0 -45.333 15.1689 -82.666 45.502 -111.999s67.166 -44 110.499 -44c45.333 0 77.666 9.66699 96.999 29c-79.333 64 -153 137 -221 219
c-21.333 -18.667 -32 -49.334 -32 -92.001zM253.001 549c0 -46 21.334 -91.001 64.001 -135.001c37.333 28.667 56 71.334 56 128.001c0 28 -6 50.333 -18 67s-26 25 -42 25c-16.667 0 -30.834 -7.83301 -42.501 -23.5s-17.5 -36.167 -17.5 -61.5z" />
    <glyph glyph-name="quotesingle" unicode="'" horiz-adv-x="252" 
d="M60 630c-5.33301 26.667 -3.16699 46.167 6.5 58.5s29.5 18.5 59.5 18.5s50 -6 60 -18s12.333 -31.667 7 -59l-44 -223h-46z" />
    <glyph glyph-name="parenleft" unicode="(" horiz-adv-x="365" 
d="M99 282c0 36.667 1.66699 71.665 5 104.998s10.166 69.5 20.499 108.5s23.833 72.667 40.5 101s40 52.333 70 72s64.667 29.834 104 30.501l5 -34c-27.333 -8 -51 -26.667 -71 -56s-35 -64 -45 -104s-17.167 -78.333 -21.5 -115s-6.5 -72.667 -6.5 -108
s2.16699 -71.333 6.5 -108s11.5 -75 21.5 -115s25 -74.667 45 -104s43.667 -48 71 -56l-5 -34c-39.333 0.666992 -74 10.834 -104 30.501s-53.333 43.667 -70 72s-30.167 62 -40.5 101s-17.166 75.167 -20.499 108.5s-5 68.333 -5 105z" />
    <glyph glyph-name="parenright" unicode=")" horiz-adv-x="365" 
d="M21 -101c27.333 8 51 26.502 71 55.502s35 63.5 45 103.5s17.167 78.5 21.5 115.5s6.5 73.167 6.5 108.5s-2.16699 71.5 -6.5 108.5s-11.5 75.5 -21.5 115.5s-25 74.5 -45 103.5s-43.667 47.5 -71 55.5l5 34c39.333 -0.666992 74 -10.834 104 -30.501
s53.333 -43.667 70 -72s30.167 -62 40.5 -101s17.166 -75.167 20.499 -108.5s5 -68.333 5 -105s-1.66699 -71.667 -5 -105s-10.166 -69.5 -20.499 -108.5s-23.833 -72.667 -40.5 -101s-40 -52.333 -70 -72s-64.667 -29.834 -104 -30.501z" />
    <glyph glyph-name="asterisk" unicode="*" horiz-adv-x="442" 
d="M51 408c-9.33301 13.333 -12.3311 26.335 -8.99805 39.002s12.333 21.334 27 26.001l98 30c6 1.33301 9 4.66602 9 9.99902s-3.33301 9.33301 -10 12l-97 33c-33.333 11.333 -39 32.666 -17 63.999c17.333 26 36.666 29.667 57.999 11l70 -65
c6.66699 -6 12 -7.33301 16 -4s4.66699 9.33301 2 18l-21 83c-3.33301 13.333 -1 23.666 7 30.999s20.333 11 37 11s29 -3.66699 37 -11s10.333 -17.666 7 -30.999l-21 -83c-2 -8.66699 -1.16699 -14.667 2.5 -18s8.83398 -2 15.501 4l70 65
c21.333 18.667 40.666 15 57.999 -11c22 -32 16.333 -53.333 -17 -64l-96 -33c-7.33301 -2.66699 -10.833 -6.66699 -10.5 -12s3.5 -8.66602 9.5 -9.99902l97 -30c15.333 -4.66699 24.5 -13.334 27.5 -26.001s-0.166992 -25.667 -9.5 -39
c-20.667 -31.333 -43 -34.333 -67 -9l-62 63c-5.33301 6 -10.166 7.16699 -14.499 3.5s-5.5 -9.16699 -3.5 -16.5l22 -85c4 -14 2.16699 -25.667 -5.5 -35s-20.834 -14 -39.501 -14s-31.834 4.66699 -39.501 14s-9.5 21 -5.5 35l23 85
c2 7.33301 0.833008 12.666 -3.5 15.999s-9.16602 2.33301 -14.499 -3l-62 -63c-24.667 -25.333 -47.334 -22.333 -68.001 9z" />
    <glyph glyph-name="plus" unicode="+" horiz-adv-x="600" 
d="M58 210v80h194v200h96v-200h194v-80h-194v-210h-96v210h-194z" />
    <glyph glyph-name="comma" unicode="," horiz-adv-x="280" 
d="M40 -138c40 44.667 60 88 60 130c0 16 -6.66699 35.333 -20 58s-20 41.667 -20 57c0 20 6.5 37.167 19.5 51.5s31.167 21.5 54.5 21.5c26.667 0 48.667 -10.333 66 -31s26 -48.667 26 -84c0 -70.667 -52 -148 -156 -232z" />
    <glyph glyph-name="hyphen" unicode="-" horiz-adv-x="392" 
d="M65 203v95h263v-95h-263z" />
    <glyph glyph-name="period" unicode="." horiz-adv-x="280" 
d="M47 81c0 27.333 8.66699 49.666 26 66.999s39.666 26 66.999 26s49.666 -8.66699 66.999 -26s26 -39.666 26 -66.999s-8.66699 -49.666 -26 -66.999s-39.666 -26 -66.999 -26s-49.666 8.66699 -66.999 26s-26 39.666 -26 66.999z" />
    <glyph glyph-name="slash" unicode="/" horiz-adv-x="378" 
d="M34 -15l210 722h100l-210 -722h-100z" />
    <glyph glyph-name="zero" unicode="0" 
d="M31 334c0 48 4.33301 92 13 132s22.334 76.333 41.001 109s44.5 58.334 77.5 77.001s72.167 28 117.5 28s84.5 -9.33301 117.5 -28s58.833 -44.334 77.5 -77.001s32.334 -69 41.001 -109s13 -84 13 -132s-4.33301 -92 -13 -132s-22.334 -76.333 -41.001 -109
s-44.5 -58.334 -77.5 -77.001s-72.167 -28 -117.5 -28s-84.5 9.33301 -117.5 28s-58.833 44.334 -77.5 77.001s-32.334 69 -41.001 109s-13 84 -13 132zM189 334c0 -200 30.333 -300 91 -300s91 100 91 300s-30.333 300 -91 300s-91 -100 -91 -300z" />
    <glyph glyph-name="one" unicode="1" 
d="M102 0v37.999l68 6c12.667 1.33301 21.667 4.66602 27 9.99902s8 15.666 8 30.999v462c0 17.333 -2.5 29.333 -7.5 36s-14.167 11.334 -27.5 14.001l-62 13v31l239 39l9 -8v-587c0 -15.333 2.66699 -25.666 8 -30.999s14.333 -8.66602 27 -9.99902l68 -6v-38h-357z" />
    <glyph glyph-name="two" unicode="2" 
d="M30 18c2 74 65.668 162.334 191.001 265.001c50.667 42 84.5 81.333 101.5 118s25.5 75 25.5 115c0 36 -6.16699 64.667 -18.5 86s-30.833 32 -55.5 32c-46 0 -78.333 -44 -97 -132c-5.33301 -25.333 -20 -38 -44 -38c-20 0 -39.167 5.83301 -57.5 17.5
s-27.5 27.5 -27.5 47.5c0 43.333 22.333 79.333 67 108s100 43 166 43c68.667 0 123.5 -15.333 164.5 -46s61.5 -78.667 61.5 -144c0 -48.667 -14.333 -88.834 -43 -120.501s-75 -64.5 -139 -98.5c-80.667 -42.667 -134 -92.667 -160 -150h255
c21.333 0 37.166 3.5 47.499 10.5s22.5 23.167 36.5 48.5l35 -5l-40 -175h-455z" />
    <glyph glyph-name="three" unicode="3" 
d="M27 119c0 21.333 9.00391 38.835 27.0039 52.502s37 20.5 57 20.5c22 0 36.667 -11.333 44 -34c25.333 -82.667 61.666 -124 108.999 -124c62 0 93 50.667 93 152c0 56 -9.16699 94.167 -27.5 114.5s-42.5 30.5 -72.5 30.5c-14.667 0 -32.834 -2.33301 -54.501 -7
s-35.5 -7 -41.5 -7c-19.333 0 -29 13.667 -29 41s9.66699 41 29 41c6 0 20 -2.33301 42 -7s40 -7 54 -7c17.333 0 31.666 4.83301 42.999 14.5s19.333 22.5 24 38.5s7.83398 30 9.50098 42s2.5 24.333 2.5 37c0 17.333 -1.5 33.833 -4.5 49.5s-10.167 30.834 -21.5 45.501
s-26.333 22 -45 22c-22.667 0 -41.5 -9.33301 -56.5 -28s-28.167 -47.667 -39.5 -87c-7.33301 -23.333 -21.333 -35 -42 -35c-16 0 -33 5.5 -51 16.5s-27 26.5 -27 46.5c0 37.333 21.167 68.833 63.5 94.5s93.166 38.5 152.499 38.5c28.667 0 55.167 -2.5 79.5 -7.5
s48.166 -13.5 71.499 -25.5s41.666 -29.667 54.999 -53s20 -51.333 20 -84c0 -71.333 -46.333 -119.333 -139 -144v-4c10.667 -2 21.5 -4.33301 32.5 -7s25.167 -8.33398 42.5 -17.001s32.333 -19 45 -31s23.667 -28.833 33 -50.5s14 -45.834 14 -72.501
c0 -62.667 -22.667 -111 -68 -145s-109 -51 -191 -51c-42.667 0 -80.167 4.83301 -112.5 14.5s-56.666 22 -72.999 37s-28.333 29.167 -36 42.5s-11.5 25.666 -11.5 36.999z" />
    <glyph glyph-name="four" unicode="4" 
d="M19 203c97.333 166 195.333 321 294 465h120v-426h100v-69h-100v-98c0 -20 8.66699 -31 26 -33l47 -4v-38h-307v38l67 5c17.333 1.33301 26 12 26 32v98h-254zM123 242h169v297h-2c-68 -112 -123.667 -211 -167 -297z" />
    <glyph glyph-name="five" unicode="5" 
d="M43 119c0 20.667 8.32812 37.999 24.9951 51.999s33.667 21 51 21c24.667 0 41 -12.667 49 -38c14 -43.333 29.167 -74.166 45.5 -92.499s35.5 -27.5 57.5 -27.5c59.333 0 89 55.333 89 166c0 56 -10.667 97.667 -32 125s-50 41 -86 41c-48 0 -90.333 -22.667 -127 -68
l-41 30l20 331l8 9h383l10 -14l-39 -107h-266c-13.333 0 -21.833 -2.16699 -25.5 -6.5s-6.83398 -15.166 -9.50098 -32.499l-19 -134c54.667 38 108.334 57 161.001 57c42.667 0 79.334 -6.83301 110.001 -20.5s53.667 -31.834 69 -54.501s26.333 -45.5 33 -68.5
s10 -47.167 10 -72.5c0 -67.333 -20.167 -122 -60.5 -164s-104.166 -63 -191.499 -63c-41.333 0 -77.666 5 -108.999 15s-54.666 22.5 -69.999 37.5s-26.666 29.167 -33.999 42.5s-11 25.333 -11 36z" />
    <glyph glyph-name="six" unicode="6" 
d="M30 326c0 87.333 15.334 161.333 46.001 222c46 88 123.667 132 233 132c60.667 0 108 -13 142 -39s51 -54 51 -84c0 -18.667 -8.5 -33.334 -25.5 -44.001s-33.5 -16 -49.5 -16c-23.333 0 -38 10.333 -44 31c-19.333 70.667 -48.333 106 -87 106
c-70 0 -107 -95.333 -111 -286h2c46.667 54.667 97.667 82 153 82s102 -18.167 140 -54.5s57 -88.166 57 -155.499c0 -66 -20.833 -121.167 -62.5 -165.5s-104.834 -66.5 -189.501 -66.5c-170 0 -255 112.667 -255 338zM184.001 234c0 -58 8.83398 -105.834 26.501 -143.501
s43.5 -56.5 77.5 -56.5c32.667 0 56.667 14.5 72 43.5s23 67.833 23 116.5c0 52.667 -9.33301 91.5 -28 116.5s-43.334 37.5 -74.001 37.5c-30 0 -53.667 -11.167 -71 -33.5s-26 -49.166 -26 -80.499z" />
    <glyph glyph-name="seven" unicode="7" 
d="M34 499l43 168.999h440l13 -12c-7.33301 -46 -21.5 -89.5 -42.5 -130.5s-56.833 -98.5 -107.5 -172.5c-41.333 -59.333 -63.666 -160 -66.999 -302c-0.666992 -42 -26 -63 -76 -63c-26 0 -46.5 4.5 -61.5 13.5s-22.5 26.5 -22.5 52.5c0 78 46.667 173.333 140 286
c55.333 66.667 93.666 135.667 114.999 207h-262c-20 0 -34.333 -3.16699 -43 -9.5s-16.667 -16.166 -24 -29.499l-10 -19z" />
    <glyph glyph-name="eight" unicode="8" 
d="M27 189c0 44 11.668 80.668 35.001 110.001s55.666 50.333 96.999 63v2c-71.333 21.333 -107 67 -107 137c0 56.667 20.333 100.667 61 132s96.334 47 167.001 47c72 0 128 -15.333 168 -46s60 -75 60 -133c0 -36 -9.66699 -65.5 -29 -88.5s-45.333 -39.5 -78 -49.5v-2
c41.333 -12 73.666 -32.667 96.999 -62s35 -66 35 -110c0 -70 -23.667 -121 -71 -153s-108 -48 -182 -48c-73.333 0 -133.833 16.167 -181.5 48.5s-71.5 83.166 -71.5 152.499zM185.001 186.001c0 -46 8.16699 -82.833 24.5 -110.5s39.833 -41.5 70.5 -41.5
s54.167 13.833 70.5 41.5s24.5 64.5 24.5 110.5c0 42.667 -8.33301 77.667 -25 105s-40 41 -70 41s-53.333 -13.667 -70 -41s-25 -62.333 -25 -105zM200.001 506.001c0 -36.667 7.33301 -66.832 22 -90.499s34 -35.5 58 -35.5c25.333 0 45 11.667 59 35s21 53.666 21 90.999
c0 38 -7 68.833 -21 92.5s-33.667 35.5 -59 35.5c-24.667 0 -44.167 -12 -58.5 -36s-21.5 -54.667 -21.5 -92z" />
    <glyph glyph-name="nine" unicode="9" 
d="M34 454c0 65.333 21.168 119.333 63.501 162s100.5 64 174.5 64c90 0 155.667 -29.667 197 -89c36 -53.333 54 -133 54 -239c0 -137.333 -26.333 -235 -79 -293c-42.667 -47.333 -106.667 -71 -192 -71c-66.667 0 -117 13.5 -151 40.5s-51 53.167 -51 78.5
c0 19.333 8.16699 35.666 24.5 48.999s32.833 20 49.5 20c23.333 0 38.666 -10.667 45.999 -32c14 -41.333 28 -69.666 42 -84.999s30.667 -23 50 -23c14.667 0 27.5 3.66699 38.5 11s21.833 20.5 32.5 39.5s19 47.833 25 86.5s9.66699 86.667 11 144h-2
c-40 -41.333 -83.667 -62 -131 -62c-57.333 0 -105.333 17.167 -144 51.5s-58 83.5 -58 147.5zM188.001 478c0 -43.333 9 -78.668 27 -106.001s43 -41 75 -41c30 0 52.667 12.667 68 38c8 12.667 12 34 12 64c0 60.667 -8 109.334 -24 146.001s-38.333 55 -67 55
s-51 -14 -67 -42s-24 -66 -24 -114z" />
    <glyph glyph-name="colon" unicode=":" horiz-adv-x="280" 
d="M47 81c0 27.333 8.66699 49.666 26 66.999s39.666 26 66.999 26s49.666 -8.66699 66.999 -26s26 -39.666 26 -66.999s-8.66699 -49.666 -26 -66.999s-39.666 -26 -66.999 -26s-49.666 8.66699 -66.999 26s-26 39.666 -26 66.999zM47 397
c0 27.333 8.66699 49.666 26 66.999s39.666 26 66.999 26s49.666 -8.66699 66.999 -26s26 -39.666 26 -66.999s-8.66699 -49.666 -26 -66.999s-39.666 -26 -66.999 -26s-49.666 8.66699 -66.999 26s-26 39.666 -26 66.999z" />
    <glyph glyph-name="semicolon" unicode=";" horiz-adv-x="280" 
d="M47 397c0 27.333 8.66699 49.666 26 66.999s39.666 26 66.999 26s49.666 -8.66699 66.999 -26s26 -39.666 26 -66.999s-8.66699 -49.666 -26 -66.999s-39.666 -26 -66.999 -26s-49.666 8.66699 -66.999 26s-26 39.666 -26 66.999zM40 -138c40 44.667 60 88 60 130
c0 16 -6.66699 35.333 -20 58s-20 41.667 -20 57c0 20 6.5 37.167 19.5 51.5s31.167 21.5 54.5 21.5c26.667 0 48.667 -10.333 66 -31s26 -48.667 26 -84c0 -70.667 -52 -148 -156 -232z" />
    <glyph glyph-name="less" unicode="&#x3c;" horiz-adv-x="600" 
d="M61 206v83l478 204v-91l-381 -154l381 -153v-90z" />
    <glyph glyph-name="equal" unicode="=" horiz-adv-x="600" 
d="M58 103v80h484v-80h-484zM58 317v80h484v-80h-484z" />
    <glyph glyph-name="greater" unicode="&#x3e;" horiz-adv-x="600" 
d="M61 5v90l381 153l-381 154v91l478 -204v-83z" />
    <glyph glyph-name="question" unicode="?" horiz-adv-x="456" 
d="M20 582c0 29.333 18.668 57.5 56.001 84.5s88.333 40.5 153 40.5c61.333 0 110.666 -12.667 147.999 -38s56 -62 56 -110c0 -16.667 -3 -31.667 -9 -45s-15.667 -25.333 -29 -36s-23.833 -18.334 -31.5 -23.001s-19.5 -11.334 -35.5 -20.001
c-49.333 -25.333 -74 -54.666 -74 -87.999c0 -15.333 5.66699 -28 17 -38s26.666 -15 45.999 -15c16.667 0 32.334 2 47.001 6l11 -27c-48.667 -32.667 -99 -49 -151 -49c-38.667 0 -71.334 9.16699 -98.001 27.5s-40 44.5 -40 78.5c0 36.667 28.667 72.334 86 107.001
c62.667 38.667 94 87.667 94 147c0 22.667 -3.66699 41.167 -11 55.5s-17.333 21.5 -30 21.5c-13.333 0 -25.166 -8.33301 -35.499 -25s-20.5 -45 -30.5 -85c-6 -24.667 -24 -37 -54 -37c-19.333 0 -38.333 6.16699 -57 18.5s-28 28.833 -28 49.5zM131.001 81
c0 27.333 8.66699 49.666 26 66.999s39.666 26 66.999 26s49.666 -8.66699 66.999 -26s26 -39.666 26 -66.999s-8.66699 -49.666 -26 -66.999s-39.666 -26 -66.999 -26s-49.666 8.66699 -66.999 26s-26 39.666 -26 66.999z" />
    <glyph glyph-name="at" unicode="@" horiz-adv-x="833" 
d="M45 307c0 80.667 20.1641 151.832 60.4971 213.499s92.5 108.167 156.5 139.5s134 47 210 47c98 0 176.667 -28.167 236 -84.5s89 -125.833 89 -208.5c0 -29.333 -4.83301 -58.5 -14.5 -87.5s-23.667 -56 -42 -81s-42.833 -45.333 -73.5 -61s-65 -23.5 -103 -23.5
c-39.333 0 -65 9.16699 -77 27.5s-14.667 40.5 -8 66.5l12 54l-3 2c-47.333 -100 -108.666 -150 -183.999 -150c-25.333 0 -45 8.33301 -59 25s-21 38.334 -21 65.001c0 22 4.83301 48.167 14.5 78.5s24 62.166 43 95.499s47 61.5 84 84.5s78.833 34.5 125.5 34.5
c18 0 33.667 -3.33301 47 -10l3 6h110c-32 -115.333 -56 -209 -72 -281c-6.66699 -30.667 3.66602 -46 30.999 -46c32 0 58.667 22.5 80 67.5s32 87.833 32 128.5c0 75.333 -24.5 133.833 -73.5 175.5s-110.5 62.5 -184.5 62.5c-86 0 -159.167 -33.833 -219.5 -101.5
s-90.5 -147.167 -90.5 -238.5c0 -30 4.66699 -59.5 14 -88.5s23.833 -57.5 43.5 -85.5s48.334 -50.667 86.001 -68s81.834 -26 132.501 -26c66.667 0 127.334 11.667 182.001 35l11 -35c-24.667 -17.333 -57 -30.666 -97 -39.999s-77 -14 -111 -14
c-106.667 0 -195 27.5 -265 82.5s-105 134.833 -105 239.5zM345.997 252.998c0 -26.667 7.66797 -39.999 23.001 -39.999c17.333 0 39 21.667 65 65s45.333 84 58 122l36 98c-7.33301 5.33301 -17 8 -29 8c-26.667 0 -52.334 -16.833 -77.001 -50.5
s-43.5 -69.834 -56.5 -108.501s-19.5 -70 -19.5 -94z" />
    <glyph glyph-name="A" unicode="A" horiz-adv-x="644" 
d="M-28 0v38.002c27.333 1.33301 45.666 5.16602 54.999 11.499s18 19.833 26 40.5c2 6 33 94.333 93 265l116 337h126l197 -606c6.66699 -20 14.667 -32.833 24 -38.5s27.333 -8.83398 54 -9.50098v-38h-316v38l58 6c18.667 2 24.334 14 17.001 36l-52 166h-194
c-26.667 -87.333 -42.667 -143 -48 -167c-3.33301 -10.667 -3.83301 -19.167 -1.5 -25.5s8.83301 -9.83301 19.5 -10.5l60 -5v-38h-234zM192 294.002h162l-78 259h-3z" />
    <glyph glyph-name="B" unicode="B" horiz-adv-x="683" 
d="M33 0l-0.000976562 38.0029c36 1.33301 58.167 5.16602 66.5 11.499s12.5 22.166 12.5 47.499v498c0 25.333 -4.16699 41.166 -12.5 47.499s-30.5 10.166 -66.5 11.499v38h330c82.667 0 145.834 -13 189.501 -39s65.5 -68.333 65.5 -127
c0 -82 -49.333 -133.667 -148 -155v-2c50.667 -7.33301 92.5 -26.166 125.5 -56.499s49.5 -71.5 49.5 -123.5c0 -59.333 -19 -104.333 -57 -135c-44.667 -36 -119.667 -54 -225 -54h-330zM271.999 111.003c0 -24 5.66797 -40.833 17.001 -50.5s29.666 -14.5 54.999 -14.5
c84 0 126 47.333 126 142c0 44.667 -12.5 81.667 -37.5 111s-61.5 44 -109.5 44h-51v-232zM272 389.003l48.999 0.000976562c46 0 80 11.667 102 35s33 54.666 33 93.999s-10.167 70.5 -30.5 93.5s-52.166 34.5 -95.499 34.5c-22 0 -37.167 -2.16699 -45.5 -6.5
s-12.5 -14.5 -12.5 -30.5v-220z" />
    <glyph glyph-name="C" unicode="C" horiz-adv-x="689" 
d="M42 339c0 111.333 28.666 198.999 85.999 262.999c62.667 70 161 105 295 105c94.667 0 166.334 -14.667 215.001 -44v-179h-38c-6 19.333 -11.333 35 -16 47s-12.167 27.167 -22.5 45.5s-21.5 32.833 -33.5 43.5s-27.833 20.167 -47.5 28.5s-41.834 12.5 -66.501 12.5
c-34 0 -63.833 -8.5 -89.5 -25.5s-45 -37.167 -58 -60.5s-23.333 -50.666 -31 -81.999s-12.334 -57.166 -14.001 -77.499s-2.5 -40.5 -2.5 -60.5c0 -21.333 1 -42.5 3 -63.5s5.33301 -44.5 10 -70.5s12 -49.667 22 -71s22 -41.333 36 -60s32.333 -33.167 55 -43.5
s48.334 -15.5 77.001 -15.5c51.333 0 90.833 16.5 118.5 49.5s52.834 82.167 75.501 147.5h38l-12 -195c-53.333 -32 -131.333 -48 -234 -48c-124 0 -216 31.167 -276 93.5s-90 149.166 -90 260.499z" />
    <glyph glyph-name="D" unicode="D" horiz-adv-x="777" 
d="M33 0l-0.00195312 38.002c36 1.33301 58.167 5.16602 66.5 11.499s12.5 22.166 12.5 47.499v498c0 25.333 -4.16699 41.166 -12.5 47.499s-30.5 10.166 -66.5 11.499v38h343c124 -0.666992 214.667 -29.334 272 -86.001c58 -57.333 87 -141.666 87 -252.999
c0 -46 -4.83301 -87.333 -14.5 -124s-22.167 -67.167 -37.5 -91.5s-34.666 -45.333 -57.999 -63s-46.166 -31.167 -68.499 -40.5s-48 -16.666 -77 -21.999s-54.167 -8.66602 -75.5 -9.99902s-45.333 -2 -72 -2h-299zM271.998 90.002c0 -16.667 5.66699 -28.167 17 -34.5
s32.333 -9.5 63 -9.5c28 0 52.833 3.83301 74.5 11.5s43.167 21.667 64.5 42s37.833 52 49.5 95s17.5 95.833 17.5 158.5c0 195.333 -67.667 293 -203 293c-32 0 -53.833 -1.83301 -65.5 -5.5s-17.5 -11.167 -17.5 -22.5v-528z" />
    <glyph glyph-name="E" unicode="E" horiz-adv-x="629" 
d="M33 0v38.0068c36 1.33301 58.167 5.16602 66.5 11.499s12.5 22.166 12.5 47.499v498c0 25.333 -4.16699 41.166 -12.5 47.499s-30.5 10.166 -66.5 11.499v38h539v-185h-38c-8.66699 28.667 -16.167 50.167 -22.5 64.5s-15 28 -26 41s-24.667 21.833 -41 26.5
s-37.166 7 -62.499 7h-75c-14 0 -23.333 -2.33301 -28 -7s-7 -14.334 -7 -29.001v-221h95c30.667 0 51.667 5.66699 63 17s21 35.666 29 72.999h38v-232h-38c-8 37.333 -17.667 61.666 -29 72.999s-32.333 17 -63 17h-95v-218c0 -30.667 8.33301 -50.5 25 -59.5
s49.334 -13.5 98.001 -13.5c19.333 0 36.166 1.16699 50.499 3.5s27.166 7.5 38.499 15.5s20.333 15 27 21s13.667 17 21 33s12.833 28.833 16.5 38.5s9.5 26.5 17.5 50.5h38l-12 -208h-559z" />
    <glyph glyph-name="F" unicode="F" horiz-adv-x="593" 
d="M37 0l-0.000976562 38.0049c36 1.33301 58.167 5.16602 66.5 11.499s12.5 22.166 12.5 47.499v498c0 25.333 -4.16699 41.166 -12.5 47.499s-30.5 10.166 -66.5 11.499v38h531v-185h-38c-9.33301 28.667 -17 50 -23 64s-14.5 27.667 -25.5 41s-24.667 22.333 -41 27
s-37.166 7 -62.499 7h-67c-14 0 -23.333 -2.33301 -28 -7s-7 -14.334 -7 -29.001v-240h114c30.667 0 51.667 5.66699 63 17s21 35.666 29 72.999h38v-232h-38c-8 37.333 -17.667 61.666 -29 72.999s-32.333 17 -63 17h-114v-221c0 -25.333 5 -41.166 15 -47.499
s37 -10.166 81 -11.499v-38h-335z" />
    <glyph glyph-name="G" unicode="G" horiz-adv-x="726" 
d="M42 341c0 31.333 2.50195 61.832 7.50195 91.499s15.5 61.834 31.5 96.501s37 64.5 63 89.5s62.167 46 108.5 63s100.166 25.5 161.499 25.5c98 0 174.333 -14.667 229 -44v-182h-38c-8 24.667 -16.667 46.334 -26 65.001s-21.166 37.5 -35.499 56.5s-32 33.5 -53 43.5
s-44.833 15 -71.5 15c-28 0 -53.167 -5.16699 -75.5 -15.5s-40.5 -24.333 -54.5 -42s-25.833 -36.834 -35.5 -57.501s-16.834 -43.167 -21.501 -67.5s-8 -46.333 -10 -66s-3 -39.167 -3 -58.5c0 -16.667 0.666992 -33.334 2 -50.001s3.83301 -38.5 7.5 -65.5
s9.83398 -51.667 18.501 -74s19.667 -44.166 33 -65.499s31.166 -38 53.499 -50s47.833 -18 76.5 -18c34 0 56.333 3 67 9s16 18 16 36v141c0 24.667 -4.5 40 -13.5 46s-33.167 10.333 -72.5 13v38h302v-38c-24.667 -2.66699 -40.167 -7 -46.5 -13s-9.5 -20.667 -9.5 -44
v-186c-72 -32 -153 -48 -243 -48c-100.667 0 -178.334 18.333 -233.001 55c-90 60.667 -135 161 -135 301z" />
    <glyph glyph-name="H" unicode="H" horiz-adv-x="807" 
d="M33 0v38c36 1.33301 58.167 5.16602 66.5 11.499s12.5 22.166 12.5 47.499v498c0 25.333 -4.16699 41.166 -12.5 47.499s-30.5 10.166 -66.5 11.499v38h318v-38c-36 -1.33301 -58.167 -5.16602 -66.5 -11.499s-12.5 -22.166 -12.5 -47.499v-206h263v206
c0 25.333 -4.16699 41.166 -12.5 47.499s-30.5 10.166 -66.5 11.499v38h318v-38c-36 -1.33301 -58.167 -5.16602 -66.5 -11.499s-12.5 -22.166 -12.5 -47.499v-498c0 -25.333 4.16699 -41.166 12.5 -47.499s30.5 -10.166 66.5 -11.499v-38h-318v38
c36 1.33301 58.167 5.16602 66.5 11.499s12.5 22.166 12.5 47.499v244h-263v-244c0 -25.333 4.16699 -41.166 12.5 -47.499s30.5 -10.166 66.5 -11.499v-38h-318z" />
    <glyph glyph-name="I" unicode="I" horiz-adv-x="384" 
d="M33 0v38c36 1.33301 58.167 5.16602 66.5 11.499s12.5 22.166 12.5 47.499v498c0 25.333 -4.16699 41.166 -12.5 47.499s-30.5 10.166 -66.5 11.499v38h318v-38c-36 -1.33301 -58.167 -5.16602 -66.5 -11.499s-12.5 -22.166 -12.5 -47.499v-498
c0 -25.333 4.16699 -41.166 12.5 -47.499s30.5 -10.166 66.5 -11.499v-38h-318z" />
    <glyph glyph-name="J" unicode="J" horiz-adv-x="386" 
d="M6 -83c32.667 10.667 58.332 26.333 76.999 47c26 29.333 39 90 39 182v449c0 25.333 -4.16699 41.166 -12.5 47.499s-30.5 10.166 -66.5 11.499v38h318v-38c-36 -1.33301 -58.167 -5.16602 -66.5 -11.499s-12.5 -22.166 -12.5 -47.499v-452
c0 -58.667 -8 -106.167 -24 -142.5s-42.667 -63.5 -80 -81.5c-49.333 -23.333 -104.666 -34.333 -165.999 -33z" />
    <glyph glyph-name="K" unicode="K" horiz-adv-x="707" 
d="M33 0v38.001c36 1.33301 58.167 5.16602 66.5 11.499s12.5 22.166 12.5 47.499v498c0 25.333 -4.16699 41.166 -12.5 47.499s-30.5 10.166 -66.5 11.499v38h318v-38c-36 -1.33301 -58.167 -5.16602 -66.5 -11.499s-12.5 -22.166 -12.5 -47.499v-236l105 121
c26.667 30 65.334 77.333 116.001 142c13.333 16.667 11.333 26 -6 28l-42 6v36h272v-36c-28.667 -2.66699 -50.334 -6.66699 -65.001 -12s-31.334 -15 -50.001 -29c-16.667 -12.667 -34.5 -27.667 -53.5 -45s-33 -30.5 -42 -39.5l-54.5 -57l-51 -54.5
c72.667 -121.333 151.334 -230.333 236.001 -327c29.333 -33.333 53.333 -52.333 72 -57l10 -3v-38l-68 2c-62.667 2 -110 11.167 -142 27.5s-64.667 48.166 -98 95.499c-56 80 -101.667 153.333 -137 220h-2v-242c0 -25.333 4.16699 -41.166 12.5 -47.499
s30.5 -10.166 66.5 -11.499v-38h-318z" />
    <glyph glyph-name="L" unicode="L" horiz-adv-x="585" 
d="M33 0v38.002c36 1.33301 58.167 5.16602 66.5 11.499s12.5 22.166 12.5 47.499v498c0 25.333 -4.16699 41.166 -12.5 47.499s-30.5 10.166 -66.5 11.499v38h330v-38c-41.333 -1.33301 -66.833 -5.16602 -76.5 -11.499s-14.5 -22.166 -14.5 -47.499v-476
c0 -30.667 7.5 -50.5 22.5 -59.5s44.5 -13.5 88.5 -13.5c26 0 47.5 2.33301 64.5 7s31.5 14.834 43.5 30.501s20.5 29 25.5 40s12.833 31.5 23.5 61.5c2.66699 7.33301 4.66699 12.666 6 15.999h38l-12 -201h-539z" />
    <glyph glyph-name="M" unicode="M" horiz-adv-x="918" 
d="M26 0v38l35 5c21.333 2.66699 33.333 20.334 36 53.001c3.33301 29.333 5 81.333 5 156v343c0 25.333 -4.16699 41.166 -12.5 47.499s-30.5 10.166 -66.5 11.499v38h264c6.66699 -22.667 24.334 -71.667 53.001 -147l119 -307h3l85 234c2 5.33301 28 78.666 78 219.999
h260v-38c-36 -1.33301 -58.167 -5.16602 -66.5 -11.499s-12.5 -22.166 -12.5 -47.499v-498c0 -25.333 4.16699 -41.166 12.5 -47.499s30.5 -10.166 66.5 -11.499v-38h-310v38c36 1.33301 58.167 5.16602 66.5 11.499s12.5 22.166 12.5 47.499v496h-3l-209 -575h-60l-215 575
h-3v-341c0 -74 1.66699 -126 5 -156c1.33301 -18 5.16602 -31.167 11.499 -39.5s16.5 -12.833 30.5 -13.5l54 -5v-38h-239z" />
    <glyph glyph-name="N" unicode="N" horiz-adv-x="739" 
d="M28 0v38.002l35 5c21.333 2.66699 33.333 20.334 36 53.001c3.33301 29.333 5 81.333 5 156v343c0 25.333 -4.16699 41.166 -12.5 47.499s-30.5 10.166 -66.5 11.499v38h237l315 -476h4v224c0 74 -1.66699 126 -5 156c-1.33301 18 -5.16602 31.167 -11.499 39.5
s-16.5 12.833 -30.5 13.5l-56 5v38h241v-38l-35 -5c-21.333 -2.66699 -33.333 -20.334 -36 -53.001c-3.33301 -29.333 -5 -81.333 -5 -156v-440h-110l-363 558h-4v-306c0 -74 1.66699 -126 5 -156c1.33301 -18 5.16602 -31.167 11.499 -39.5s16.5 -12.833 30.5 -13.5l56 -5
v-38h-241z" />
    <glyph glyph-name="O" unicode="O" horiz-adv-x="768" 
d="M42 346c0 115.333 28.667 204.333 86 267s142.666 94 255.999 94s198.666 -31.333 255.999 -94s86 -151.667 86 -267s-28.667 -204.333 -86 -267s-142.666 -94 -255.999 -94s-198.666 31.333 -255.999 94s-86 151.667 -86 267zM219 346c0 -28 1 -54.502 3 -79.502
s6.5 -52.667 13.5 -83s16.167 -56.166 27.5 -77.499s27.5 -39.166 48.5 -53.499s45.167 -21.5 72.5 -21.5c110 0 165 105 165 315s-55 315 -165 315s-165 -105 -165 -315z" />
    <glyph glyph-name="P" unicode="P" horiz-adv-x="650" 
d="M33 0v38.0039c36 1.33301 58.167 5.16602 66.5 11.499s12.5 22.166 12.5 47.499v498c0 25.333 -4.16699 41.166 -12.5 47.499s-30.5 10.166 -66.5 11.499v38h310c88.667 0 153.667 -12.667 195 -38c56.667 -34.667 85 -89.667 85 -165
c0 -72.667 -25.667 -127.334 -77 -164.001c-46.667 -33.333 -118 -50 -214 -50h-60v-178c0 -25.333 5 -41.166 15 -47.499s37 -10.833 81 -13.5v-36h-335zM272 364.004c0 -18 4 -29.666 12 -34.999s22.667 -8 44 -8c46 0 78.667 16.167 98 48.5s29 71.166 29 116.499
c0 54 -11.5 94.167 -34.5 120.5s-52.833 39.5 -89.5 39.5c-24.667 0 -40.667 -2.5 -48 -7.5s-11 -14.833 -11 -29.5v-245z" />
    <glyph glyph-name="Q" unicode="Q" horiz-adv-x="768" 
d="M42 346c0 115.333 28.6689 204.333 86.002 267s142.666 94 255.999 94s198.666 -31.333 255.999 -94s86 -151.667 86 -267c0 -93.333 -19.167 -169.833 -57.5 -229.5s-94.833 -99.167 -169.5 -118.5c12 -22 32 -47.667 60 -77c21.333 -22.667 43.333 -39.667 66 -51
s41.334 -17 56.001 -17h11l6 -24c-25.333 -14.667 -60 -22 -104 -22c-67.333 0 -124.833 19.167 -172.5 57.5s-80.167 79.833 -97.5 124.5c-92.667 10.667 -162.834 46.667 -210.501 108s-71.5 144.333 -71.5 249zM219.002 346
c0.666992 -40.667 3.00195 -76.667 7.00195 -108s11.167 -64.166 21.5 -98.499s27.166 -61 50.499 -80s52 -28.5 86 -28.5s62.667 9.5 86 28.5s40.166 45.667 50.499 80s17.5 67.166 21.5 98.499s6.33301 67.333 7 108c-3.33301 210 -58.333 315 -165 315
s-161.667 -105 -165 -315z" />
    <glyph glyph-name="R" unicode="R" horiz-adv-x="684" 
d="M33 0l-0.000976562 38.0039c36 1.33301 58.167 5.16602 66.5 11.499s12.5 22.166 12.5 47.499v498c0 25.333 -4.16699 41.166 -12.5 47.499s-30.5 10.166 -66.5 11.499v38h347c88.667 0 153 -17.333 193 -52c33.333 -30.667 50 -73 50 -127
c0 -43.333 -15.667 -80 -47 -110s-72 -48.333 -122 -55v-2c46.667 -12 78.834 -31.5 96.501 -58.5s30.834 -64.833 39.501 -113.5c9.33301 -52.667 25.666 -90.667 48.999 -114c14 -14 29.667 -21.333 47 -22v-38h-74c-52 -0 -90.667 7.33301 -116 22s-44 40.667 -56 78
c-4.66699 15.333 -9 31.666 -13 48.999s-7.83301 35.166 -11.5 53.499l-7.5 37.5c-11.333 52 -41.333 78 -90 78h-46v-221c0 -25.333 4.16699 -41.166 12.5 -47.499s30.5 -10.166 66.5 -11.499v-38h-318zM271.999 364.004l50 0.000976562c88.667 0 133 47.667 133 143
c0 92.667 -39.667 139 -119 139c-26 0 -43.167 -2.83301 -51.5 -8.5s-12.5 -15.834 -12.5 -30.501v-243z" />
    <glyph glyph-name="S" unicode="S" horiz-adv-x="561" 
d="M42 226l37.0029 0.00683594c18.667 -61.333 45.334 -109.166 80.001 -143.499s71.334 -51.5 110.001 -51.5c34 0 61.333 9.16699 82 27.5s31.334 45.5 32.001 81.5c0 32 -10.667 59.667 -32 83s-55 44.666 -101 63.999c-27.333 11.333 -50.5 22.166 -69.5 32.499
s-39.5 24.166 -61.5 41.499s-38.833 37.833 -50.5 61.5s-17.5 50.167 -17.5 79.5c0 61.333 21.167 110.833 63.5 148.5s104.166 56.5 185.499 56.5c77.333 0 139.666 -14.667 186.999 -44v-164h-36c-13.333 55.333 -33.5 96.166 -60.5 122.499s-57.5 39.5 -91.5 39.5
c-30.667 0 -55.667 -9.33301 -75 -28s-29 -43.334 -29 -74.001c0 -18 4.16699 -34.333 12.5 -49s21.166 -27.834 38.499 -39.501s32.666 -20.834 45.999 -27.501s30.666 -14.334 51.999 -23.001c27.333 -11.333 50.333 -22.333 69 -33s38.167 -24.5 58.5 -41.5
s35.666 -37.833 45.999 -62.5s15.5 -52.667 15.5 -84c0 -28 -4.33301 -53.833 -13 -77.5s-22.5 -46 -41.5 -67s-46 -37.667 -81 -50s-76.5 -18.833 -124.5 -19.5c-39.333 0 -79.333 5 -120 15s-72.667 25.667 -96 47z" />
    <glyph glyph-name="T" unicode="T" horiz-adv-x="624" 
d="M15 504l-0.00195312 188h594v-188h-38c-7.33301 22 -12.666 37.333 -15.999 46s-8.16602 20.167 -14.499 34.5s-12.166 24 -17.499 29s-12.5 10.667 -21.5 17s-19 10.5 -30 12.5s-24.167 3 -39.5 3h-40v-551c0 -18.667 2.66699 -32 8 -40s15.666 -12.333 30.999 -13
l57 -4v-38h-352v38l57 4c15.333 0.666992 25.666 5 30.999 13s8 21.333 8 40v551h-40c-42.667 0 -71.667 -9.33301 -87 -28s-32.666 -56.667 -51.999 -114h-38z" />
    <glyph glyph-name="U" unicode="U" horiz-adv-x="786" 
d="M29 654l0.000976562 38.001h312v-38c-34 -1.33301 -55.167 -5.16602 -63.5 -11.499s-12.5 -22.166 -12.5 -47.499v-384c0 -120 42.667 -180 128 -180s128 60 128 180v384c0 25.333 -4.16699 41.166 -12.5 47.499s-29.5 10.166 -63.5 11.499v38h312v-38
c-34 -1.33301 -55.167 -5.16602 -63.5 -11.499s-12.5 -22.166 -12.5 -47.499v-370c-0.666992 -84.667 -25 -145.834 -73 -183.501s-119.667 -56.5 -215 -56.5c-100.667 0 -173.834 18.5 -219.501 55.5s-68.5 98.5 -68.5 184.5v370c0 25.333 -4.16699 41.166 -12.5 47.499
s-29.5 10.166 -63.5 11.499z" />
    <glyph glyph-name="V" unicode="V" horiz-adv-x="645" 
d="M-16 654l-0.00195312 38.001h303v-38l-48 -5c-18 -1.33301 -23.667 -13.333 -17 -36l150 -464h5l43.5 135.5c22.333 70.333 35.5 111.166 39.5 122.499c25.333 77.333 45.333 147 60 209c2.66699 10.667 2.83398 18.667 0.500977 24s-8.16602 8.33301 -17.499 9l-56 5v38
h232v-38c-28 -2 -46.667 -6.33301 -56 -13s-19 -22 -29 -46c-22.667 -58.667 -51.667 -140.667 -87 -246l-119 -349h-126l-202 603c-6.66699 21.333 -14.5 34.833 -23.5 40.5s-26.5 9.16699 -52.5 10.5z" />
    <glyph glyph-name="W" unicode="W" horiz-adv-x="933" 
d="M-10 656l0.000976562 36.002h287v-36l-46 -7c-10 -0.666992 -16.667 -4.33398 -20 -11.001c-2 -5.33301 -1.33301 -14.333 2 -27l114 -452h2l124 518h111l132 -518h4l57 225c26.667 107.333 43.334 182 50.001 224c2 12.667 1.83301 22.167 -0.5 28.5
s-8.5 10.166 -18.5 11.499l-57 8v36h229v-36c-27.333 -3.33301 -45.333 -8.16602 -54 -14.499s-16.334 -20.833 -23.001 -43.5c-22 -70 -46 -153.667 -72 -251l-93 -347h-127l-123 468h-3l-118 -468h-126l-88 334c-42 157.333 -67 248.666 -75 273.999
c-5.33301 18.667 -11.833 30.667 -19.5 36s-23.834 9.33301 -48.501 12z" />
    <glyph glyph-name="X" unicode="X" horiz-adv-x="634" 
d="M-19 0v38c32 2 53.333 5.66699 64 11s24 18.666 40 39.999c20.667 28 75.334 108.333 164.001 241l-166 273c-12.667 20.667 -23.667 33.667 -33 39s-28 9.33301 -56 12v38h305v-38l-42 -5c-19.333 -3.33301 -23 -15 -11 -35l100 -165h2
c59.333 94 93.666 150.333 102.999 169c8.66699 16.667 5.33398 26.334 -9.99902 29.001l-43 7v38h233v-38c-26.667 -1.33301 -46.5 -4.83301 -59.5 -10.5s-26.833 -17.5 -41.5 -35.5c-50 -62 -99.667 -131 -149 -207l91.5 -148.5l95.5 -154.5
c15.333 -25.333 28.666 -41.333 39.999 -48s32.333 -10.667 63 -12v-38h-336v38l51 6c20 2.66699 24.667 13.667 14 33l-117 197h-4c-56 -92 -93 -157.667 -111 -197c-9.33301 -21.333 -4 -33 16 -35l58 -4v-38h-261z" />
    <glyph glyph-name="Y" unicode="Y" horiz-adv-x="617" 
d="M-12 654v38.001h316v-38l-54 -6c-18 -2.66699 -22.667 -13.667 -14 -33l123 -273h3l41 89.5l47 102c13.333 29.667 23.666 54.5 30.999 74.5c9.33301 24.667 4.33301 38 -15 40l-52 6v38h241v-38c-27.333 -3.33301 -47 -8.33301 -59 -15s-23.667 -19.667 -35 -39
c-34 -59.333 -82.333 -152.333 -145 -279c-12 -25.333 -18 -49 -18 -71v-153c0 -25.333 5 -41.166 15 -47.499s37 -10.166 81 -11.499v-38h-352v38c44 1.33301 71 5.16602 81 11.499s15 22.166 15 47.499v143c0 18 -7 41 -21 69l-145 288
c-11.333 23.333 -21.666 38.166 -30.999 44.499s-27 10.5 -53 12.5z" />
    <glyph glyph-name="Z" unicode="Z" horiz-adv-x="614" 
d="M0 22l407 623.998h-127c-60.667 0 -103.5 -10.333 -128.5 -31s-43.5 -60.334 -55.5 -119.001h-38v196h534l13 -21l-409 -625h161c36.667 0 66.5 2.83301 89.5 8.5s42.167 16.334 57.5 32.001s27 31.834 35 48.501s17.667 41.334 29 74.001h38l-12 -209h-581z" />
    <glyph glyph-name="bracketleft" unicode="[" horiz-adv-x="335" 
d="M123 -128v820h185v-34l-60 -7c-12.667 -1.33301 -21 -5.5 -25 -12.5s-6 -18.5 -6 -34.5v-644c0 -16 2 -27.5 6 -34.5s12.333 -11.167 25 -12.5l60 -7v-34h-185z" />
    <glyph glyph-name="backslash" unicode="\" horiz-adv-x="379" 
d="M34 707h100l211 -722h-100z" />
    <glyph glyph-name="bracketright" unicode="]" horiz-adv-x="335" 
d="M27 -94l60 7c12.667 1.33301 21 5.5 25 12.5s6 18.5 6 34.5v644c0 16 -2 27.5 -6 34.5s-12.333 11.167 -25 12.5l-60 7v34h185v-820h-185v34z" />
    <glyph glyph-name="asciicircum" unicode="^" horiz-adv-x="600" 
d="M56 215l197 453h99l192 -453h-104l-138 341l-142 -341h-104z" />
    <glyph glyph-name="underscore" unicode="_" horiz-adv-x="500" 
d="M0 -75h500v-50h-500v50z" />
    <glyph glyph-name="grave" unicode="`" horiz-adv-x="430" 
d="M40 680c0 12.667 5.83301 25.833 17.5 39.5s23.5 20.5 35.5 20.5c10 0 20.167 -3.5 30.5 -10.5s24.833 -20.167 43.5 -39.5l145 -149l-21 -30l-183 103c-22 12 -38.833 23 -50.5 33s-17.5 21 -17.5 33z" />
    <glyph glyph-name="a" unicode="a" horiz-adv-x="544" 
d="M41 133c0 59.333 35.333 101.001 106 125.001c7.33301 2.66699 20.5 7.16699 39.5 13.5l44.5 14.5c10.667 3.33301 23.334 7.83301 38.001 13.5s27 10.834 37 15.501s18.333 9.33398 25 14.001v53c0 49.333 -19.333 74 -58 74c-36.667 0 -66 -33.333 -88 -100
c-8.66699 -26.667 -22.334 -40 -41.001 -40c-18 0 -37.5 5.5 -58.5 16.5s-31.5 26.5 -31.5 46.5c0 34 21.667 63 65 87s100.666 36 171.999 36c34 0 63.167 -3 87.5 -9s42.666 -13.333 54.999 -22s22 -19.834 29 -33.501s11.333 -25.834 13 -36.501s2.5 -23.667 2.5 -39
v-231c0 -43.333 10.667 -68.333 32 -75c14 -4.66699 30 -6.33398 48 -5.00098l3 -33c-50.667 -20 -100 -30 -148 -30c-22 0 -38.5 5 -49.5 15s-20.5 24.333 -28.5 43l-15.5 -10.5c-8.33301 -5.66699 -14.166 -9.5 -17.499 -11.5l-17.5 -10
c-8.33301 -4.66699 -15.333 -8.16699 -21 -10.5s-12.667 -5 -21 -8s-16.666 -5 -24.999 -6s-16.833 -1.5 -25.5 -1.5c-48 0 -85.167 14.167 -111.5 42.5s-39.5 62.5 -39.5 102.5zM195 150.001c0 -25.333 7.16699 -45.667 21.5 -61s31.833 -23 52.5 -23
c16 0 30.167 5.16699 42.5 15.5s18.833 27.833 19.5 52.5v145c-54.667 -24.667 -84.667 -38.667 -90 -42c-30.667 -17.333 -46 -46.333 -46 -87z" />
    <glyph glyph-name="b" unicode="b" horiz-adv-x="605" 
d="M15 679l0.000976562 35.999l203 27l7 -6v-303c60 46 113 69 159 69c53.333 0 97.833 -20.667 133.5 -62s53.5 -100.666 53.5 -177.999c0 -44 -4.66699 -82.333 -14 -115s-21.666 -59 -36.999 -79s-34.5 -36.167 -57.5 -48.5s-46.667 -20.666 -71 -24.999
s-51.833 -6.5 -82.5 -6.5c-56.667 0 -106.334 11.333 -149.001 34l-54 -34l-32 18v615c0 18.667 -1.83301 31.667 -5.5 39s-9.83398 11.666 -18.501 12.999zM225.001 153.999c0 -24 1.33301 -42.667 4 -56c8 -42.667 35.333 -64 82 -64c67.333 0 101 67.667 101 203
c0 74 -9.16699 123.833 -27.5 149.5s-42.5 38.5 -72.5 38.5c-39.333 0 -66.333 -19 -81 -57c-4 -11.333 -6 -30 -6 -56v-158z" />
    <glyph glyph-name="c" unicode="c" horiz-adv-x="494" 
d="M34 241c0 84 22.666 148.667 67.999 194c44.667 44.667 106.334 67 185.001 67c49.333 0 93.5 -10 132.5 -30s58.5 -46.667 58.5 -80c0 -20 -8.66699 -35.333 -26 -46s-36.333 -16 -57 -16c-24.667 0 -40.667 11.667 -48 35c-9.33301 32 -19 55.167 -29 69.5
s-23.333 21.5 -40 21.5c-23.333 0 -43.333 -16.167 -60 -48.5s-25 -79.833 -25 -142.5c0 -72 12 -123.333 36 -154s54.667 -46 92 -46c28.667 0 53 6.83301 73 20.5s38.333 37.167 55 70.5l35 -16c-32 -101.333 -103.667 -152 -215 -152c-72.667 0 -130 21.667 -172 65
s-63 106 -63 188z" />
    <glyph glyph-name="d" unicode="d" horiz-adv-x="605" 
d="M34 236c0 87.333 25.002 154.333 75.002 201c46.667 43.333 109 65 187 65c34.667 0 62.667 -4.33301 84 -13v132c0 18.667 -1.83301 31.667 -5.5 39s-9.83398 11.666 -18.501 12.999l-35 6v36l203 27l7 -6v-649c0 -20.667 3.66699 -33.667 11 -39
s25.333 -8.66602 54 -9.99902v-38h-216v50c-52 -41.333 -100.333 -62 -145 -62c-62.667 0 -111.834 22.833 -147.501 68.5s-53.5 105.5 -53.5 179.5zM193.002 256c0 -62 9.83203 -109.333 29.499 -142s46.167 -49 79.5 -49c52 0 78 29 78 87v206c0 29.333 -2.66699 49 -8 59
c-13.333 26 -36 39 -68 39c-31.333 0 -57.666 -16.167 -78.999 -48.5s-32 -82.833 -32 -151.5z" />
    <glyph glyph-name="e" unicode="e" horiz-adv-x="519" 
d="M34 245c0 76 20 137.831 60 185.498s102.333 71.5 187 71.5c36.667 0 69 -4.66699 97 -14s49.833 -21 65.5 -35s28.334 -30.833 38.001 -50.5s16 -38 19 -55s4.5 -34.833 4.5 -53.5c0 -15.333 -4.33301 -26.166 -13 -32.499s-22.334 -9.5 -41.001 -9.5h-258
c0 -124.667 44.667 -187 134 -187c58 0 102.667 29.667 134 89l36 -20c-37.333 -97.333 -110 -146 -218 -146c-44.667 0 -83.334 6.83301 -116.001 20.5s-58.167 32.834 -76.5 57.501s-31.666 51.667 -39.999 81s-12.5 62 -12.5 98zM193 299.998l123.999 0.00195312
c12 0 20.167 2.16699 24.5 6.5s6.5 13.166 6.5 26.499c0 82 -23.667 123 -71 123c-29.333 0 -50.666 -15.333 -63.999 -46s-20 -67.334 -20 -110.001z" />
    <glyph glyph-name="f" unicode="f" horiz-adv-x="342" 
d="M27 0v38c28.667 1.33301 46.667 4.66602 54 9.99902s11 18.333 11 39v353h-63v50h63v43c0 67.333 16 119 48 155s76.333 54 133 54c50 0 87.167 -9.83301 111.5 -29.5s36.5 -40.834 36.5 -63.501c0 -16 -7.83301 -29.667 -23.5 -41s-32.167 -17 -49.5 -17
c-18.667 0 -33.667 10 -45 30c-16 30 -27.833 50 -35.5 60s-15.167 15 -22.5 15c-16 0 -24 -12.333 -24 -37c0 -11.333 3.66699 -38.166 11 -80.499s11 -71.833 11 -88.5h103v-50h-103v-353c0 -20.667 4.16699 -33.667 12.5 -39s30.5 -8.66602 66.5 -9.99902v-38h-295z" />
    <glyph glyph-name="g" unicode="g" horiz-adv-x="533" 
d="M25 -96c0 46.667 38.666 78.335 115.999 95.002v2c-23.333 5.33301 -44.5 17 -63.5 35s-28.5 37.667 -28.5 59c0 20 9.66699 38.333 29 55s45.333 29 78 37v2c-33.333 5.33301 -62 20.666 -86 45.999s-36 57.666 -36 96.999c0 46 18.333 85.833 55 119.5
s96 50.5 178 50.5c57.333 0 105 -11 143 -33l125 43l11 -11l-20 -75l-66 -12c15.333 -20 23 -46 23 -78c0 -38 -10.667 -69.5 -32 -94.5s-48 -42.5 -80 -52.5s-69 -15 -111 -15c-18 0 -33.333 0.666992 -46 2c-9.33301 -2 -18.333 -6.16699 -27 -12.5s-13 -14.5 -13 -24.5
c0 -22.667 22.333 -34 67 -34h93c58.667 0 106.334 -12.167 143.001 -36.5s55 -64.5 55 -120.5c0 -69.333 -31 -120.333 -93 -153c-46 -24.667 -101.667 -37 -167 -37c-74.667 0 -134.5 12.5 -179.5 37.5s-67.5 61.167 -67.5 108.5zM159.999 -85.999
c0 -34 12.3311 -60.833 36.998 -80.5s54.667 -29.5 90 -29.5c36 0 65.667 8.33301 89 25s35 41.667 35 75c0 29.333 -11.667 50 -35 62s-57.666 18 -102.999 18c-43.333 0 -72.666 -5 -87.999 -15c-16.667 -12 -25 -30.333 -25 -55zM189.997 335.001
c0 -34 6.99902 -61.666 20.999 -82.999s32 -32 54 -32c22.667 0 40.834 10.5 54.501 31.5s20.5 49.167 20.5 84.5c0 39.333 -7 69.166 -21 89.499s-31.667 30.5 -53 30.5c-22 0 -40.167 -10.167 -54.5 -30.5s-21.5 -50.5 -21.5 -90.5z" />
    <glyph glyph-name="h" unicode="h" horiz-adv-x="631" 
d="M19 0l0.00292969 38c28.667 1.33301 46.667 4.66602 54 9.99902s11 18.333 11 39v534c0 18.667 -1.83301 31.667 -5.5 39s-9.83398 11.666 -18.501 12.999l-35 6v36l203 27l7 -6v-303c26.667 16.667 46.667 28.834 60 36.501s30.166 15 50.499 22s39.833 10.5 58.5 10.5
c51.333 0 89.666 -13.667 114.999 -41s38 -65.333 38 -114v-260c0 -20.667 3.66699 -33.667 11 -39s25.333 -8.66602 54 -9.99902v-38h-269v38l21 2c11.333 1.33301 19.5 4.5 24.5 9.5s7.5 15.167 7.5 30.5v252c0 62 -26.333 93 -79 93c-38 0 -65.333 -16.333 -82 -49
c-6.66699 -13.333 -10 -33 -10 -59v-237c0 -15.333 2.5 -25.5 7.5 -30.5s13.167 -8.16699 24.5 -9.5l21 -2v-38h-269z" />
    <glyph glyph-name="i" unicode="i" horiz-adv-x="316" 
d="M70 633c0 24 8.33301 44.501 25 61.501s38.667 25.5 66 25.5s49.5 -8.33301 66.5 -25s25.5 -37.334 25.5 -62.001s-8.66699 -45.5 -26 -62.5s-39.333 -25.5 -66 -25.5c-27.333 0 -49.333 8.5 -66 25.5s-25 37.833 -25 62.5zM26 0.000976562l0.000976562 38
c28.667 1.33301 46.667 4.66602 54 9.99902s11 18.333 11 39v294c0 19.333 -1.83301 32.333 -5.5 39s-9.83398 10.667 -18.501 12l-35 5v36l203 29l7 -6v-409c0 -20.667 3.66699 -33.667 11 -39s25.333 -8.66602 54 -9.99902v-38h-281z" />
    <glyph glyph-name="j" unicode="j" horiz-adv-x="316" 
d="M77 633c0 24 8.33301 44.501 25 61.501s38.667 25.5 66 25.5c28 0 50.333 -8.33301 67 -25s25 -37.334 25 -62.001s-8.66699 -45.5 -26 -62.5s-39.333 -25.5 -66 -25.5c-27.333 0 -49.333 8.5 -66 25.5s-25 37.833 -25 62.5zM-12 -200.999
c32.667 10.667 56.667 25.666 72 44.999c25.333 32 38 94.333 38 187v350c0 19.333 -1.83301 32.333 -5.5 39s-9.83398 10.667 -18.501 12l-35 5v36l203 29l7 -6v-471c0 -117.333 -30.333 -191.666 -91 -222.999c-43.333 -22.667 -98.666 -34 -165.999 -34z" />
    <glyph glyph-name="k" unicode="k" horiz-adv-x="582" 
d="M19 0v38.002c28.667 1.33301 46.667 4.66602 54 9.99902s11 18.333 11 39v534c0 18.667 -1.83301 31.667 -5.5 39s-9.83398 11.666 -18.501 12.999l-35 6v36l203 27l7 -6v-464h2l72 102c39.333 54 60 82.667 62 86c16.667 20 36.334 30 59.001 30h145v-32
c-69.333 -14.667 -135.333 -52.334 -198 -113.001l-22 -22c57.333 -90.667 116 -169.667 176 -237c26 -30 47.333 -48 64 -54v-32h-90c-37.333 0 -67 4.16699 -89 12.5s-41.667 23.833 -59 46.5c-41.333 54.667 -81.333 119.667 -120 195h-2v-167
c0 -20.667 3.66699 -33.667 11 -39s25.333 -8.66602 54 -9.99902v-38h-281z" />
    <glyph glyph-name="l" unicode="l" horiz-adv-x="309" 
d="M19 0l0.000976562 38.001c28.667 1.33301 46.667 4.66602 54 9.99902s11 18.333 11 39v534c0 18.667 -1.83301 31.667 -5.5 39s-9.83398 11.666 -18.501 12.999l-35 6v36l203 27l7 -6v-649c0 -20.667 3.66699 -33.667 11 -39s25.333 -8.66602 54 -9.99902v-38h-281z" />
    <glyph glyph-name="m" unicode="m" horiz-adv-x="948" 
d="M26 0l0.000976562 37.999c28.667 1.33301 46.667 4.66602 54 9.99902s11 18.333 11 39v294c0 19.333 -1.83301 32.333 -5.5 39s-9.83398 10.667 -18.501 12l-35 5v36l197 29l13 -69l19.5 12.5l21 13.5c3 2 9.16699 5.66699 18.5 11s16.166 9 20.499 11
s10.833 4.83301 19.5 8.5s16 6 22 7l21 3.5c8 1.33301 16 2 24 2c62.667 0 108 -25 136 -75c1.33301 1.33301 10.166 7.16602 26.499 17.499s28 17.5 35 21.5s17.833 9.5 32.5 16.5s28.334 12 41.001 15s25.667 4.5 39 4.5c51.333 0 90.166 -13.833 116.499 -41.5
s39.5 -65.5 39.5 -113.5v-260c0 -20.667 3.66699 -33.667 11 -39s25.333 -8.66602 54 -9.99902v-38h-269v38l21 2c11.333 1.33301 19.5 4.5 24.5 9.5s7.5 15.167 7.5 30.5v249c0 28.667 -6.5 51.834 -19.5 69.501s-31.5 26.5 -55.5 26.5
c-25.333 0 -46.666 -9.16699 -63.999 -27.5s-26 -47.5 -26 -87.5v-230c0 -15.333 2.5 -25.5 7.5 -30.5s13.167 -8.16699 24.5 -9.5l21 -2v-38h-257v38l21 2c11.333 1.33301 19.5 4.5 24.5 9.5s7.5 15.167 7.5 30.5v249c0 28.667 -6.16699 51.834 -18.5 69.501
s-30.166 26.5 -53.499 26.5c-26 0 -48 -9.16699 -66 -27.5s-27 -47.5 -27 -87.5v-230c0 -15.333 2.5 -25.5 7.5 -30.5s13.167 -8.16699 24.5 -9.5l21 -2v-38h-269z" />
    <glyph glyph-name="n" unicode="n" horiz-adv-x="638" 
d="M26 0l0.000976562 38.001c28.667 1.33301 46.667 4.66602 54 9.99902s11 18.333 11 39v294c0 19.333 -1.83301 32.333 -5.5 39s-9.83398 10.667 -18.501 12l-35 5v36l197 29l13 -69l64 37.5c11.333 6.33301 27.5 13.166 48.5 20.499s40.5 11 58.5 11
c50 0 87.5 -13.5 112.5 -40.5s37.833 -64.833 38.5 -113.5v-261c0 -20.667 3.66699 -33.667 11 -39s25.333 -8.66602 54 -9.99902v-38h-269v38l21 2c11.333 1.33301 19.5 4.5 24.5 9.5s7.5 15.167 7.5 30.5v254c-2 60.667 -28.333 91 -79 91c-38.667 0 -66 -16.333 -82 -49
c-6.66699 -13.333 -10 -33 -10 -59v-237c0 -15.333 2.5 -25.5 7.5 -30.5s13.167 -8.16699 24.5 -9.5l21 -2v-38h-269z" />
    <glyph glyph-name="o" unicode="o" horiz-adv-x="585" 
d="M34 245c0 171.333 86.333 257 259 257s259 -85.667 259 -257s-86.333 -257 -259 -257s-259 85.667 -259 257zM193 245c0 -140.667 33.333 -211 100 -211s100 70.333 100 211s-33.333 211 -100 211s-100 -70.333 -100 -211z" />
    <glyph glyph-name="p" unicode="p" horiz-adv-x="615" 
d="M19 -192c28.667 1.33301 46.667 4.66895 54 10.002s11 18.333 11 39v524c0 19.333 -1.83301 32.333 -5.5 39s-9.83398 10.667 -18.501 12l-35 5v36l192 29l18 -69c20 15.333 36.667 27.166 50 35.499s30.333 16 51 23s42 10.5 64 10.5c50.667 0 93.5 -20.833 128.5 -62.5
s52.5 -101.834 52.5 -180.501c0 -52.667 -6.66699 -97.334 -20 -134.001s-32.833 -64.667 -58.5 -84s-53.5 -33 -83.5 -41s-65 -12 -105 -12c-33.333 0 -59.666 4 -78.999 12v-143c0 -20.667 4.5 -33.667 13.5 -39s32.167 -8.66602 69.5 -9.99902v-38h-299v38zM235 152.003
c0 -20.667 1.33398 -37.668 4.00098 -51.001c9.33301 -44.667 35.666 -67 78.999 -67c69.333 0 104 67.667 104 203c0 72.667 -9.33301 122.167 -28 148.5s-42.667 39.5 -72 39.5c-39.333 0 -66 -20 -80 -60c-4.66699 -13.333 -7 -31.666 -7 -54.999v-158z" />
    <glyph glyph-name="q" unicode="q" horiz-adv-x="597" 
d="M34 235c0 86.667 24.668 154 74.001 202c44.667 43.333 109 65 193 65c54 0 100.667 -10.333 140 -31l43 31h47v-645c0 -20.667 3.66699 -33.667 11 -39s25.333 -8.66602 54 -9.99902v-38h-291v38c34 1.33301 55 4.66602 63 9.99902s12 18.333 12 39v190
c-44.667 -39.333 -92.334 -59 -143.001 -59c-62 0 -111.333 22.667 -148 68s-55 105 -55 179zM193.001 256c0 -62.667 9.66797 -110.168 29.001 -142.501s45.666 -48.5 78.999 -48.5c52.667 0 79 29 79 87v201c0 24.667 -1.33301 41.334 -4 50.001
c-10 35.333 -33.667 53 -71 53c-32.667 0 -59.5 -17.167 -80.5 -51.5s-31.5 -83.833 -31.5 -148.5z" />
    <glyph glyph-name="r" unicode="r" horiz-adv-x="440" 
d="M26 0v38.001c28.667 1.33301 46.667 4.66602 54 9.99902s11 18.333 11 39v294c0 19.333 -1.83301 32.333 -5.5 39s-9.83398 10.667 -18.501 12l-35 5v36l195 29l12 -88c30.667 32.667 55.5 55.5 74.5 68.5s38.5 19.5 58.5 19.5c21.333 0 38.333 -6.33301 51 -19
s19 -29.667 19 -51c0 -23.333 -5.33301 -42.333 -16 -57c-12.667 -17.333 -29.667 -26 -51 -26c-13.333 0 -28.666 5.33301 -45.999 16c-24 14 -41.667 21 -53 21c-22.667 0 -34 -25 -34 -75v-224c0 -20.667 4.5 -33.5 13.5 -38.5s33.167 -8.5 72.5 -10.5v-38h-302z" />
    <glyph glyph-name="s" unicode="s" horiz-adv-x="446" 
d="M38 185h37.998c14 -43.333 33.833 -79.333 59.5 -108s54.167 -43 85.5 -43c22 0 39 5.33301 51 16s18 25.667 18 45c0 40 -33.333 71.667 -100 95c-98 36.667 -147 88 -147 154c0 50 17.667 88.833 53 116.5s83.666 41.5 144.999 41.5c62 0 112 -11.667 150 -35v-133h-37
c-9.33301 38 -24.166 67.833 -44.499 89.5s-43.166 32.5 -68.499 32.5c-19.333 0 -34.666 -5.66699 -45.999 -17s-17 -25 -17 -41c0 -18.667 8.66699 -34.5 26 -47.5s42.333 -25.5 75 -37.5c49.333 -18.667 86 -40.167 110 -64.5s36 -56.833 36 -97.5
c0 -52.667 -18.667 -93 -56 -121s-87.333 -42 -150 -42c-78 0 -134.333 16 -169 48z" />
    <glyph glyph-name="t" unicode="t" horiz-adv-x="370" 
d="M32 440v50h63l88 126h58v-126h104v-50h-104v-285c0 -61.333 21.333 -92 64 -92c22.667 0 41.667 3.33301 57 10l11 -31c-57.333 -36 -110.333 -54 -159 -54c-32 0 -60.667 11 -86 33s-38 54 -38 96v323h-58z" />
    <glyph glyph-name="u" unicode="u" horiz-adv-x="629" 
d="M23 437l0.00292969 35.998l203 29l7 -6v-320c0 -72.667 28 -109 84 -109c20.667 0 37.667 4.66699 51 14s22.666 20.333 27.999 33c5.33301 13.333 8 32 8 56v211c0 19.333 -1.83301 32.333 -5.5 39s-9.83398 10.667 -18.501 12l-35 5v36l203 29l7 -6v-409
c0 -20.667 3.66699 -33.667 11 -39s25.333 -8.66602 54 -9.99902v-38h-208l-8 56c-4 -2.66699 -14.5 -9.16699 -31.5 -19.5s-30.833 -18.166 -41.5 -23.499s-25.667 -10.833 -45 -16.5s-39 -8.5 -59 -8.5c-41.333 0 -75.833 11.5 -103.5 34.5s-41.5 61.5 -41.5 115.5v243
c0 19.333 -1.83301 32.333 -5.5 39s-9.83398 10.667 -18.501 12z" />
    <glyph glyph-name="v" unicode="v" horiz-adv-x="520" 
d="M-8 452v38.002h265v-38l-37 -5c-8.66699 -0.666992 -14 -3.33398 -16 -8.00098s-1.33301 -11.667 2 -21l98 -286h4c47.333 141.333 77.333 235.333 90 282c5.33301 19.333 0 30 -16 32l-43 6v38h207v-38c-21.333 -1.33301 -36.166 -4.5 -44.499 -9.5
s-16.5 -16.167 -24.5 -33.5c-22 -44 -46 -101.667 -72 -173l-87 -236h-110l-78 215c-36 97.333 -60.333 161.666 -73 192.999c-6.66699 16 -14.334 27 -23.001 33s-22.667 9.66699 -42 11z" />
    <glyph glyph-name="w" unicode="w" horiz-adv-x="774" 
d="M-10 452l0.00390625 38.001h260v-38l-28 -3c-10 -0.666992 -16.333 -3.5 -19 -8.5s-2.33398 -12.833 0.999023 -23.5l76 -275h3l93 348h105l103 -348h4c37.333 141.333 59.666 231.666 66.999 270.999c3.33301 19.333 -2.33398 30.333 -17.001 33l-43 6v38h207v-38
c-24.667 -2 -41 -5.83301 -49 -11.5s-16 -18.5 -24 -38.5c-14.667 -34.667 -33.667 -90.667 -57 -168l-72 -234h-110l-100 307h-4l-91 -307h-110l-84 265c-19.333 60.667 -35.333 108.667 -48 144c-6 16.667 -12.833 27.5 -20.5 32.5s-21.834 8.5 -42.501 10.5z" />
    <glyph glyph-name="x" unicode="x" horiz-adv-x="522" 
d="M-15 0l0.00390625 38c26.667 3.33301 46.5 8 59.5 14s27.167 17.667 42.5 35c16.667 18.667 54.667 65.334 114 140.001l-70 98.5l-63 89.5c-10 13.333 -19.333 22.166 -28 26.499s-24 7.83301 -46 10.5v38h260v-38l-23 -4c-12.667 -2 -14.667 -9 -6 -21l62 -95h2l60 89
c11.333 16.667 9.66602 26 -5.00098 28l-26 3v38h198v-38c-34.667 -0.666992 -63.334 -12.334 -86.001 -35.001c-42 -42.667 -78.667 -85.334 -110 -128.001c56.667 -83.333 104 -150.666 142 -201.999c14.667 -18.667 27.667 -31.167 39 -37.5
s27.666 -10.166 48.999 -11.499v-38h-278v38l22 3c19.333 2 23.666 11.333 12.999 28l-73 112h-2l-69 -108c-12 -18 -9.33301 -28 8 -30l35 -5v-38h-221z" />
    <glyph glyph-name="y" unicode="y" horiz-adv-x="524" 
d="M-12 452l0.000976562 37.999h280v-38l-38 -6c-15.333 -2 -19.333 -13 -12 -33c12 -36.667 30.833 -89.334 56.5 -158.001s40.5 -109 44.5 -121h2c49.333 150 79.666 244 90.999 282c4.66699 18 -0.333008 28 -15 30l-41 6v38h201v-38l-21 -2
c-13.333 -1.33301 -23.666 -6.66602 -30.999 -15.999s-16 -25.666 -26 -48.999c-75.333 -182 -134.333 -330.333 -177 -445c-26 -69.333 -51.667 -117 -77 -143s-56 -39 -92 -39c-20.667 0 -39.334 5.83301 -56.001 17.5s-25 26.834 -25 45.501
c0 19.333 6.66699 37.666 20 54.999s28 26 44 26c10.667 0 25.667 -7 45 -21c12 -10 24 -15 36 -15c17.333 0 30.333 16.333 39 49c5.33301 20.667 3.33301 42.667 -6 66c-48.667 127.333 -105.667 269 -171 425c-10 24 -22.667 37.667 -38 41z" />
    <glyph glyph-name="z" unicode="z" horiz-adv-x="483" 
d="M-1 21l288.999 423h-82c-23.333 0 -42 -2 -56 -6s-25.5 -12.333 -34.5 -25s-15.333 -24.5 -19 -35.5s-8.5 -29.5 -14.5 -55.5h-39v168h422l11 -20l-289 -424h97c50.667 0 85.834 9 105.501 27s37.167 53.667 52.5 107h38l-12 -180h-457z" />
    <glyph glyph-name="braceleft" unicode="{" horiz-adv-x="365" 
d="M74 265l0.000976562 33.9961c31.333 0 54 4.5 68 13.5s21.167 21.667 21.5 38s-0.833984 36.5 -3.50098 60.5l-10 94c-0.666992 16.667 -1.66699 33.667 -3 51s0.5 34.166 5.5 50.499s11.833 30.833 20.5 43.5s22.5 22.834 41.5 30.501s42.167 11.5 69.5 11.5h41v-34
c-37.333 -2 -60.666 -12.5 -69.999 -31.5s-12 -48.167 -8 -87.5l8 -77c0.666992 -4 1.5 -11.833 2.5 -23.5l2 -23.5c0.333008 -4 0.833008 -11.167 1.5 -21.5s0.5 -17.666 -0.5 -21.999s-2.33301 -10.666 -4 -18.999s-4.16699 -14.5 -7.5 -18.5l-12 -15
c-4.66699 -6 -10.5 -10.833 -17.5 -14.5s-15.167 -7.16699 -24.5 -10.5s-19.666 -6.33301 -30.999 -9v-6c11.333 -2.66699 21.666 -5.66699 30.999 -9s17.5 -6.83301 24.5 -10.5s12.833 -8.5 17.5 -14.5l12 -15c3.33301 -4 5.83301 -10.167 7.5 -18.5s3 -14.666 4 -18.999
s1.16699 -11.666 0.5 -21.999s-1.16699 -17.5 -1.5 -21.5l-2 -23.5c-1 -11.667 -1.83301 -19.5 -2.5 -23.5l-8 -77c-4 -39.333 -1.33301 -68.5 8 -87.5s32.666 -29.5 69.999 -31.5v-34h-41c-27.333 0 -50.5 3.83301 -69.5 11.5s-32.833 17.834 -41.5 30.501
s-15.5 27.167 -20.5 43.5s-6.83301 33.166 -5.5 50.499s2.33301 34.333 3 51l10 94c4 38 -0.166992 66.167 -12.5 84.5s-36.833 27.5 -73.5 27.5z" />
    <glyph glyph-name="bar" unicode="|" horiz-adv-x="284" 
d="M94 -250v1000h96v-1000h-96z" />
    <glyph glyph-name="braceright" unicode="}" horiz-adv-x="365" 
d="M40 -94c37.333 2 60.667 12.5039 70 31.5039s12 48.167 8 87.5l-8 77c-0.666992 4 -1.5 11.833 -2.5 23.5l-2 23.5c-0.333008 4 -0.833008 11.167 -1.5 21.5s-0.5 17.666 0.5 21.999s2.33301 10.666 4 18.999s4.16699 14.5 7.5 18.5l12 15
c4.66699 6 10.5 10.833 17.5 14.5s15.167 7.16699 24.5 10.5s19.666 6.33301 30.999 9v6c-11.333 2.66699 -21.666 5.66699 -30.999 9s-17.5 6.83301 -24.5 10.5s-12.833 8.5 -17.5 14.5l-12 15c-3.33301 4 -5.83301 10.167 -7.5 18.5s-3 14.666 -4 18.999
s-1.16699 11.666 -0.5 21.999s1.16699 17.5 1.5 21.5l2 23.5c1 11.667 1.83301 19.5 2.5 23.5l8 77c4 39.333 1.33301 68.5 -8 87.5s-32.666 29.5 -69.999 31.5v34h41c27.333 0 50.5 -3.83301 69.5 -11.5s32.833 -17.834 41.5 -30.501s15.5 -27.167 20.5 -43.5
s6.83301 -33.166 5.5 -50.499s-2.33301 -34.333 -3 -51l-10 -94c-2.66699 -24 -3.83398 -44.167 -3.50098 -60.5s7.5 -29 21.5 -38s36.667 -13.5 68 -13.5v-34c-36.667 0 -61.167 -9.16699 -73.5 -27.5s-16.5 -46.5 -12.5 -84.5l10 -94
c0.666992 -16.667 1.66699 -33.667 3 -51s-0.5 -34.166 -5.5 -50.499s-11.833 -30.833 -20.5 -43.5s-22.5 -22.834 -41.5 -30.501s-42.167 -11.5 -69.5 -11.5h-41v34z" />
    <glyph glyph-name="asciitilde" unicode="~" horiz-adv-x="600" 
d="M50 186c8 18 15.5029 33.499 22.5029 46.499s16.667 27.333 29 43s27.166 27.667 44.499 36s37 12.5 59 12.5c25.333 0 60.666 -9.33301 105.999 -28c44 -19.333 77 -29 99 -29c17.333 0 32.5 5.33301 45.5 16s26.833 29.334 41.5 56.001l54 -28
c-17.333 -40.667 -37.833 -73 -61.5 -97s-55.167 -36 -94.5 -36c-32 0 -68 9.66699 -108 29c-42.667 18.667 -75.334 28 -98.001 28c-31.333 0 -59 -25.667 -83 -77z" />
    <glyph glyph-name="uni0400" unicode="&#x400;" horiz-adv-x="629" 
d="M134 840c0 12 5.33203 25.666 15.999 40.999s23.334 23 38.001 23c16 0 37.333 -10 64 -30l172 -123l-14 -32l-203 64c-28 8.66699 -47.167 16.834 -57.5 24.501s-15.5 18.5 -15.5 32.5zM32.999 -0.000976562v38.0068c36 1.33301 58.167 5.16602 66.5 11.499
s12.5 22.166 12.5 47.499v498c0 25.333 -4.16699 41.166 -12.5 47.499s-30.5 10.166 -66.5 11.499v38h539v-185h-38c-8.66699 28.667 -16.167 50.167 -22.5 64.5s-15 28 -26 41s-24.667 21.833 -41 26.5s-37.166 7 -62.499 7h-75c-14 0 -23.333 -2.33301 -28 -7
s-7 -14.334 -7 -29.001v-221h95c30.667 0 51.667 5.66699 63 17s21 35.666 29 72.999h38v-232h-38c-8 37.333 -17.667 61.666 -29 72.999s-32.333 17 -63 17h-95v-218c0 -30.667 8.33301 -50.5 25 -59.5s49.334 -13.5 98.001 -13.5c19.333 0 36.166 1.16699 50.499 3.5
s27.166 7.5 38.499 15.5s20.333 15 27 21s13.667 17 21 33s12.833 28.833 16.5 38.5s9.5 26.5 17.5 50.5h38l-12 -208h-559z" />
    <glyph glyph-name="afii10023" unicode="&#x401;" horiz-adv-x="629" 
d="M378 806c0 20 7.16699 37.5 21.5 52.5s33.5 22.5 57.5 22.5s43.167 -7.5 57.5 -22.5s21.5 -32.5 21.5 -52.5s-7.16699 -37.5 -21.5 -52.5s-33.5 -22.5 -57.5 -22.5s-43.167 7.5 -57.5 22.5s-21.5 32.5 -21.5 52.5zM126 806c0 20 7.16699 37.5 21.5 52.5
s33.5 22.5 57.5 22.5s43.167 -7.5 57.5 -22.5s21.5 -32.5 21.5 -52.5s-7.16699 -37.5 -21.5 -52.5s-33.5 -22.5 -57.5 -22.5s-43.167 7.5 -57.5 22.5s-21.5 32.5 -21.5 52.5zM33 0v38.0068c36 1.33301 58.167 5.16602 66.5 11.499s12.5 22.166 12.5 47.499v498
c0 25.333 -4.16699 41.166 -12.5 47.499s-30.5 10.166 -66.5 11.499v38h539v-185h-38c-8.66699 28.667 -16.167 50.167 -22.5 64.5s-15 28 -26 41s-24.667 21.833 -41 26.5s-37.166 7 -62.499 7h-75c-14 0 -23.333 -2.33301 -28 -7s-7 -14.334 -7 -29.001v-221h95
c30.667 0 51.667 5.66699 63 17s21 35.666 29 72.999h38v-232h-38c-8 37.333 -17.667 61.666 -29 72.999s-32.333 17 -63 17h-95v-218c0 -30.667 8.33301 -50.5 25 -59.5s49.334 -13.5 98.001 -13.5c19.333 0 36.166 1.16699 50.499 3.5s27.166 7.5 38.499 15.5
s20.333 15 27 21s13.667 17 21 33s12.833 28.833 16.5 38.5s9.5 26.5 17.5 50.5h38l-12 -208h-559z" />
    <glyph glyph-name="afii10051" unicode="&#x402;" horiz-adv-x="840" 
d="M15 504l-0.00292969 187.998h594v-188h-38c-7.33301 22 -12.666 37.333 -15.999 46s-8.16602 20.167 -14.499 34.5s-12.166 24 -17.499 29s-12.5 10.667 -21.5 17s-19 10.5 -30 12.5s-24.167 3 -39.5 3h-60v-268c24.667 14.667 45.167 26 61.5 34s38 15.5 65 22.5
s55.167 10.5 84.5 10.5c24.667 0 49 -4.16699 73 -12.5s46.667 -21 68 -38s38.666 -41.167 51.999 -72.5s20 -67.666 20 -108.999c0 -46 -6 -84.833 -18 -116.5s-29.167 -55.167 -51.5 -70.5s-45.666 -26 -69.999 -32s-52.5 -9 -84.5 -9c-42.667 0 -78 9.66699 -106 29
s-42 49 -42 89c0 28 5.5 47.5 16.5 58.5s28.5 16.5 52.5 16.5c37.333 0 56 -18.667 56 -56c0 -8.66699 -2 -18.167 -6 -28.5s-6 -20.166 -6 -29.499c0 -22 10.667 -33 32 -33c22 0 36.333 16.5 43 49.5s10 80.833 10 143.5c0 40.667 -8.5 74 -25.5 100s-42.833 39 -77.5 39
c-42 0 -72.333 -4.66699 -91 -14c-23.333 -12 -38.5 -22.333 -45.5 -31s-10.5 -21 -10.5 -37v-281h-256v38l57 4c15.333 0.666992 25.666 5 30.999 13s8 21.333 8 40v551h-20c-42.667 0 -71.667 -9.33301 -87 -28s-32.666 -56.667 -51.999 -114h-38z" />
    <glyph glyph-name="afii10052" unicode="&#x403;" horiz-adv-x="574" 
d="M181 771l171.999 123.001c26.667 20 48 30 64 30c14.667 0 27.334 -7.66699 38.001 -23s16 -29 16 -41c0 -14 -5.16699 -24.833 -15.5 -32.5s-29.5 -15.834 -57.5 -24.501l-203 -64zM32.999 0.000976562v38.0029c36 1.33301 58.167 5.16602 66.5 11.499
s12.5 22.166 12.5 47.499v498c0 25.333 -4.16699 41.166 -12.5 47.499s-30.5 10.166 -66.5 11.499v38h526v-195h-37c-14 54 -31.5 92.333 -52.5 115s-54.833 34 -101.5 34h-61c-14 0 -23.333 -2.33301 -28 -7s-7 -14.334 -7 -29.001v-513c0 -25.333 5 -41.166 15 -47.499
s37 -10.166 81 -11.499v-38h-335z" />
    <glyph glyph-name="afii10053" unicode="&#x404;" horiz-adv-x="689" 
d="M42 339c0 38.667 3.32812 74.6719 9.99512 108.005s18.834 66.333 36.501 99s40.334 60.5 68.001 83.5s64.334 41.667 110.001 56s97.834 21.5 156.501 21.5c94.667 0 166.334 -14.667 215.001 -44v-179h-38c-6 19.333 -11.333 35 -16 47s-12.167 27.167 -22.5 45.5
s-21.5 32.833 -33.5 43.5s-27.833 20.167 -47.5 28.5s-41.834 12.5 -66.501 12.5c-30 0 -56.5 -6.33301 -79.5 -19s-41.167 -28.334 -54.5 -47.001s-24.5 -40.834 -33.5 -66.501s-15.333 -48.834 -19 -69.501s-6.16699 -42.334 -7.5 -65.001h263v-48h-264
c0 -26.667 1.5 -52.5 4.5 -77.5s9 -52.5 18 -82.5s20.5 -56 34.5 -78s33.667 -40.333 59 -55s54.333 -22 87 -22c51.333 0 90.833 15.333 118.5 46s51.834 75 72.501 133h40l-11 -177c-53.333 -32 -131.333 -48 -234 -48c-124 0 -216 31.167 -276 93.5
s-90 149.166 -90 260.499z" />
    <glyph glyph-name="afii10054" unicode="&#x405;" horiz-adv-x="561" 
d="M42 226l37.0029 0.00683594c18.667 -61.333 45.334 -109.166 80.001 -143.499s71.334 -51.5 110.001 -51.5c34 0 61.333 9.16699 82 27.5s31.334 45.5 32.001 81.5c0 32 -10.667 59.667 -32 83s-55 44.666 -101 63.999c-27.333 11.333 -50.5 22.166 -69.5 32.499
s-39.5 24.166 -61.5 41.499s-38.833 37.833 -50.5 61.5s-17.5 50.167 -17.5 79.5c0 61.333 21.167 110.833 63.5 148.5s104.166 56.5 185.499 56.5c77.333 0 139.666 -14.667 186.999 -44v-164h-36c-13.333 55.333 -33.5 96.166 -60.5 122.499s-57.5 39.5 -91.5 39.5
c-30.667 0 -55.667 -9.33301 -75 -28s-29 -43.334 -29 -74.001c0 -18 4.16699 -34.333 12.5 -49s21.166 -27.834 38.499 -39.501s32.666 -20.834 45.999 -27.501s30.666 -14.334 51.999 -23.001c27.333 -11.333 50.333 -22.333 69 -33s38.167 -24.5 58.5 -41.5
s35.666 -37.833 45.999 -62.5s15.5 -52.667 15.5 -84c0 -28 -4.33301 -53.833 -13 -77.5s-22.5 -46 -41.5 -67s-46 -37.667 -81 -50s-76.5 -18.833 -124.5 -19.5c-39.333 0 -79.333 5 -120 15s-72.667 25.667 -96 47z" />
    <glyph glyph-name="afii10055" unicode="&#x406;" horiz-adv-x="384" 
d="M33 0v38c36 1.33301 58.167 5.16602 66.5 11.499s12.5 22.166 12.5 47.499v498c0 25.333 -4.16699 41.166 -12.5 47.499s-30.5 10.166 -66.5 11.499v38h318v-38c-36 -1.33301 -58.167 -5.16602 -66.5 -11.499s-12.5 -22.166 -12.5 -47.499v-498
c0 -25.333 4.16699 -41.166 12.5 -47.499s30.5 -10.166 66.5 -11.499v-38h-318z" />
    <glyph glyph-name="afii10056" unicode="&#x407;" horiz-adv-x="384" 
d="M239 806c0 20 7.16699 37.5 21.5 52.5s33.5 22.5 57.5 22.5s43.167 -7.5 57.5 -22.5s21.5 -32.5 21.5 -52.5s-7.16699 -37.5 -21.5 -52.5s-33.5 -22.5 -57.5 -22.5s-43.167 7.5 -57.5 22.5s-21.5 32.5 -21.5 52.5zM-13 806c0 20 7.16699 37.5 21.5 52.5
s33.5 22.5 57.5 22.5s43.167 -7.5 57.5 -22.5s21.5 -32.5 21.5 -52.5s-7.16699 -37.5 -21.5 -52.5s-33.5 -22.5 -57.5 -22.5s-43.167 7.5 -57.5 22.5s-21.5 32.5 -21.5 52.5zM33 0v38c36 1.33301 58.167 5.16602 66.5 11.499s12.5 22.166 12.5 47.499v498
c0 25.333 -4.16699 41.166 -12.5 47.499s-30.5 10.166 -66.5 11.499v38h318v-38c-36 -1.33301 -58.167 -5.16602 -66.5 -11.499s-12.5 -22.166 -12.5 -47.499v-498c0 -25.333 4.16699 -41.166 12.5 -47.499s30.5 -10.166 66.5 -11.499v-38h-318z" />
    <glyph glyph-name="afii10057" unicode="&#x408;" horiz-adv-x="386" 
d="M6 -83c32.667 10.667 58.332 26.333 76.999 47c26 29.333 39 90 39 182v449c0 25.333 -4.16699 41.166 -12.5 47.499s-30.5 10.166 -66.5 11.499v38h318v-38c-36 -1.33301 -58.167 -5.16602 -66.5 -11.499s-12.5 -22.166 -12.5 -47.499v-452
c0 -58.667 -8 -106.167 -24 -142.5s-42.667 -63.5 -80 -81.5c-49.333 -23.333 -104.666 -34.333 -165.999 -33z" />
    <glyph glyph-name="afii10058" unicode="&#x409;" horiz-adv-x="1094" 
d="M13 117c0 28.667 6.16797 49.001 18.501 61.001s27.166 18 44.499 18s34 -4.33301 50 -13s24 -23.667 24 -45c0 -8.66699 -3.5 -21.5 -10.5 -38.5s-10.5 -29.5 -10.5 -37.5c0 -20.667 9.66699 -31 29 -31c40 0 72 50 96 150s36 238 36 414
c0 25.333 -4.16699 41.166 -12.5 47.499s-30.5 10.166 -66.5 11.499v38h568v-36c-44 -2.66699 -71 -7.16699 -81 -13.5s-15 -22.166 -15 -47.499v-206c26.667 5.33301 55.334 8 86.001 8c191.333 0 287 -66.333 287 -199c0 -71.333 -23.333 -122.166 -70 -152.499
s-117.334 -45.5 -212.001 -45.5h-330v38c36 1.33301 58.167 5.16602 66.5 11.499s12.5 22.166 12.5 47.499v495c0 22.667 -4.33301 37 -13 43s-30.667 9.66699 -66 11h-13c-35.333 -1.33301 -57.333 -5 -66 -11s-13 -20.333 -13 -43c0 -189.333 -16.333 -337.833 -49 -445.5
s-80 -161.5 -142 -161.5c-40.667 0 -75.5 11.833 -104.5 35.5s-43.5 55.834 -43.5 96.501zM683.001 111.001c0 -24 5.66797 -40.832 17.001 -50.499s29.666 -14.5 54.999 -14.5c84 0 126 50.667 126 152c0 53.333 -13.5 92.166 -40.5 116.499s-61.167 36.5 -102.5 36.5
c-22 0 -40.333 -3.33301 -55 -10v-230z" />
    <glyph glyph-name="afii10059" unicode="&#x40a;" horiz-adv-x="1106" 
d="M33 0v38.002c36 1.33301 58.167 5.16602 66.5 11.499s12.5 22.166 12.5 47.499v498c0 25.333 -4.16699 41.166 -12.5 47.499s-30.5 10.166 -66.5 11.499v38h318v-38c-36 -1.33301 -58.167 -5.16602 -66.5 -11.499s-12.5 -22.166 -12.5 -47.499v-206h263v206
c0 25.333 -4.16699 41.166 -12.5 47.499s-30.5 10.166 -66.5 11.499v38h335v-36c-44 -2.66699 -71 -7.16699 -81 -13.5s-15 -22.166 -15 -47.499v-206c26.667 5.33301 55.334 8 86.001 8c191.333 0 287 -66.333 287 -199c0 -71.333 -23.333 -122.166 -70 -152.499
s-117.334 -45.5 -212.001 -45.5h-330v38c36 1.33301 58.167 5.16602 66.5 11.499s12.5 22.166 12.5 47.499v244h-263v-244c0 -25.333 4.16699 -41.166 12.5 -47.499s30.5 -10.166 66.5 -11.499v-38h-318zM695 111.002c0 -24 5.66797 -40.832 17.001 -50.499
s29.666 -14.5 54.999 -14.5c84 0 126 50.667 126 152c0 53.333 -13.5 92.166 -40.5 116.499s-61.167 36.5 -102.5 36.5c-22 0 -40.333 -3.33301 -55 -10v-230z" />
    <glyph glyph-name="afii10060" unicode="&#x40b;" horiz-adv-x="866" 
d="M15 504l-0.00488281 187.998h594v-188h-38c-7.33301 22 -12.666 37.333 -15.999 46s-8.16602 20.167 -14.499 34.5s-12.166 24 -17.499 29s-12.5 10.667 -21.5 17s-19 10.5 -30 12.5s-24.167 3 -39.5 3h-60v-267c26.667 14 48.834 25 66.501 33s41.334 15.5 71.001 22.5
s60.167 10.5 91.5 10.5c56 0 96.833 -17 122.5 -51s38.5 -85.667 38.5 -155v-142c0 -25.333 4.16699 -41.166 12.5 -47.499s30.5 -10.166 66.5 -11.499v-38h-310v38c32 2 51.833 6.16699 59.5 12.5s11.5 21.833 11.5 46.5v162c0 37.333 -5.33301 64 -16 80s-33 24 -67 24
c-42 0 -72.333 -4.66699 -91 -14c-23.333 -12 -38.5 -22.333 -45.5 -31s-10.5 -21 -10.5 -37v-184c0 -24.667 3.83301 -40.167 11.5 -46.5s27.5 -10.5 59.5 -12.5v-38h-327v38l57 4c15.333 0.666992 25.666 5 30.999 13s8 21.333 8 40v551h-20
c-42.667 0 -71.667 -9.33301 -87 -28s-32.666 -56.667 -51.999 -114h-38z" />
    <glyph glyph-name="afii10061" unicode="&#x40c;" horiz-adv-x="812" 
d="M281 771l171.999 123.001c26.667 20 48 30 64 30c14.667 0 27.334 -7.66699 38.001 -23s16 -29 16 -41c0 -14 -5.16699 -24.833 -15.5 -32.5s-29.5 -15.834 -57.5 -24.501l-203 -64zM32.999 0.000976562l-0.00390625 38.001c36 1.33301 58.167 5.16602 66.5 11.499
s12.5 22.166 12.5 47.499v498c0 25.333 -4.16699 41.166 -12.5 47.499s-30.5 10.166 -66.5 11.499v38h318v-38c-36 -1.33301 -58.167 -5.16602 -66.5 -11.499s-12.5 -22.166 -12.5 -47.499v-206h34c49.333 0 85 12 107 36s40 60.667 54 110
c14.667 53.333 32.834 95.333 54.501 126s50.834 46 87.501 46c40 0 72.667 -9.83301 98 -29.5s38 -50.5 38 -92.5c0 -16 -5.16699 -30.667 -15.5 -44s-26.5 -20 -48.5 -20c-20.667 0 -36.167 3.5 -46.5 10.5s-15.5 20.167 -15.5 39.5c0 10.667 1.33301 22.5 4 35.5
s4 23.167 4 30.5c0 9.33301 -1.33301 15.666 -4 18.999s-7.66699 5 -15 5c-13.333 0 -26.666 -10.5 -39.999 -31.5s-24.666 -50.5 -33.999 -88.5c-12 -48.667 -25.333 -85.5 -40 -110.5s-33.667 -43.167 -57 -54.5v-1c29.333 -5.33301 53.5 -11 72.5 -17
s40 -15.833 63 -29.5s42 -33.167 57 -58.5s25.833 -56.333 32.5 -93c18.667 -97.333 56 -146 112 -146h5v-46h-68c-64.667 0 -113.5 9 -146.5 27s-54.167 55.667 -63.5 113c-22.667 144 -86.667 216 -192 216h-37v-244c0 -25.333 4.16699 -41.166 12.5 -47.499
s30.5 -10.166 66.5 -11.499v-38h-318z" />
    <glyph glyph-name="uni040D" unicode="&#x40d;" horiz-adv-x="814" 
d="M223 840c0 12 5.33203 25.666 15.999 40.999s23.334 23 38.001 23c16 0 37.333 -10 64 -30l172 -123l-14 -32l-203 64c-28 8.66699 -47.167 16.834 -57.5 24.501s-15.5 18.5 -15.5 32.5zM32.999 -0.000976562v38c36 1.33301 58.167 5.16602 66.5 11.499
s12.5 22.166 12.5 47.499v498c0 25.333 -4.16699 41.166 -12.5 47.499s-30.5 10.166 -66.5 11.499v38h318v-38c-36 -1.33301 -58.167 -5.16602 -66.5 -11.499s-12.5 -22.166 -12.5 -47.499v-363l270 345v18c0 25.333 -4.16699 41.166 -12.5 47.499
s-30.5 10.166 -66.5 11.499v38h318v-38c-36 -1.33301 -58.167 -5.16602 -66.5 -11.499s-12.5 -22.166 -12.5 -47.499v-498c0 -25.333 4.16699 -41.166 12.5 -47.499s30.5 -10.166 66.5 -11.499v-38h-318v38c36 1.33301 58.167 5.16602 66.5 11.499s12.5 22.166 12.5 47.499
v389l-270 -345v-44c0 -25.333 4.16699 -41.166 12.5 -47.499s30.5 -10.166 66.5 -11.499v-38h-318z" />
    <glyph glyph-name="afii10062" unicode="&#x40e;" horiz-adv-x="732" 
d="M187 865c0 22.667 5.16895 42.667 15.502 60s24.5 26 42.5 26c26 0 45.333 -5 58 -15s19 -22 19 -36c0 -10.667 -2.66699 -21.5 -8 -32.5s-8 -21.833 -8 -32.5s7.66699 -20.834 23 -30.501s35.666 -14.5 60.999 -14.5s45.666 4.83301 60.999 14.5s23 19.834 23 30.501
s-2.66699 21.5 -8 32.5s-8 21.833 -8 32.5c0 14 6.33301 26 19 36s32 15 58 15c18 0 32.167 -8.66699 42.5 -26s15.5 -37.333 15.5 -60c0 -31.333 -17.667 -59.166 -53 -83.499s-85.333 -36.5 -150 -36.5s-114.667 12.167 -150 36.5s-53 52.166 -53 83.499zM20.002 654
l-0.000976562 38h303v-38l-44 -5c-14 -2 -21 -7 -21 -15c0.666992 -10 17 -46.333 49 -109l30 -59l83 -165h3l60 137c32 72 55.333 131.333 70 178c6 20 0.333008 31 -17 33l-56 5v38h232v-38c-28 -2 -46.667 -6.33301 -56 -13s-19 -22 -29 -46l-233 -507
c-13.333 -30 -30.5 -53 -51.5 -69s-39.5 -25.667 -55.5 -29s-35 -5 -57 -5c-46 0 -82.167 12.833 -108.5 38.5s-39.5 59.834 -39.5 102.501c0 26.667 6.83301 46.5 20.5 59.5s29.834 19.5 48.501 19.5c18 0 34.833 -5 50.5 -15s23.5 -22.667 23.5 -38
c0 -12.667 -3.16699 -28.334 -9.5 -47.001s-9.5 -31 -9.5 -37c0 -24.667 10 -37 30 -37c19.333 0 38.166 7.16699 56.499 21.5s31.833 31.5 40.5 51.5l8 18l-245 481c-10.667 21.333 -20.167 35 -28.5 41s-24.166 9.33301 -47.499 10z" />
    <glyph glyph-name="afii10145" unicode="&#x40f;" horiz-adv-x="798" 
d="M33 0l-0.00390625 38.002c36 1.33301 58.167 5.16602 66.5 11.499s12.5 22.166 12.5 47.499v498c0 25.333 -4.16699 41.166 -12.5 47.499s-30.5 10.166 -66.5 11.499v38h318v-38c-36 -1.33301 -58.167 -5.16602 -66.5 -11.499s-12.5 -22.166 -12.5 -47.499v-495
c0 -22.667 4.33301 -37 13 -43s30.667 -9.66699 66 -11h96c35.333 1.33301 57.333 5 66 11s13 20.333 13 43v495c0 25.333 -4.16699 41.166 -12.5 47.499s-30.5 10.166 -66.5 11.499v38h318v-38c-36 -1.33301 -58.167 -5.16602 -66.5 -11.499s-12.5 -22.166 -12.5 -47.499
v-495c0 -22.667 4.33301 -37 13 -43s30.667 -9.66699 66 -11v-46h-138c-39.333 0 -70.166 -2.33301 -92.499 -7s-41.166 -14.834 -56.499 -30.501s-27 -34.334 -35 -56.001s-16.333 -53.834 -25 -96.501h-38c-8.66699 42.667 -17 74.834 -25 96.501
s-19.667 40.334 -35 56.001s-34.166 25.834 -56.499 30.501s-53.166 7 -92.499 7h-138z" />
    <glyph glyph-name="afii10017" unicode="&#x410;" horiz-adv-x="644" 
d="M-28 0v38.002c27.333 1.33301 45.666 5.16602 54.999 11.499s18 19.833 26 40.5c2 6 33 94.333 93 265l116 337h126l197 -606c6.66699 -20 14.667 -32.833 24 -38.5s27.333 -8.83398 54 -9.50098v-38h-316v38l58 6c18.667 2 24.334 14 17.001 36l-52 166h-194
c-26.667 -87.333 -42.667 -143 -48 -167c-3.33301 -10.667 -3.83301 -19.167 -1.5 -25.5s8.83301 -9.83301 19.5 -10.5l60 -5v-38h-234zM192 294.002h162l-78 259h-3z" />
    <glyph glyph-name="afii10018" unicode="&#x411;" horiz-adv-x="683" 
d="M33 0l0.000976562 38.0039c36 1.33301 58.167 5.16602 66.5 11.499s12.5 22.166 12.5 47.499v498c0 25.333 -4.16699 41.166 -12.5 47.499s-30.5 10.166 -66.5 11.499v38h543v-195h-37c-10.667 52.667 -26.5 90.667 -47.5 114s-53.833 35 -98.5 35h-86
c-14 0 -23.333 -2.16699 -28 -6.5s-7 -12.833 -7 -25.5v-219c26.667 5.33301 55.334 8 86.001 8c25.333 0 48.166 -0.833008 68.499 -2.5s45 -6.33398 74 -14.001s53.167 -18.167 72.5 -31.5s36.166 -33.166 50.499 -59.499s21.5 -57.833 21.5 -94.5
c0 -73.333 -22.833 -125 -68.5 -155s-115.167 -45.333 -208.5 -46h-335zM272.001 111.004c0 -24 5.66895 -40.832 17.002 -50.499s29.666 -14.5 54.999 -14.5c39.333 0 70.166 11.5 92.499 34.5s33.5 63.167 33.5 120.5c0 55.333 -13.667 95.166 -41 119.499
s-61.333 36.5 -102 36.5c-22 0 -40.333 -3.33301 -55 -10v-236z" />
    <glyph glyph-name="afii10019" unicode="&#x412;" horiz-adv-x="683" 
d="M33 0l-0.000976562 38.0029c36 1.33301 58.167 5.16602 66.5 11.499s12.5 22.166 12.5 47.499v498c0 25.333 -4.16699 41.166 -12.5 47.499s-30.5 10.166 -66.5 11.499v38h330c82.667 0 145.834 -13 189.501 -39s65.5 -68.333 65.5 -127
c0 -82 -49.333 -133.667 -148 -155v-2c50.667 -7.33301 92.5 -26.166 125.5 -56.499s49.5 -71.5 49.5 -123.5c0 -59.333 -19 -104.333 -57 -135c-44.667 -36 -119.667 -54 -225 -54h-330zM271.999 111.003c0 -24 5.66797 -40.833 17.001 -50.5s29.666 -14.5 54.999 -14.5
c84 0 126 47.333 126 142c0 44.667 -12.5 81.667 -37.5 111s-61.5 44 -109.5 44h-51v-232zM272 389.003l48.999 0.000976562c46 0 80 11.667 102 35s33 54.666 33 93.999s-10.167 70.5 -30.5 93.5s-52.166 34.5 -95.499 34.5c-22 0 -37.167 -2.16699 -45.5 -6.5
s-12.5 -14.5 -12.5 -30.5v-220z" />
    <glyph glyph-name="afii10020" unicode="&#x413;" horiz-adv-x="574" 
d="M33 0v38.0029c36 1.33301 58.167 5.16602 66.5 11.499s12.5 22.166 12.5 47.499v498c0 25.333 -4.16699 41.166 -12.5 47.499s-30.5 10.166 -66.5 11.499v38h526v-195h-37c-14 54 -31.5 92.333 -52.5 115s-54.833 34 -101.5 34h-61c-14 0 -23.333 -2.33301 -28 -7
s-7 -14.334 -7 -29.001v-513c0 -25.333 5 -41.166 15 -47.499s37 -10.166 81 -11.499v-38h-335z" />
    <glyph glyph-name="afii10021" unicode="&#x414;" horiz-adv-x="751" 
d="M11 -190l13.002 236h40c47.333 0 89.5 49.5 126.5 148.5s55.5 232.5 55.5 400.5c0 25.333 -4.16699 41.166 -12.5 47.499s-30.5 10.166 -66.5 11.499v38h551v-38c-36 -1.33301 -58.167 -5.16602 -66.5 -11.499s-12.5 -22.166 -12.5 -47.499v-495
c0 -22.667 4.33301 -37 13 -43s30.667 -9.66699 66 -11l13 -236h-38c-8.66699 31.333 -15.334 54.666 -20.001 69.999s-11.167 31.666 -19.5 48.999s-16.5 29.333 -24.5 36s-19.5 13.334 -34.5 20.001s-31.333 10.834 -49 12.501s-40.5 2.5 -68.5 2.5h-212
c-28 0 -50.833 -0.833008 -68.5 -2.5s-34 -5.83398 -49 -12.501s-26.5 -13.334 -34.5 -20.001s-16.167 -18.667 -24.5 -36s-14.833 -33.666 -19.5 -48.999s-11.334 -38.666 -20.001 -69.999h-38zM170.002 46h230.001c35.333 1.33301 57.333 5 66 11s13 20.333 13 43v492
c0 22.667 -4.33301 37 -13 43s-30.667 9.66699 -66 11h-13c-35.333 -1.33301 -57.333 -5 -66 -11s-13 -20.333 -13 -43c0 -133.333 -12.333 -247 -37 -341s-58.334 -162.333 -101.001 -205z" />
    <glyph glyph-name="afii10022" unicode="&#x415;" horiz-adv-x="629" 
d="M33 0v38.0068c36 1.33301 58.167 5.16602 66.5 11.499s12.5 22.166 12.5 47.499v498c0 25.333 -4.16699 41.166 -12.5 47.499s-30.5 10.166 -66.5 11.499v38h539v-185h-38c-8.66699 28.667 -16.167 50.167 -22.5 64.5s-15 28 -26 41s-24.667 21.833 -41 26.5
s-37.166 7 -62.499 7h-75c-14 0 -23.333 -2.33301 -28 -7s-7 -14.334 -7 -29.001v-221h95c30.667 0 51.667 5.66699 63 17s21 35.666 29 72.999h38v-232h-38c-8 37.333 -17.667 61.666 -29 72.999s-32.333 17 -63 17h-95v-218c0 -30.667 8.33301 -50.5 25 -59.5
s49.334 -13.5 98.001 -13.5c19.333 0 36.166 1.16699 50.499 3.5s27.166 7.5 38.499 15.5s20.333 15 27 21s13.667 17 21 33s12.833 28.833 16.5 38.5s9.5 26.5 17.5 50.5h38l-12 -208h-559z" />
    <glyph glyph-name="afii10024" unicode="&#x416;" horiz-adv-x="1170" 
d="M33 -15l-0.00195312 46h5c26.667 0 48.667 11.5 66 34.5s31 60.167 41 111.5c6.66699 36.667 17.167 67.667 31.5 93s32.333 44.833 54 58.5s41.667 23.5 60 29.5s41.5 11.667 69.5 17v1c-22 10.667 -38.833 27.834 -50.5 51.501s-23.834 61.5 -36.501 113.5
c-20 80 -43 120 -69 120c-7.33301 0 -12.333 -1.83301 -15 -5.5s-4 -10.167 -4 -19.5c0 -7.33301 1.33301 -17 4 -29s4 -23.333 4 -34c0 -15.333 -3.5 -27 -10.5 -35s-14.167 -12.833 -21.5 -14.5s-16.666 -2.5 -27.999 -2.5c-21.333 0 -37.666 6 -48.999 18
s-17 26.333 -17 43c0 43.333 12.5 75 37.5 95s57.833 30 98.5 30c34.667 0 62.5 -15.333 83.5 -46s38.833 -72.667 53.5 -126c6 -22 10.833 -38.333 14.5 -49s9.33398 -23.5 17.001 -38.5s16.167 -25.833 25.5 -32.5s22 -12.667 38 -18s34.667 -8 56 -8h14v206
c0 25.333 -4.16699 41.166 -12.5 47.499s-30.5 10.166 -66.5 11.499v38h318v-38c-36 -1.33301 -58.167 -5.16602 -66.5 -11.499s-12.5 -22.166 -12.5 -47.499v-206h14c21.333 0 40 2.66699 56 8s28.667 11.333 38 18s17.833 17.5 25.5 32.5s13.334 27.833 17.001 38.5
s8.5 27 14.5 49c14.667 53.333 32.5 95.333 53.5 126s48.833 46 83.5 46c40.667 0 73.5 -10 98.5 -30s37.5 -51.667 37.5 -95c0 -16.667 -5.66699 -31 -17 -43s-27.666 -18 -48.999 -18c-11.333 0 -20.666 0.833008 -27.999 2.5s-14.5 6.5 -21.5 14.5s-10.5 19.667 -10.5 35
c0 10.667 1.33301 22 4 34s4 21.667 4 29c0 9.33301 -1.33301 15.833 -4 19.5s-7.66699 5.5 -15 5.5c-26 0 -49 -40 -69 -120c-12.667 -52 -24.834 -89.833 -36.501 -113.5s-28.5 -40.834 -50.5 -51.501v-1c28 -5.33301 51.167 -11 69.5 -17s38.333 -15.833 60 -29.5
s39.667 -33.167 54 -58.5s24.833 -56.333 31.5 -93c10 -51.333 23.667 -88.5 41 -111.5s39.333 -34.5 66 -34.5h5v-46h-63c-30 0 -55.167 1.5 -75.5 4.5s-40.5 9.16699 -60.5 18.5s-36.167 23.666 -48.5 42.999s-20.833 44 -25.5 74
c-11.333 71.333 -30.833 125.166 -58.5 161.499s-68.834 54.5 -123.501 54.5h-17v-244c0 -25.333 4.16699 -41.166 12.5 -47.499s30.5 -10.166 66.5 -11.499v-38h-318v38c36 1.33301 58.167 5.16602 66.5 11.499s12.5 22.166 12.5 47.499v244h-17
c-54.667 0 -95.834 -18.167 -123.501 -54.5s-47.167 -90.166 -58.5 -161.499c-4.66699 -30 -13.167 -54.667 -25.5 -74s-28.5 -33.666 -48.5 -42.999s-40.167 -15.5 -60.5 -18.5s-45.5 -4.5 -75.5 -4.5h-63z" />
    <glyph glyph-name="afii10025" unicode="&#x417;" horiz-adv-x="647" 
d="M42 129c0 55.333 23.001 82.999 69.001 82.999c47.333 0 71 -18 71 -54c0 -8 -1.16699 -17.5 -3.5 -28.5s-3.5 -23.833 -3.5 -38.5c0 -40 38 -60 114 -60c42 0 76.667 13 104 39s41 64.333 41 115c0 50 -12.5 90 -37.5 120s-61.5 45 -109.5 45h-99v48h97
c84 0 126 43.333 126 130c0 88.667 -40.667 133 -122 133c-28.667 0 -53.834 -4.83301 -75.501 -14.5s-39.667 -23.667 -54 -42s-25.333 -35.5 -33 -51.5s-15.5 -35.667 -23.5 -59h-38v160c26.667 18 61.167 31.333 103.5 40s79.5 13 111.5 13
c37.333 0 71.833 -2.5 103.5 -7.5s62.5 -13.333 92.5 -25s53.667 -29.334 71 -53.001s26 -52.167 26 -85.5c0 -93.333 -49.333 -146 -148 -158v-2c49.333 -5.33301 92.333 -25.5 129 -60.5s55 -78.167 55 -129.5c0 -69.333 -30.333 -120.166 -91 -152.499
s-140 -48.5 -238 -48.5c-72.667 0 -130.5 13.333 -173.5 40s-64.5 61.334 -64.5 104.001z" />
    <glyph glyph-name="afii10026" unicode="&#x418;" horiz-adv-x="814" 
d="M33 0v38c36 1.33301 58.167 5.16602 66.5 11.499s12.5 22.166 12.5 47.499v498c0 25.333 -4.16699 41.166 -12.5 47.499s-30.5 10.166 -66.5 11.499v38h318v-38c-36 -1.33301 -58.167 -5.16602 -66.5 -11.499s-12.5 -22.166 -12.5 -47.499v-363l270 345v18
c0 25.333 -4.16699 41.166 -12.5 47.499s-30.5 10.166 -66.5 11.499v38h318v-38c-36 -1.33301 -58.167 -5.16602 -66.5 -11.499s-12.5 -22.166 -12.5 -47.499v-498c0 -25.333 4.16699 -41.166 12.5 -47.499s30.5 -10.166 66.5 -11.499v-38h-318v38
c36 1.33301 58.167 5.16602 66.5 11.499s12.5 22.166 12.5 47.499v389l-270 -345v-44c0 -25.333 4.16699 -41.166 12.5 -47.499s30.5 -10.166 66.5 -11.499v-38h-318z" />
    <glyph glyph-name="afii10027" unicode="&#x419;" horiz-adv-x="814" 
d="M204 865c0 22.667 5.16895 42.667 15.502 60s24.5 26 42.5 26c26 0 45.333 -5 58 -15s19 -22 19 -36c0 -10.667 -2.66699 -21.5 -8 -32.5s-8 -21.833 -8 -32.5s7.66699 -20.834 23 -30.501s35.666 -14.5 60.999 -14.5s45.666 4.83301 60.999 14.5s23 19.834 23 30.501
s-2.66699 21.5 -8 32.5s-8 21.833 -8 32.5c0 14 6.33301 26 19 36s32 15 58 15c18 0 32.167 -8.66699 42.5 -26s15.5 -37.333 15.5 -60c0 -31.333 -17.667 -59.166 -53 -83.499s-85.333 -36.5 -150 -36.5s-114.667 12.167 -150 36.5s-53 52.166 -53 83.499zM33.002 0v38
c36 1.33301 58.167 5.16602 66.5 11.499s12.5 22.166 12.5 47.499v498c0 25.333 -4.16699 41.166 -12.5 47.499s-30.5 10.166 -66.5 11.499v38h318v-38c-36 -1.33301 -58.167 -5.16602 -66.5 -11.499s-12.5 -22.166 -12.5 -47.499v-363l270 345v18
c0 25.333 -4.16699 41.166 -12.5 47.499s-30.5 10.166 -66.5 11.499v38h318v-38c-36 -1.33301 -58.167 -5.16602 -66.5 -11.499s-12.5 -22.166 -12.5 -47.499v-498c0 -25.333 4.16699 -41.166 12.5 -47.499s30.5 -10.166 66.5 -11.499v-38h-318v38
c36 1.33301 58.167 5.16602 66.5 11.499s12.5 22.166 12.5 47.499v389l-270 -345v-44c0 -25.333 4.16699 -41.166 12.5 -47.499s30.5 -10.166 66.5 -11.499v-38h-318z" />
    <glyph glyph-name="afii10028" unicode="&#x41a;" horiz-adv-x="812" 
d="M33 0l-0.00390625 38.001c36 1.33301 58.167 5.16602 66.5 11.499s12.5 22.166 12.5 47.499v498c0 25.333 -4.16699 41.166 -12.5 47.499s-30.5 10.166 -66.5 11.499v38h318v-38c-36 -1.33301 -58.167 -5.16602 -66.5 -11.499s-12.5 -22.166 -12.5 -47.499v-206h34
c49.333 0 85 12 107 36s40 60.667 54 110c14.667 53.333 32.834 95.333 54.501 126s50.834 46 87.501 46c40 0 72.667 -9.83301 98 -29.5s38 -50.5 38 -92.5c0 -16 -5.16699 -30.667 -15.5 -44s-26.5 -20 -48.5 -20c-20.667 0 -36.167 3.5 -46.5 10.5
s-15.5 20.167 -15.5 39.5c0 10.667 1.33301 22.5 4 35.5s4 23.167 4 30.5c0 9.33301 -1.33301 15.666 -4 18.999s-7.66699 5 -15 5c-13.333 0 -26.666 -10.5 -39.999 -31.5s-24.666 -50.5 -33.999 -88.5c-12 -48.667 -25.333 -85.5 -40 -110.5s-33.667 -43.167 -57 -54.5v-1
c29.333 -5.33301 53.5 -11 72.5 -17s40 -15.833 63 -29.5s42 -33.167 57 -58.5s25.833 -56.333 32.5 -93c18.667 -97.333 56 -146 112 -146h5v-46h-68c-64.667 0 -113.5 9 -146.5 27s-54.167 55.667 -63.5 113c-22.667 144 -86.667 216 -192 216h-37v-244
c0 -25.333 4.16699 -41.166 12.5 -47.499s30.5 -10.166 66.5 -11.499v-38h-318z" />
    <glyph glyph-name="afii10029" unicode="&#x41b;" horiz-adv-x="795" 
d="M13 117c0 28.667 6.16797 48.999 18.501 60.999s27.166 18 44.499 18s34 -4.33301 50 -13s24 -23.667 24 -45c0 -8.66699 -3.5 -21.5 -10.5 -38.5s-10.5 -29.5 -10.5 -37.5c0 -20.667 9.66699 -31 29 -31c40 0 72 50 96 150s36 238 36 414
c0 25.333 -4.16699 41.166 -12.5 47.499s-30.5 10.166 -66.5 11.499v38h551v-38c-36 -1.33301 -58.167 -5.16602 -66.5 -11.499s-12.5 -22.166 -12.5 -47.499v-498c0 -25.333 4.16699 -41.166 12.5 -47.499s30.5 -10.166 66.5 -11.499v-38h-318v38
c36 1.33301 58.167 5.16602 66.5 11.499s12.5 22.166 12.5 47.499v495c0 22.667 -4.33301 37 -13 43s-30.667 9.66699 -66 11h-13c-35.333 -1.33301 -57.333 -5 -66 -11s-13 -20.333 -13 -43c0 -189.333 -16.333 -337.833 -49 -445.5s-80 -161.5 -142 -161.5
c-40.667 0 -75.5 11.833 -104.5 35.5s-43.5 55.834 -43.5 96.501z" />
    <glyph glyph-name="afii10030" unicode="&#x41c;" horiz-adv-x="918" 
d="M26 0v38l35 5c21.333 2.66699 33.333 20.334 36 53.001c3.33301 29.333 5 81.333 5 156v343c0 25.333 -4.16699 41.166 -12.5 47.499s-30.5 10.166 -66.5 11.499v38h264c6.66699 -22.667 24.334 -71.667 53.001 -147l119 -307h3l85 234c2 5.33301 28 78.666 78 219.999
h260v-38c-36 -1.33301 -58.167 -5.16602 -66.5 -11.499s-12.5 -22.166 -12.5 -47.499v-498c0 -25.333 4.16699 -41.166 12.5 -47.499s30.5 -10.166 66.5 -11.499v-38h-310v38c36 1.33301 58.167 5.16602 66.5 11.499s12.5 22.166 12.5 47.499v496h-3l-209 -575h-60l-215 575
h-3v-341c0 -74 1.66699 -126 5 -156c1.33301 -18 5.16602 -31.167 11.499 -39.5s16.5 -12.833 30.5 -13.5l54 -5v-38h-239z" />
    <glyph glyph-name="afii10031" unicode="&#x41d;" horiz-adv-x="807" 
d="M33 0v38c36 1.33301 58.167 5.16602 66.5 11.499s12.5 22.166 12.5 47.499v498c0 25.333 -4.16699 41.166 -12.5 47.499s-30.5 10.166 -66.5 11.499v38h318v-38c-36 -1.33301 -58.167 -5.16602 -66.5 -11.499s-12.5 -22.166 -12.5 -47.499v-206h263v206
c0 25.333 -4.16699 41.166 -12.5 47.499s-30.5 10.166 -66.5 11.499v38h318v-38c-36 -1.33301 -58.167 -5.16602 -66.5 -11.499s-12.5 -22.166 -12.5 -47.499v-498c0 -25.333 4.16699 -41.166 12.5 -47.499s30.5 -10.166 66.5 -11.499v-38h-318v38
c36 1.33301 58.167 5.16602 66.5 11.499s12.5 22.166 12.5 47.499v244h-263v-244c0 -25.333 4.16699 -41.166 12.5 -47.499s30.5 -10.166 66.5 -11.499v-38h-318z" />
    <glyph glyph-name="afii10032" unicode="&#x41e;" horiz-adv-x="768" 
d="M42 346c0 115.333 28.667 204.333 86 267s142.666 94 255.999 94s198.666 -31.333 255.999 -94s86 -151.667 86 -267s-28.667 -204.333 -86 -267s-142.666 -94 -255.999 -94s-198.666 31.333 -255.999 94s-86 151.667 -86 267zM219 346c0 -28 1 -54.502 3 -79.502
s6.5 -52.667 13.5 -83s16.167 -56.166 27.5 -77.499s27.5 -39.166 48.5 -53.499s45.167 -21.5 72.5 -21.5c110 0 165 105 165 315s-55 315 -165 315s-165 -105 -165 -315z" />
    <glyph glyph-name="afii10033" unicode="&#x41f;" horiz-adv-x="800" 
d="M33 0v38c36 1.33301 58.167 5.16602 66.5 11.499s12.5 22.166 12.5 47.499v498c0 25.333 -4.16699 41.166 -12.5 47.499s-30.5 10.166 -66.5 11.499v38h734v-38c-36 -1.33301 -58.167 -5.16602 -66.5 -11.499s-12.5 -22.166 -12.5 -47.499v-498
c0 -25.333 4.16699 -41.166 12.5 -47.499s30.5 -10.166 66.5 -11.499v-38h-318v38c36 1.33301 58.167 5.16602 66.5 11.499s12.5 22.166 12.5 47.499v495c0 22.667 -4.33301 37 -13 43s-30.667 9.66699 -66 11h-98c-35.333 -1.33301 -57.333 -5 -66 -11s-13 -20.333 -13 -43
v-495c0 -25.333 4.16699 -41.166 12.5 -47.499s30.5 -10.166 66.5 -11.499v-38h-318z" />
    <glyph glyph-name="afii10034" unicode="&#x420;" horiz-adv-x="650" 
d="M33 0v38.0039c36 1.33301 58.167 5.16602 66.5 11.499s12.5 22.166 12.5 47.499v498c0 25.333 -4.16699 41.166 -12.5 47.499s-30.5 10.166 -66.5 11.499v38h310c88.667 0 153.667 -12.667 195 -38c56.667 -34.667 85 -89.667 85 -165
c0 -72.667 -25.667 -127.334 -77 -164.001c-46.667 -33.333 -118 -50 -214 -50h-60v-178c0 -25.333 5 -41.166 15 -47.499s37 -10.833 81 -13.5v-36h-335zM272 364.004c0 -18 4 -29.666 12 -34.999s22.667 -8 44 -8c46 0 78.667 16.167 98 48.5s29 71.166 29 116.499
c0 54 -11.5 94.167 -34.5 120.5s-52.833 39.5 -89.5 39.5c-24.667 0 -40.667 -2.5 -48 -7.5s-11 -14.833 -11 -29.5v-245z" />
    <glyph glyph-name="afii10035" unicode="&#x421;" horiz-adv-x="689" 
d="M42 339c0 111.333 28.666 198.999 85.999 262.999c62.667 70 161 105 295 105c94.667 0 166.334 -14.667 215.001 -44v-179h-38c-6 19.333 -11.333 35 -16 47s-12.167 27.167 -22.5 45.5s-21.5 32.833 -33.5 43.5s-27.833 20.167 -47.5 28.5s-41.834 12.5 -66.501 12.5
c-34 0 -63.833 -8.5 -89.5 -25.5s-45 -37.167 -58 -60.5s-23.333 -50.666 -31 -81.999s-12.334 -57.166 -14.001 -77.499s-2.5 -40.5 -2.5 -60.5c0 -21.333 1 -42.5 3 -63.5s5.33301 -44.5 10 -70.5s12 -49.667 22 -71s22 -41.333 36 -60s32.333 -33.167 55 -43.5
s48.334 -15.5 77.001 -15.5c51.333 0 90.833 16.5 118.5 49.5s52.834 82.167 75.501 147.5h38l-12 -195c-53.333 -32 -131.333 -48 -234 -48c-124 0 -216 31.167 -276 93.5s-90 149.166 -90 260.499z" />
    <glyph glyph-name="afii10036" unicode="&#x422;" horiz-adv-x="624" 
d="M15 504l-0.00195312 188h594v-188h-38c-7.33301 22 -12.666 37.333 -15.999 46s-8.16602 20.167 -14.499 34.5s-12.166 24 -17.499 29s-12.5 10.667 -21.5 17s-19 10.5 -30 12.5s-24.167 3 -39.5 3h-40v-551c0 -18.667 2.66699 -32 8 -40s15.666 -12.333 30.999 -13
l57 -4v-38h-352v38l57 4c15.333 0.666992 25.666 5 30.999 13s8 21.333 8 40v551h-40c-42.667 0 -71.667 -9.33301 -87 -28s-32.666 -56.667 -51.999 -114h-38z" />
    <glyph glyph-name="afii10037" unicode="&#x423;" horiz-adv-x="732" 
d="M20 654l-0.000976562 38h303v-38l-44 -5c-14 -2 -21 -7 -21 -15c0.666992 -10 17 -46.333 49 -109l30 -59l83 -165h3l60 137c32 72 55.333 131.333 70 178c6 20 0.333008 31 -17 33l-56 5v38h232v-38c-28 -2 -46.667 -6.33301 -56 -13s-19 -22 -29 -46l-233 -507
c-13.333 -30 -30.5 -53 -51.5 -69s-39.5 -25.667 -55.5 -29s-35 -5 -57 -5c-46 0 -82.167 12.833 -108.5 38.5s-39.5 59.834 -39.5 102.501c0 26.667 6.83301 46.5 20.5 59.5s29.834 19.5 48.501 19.5c18 0 34.833 -5 50.5 -15s23.5 -22.667 23.5 -38
c0 -12.667 -3.16699 -28.334 -9.5 -47.001s-9.5 -31 -9.5 -37c0 -24.667 10 -37 30 -37c19.333 0 38.166 7.16699 56.499 21.5s31.833 31.5 40.5 51.5l8 18l-245 481c-10.667 21.333 -20.167 35 -28.5 41s-24.166 9.33301 -47.499 10z" />
    <glyph glyph-name="afii10038" unicode="&#x424;" horiz-adv-x="902" 
d="M42 353c0 32 5.16699 61.167 15.5 87.5s27.333 51 51 74s57.667 40.833 102 53.5s97.833 19 160.5 19v14c0 26 -4.5 42 -13.5 48s-34.833 9.66699 -77.5 11v38h342v-38c-42.667 -1.33301 -68.5 -5 -77.5 -11s-13.5 -22 -13.5 -48v-14
c62.667 0 116.167 -6.33301 160.5 -19s78.333 -30.5 102 -53.5s40.667 -47.667 51 -74s15.5 -55.5 15.5 -87.5s-5.16699 -61.167 -15.5 -87.5s-27.333 -51 -51 -74s-57.667 -40.833 -102 -53.5s-97.833 -19 -160.5 -19v-24c0 -26 4.5 -42 13.5 -48s34.833 -9.66699 77.5 -11
v-38h-342v38c42.667 1.33301 68.5 5 77.5 11s13.5 22 13.5 48v24c-62.667 0 -116.167 6.33301 -160.5 19s-78.333 30.5 -102 53.5s-40.667 47.667 -51 74s-15.5 55.5 -15.5 87.5zM217 353c0 -62 11.5 -108.833 34.5 -140.5s62.833 -47.5 119.5 -47.5v376
c-56.667 0 -96.5 -15.833 -119.5 -47.5s-34.5 -78.5 -34.5 -140.5zM531 165c56.667 0 96.5 15.833 119.5 47.5s34.5 78.5 34.5 140.5s-11.5 108.833 -34.5 140.5s-62.833 47.5 -119.5 47.5v-376z" />
    <glyph glyph-name="afii10039" unicode="&#x425;" horiz-adv-x="634" 
d="M-19 0v38c32 2 53.333 5.66699 64 11s24 18.666 40 39.999c20.667 28 75.334 108.333 164.001 241l-166 273c-12.667 20.667 -23.667 33.667 -33 39s-28 9.33301 -56 12v38h305v-38l-42 -5c-19.333 -3.33301 -23 -15 -11 -35l100 -165h2
c59.333 94 93.666 150.333 102.999 169c8.66699 16.667 5.33398 26.334 -9.99902 29.001l-43 7v38h233v-38c-26.667 -1.33301 -46.5 -4.83301 -59.5 -10.5s-26.833 -17.5 -41.5 -35.5c-50 -62 -99.667 -131 -149 -207l91.5 -148.5l95.5 -154.5
c15.333 -25.333 28.666 -41.333 39.999 -48s32.333 -10.667 63 -12v-38h-336v38l51 6c20 2.66699 24.667 13.667 14 33l-117 197h-4c-56 -92 -93 -157.667 -111 -197c-9.33301 -21.333 -4 -33 16 -35l58 -4v-38h-261z" />
    <glyph glyph-name="afii10040" unicode="&#x426;" horiz-adv-x="798" 
d="M33 0l0.000976562 38.002c36 1.33301 58.167 5.16602 66.5 11.499s12.5 22.166 12.5 47.499v498c0 25.333 -4.16699 41.166 -12.5 47.499s-30.5 10.166 -66.5 11.499v38h318v-38c-36 -1.33301 -58.167 -5.16602 -66.5 -11.499s-12.5 -22.166 -12.5 -47.499v-495
c0 -22.667 4.33301 -37 13 -43s30.667 -9.66699 66 -11h96c35.333 1.33301 57.333 5 66 11s13 20.333 13 43v495c0 25.333 -4.16699 41.166 -12.5 47.499s-30.5 10.166 -66.5 11.499v38h318v-38c-36 -1.33301 -58.167 -5.16602 -66.5 -11.499s-12.5 -22.166 -12.5 -47.499
v-495c0 -22.667 4.33301 -37 13 -43s30.667 -9.66699 66 -11h10l13 -236h-38c-8.66699 31.333 -15.334 54.666 -20.001 69.999s-11.167 31.666 -19.5 48.999s-16.5 29.333 -24.5 36s-19.5 13.334 -34.5 20.001s-31.333 10.834 -49 12.501s-40.5 2.5 -68.5 2.5h-501z" />
    <glyph glyph-name="afii10041" unicode="&#x427;" horiz-adv-x="766" 
d="M25 654l0.00195312 37.999h310v-38c-32 -2 -51.833 -6.16699 -59.5 -12.5s-11.5 -21.833 -11.5 -46.5v-162c0 -37.333 5.33301 -64 16 -80s33 -24 67 -24c42 0 72.333 4.66699 91 14c23.333 12 38.5 22.333 45.5 31s10.5 21 10.5 37v184
c0 24.667 -3.83301 40.167 -11.5 46.5s-27.5 10.5 -59.5 12.5v38h310v-38c-36 -1.33301 -58.167 -5.16602 -66.5 -11.499s-12.5 -22.166 -12.5 -47.499v-498c0 -25.333 4.16699 -41.166 12.5 -47.499s30.5 -10.166 66.5 -11.499v-38h-335v36c44 2.66699 71 7.16699 81 13.5
s15 22.166 15 47.499v216c-26.667 -14 -48.834 -25 -66.501 -33s-41.334 -15.5 -71.001 -22.5s-60.167 -10.5 -91.5 -10.5c-56 0 -96.833 17 -122.5 51s-38.5 85.667 -38.5 155v142c0 25.333 -4.16699 41.166 -12.5 47.499s-30.5 10.166 -66.5 11.499z" />
    <glyph glyph-name="afii10042" unicode="&#x428;" horiz-adv-x="1144" 
d="M33 0v38c36 1.33301 58.167 5.16602 66.5 11.499s12.5 22.166 12.5 47.499v498c0 25.333 -4.16699 41.166 -12.5 47.499s-30.5 10.166 -66.5 11.499v38h310v-38c-32 -2 -51.833 -6.16699 -59.5 -12.5s-11.5 -21.833 -11.5 -46.5v-495c0 -22.667 4.33301 -37 13 -43
s30.667 -9.66699 66 -11h62c35.333 1.33301 57.333 5 66 11s13 20.333 13 43v495c0 24.667 -3.83301 40.167 -11.5 46.5s-27.5 10.5 -59.5 12.5v38h302v-38c-32 -2 -51.833 -6.16699 -59.5 -12.5s-11.5 -21.833 -11.5 -46.5v-495c0 -22.667 4.33301 -37 13 -43
s30.667 -9.66699 66 -11h62c35.333 1.33301 57.333 5 66 11s13 20.333 13 43v495c0 24.667 -3.83301 40.167 -11.5 46.5s-27.5 10.5 -59.5 12.5v38h310v-38c-36 -1.33301 -58.167 -5.16602 -66.5 -11.499s-12.5 -22.166 -12.5 -47.499v-498
c0 -25.333 4.16699 -41.166 12.5 -47.499s30.5 -10.166 66.5 -11.499v-38h-1078z" />
    <glyph glyph-name="afii10043" unicode="&#x429;" horiz-adv-x="1144" 
d="M33 0l0.000976562 38.002c36 1.33301 58.167 5.16602 66.5 11.499s12.5 22.166 12.5 47.499v498c0 25.333 -4.16699 41.166 -12.5 47.499s-30.5 10.166 -66.5 11.499v38h310v-38c-32 -2 -51.833 -6.16699 -59.5 -12.5s-11.5 -21.833 -11.5 -46.5v-495
c0 -22.667 4.33301 -37 13 -43s30.667 -9.66699 66 -11h62c35.333 1.33301 57.333 5 66 11s13 20.333 13 43v495c0 24.667 -3.83301 40.167 -11.5 46.5s-27.5 10.5 -59.5 12.5v38h302v-38c-32 -2 -51.833 -6.16699 -59.5 -12.5s-11.5 -21.833 -11.5 -46.5v-495
c0 -22.667 4.33301 -37 13 -43s30.667 -9.66699 66 -11h62c35.333 1.33301 57.333 5 66 11s13 20.333 13 43v495c0 24.667 -3.83301 40.167 -11.5 46.5s-27.5 10.5 -59.5 12.5v38h310v-38c-36 -1.33301 -58.167 -5.16602 -66.5 -11.499s-12.5 -22.166 -12.5 -47.499v-495
c0 -22.667 4.33301 -37 13 -43s30.667 -9.66699 66 -11h10l13 -236h-38c-8.66699 31.333 -15.334 54.666 -20.001 69.999s-11.167 31.666 -19.5 48.999s-16.5 29.333 -24.5 36s-19.5 13.334 -34.5 20.001s-31.333 10.834 -49 12.501s-40.5 2.5 -68.5 2.5h-847z" />
    <glyph glyph-name="afii10044" unicode="&#x42a;" horiz-adv-x="853" 
d="M16 480l0.00195312 211.998h522v-36c-44 -2.66699 -71 -7.16699 -81 -13.5s-15 -22.166 -15 -47.499v-206c26.667 5.33301 55.334 8 86.001 8c191.333 0 287 -66.333 287 -199c0 -71.333 -23.333 -122.166 -70 -152.499s-117.334 -45.5 -212.001 -45.5h-344v36
c43.333 2.66699 69.666 7 78.999 13s14 22 14 48v495c0 22.667 -4.33301 37 -13 43s-30.667 9.66699 -66 11h-3c-76.667 0 -126.334 -55.333 -149.001 -166h-35zM442.002 110.998c0 -24 5.66797 -40.832 17.001 -50.499s29.666 -14.5 54.999 -14.5c84 0 126 50.667 126 152
c0 53.333 -13.5 92.166 -40.5 116.499s-61.167 36.5 -102.5 36.5c-22 0 -40.333 -3.33301 -55 -10v-230z" />
    <glyph glyph-name="afii10045" unicode="&#x42b;" horiz-adv-x="1034" 
d="M683 0v38c36 1.33301 58.167 5.16602 66.5 11.499s12.5 22.166 12.5 47.499v498c0 25.333 -4.16699 41.166 -12.5 47.499s-30.5 10.166 -66.5 11.499v38h318v-38c-36 -1.33301 -58.167 -5.16602 -66.5 -11.499s-12.5 -22.166 -12.5 -47.499v-498
c0 -25.333 4.16699 -41.166 12.5 -47.499s30.5 -10.166 66.5 -11.499v-38h-318zM33 0v38.002c36 1.33301 58.167 5.16602 66.5 11.499s12.5 22.166 12.5 47.499v498c0 25.333 -4.16699 41.166 -12.5 47.499s-30.5 10.166 -66.5 11.499v38h335v-36
c-44 -2.66699 -71 -7.16699 -81 -13.5s-15 -22.166 -15 -47.499v-206c26.667 5.33301 55.334 8 86.001 8c191.333 0 287 -66.333 287 -199c0 -71.333 -23.333 -122.166 -70 -152.499s-117.334 -45.5 -212.001 -45.5h-330zM272 111.002c0 -24 5.66797 -40.832 17.001 -50.499
s29.666 -14.5 54.999 -14.5c84 0 126 50.667 126 152c0 53.333 -13.5 92.166 -40.5 116.499s-61.167 36.5 -102.5 36.5c-22 0 -40.333 -3.33301 -55 -10v-230z" />
    <glyph glyph-name="afii10046" unicode="&#x42c;" horiz-adv-x="683" 
d="M33 0v38.002c36 1.33301 58.167 5.16602 66.5 11.499s12.5 22.166 12.5 47.499v498c0 25.333 -4.16699 41.166 -12.5 47.499s-30.5 10.166 -66.5 11.499v38h335v-36c-44 -2.66699 -71 -7.16699 -81 -13.5s-15 -22.166 -15 -47.499v-206c26.667 5.33301 55.334 8 86.001 8
c191.333 0 287 -66.333 287 -199c0 -71.333 -23.333 -122.166 -70 -152.499s-117.334 -45.5 -212.001 -45.5h-330zM272 111.002c0 -24 5.66797 -40.832 17.001 -50.499s29.666 -14.5 54.999 -14.5c84 0 126 50.667 126 152c0 53.333 -13.5 92.166 -40.5 116.499
s-61.167 36.5 -102.5 36.5c-22 0 -40.333 -3.33301 -55 -10v-230z" />
    <glyph glyph-name="afii10047" unicode="&#x42d;" horiz-adv-x="665" 
d="M42 132c0 28.667 4.99707 49.667 14.9971 63s28 20 54 20c47.333 0 71 -19 71 -57c0 -8 -1.16699 -17.833 -3.5 -29.5s-3.5 -23.5 -3.5 -35.5c0 -16 8.83301 -30.333 26.5 -43s46.834 -19 87.501 -19c21.333 0 40.5 4.16699 57.5 12.5s30.833 18.666 41.5 30.999
s19.834 28.333 27.501 48s13.5 37.834 17.5 54.501s7 37 9 61s3.16699 42.833 3.5 56.5s0.5 30.834 0.5 51.501h-244v48h244c-4.66699 178 -57 267 -157 267c-86 0 -148 -55.667 -186 -167h-38v160c26.667 18 61.167 31.333 103.5 40s79.5 13 111.5 13
c56 0 104.833 -7 146.5 -21s74.834 -32 99.501 -54s44.5 -49.333 59.5 -82s25 -65 30 -97s7.5 -67.667 7.5 -107s-2.5 -75 -7.5 -107s-15 -64.333 -30 -97s-34.667 -60 -59 -82s-57.5 -40 -99.5 -54s-91 -21 -147 -21c-74 0 -132.167 13.667 -174.5 41
s-63.5 62.666 -63.5 105.999z" />
    <glyph glyph-name="afii10048" unicode="&#x42e;" horiz-adv-x="1139" 
d="M33 0l-0.000976562 38c36 1.33301 58.167 5.16602 66.5 11.499s12.5 22.166 12.5 47.499v498c0 25.333 -4.16699 41.166 -12.5 47.499s-30.5 10.166 -66.5 11.499v38h318v-38c-36 -1.33301 -58.167 -5.16602 -66.5 -11.499s-12.5 -22.166 -12.5 -47.499v-206h142
c7.33301 102 39.5 180.5 96.5 235.5s138.5 82.5 244.5 82.5c113.333 0 198.666 -31.333 255.999 -94s86 -151.667 86 -267s-28.667 -204.333 -86 -267s-142.666 -94 -255.999 -94c-112 0 -196.667 31 -254 93s-86.666 149.667 -87.999 263h-141v-244
c0 -25.333 4.16699 -41.166 12.5 -47.499s30.5 -10.166 66.5 -11.499v-38h-318zM589.999 346c0 -28 1 -54.502 3 -79.502s6.5 -52.667 13.5 -83s16.167 -56.166 27.5 -77.499s27.5 -39.166 48.5 -53.499s45.167 -21.5 72.5 -21.5c110 0 165 105 165 315s-55 315 -165 315
s-165 -105 -165 -315z" />
    <glyph glyph-name="afii10049" unicode="&#x42f;" horiz-adv-x="760" 
d="M29 -15l-0.000976562 45.9971h1c18.667 0 36.834 12 54.501 36s32.167 60.667 43.5 110c12 50 27 83.667 45 101s48.667 32 92 44v2c-28 10 -51.667 21.333 -71 34c-19.333 12 -37 30.833 -53 56.5s-24 56.834 -24 93.501c0 64 25.167 110.667 75.5 140
s118.5 44 204.5 44h330v-38c-36 -1.33301 -58.167 -5.16602 -66.5 -11.499s-12.5 -22.166 -12.5 -47.499v-498c0 -25.333 4.16699 -41.166 12.5 -47.499s30.5 -10.166 66.5 -11.499v-38h-318v38c36 1.33301 58.167 5.16602 66.5 11.499s12.5 22.166 12.5 47.499v202h-61
c-44.667 0 -75.834 -13.333 -93.501 -40s-32.5 -71.334 -44.5 -134.001c-6 -30 -15.333 -54.667 -28 -74s-29.167 -33.666 -49.5 -42.999s-40.666 -15.5 -60.999 -18.5s-45.5 -4.5 -75.5 -4.5h-46zM284.999 497.997c0 -44 9.49902 -80.5 28.499 -109.5
s50.833 -43.5 95.5 -43.5h23c21.333 0 36 2.66699 44 8s12 17 12 35v221c0 14.667 -3.66699 24.5 -11 29.5s-23.333 7.5 -48 7.5h-21c-35.333 0 -64.666 -12.833 -87.999 -38.5s-35 -62.167 -35 -109.5z" />
    <glyph glyph-name="afii10065" unicode="&#x430;" horiz-adv-x="544" 
d="M41 133c0 59.333 35.333 101.001 106 125.001c7.33301 2.66699 20.5 7.16699 39.5 13.5l44.5 14.5c10.667 3.33301 23.334 7.83301 38.001 13.5s27 10.834 37 15.501s18.333 9.33398 25 14.001v53c0 49.333 -19.333 74 -58 74c-36.667 0 -66 -33.333 -88 -100
c-8.66699 -26.667 -22.334 -40 -41.001 -40c-18 0 -37.5 5.5 -58.5 16.5s-31.5 26.5 -31.5 46.5c0 34 21.667 63 65 87s100.666 36 171.999 36c34 0 63.167 -3 87.5 -9s42.666 -13.333 54.999 -22s22 -19.834 29 -33.501s11.333 -25.834 13 -36.501s2.5 -23.667 2.5 -39
v-231c0 -43.333 10.667 -68.333 32 -75c14 -4.66699 30 -6.33398 48 -5.00098l3 -33c-50.667 -20 -100 -30 -148 -30c-22 0 -38.5 5 -49.5 15s-20.5 24.333 -28.5 43l-15.5 -10.5c-8.33301 -5.66699 -14.166 -9.5 -17.499 -11.5l-17.5 -10
c-8.33301 -4.66699 -15.333 -8.16699 -21 -10.5s-12.667 -5 -21 -8s-16.666 -5 -24.999 -6s-16.833 -1.5 -25.5 -1.5c-48 0 -85.167 14.167 -111.5 42.5s-39.5 62.5 -39.5 102.5zM195 150.001c0 -25.333 7.16699 -45.667 21.5 -61s31.833 -23 52.5 -23
c16 0 30.167 5.16699 42.5 15.5s18.833 27.833 19.5 52.5v145c-54.667 -24.667 -84.667 -38.667 -90 -42c-30.667 -17.333 -46 -46.333 -46 -87z" />
    <glyph glyph-name="afii10066" unicode="&#x431;" horiz-adv-x="586" 
d="M38 306c0 112.667 11.665 195.999 34.998 249.999c45.333 104.667 123.666 159 234.999 163c58 2 101 5.66699 129 11s46 15 54 29h36c-31.333 -95.333 -91.333 -145 -180 -149c-72 -3.33301 -123 -12 -153 -26s-57.667 -40.667 -83 -80
c-7.33301 -11.333 -14.166 -29.666 -20.499 -54.999s-9.5 -48.666 -9.5 -69.999l4 -2c38.667 83.333 108 125 208 125c172.667 0 259 -85.667 259 -257s-86.333 -257 -259 -257c-34.667 0 -65.667 3.83301 -93 11.5s-49.666 17.334 -66.999 29.001s-32.333 27.167 -45 46.5
s-22.167 37.166 -28.5 53.499s-11.166 36.666 -14.499 60.999s-5.33301 44 -6 59s-1 34.167 -1 57.5zM192.998 244.999c0 -140.667 33.333 -211 100 -211s100 70.333 100 211s-33.333 211 -100 211s-100 -70.333 -100 -211z" />
    <glyph glyph-name="afii10067" unicode="&#x432;" horiz-adv-x="571" 
d="M29 0v38.002c28.667 1.33301 46.667 4.66602 54 9.99902s11 18.333 11 39v316c0 20.667 -3.66699 33.667 -11 39s-25.333 8.66602 -54 9.99902v38h284c138 0 207 -39.333 207 -118c0 -58.667 -46 -94.667 -138 -108v-2c32 -4.66699 59 -11 81 -19s41 -21 57 -39
s24 -40.333 24 -67c0 -54.667 -17.833 -91.167 -53.5 -109.5s-94.5 -27.5 -176.5 -27.5h-285zM245 88.002c0 -16 4 -27.334 12 -34.001s21 -10 39 -10c59.333 0 89 31.667 89 95c0 28.667 -8.66699 51.334 -26 68.001s-43.333 25 -78 25h-36v-144zM245 278.001h34.001
c31.333 0 54.666 8 69.999 24s23 36.333 23 61c0 54 -29 81 -87 81c-26.667 0 -40 -10.333 -40 -31v-135z" />
    <glyph glyph-name="afii10068" unicode="&#x433;" horiz-adv-x="492" 
d="M29 0l0.00195312 38.002c28.667 1.33301 46.667 4.66602 54 9.99902s11 18.333 11 39v316c0 20.667 -3.66699 33.667 -11 39s-25.333 8.66602 -54 9.99902v38h442v-168h-39c-14 48.667 -28.5 81.167 -43.5 97.5s-43.833 24.5 -86.5 24.5h-4l-21 -1
c-8.66699 -0.666992 -14.834 -1.66699 -18.501 -3s-6.83398 -4.83301 -9.50098 -10.5s-4 -13.834 -4 -24.501v-318c0 -20.667 4.16699 -33.667 12.5 -39s30.5 -8.66602 66.5 -9.99902v-38h-295z" />
    <glyph glyph-name="afii10069" unicode="&#x434;" horiz-adv-x="584" 
d="M9 -168l16 213.999h34c20.667 0 38.5 12.5 53.5 37.5s26 57.333 33 97s12.167 77.834 15.5 114.501s5 72.667 5 108c0 20.667 -3.66699 33.667 -11 39s-25.333 8.66602 -54 9.99902v38h454v-38c-28.667 -1.33301 -46.667 -4.66602 -54 -9.99902s-11 -18.333 -11 -39v-314
c0 -19.333 3.16699 -31 9.5 -35s24.833 -6.66699 55.5 -8l16 -214h-38c-12.667 68 -32 113 -58 135s-65 33 -117 33h-136c-52 0 -91 -11 -117 -33s-45.333 -67 -58 -135h-38zM148 45.999l138.002 -0.000976562l21 1c8.66699 0.666992 14.834 1.66699 18.501 3
s6.83398 4.83301 9.50098 10.5s4 13.834 4 24.501v320c0 10.667 -1.33301 18.834 -4 24.501s-5.83398 9.16699 -9.50098 10.5s-9.83398 2.33301 -18.501 3l-21 1h-12l-21 -1c-8.66699 -0.666992 -14.834 -1.66699 -18.501 -3s-6.83398 -4.83301 -9.50098 -10.5
s-4 -13.834 -4 -24.501c0 -172 -24.333 -291.667 -73 -359z" />
    <glyph glyph-name="afii10070" unicode="&#x435;" horiz-adv-x="519" 
d="M34 245c0 76 20 137.831 60 185.498s102.333 71.5 187 71.5c36.667 0 69 -4.66699 97 -14s49.833 -21 65.5 -35s28.334 -30.833 38.001 -50.5s16 -38 19 -55s4.5 -34.833 4.5 -53.5c0 -15.333 -4.33301 -26.166 -13 -32.499s-22.334 -9.5 -41.001 -9.5h-258
c0 -124.667 44.667 -187 134 -187c58 0 102.667 29.667 134 89l36 -20c-37.333 -97.333 -110 -146 -218 -146c-44.667 0 -83.334 6.83301 -116.001 20.5s-58.167 32.834 -76.5 57.501s-31.666 51.667 -39.999 81s-12.5 62 -12.5 98zM193 299.998l123.999 0.00195312
c12 0 20.167 2.16699 24.5 6.5s6.5 13.166 6.5 26.499c0 82 -23.667 123 -71 123c-29.333 0 -50.666 -15.333 -63.999 -46s-20 -67.334 -20 -110.001z" />
    <glyph glyph-name="afii10072" unicode="&#x436;" horiz-adv-x="865" 
d="M25 -12l0.00488281 46h5c38.667 0 64 30.333 76 91c4.66699 24 14.167 45 28.5 63s30.666 31.333 48.999 40s35 15.167 50 19.5s28.5 6.5 40.5 6.5v3c-12 4 -24.167 16.667 -36.5 38s-21.5 51.333 -27.5 90c-2.66699 16.667 -7.5 30.834 -14.5 42.501
s-13.333 19.334 -19 23.001s-10.5 5.5 -14.5 5.5c-10.667 0 -16 -4 -16 -12c0 -5.33301 1 -14 3 -26s3 -21.667 3 -29c0 -27.333 -17.333 -41 -52 -41c-22 0 -37.667 6.33301 -47 19s-14 25.667 -14 39c0 23.333 9.5 45.166 28.5 65.499s46.5 30.5 82.5 30.5
c32 0 58.667 -11.5 80 -34.5s35 -51.833 41 -86.5c12 -69.333 38 -104 78 -104h8v133c0 15.333 -2.5 25.5 -7.5 30.5s-13.167 8.16699 -24.5 9.5l-21 2v38h257v-38l-21 -2c-11.333 -1.33301 -19.5 -4.5 -24.5 -9.5s-7.5 -15.167 -7.5 -30.5v-133h8c40 0 66 34.667 78 104
c6 34.667 19.667 63.5 41 86.5s48 34.5 80 34.5c36 0 63.5 -10.167 82.5 -30.5s28.5 -42.166 28.5 -65.499c0 -13.333 -4.66699 -26.333 -14 -39s-25 -19 -47 -19c-34.667 0 -52 13.667 -52 41c0 7.33301 1 17 3 29s3 20.667 3 26c0 8 -5.33301 12 -16 12
c-4 0 -8.83301 -1.83301 -14.5 -5.5s-12 -11.334 -19 -23.001s-11.833 -25.834 -14.5 -42.501c-6 -38.667 -15.167 -68.667 -27.5 -90s-24.5 -34 -36.5 -38v-3c12 0 25.5 -2.16699 40.5 -6.5s31.667 -10.833 50 -19.5s34.666 -22 48.999 -40s23.833 -39 28.5 -63
c11.333 -60.667 36.666 -91 75.999 -91h5v-46h-25c-122.667 0 -189.334 33.333 -200.001 100c-8 49.333 -18.667 85.5 -32 108.5s-35.333 34.5 -66 34.5h-9v-151c0 -15.333 2.5 -25.5 7.5 -30.5s13.167 -8.16699 24.5 -9.5l21 -2v-38h-257v38l21 2
c11.333 1.33301 19.5 4.5 24.5 9.5s7.5 15.167 7.5 30.5v151h-9c-30.667 0 -52.667 -11.5 -66 -34.5s-24 -59.167 -32 -108.5c-10.667 -66.667 -77.334 -100 -200.001 -100h-25z" />
    <glyph glyph-name="afii10073" unicode="&#x437;" horiz-adv-x="522" 
d="M28 123c0 19.333 4.66504 35.8398 13.998 49.5068s25 20.5 47 20.5c19.333 0 35.833 -4.5 49.5 -13.5s20.5 -21.5 20.5 -37.5c0 -6 -1.83301 -17.333 -5.5 -34s-5.5 -28.334 -5.5 -35.001c0 -10.667 6.5 -19.834 19.5 -27.501s32.833 -11.5 59.5 -11.5
c69.333 0 104 31.667 104 95c0 33.333 -9 60.166 -27 80.499s-44.333 30.5 -79 30.5h-63v46h59c58.667 0 88 29 88 87c0 55.333 -30.333 83 -91 83c-21.333 0 -39.666 -2.83301 -54.999 -8.5s-27.833 -14.834 -37.5 -27.501s-16.834 -23.834 -21.501 -33.501
s-10 -23.167 -16 -40.5h-36v111c24 17.333 50.333 29.166 79 35.499s65.334 9.5 110.001 9.5c40.667 0 76.334 -3.5 107.001 -10.5s56.5 -20 77.5 -39s31.5 -43.5 31.5 -73.5c0 -35.333 -10.667 -61.5 -32 -78.5s-55.666 -28.167 -102.999 -33.5v-2
c48.667 -4.66699 88.5 -18.5 119.5 -41.5s46.5 -55.833 46.5 -98.5c0 -48.667 -21 -83.667 -63 -105s-103.333 -32 -184 -32c-66.667 0 -118.834 12.667 -156.501 38s-56.5 57.666 -56.5 96.999z" />
    <glyph glyph-name="afii10074" unicode="&#x438;" horiz-adv-x="660" 
d="M29 0v38c28.667 1.33301 46.667 4.66602 54 9.99902s11 18.333 11 39v316c0 20.667 -3.66699 33.667 -11 39s-25.333 8.66602 -54 9.99902v38h269v-38l-21 -2c-11.333 -1.33301 -19.5 -4.5 -24.5 -9.5s-7.5 -15.167 -7.5 -30.5v-217l170 202v15
c0 15.333 -2.5 25.5 -7.5 30.5s-13.167 8.16699 -24.5 9.5l-21 2v38h269v-38c-28.667 -1.33301 -46.667 -4.66602 -54 -9.99902s-11 -18.333 -11 -39v-316c0 -20.667 3.66699 -33.667 11 -39s25.333 -8.66602 54 -9.99902v-38h-269v38l21 2
c11.333 1.33301 19.5 4.5 24.5 9.5s7.5 15.167 7.5 30.5v235l-170 -202v-33c0 -15.333 2.5 -25.5 7.5 -30.5s13.167 -8.16699 24.5 -9.5l21 -2v-38h-269z" />
    <glyph glyph-name="afii10075" unicode="&#x439;" horiz-adv-x="660" 
d="M150 682c0 24.667 5.66504 41.834 16.998 51.501s24 14.5 38 14.5c23.333 0 41.5 -6.33301 54.5 -19s19.5 -24.334 19.5 -35.001s-2 -21.667 -6 -33s-6 -19 -6 -23c0 -11.333 4.5 -20 13.5 -26s25.5 -9 49.5 -9s40.5 3 49.5 9s13.5 14.667 13.5 26c0 4 -2 11.667 -6 23
s-6 22.333 -6 33s6.5 22.334 19.5 35.001s31.167 19 54.5 19c14 0 26.667 -4.83301 38 -14.5s17 -26.834 17 -51.501c0 -38 -14.667 -68.333 -44 -91s-74.666 -34 -135.999 -34s-106.666 11.333 -135.999 34s-44 53 -44 91zM28.998 0v38
c28.667 1.33301 46.667 4.66602 54 9.99902s11 18.333 11 39v316c0 20.667 -3.66699 33.667 -11 39s-25.333 8.66602 -54 9.99902v38h269v-38l-21 -2c-11.333 -1.33301 -19.5 -4.5 -24.5 -9.5s-7.5 -15.167 -7.5 -30.5v-217l170 202v15c0 15.333 -2.5 25.5 -7.5 30.5
s-13.167 8.16699 -24.5 9.5l-21 2v38h269v-38c-28.667 -1.33301 -46.667 -4.66602 -54 -9.99902s-11 -18.333 -11 -39v-316c0 -20.667 3.66699 -33.667 11 -39s25.333 -8.66602 54 -9.99902v-38h-269v38l21 2c11.333 1.33301 19.5 4.5 24.5 9.5s7.5 15.167 7.5 30.5v235
l-170 -202v-33c0 -15.333 2.5 -25.5 7.5 -30.5s13.167 -8.16699 24.5 -9.5l21 -2v-38h-269z" />
    <glyph glyph-name="afii10076" unicode="&#x43a;" horiz-adv-x="624" 
d="M29 0l0.00488281 37.999c28.667 1.33301 46.667 4.66602 54 9.99902s11 18.333 11 39v316c0 20.667 -3.66699 33.667 -11 39s-25.333 8.66602 -54 9.99902v38h281v-38c-28.667 -1.33301 -46.667 -4.66602 -54 -9.99902s-11 -18.333 -11 -39v-126h11
c32 0 54 8.33301 66 25s21.333 43 28 79c6.66699 36.667 20.667 66 42 88s48.666 33 81.999 33c36 0 63.5 -10.167 82.5 -30.5s28.5 -42.166 28.5 -65.499c0 -7.33301 -1.33301 -14.833 -4 -22.5s-8.83398 -15.5 -18.501 -23.5s-22.5 -12 -38.5 -12
c-34.667 0 -52 13.667 -52 41c0 7.33301 1 17 3 29s3 20.333 3 25c0 8.66699 -5 13 -15 13c-9.33301 0 -19.666 -7 -30.999 -21s-18.333 -30.667 -21 -50c-5.33301 -38 -14.833 -67.667 -28.5 -89s-26.834 -34.333 -39.501 -39v-3c12 0 25.5 -2.16699 40.5 -6.5
s31.5 -10.833 49.5 -19.5s34.167 -22 48.5 -40s24.166 -39 29.499 -63c13.333 -60.667 41 -91 83 -91h5v-46h-25c-123.333 0 -192.333 33.333 -207 100c-4.66699 21.333 -8.5 37.5 -11.5 48.5s-7.33301 23.667 -13 38s-11.834 24.833 -18.501 31.5
s-15.334 12.5 -26.001 17.5s-23 7.5 -37 7.5h-16v-144c0 -20.667 3.66699 -33.667 11 -39s25.333 -8.66602 54 -9.99902v-38h-281z" />
    <glyph glyph-name="afii10077" unicode="&#x43b;" horiz-adv-x="644" 
d="M15 98c0 51.333 20.0088 76.998 60.0088 76.998c16 0 31.5 -5.5 46.5 -16.5s22.5 -23.167 22.5 -36.5c0 -7.33301 -3 -18.666 -9 -33.999s-9 -26.333 -9 -33c0 -14 7.66699 -21 23 -21c12 0 22.667 5.83301 32 17.5s16.666 29 21.999 52s9.66602 45.667 12.999 68
s5.66602 50 6.99902 83s2.16602 59 2.49902 78s0.5 42.5 0.5 70.5c0 20.667 -3.66699 33.667 -11 39s-25.333 8.66602 -54 9.99902v38h454v-38c-28.667 -1.33301 -46.667 -4.66602 -54 -9.99902s-11 -18.333 -11 -39v-316c0 -20.667 3.66699 -33.667 11 -39
s25.333 -8.66602 54 -9.99902v-38h-269v38l21 2c11.333 1.33301 19.5 4.5 24.5 9.5s7.5 15.167 7.5 30.5v325c0 10.667 -1.33301 18.834 -4 24.501s-5.83398 9.16699 -9.50098 10.5s-9.83398 2.33301 -18.501 3l-21 1h-12l-21 -1
c-8.66699 -0.666992 -14.834 -1.66699 -18.501 -3s-6.83398 -4.83301 -9.50098 -10.5s-4 -13.834 -4 -24.501v-56.5c0 -13.667 -0.333008 -32.5 -1 -56.5s-1.66699 -43.5 -3 -58.5l-5 -54c-2 -21 -4.66699 -38.333 -8 -52l-11.5 -45
c-4.33301 -16.333 -9.83301 -29.5 -16.5 -39.5s-14 -19.5 -22 -28.5s-17.333 -15.667 -28 -20s-22.334 -6.5 -35.001 -6.5c-45.333 0 -79.333 11.833 -102 35.5s-34 48.5 -34 74.5z" />
    <glyph glyph-name="afii10078" unicode="&#x43c;" horiz-adv-x="769" 
d="M29 0l-0.000976562 38c28.667 1.33301 46.667 4.66602 54 9.99902s11 18.333 11 39v316c0 20.667 -3.66699 33.667 -11 39s-25.333 8.66602 -54 9.99902v38h213c42.667 -77.333 71.334 -135 86.001 -173l54 -112h2l53 125c19.333 50.667 43 104 71 160h232v-38
c-28.667 -1.33301 -46.667 -4.66602 -54 -9.99902s-11 -18.333 -11 -39v-316c0 -20.667 3.66699 -33.667 11 -39s25.333 -8.66602 54 -9.99902v-38h-281v38c28.667 1.33301 46.667 4.66602 54 9.99902s11 18.333 11 39v296h-2l-160 -373h-37l-174 361h-2v-284
c0 -20.667 3.66699 -33.667 11 -39s25.333 -8.66602 54 -9.99902v-38h-185z" />
    <glyph glyph-name="afii10079" unicode="&#x43d;" horiz-adv-x="658" 
d="M29 0v38c28.667 1.33301 46.667 4.66602 54 9.99902s11 18.333 11 39v316c0 20.667 -3.66699 33.667 -11 39s-25.333 8.66602 -54 9.99902v38h269v-38l-21 -2c-11.333 -1.33301 -19.5 -4.5 -24.5 -9.5s-7.5 -15.167 -7.5 -30.5v-133h168v133
c0 15.333 -2.5 25.5 -7.5 30.5s-13.167 8.16699 -24.5 9.5l-21 2v38h269v-38c-28.667 -1.33301 -46.667 -4.66602 -54 -9.99902s-11 -18.333 -11 -39v-316c0 -20.667 3.66699 -33.667 11 -39s25.333 -8.66602 54 -9.99902v-38h-269v38l21 2
c11.333 1.33301 19.5 4.5 24.5 9.5s7.5 15.167 7.5 30.5v151h-168v-151c0 -15.333 2.5 -25.5 7.5 -30.5s13.167 -8.16699 24.5 -9.5l21 -2v-38h-269z" />
    <glyph glyph-name="afii10080" unicode="&#x43e;" horiz-adv-x="585" 
d="M34 245c0 171.333 86.333 257 259 257s259 -85.667 259 -257s-86.333 -257 -259 -257s-259 85.667 -259 257zM193 245c0 -140.667 33.333 -211 100 -211s100 70.333 100 211s-33.333 211 -100 211s-100 -70.333 -100 -211z" />
    <glyph glyph-name="afii10081" unicode="&#x43f;" horiz-adv-x="656" 
d="M29 0l0.00390625 38c28.667 1.33301 46.667 4.66602 54 9.99902s11 18.333 11 39v316c0 20.667 -3.66699 33.667 -11 39s-25.333 8.66602 -54 9.99902v38h598v-38c-28.667 -1.33301 -46.667 -4.66602 -54 -9.99902s-11 -18.333 -11 -39v-316
c0 -20.667 3.66699 -33.667 11 -39s25.333 -8.66602 54 -9.99902v-38h-269v38l21 2c11.333 1.33301 19.5 4.5 24.5 9.5s7.5 15.167 7.5 30.5v325c0 10.667 -1.33301 18.834 -4 24.501s-5.83398 9.16699 -9.50098 10.5s-9.83398 2.33301 -18.501 3l-21 1h-60l-21 -1
c-8.66699 -0.666992 -14.834 -1.66699 -18.501 -3s-6.83398 -4.83301 -9.50098 -10.5s-4 -13.834 -4 -24.501v-325c0 -15.333 2.5 -25.5 7.5 -30.5s13.167 -8.16699 24.5 -9.5l21 -2v-38h-269z" />
    <glyph glyph-name="afii10082" unicode="&#x440;" horiz-adv-x="615" 
d="M19 -192c28.667 1.33301 46.667 4.66895 54 10.002s11 18.333 11 39v524c0 19.333 -1.83301 32.333 -5.5 39s-9.83398 10.667 -18.501 12l-35 5v36l192 29l18 -69c20 15.333 36.667 27.166 50 35.499s30.333 16 51 23s42 10.5 64 10.5c50.667 0 93.5 -20.833 128.5 -62.5
s52.5 -101.834 52.5 -180.501c0 -52.667 -6.66699 -97.334 -20 -134.001s-32.833 -64.667 -58.5 -84s-53.5 -33 -83.5 -41s-65 -12 -105 -12c-33.333 0 -59.666 4 -78.999 12v-143c0 -20.667 4.5 -33.667 13.5 -39s32.167 -8.66602 69.5 -9.99902v-38h-299v38zM235 152.003
c0 -20.667 1.33398 -37.668 4.00098 -51.001c9.33301 -44.667 35.666 -67 78.999 -67c69.333 0 104 67.667 104 203c0 72.667 -9.33301 122.167 -28 148.5s-42.667 39.5 -72 39.5c-39.333 0 -66 -20 -80 -60c-4.66699 -13.333 -7 -31.666 -7 -54.999v-158z" />
    <glyph glyph-name="afii10083" unicode="&#x441;" horiz-adv-x="494" 
d="M34 241c0 84 22.666 148.667 67.999 194c44.667 44.667 106.334 67 185.001 67c49.333 0 93.5 -10 132.5 -30s58.5 -46.667 58.5 -80c0 -20 -8.66699 -35.333 -26 -46s-36.333 -16 -57 -16c-24.667 0 -40.667 11.667 -48 35c-9.33301 32 -19 55.167 -29 69.5
s-23.333 21.5 -40 21.5c-23.333 0 -43.333 -16.167 -60 -48.5s-25 -79.833 -25 -142.5c0 -72 12 -123.333 36 -154s54.667 -46 92 -46c28.667 0 53 6.83301 73 20.5s38.333 37.167 55 70.5l35 -16c-32 -101.333 -103.667 -152 -215 -152c-72.667 0 -130 21.667 -172 65
s-63 106 -63 188z" />
    <glyph glyph-name="afii10084" unicode="&#x442;" horiz-adv-x="531" 
d="M21 310l0.00195312 180h489v-180h-38c-15.333 89.333 -45 134 -89 134h-1c-8 0 -13.667 -0.166992 -17 -0.5s-7.33301 -1.66602 -12 -3.99902s-7.83398 -6.33301 -9.50098 -12s-2.5 -13.167 -2.5 -22.5v-318c0 -20.667 4.5 -33.667 13.5 -39
s32.167 -8.66602 69.5 -9.99902v-38h-317v38c37.333 1.33301 60.5 4.66602 69.5 9.99902s13.5 18.333 13.5 39v318c0 9.33301 -0.833008 16.833 -2.5 22.5s-4.83398 9.66699 -9.50098 12s-8.66699 3.66602 -12 3.99902s-9 0.5 -17 0.5h-1c-44 0 -73.667 -44.667 -89 -134
h-38z" />
    <glyph glyph-name="afii10085" unicode="&#x443;" horiz-adv-x="524" 
d="M-12 452l0.000976562 37.999h280v-38l-38 -6c-15.333 -2 -19.333 -13 -12 -33c12 -36.667 30.833 -89.334 56.5 -158.001s40.5 -109 44.5 -121h2c49.333 150 79.666 244 90.999 282c4.66699 18 -0.333008 28 -15 30l-41 6v38h201v-38l-21 -2
c-13.333 -1.33301 -23.666 -6.66602 -30.999 -15.999s-16 -25.666 -26 -48.999c-75.333 -182 -134.333 -330.333 -177 -445c-26 -69.333 -51.667 -117 -77 -143s-56 -39 -92 -39c-20.667 0 -39.334 5.83301 -56.001 17.5s-25 26.834 -25 45.501
c0 19.333 6.66699 37.666 20 54.999s28 26 44 26c10.667 0 25.667 -7 45 -21c12 -10 24 -15 36 -15c17.333 0 30.333 16.333 39 49c5.33301 20.667 3.33301 42.667 -6 66c-48.667 127.333 -105.667 269 -171 425c-10 24 -22.667 37.667 -38 41z" />
    <glyph glyph-name="afii10086" unicode="&#x444;" horiz-adv-x="859" 
d="M34 245c0 86 18.668 150.334 56.001 193.001s95.666 64 174.999 64c32 0 61.333 -14.333 88 -43h1v162c0 18.667 -1.83301 31.667 -5.5 39s-9.83398 11.666 -18.501 12.999l-35 6v36l203 27l7 -6v-277h1c26.667 28.667 56 43 88 43c79.333 0 137.666 -21.333 174.999 -64
s56 -107 56 -193s-18.667 -150.333 -56 -193s-95.666 -64 -174.999 -64c-32 0 -61.333 14.333 -88 43h-1v-174c0 -20.667 4.5 -33.667 13.5 -39s32.167 -8.66602 69.5 -9.99902v-38h-317v38c37.333 1.33301 60.5 4.66602 69.5 9.99902s13.5 18.333 13.5 39v174h-1
c-26.667 -28.667 -56 -43 -88 -43c-79.333 0 -137.666 21.333 -174.999 64s-56 107 -56 193zM193.001 245.001c0 -51.333 7.66699 -99.333 23 -144s37.666 -67 66.999 -67c12 0 26.833 10.167 44.5 30.5s26.5 43.833 26.5 70.5v220c0 32.667 -8.5 57.667 -25.5 75
s-32.167 26 -45.5 26c-29.333 0 -51.666 -22.333 -66.999 -67s-23 -92.667 -23 -144zM505.001 135.001c0 -26.667 8.83301 -50.167 26.5 -70.5s32.5 -30.5 44.5 -30.5c29.333 0 51.666 22.333 66.999 67s23 92.667 23 144s-7.66699 99.333 -23 144s-37.666 67 -66.999 67
c-13.333 0 -28.5 -8.66699 -45.5 -26s-25.5 -42.333 -25.5 -75v-220z" />
    <glyph glyph-name="afii10087" unicode="&#x445;" horiz-adv-x="522" 
d="M-15 0l0.00390625 38c26.667 3.33301 46.5 8 59.5 14s27.167 17.667 42.5 35c16.667 18.667 54.667 65.334 114 140.001l-70 98.5l-63 89.5c-10 13.333 -19.333 22.166 -28 26.499s-24 7.83301 -46 10.5v38h260v-38l-23 -4c-12.667 -2 -14.667 -9 -6 -21l62 -95h2l60 89
c11.333 16.667 9.66602 26 -5.00098 28l-26 3v38h198v-38c-34.667 -0.666992 -63.334 -12.334 -86.001 -35.001c-42 -42.667 -78.667 -85.334 -110 -128.001c56.667 -83.333 104 -150.666 142 -201.999c14.667 -18.667 27.667 -31.167 39 -37.5
s27.666 -10.166 48.999 -11.499v-38h-278v38l22 3c19.333 2 23.666 11.333 12.999 28l-73 112h-2l-69 -108c-12 -18 -9.33301 -28 8 -30l35 -5v-38h-221z" />
    <glyph glyph-name="afii10088" unicode="&#x446;" horiz-adv-x="654" 
d="M29 0l-0.00390625 38.001c28.667 1.33301 46.667 4.66602 54 9.99902s11 18.333 11 39v316c0 20.667 -3.66699 33.667 -11 39s-25.333 8.66602 -54 9.99902v38h269v-38l-21 -2c-11.333 -1.33301 -19.5 -4.5 -24.5 -9.5s-7.5 -15.167 -7.5 -30.5v-325
c0 -10.667 1.33301 -18.834 4 -24.501s5.83398 -9.16699 9.50098 -10.5s9.83398 -2.33301 18.501 -3l21 -1h58l21 1c8.66699 0.666992 14.834 1.66699 18.501 3s6.83398 4.83301 9.50098 10.5s4 13.834 4 24.501v325c0 15.333 -2.5 25.5 -7.5 30.5
s-13.167 8.16699 -24.5 9.5l-21 2v38h269v-38c-28.667 -1.33301 -46.667 -4.66602 -54 -9.99902s-11 -18.333 -11 -39v-314c0 -19.333 3.16699 -31 9.5 -35s24.833 -6.66699 55.5 -8h6l16 -214h-38c-12.667 68 -32 113 -58 135s-65 33 -117 33h-405z" />
    <glyph glyph-name="afii10089" unicode="&#x447;" horiz-adv-x="640" 
d="M19 452l-0.00292969 38.001h269v-38l-21 -2c-11.333 -1.33301 -19.5 -4.5 -24.5 -9.5s-7.5 -15.167 -7.5 -30.5v-100c0 -22 4 -37.333 12 -46s23.667 -13 47 -13c20 0 40 2.33301 60 7c27.333 6.66699 41 22 41 46v106c0 15.333 -2.5 25.5 -7.5 30.5
s-13.167 8.16699 -24.5 9.5l-21 2v38h269v-38c-28.667 -1.33301 -46.667 -4.66602 -54 -9.99902s-11 -18.333 -11 -39v-316c0 -20.667 3.66699 -33.667 11 -39s25.333 -8.66602 54 -9.99902v-38h-291v38c34 1.33301 55 4.66602 63 9.99902s12 18.333 12 39v144
c-23.333 -14 -41.166 -24.167 -53.499 -30.5s-29.166 -12.333 -50.499 -18s-44.333 -8.5 -69 -8.5c-49.333 0 -84.666 10.667 -105.999 32s-32 56.666 -32 105.999v91c0 20.667 -3.66699 33.667 -11 39s-25.333 8.66602 -54 9.99902z" />
    <glyph glyph-name="afii10090" unicode="&#x448;" horiz-adv-x="951" 
d="M29 0l-0.0078125 38c28.667 1.33301 46.667 4.66602 54 9.99902s11 18.333 11 39v316c0 20.667 -3.66699 33.667 -11 39s-25.333 8.66602 -54 9.99902v38h269v-38l-21 -2c-11.333 -1.33301 -19.5 -4.5 -24.5 -9.5s-7.5 -15.167 -7.5 -30.5v-325
c0 -10.667 1.33301 -18.834 4 -24.501s5.83398 -9.16699 9.50098 -10.5s9.83398 -2.33301 18.501 -3l21 -1h49l21 1c8.66699 0.666992 14.834 1.66699 18.501 3s6.83398 4.83301 9.50098 10.5s4 13.834 4 24.501v325c0 15.333 -2.5 25.5 -7.5 30.5
s-13.167 8.16699 -24.5 9.5l-21 2v38h257v-38l-21 -2c-11.333 -1.33301 -19.5 -4.5 -24.5 -9.5s-7.5 -15.167 -7.5 -30.5v-325c0 -10.667 1.33301 -18.834 4 -24.501s5.83398 -9.16699 9.50098 -10.5s9.83398 -2.33301 18.501 -3l21 -1h49l21 1
c8.66699 0.666992 14.834 1.66699 18.501 3s6.83398 4.83301 9.50098 10.5s4 13.834 4 24.501v325c0 15.333 -2.5 25.5 -7.5 30.5s-13.167 8.16699 -24.5 9.5l-21 2v38h269v-38c-28.667 -1.33301 -46.667 -4.66602 -54 -9.99902s-11 -18.333 -11 -39v-316
c0 -20.667 3.66699 -33.667 11 -39s25.333 -8.66602 54 -9.99902v-38h-893z" />
    <glyph glyph-name="afii10091" unicode="&#x449;" horiz-adv-x="951" 
d="M29 0l-0.0078125 38.001c28.667 1.33301 46.667 4.66602 54 9.99902s11 18.333 11 39v316c0 20.667 -3.66699 33.667 -11 39s-25.333 8.66602 -54 9.99902v38h269v-38l-21 -2c-11.333 -1.33301 -19.5 -4.5 -24.5 -9.5s-7.5 -15.167 -7.5 -30.5v-325
c0 -10.667 1.33301 -18.834 4 -24.501s5.83398 -9.16699 9.50098 -10.5s9.83398 -2.33301 18.501 -3l21 -1h49l21 1c8.66699 0.666992 14.834 1.66699 18.501 3s6.83398 4.83301 9.50098 10.5s4 13.834 4 24.501v325c0 15.333 -2.5 25.5 -7.5 30.5
s-13.167 8.16699 -24.5 9.5l-21 2v38h257v-38l-21 -2c-11.333 -1.33301 -19.5 -4.5 -24.5 -9.5s-7.5 -15.167 -7.5 -30.5v-325c0 -10.667 1.33301 -18.834 4 -24.501s5.83398 -9.16699 9.50098 -10.5s9.83398 -2.33301 18.501 -3l21 -1h49l21 1
c8.66699 0.666992 14.834 1.66699 18.501 3s6.83398 4.83301 9.50098 10.5s4 13.834 4 24.501v325c0 15.333 -2.5 25.5 -7.5 30.5s-13.167 8.16699 -24.5 9.5l-21 2v38h269v-38c-28.667 -1.33301 -46.667 -4.66602 -54 -9.99902s-11 -18.333 -11 -39v-314
c0 -19.333 3.16699 -31 9.5 -35s24.833 -6.66699 55.5 -8h6l16 -214h-38c-12.667 68 -32 113 -58 135s-65 33 -117 33h-702z" />
    <glyph glyph-name="afii10092" unicode="&#x44a;" horiz-adv-x="700" 
d="M15 322l0.000976562 168.002h434v-38c-34 -1.33301 -55 -4.66602 -63 -9.99902s-12 -18.333 -12 -39v-126c22.667 5.33301 46.334 8 71.001 8c152 0 228 -49 228 -147c0 -52.667 -18.167 -88.834 -54.5 -108.501s-94.833 -29.5 -175.5 -29.5h-295v38
c34 1.33301 55 4.66602 63 9.99902s12 18.333 12 39v318c0 9.33301 -0.833008 16.833 -2.5 22.5s-4.83398 9.66699 -9.50098 12s-8.66699 3.66602 -12 3.99902s-9 0.5 -17 0.5h-6c-35.333 0 -61.333 -9 -78 -27s-31.334 -49.667 -44.001 -95h-39zM374.001 88.002
c0 -16 4 -27.333 12 -34s21 -10 39 -10c28 0 49.833 7.33301 65.5 22s23.5 40.667 23.5 78c0 63.333 -33.667 95 -101 95c-15.333 0 -28.333 -2.66699 -39 -8v-143z" />
    <glyph glyph-name="afii10093" unicode="&#x44b;" horiz-adv-x="878" 
d="M568 0v38c28.667 1.33301 46.667 4.66602 54 9.99902s11 18.333 11 39v316c0 20.667 -3.66699 33.667 -11 39s-25.333 8.66602 -54 9.99902v38h281v-38c-28.667 -1.33301 -46.667 -4.66602 -54 -9.99902s-11 -18.333 -11 -39v-316c0 -20.667 3.66699 -33.667 11 -39
s25.333 -8.66602 54 -9.99902v-38h-281zM29 0l-0.000976562 38.002c28.667 1.33301 46.667 4.66602 54 9.99902s11 18.333 11 39v316c0 20.667 -3.66699 33.667 -11 39s-25.333 8.66602 -54 9.99902v38h291v-38c-34 -1.33301 -55 -4.66602 -63 -9.99902s-12 -18.333 -12 -39
v-126c22.667 5.33301 46.334 8 71.001 8c152 0 228 -49 228 -147c0 -52.667 -18.167 -88.834 -54.5 -108.501s-94.833 -29.5 -175.5 -29.5h-285zM244.999 88.002c0 -16 4 -27.333 12 -34s21 -10 39 -10c28 0 49.833 7.33301 65.5 22s23.5 40.667 23.5 78
c0 63.333 -33.667 95 -101 95c-15.333 0 -28.333 -2.66699 -39 -8v-143z" />
    <glyph glyph-name="afii10094" unicode="&#x44c;" horiz-adv-x="571" 
d="M29 0l-0.000976562 38.002c28.667 1.33301 46.667 4.66602 54 9.99902s11 18.333 11 39v316c0 20.667 -3.66699 33.667 -11 39s-25.333 8.66602 -54 9.99902v38h291v-38c-34 -1.33301 -55 -4.66602 -63 -9.99902s-12 -18.333 -12 -39v-126
c22.667 5.33301 46.334 8 71.001 8c152 0 228 -49 228 -147c0 -52.667 -18.167 -88.834 -54.5 -108.501s-94.833 -29.5 -175.5 -29.5h-285zM244.999 88.002c0 -16 4 -27.333 12 -34s21 -10 39 -10c28 0 49.833 7.33301 65.5 22s23.5 40.667 23.5 78
c0 63.333 -33.667 95 -101 95c-15.333 0 -28.333 -2.66699 -39 -8v-143z" />
    <glyph glyph-name="afii10095" unicode="&#x44d;" horiz-adv-x="494" 
d="M28 117c0 48.667 20.3301 73.0029 60.9971 73.0029c20 0 36.833 -4.83301 50.5 -14.5s20.5 -21.834 20.5 -36.501c0 -5.33301 -2 -16.5 -6 -33.5s-6 -27.5 -6 -31.5c0 -12.667 4.33301 -21.834 13 -27.501s18 -8.5 28 -8.5c22 0 41 7 57 21s27.833 32.167 35.5 54.5
s13.167 43.5 16.5 63.5s5 40 5 60h-173v46h172c-4 115.333 -36.333 173 -97 173c-53.333 0 -91.666 -36.667 -114.999 -110h-36v111c40.667 30 91.667 45 153 45c51.333 0 94.833 -8.33301 130.5 -25s61.834 -39 78.501 -67s28.167 -55 34.5 -81s9.5 -54 9.5 -84
c0 -26 -1.33301 -49.333 -4 -70s-9 -43.334 -19 -68.001s-23.667 -45 -41 -61s-42.166 -29.667 -74.499 -41s-70.833 -17 -115.5 -17c-50 0 -92.167 13.5 -126.5 40.5s-51.5 56.5 -51.5 88.5z" />
    <glyph glyph-name="afii10096" unicode="&#x44e;" horiz-adv-x="899" 
d="M29 0v38c28.667 1.33301 46.667 4.66602 54 9.99902s11 18.333 11 39v316c0 20.667 -3.66699 33.667 -11 39s-25.333 8.66602 -54 9.99902v38h281v-38c-28.667 -1.33301 -46.667 -4.66602 -54 -9.99902s-11 -18.333 -11 -39v-126h103v-1
c10.667 150.667 96.667 226 258 226c172.667 0 259 -85.667 259 -257s-86.333 -257 -259 -257c-168.667 0 -255 81 -259 243h-102v-144c0 -20.667 3.66699 -33.667 11 -39s25.333 -8.66602 54 -9.99902v-38h-281zM506 245c0 -140.667 33.333 -211 100 -211
s100 70.333 100 211s-33.333 211 -100 211s-100 -70.333 -100 -211z" />
    <glyph glyph-name="afii10097" unicode="&#x44f;" horiz-adv-x="630" 
d="M25 -12v45.999h5c15.333 0 28.666 6.33301 39.999 19s20.333 36.667 27 72c3.33301 18.667 10 34.334 20 47.001s22.333 22.167 37 28.5s27.834 10.666 39.501 12.999s25.167 4.16602 40.5 5.49902v3c-51.333 14 -89.5 30.833 -114.5 50.5s-37.5 48.834 -37.5 87.501
c0 86.667 76.667 130 230 130h291v-38c-28.667 -1.33301 -46.667 -4.66602 -54 -9.99902s-11 -18.333 -11 -39v-316c0 -20.667 3.66699 -33.667 11 -39s25.333 -8.66602 54 -9.99902v-38h-281v38c28.667 1.33301 46.667 4.66602 54 9.99902s11 18.333 11 39v121h-49
c-28.667 0 -50 -9.5 -64 -28.5s-25 -49.5 -33 -91.5c-12 -66.667 -75.667 -100 -191 -100h-25zM241 349.999c0 -64 33.667 -96 101 -96h45v148c0 29.333 -19 44 -57 44c-59.333 0 -89 -32 -89 -96z" />
    <glyph glyph-name="uni0450" unicode="&#x450;" horiz-adv-x="519" 
d="M96 680c0 12.667 5.83301 25.833 17.5 39.5s23.5 20.5 35.5 20.5c10 0 20.167 -3.5 30.5 -10.5s24.833 -20.167 43.5 -39.5l145 -149l-21 -30l-183 103c-22 12 -38.833 23 -50.5 33s-17.5 21 -17.5 33zM34 244.999c0 76 20 137.831 60 185.498s102.333 71.5 187 71.5
c36.667 0 69 -4.66699 97 -14s49.833 -21 65.5 -35s28.334 -30.833 38.001 -50.5s16 -38 19 -55s4.5 -34.833 4.5 -53.5c0 -15.333 -4.33301 -26.166 -13 -32.499s-22.334 -9.5 -41.001 -9.5h-258c0 -124.667 44.667 -187 134 -187c58 0 102.667 29.667 134 89l36 -20
c-37.333 -97.333 -110 -146 -218 -146c-44.667 0 -83.334 6.83301 -116.001 20.5s-58.167 32.834 -76.5 57.501s-31.666 51.667 -39.999 81s-12.5 62 -12.5 98zM193 299.997l123.999 0.00195312c12 0 20.167 2.16699 24.5 6.5s6.5 13.166 6.5 26.499
c0 82 -23.667 123 -71 123c-29.333 0 -50.666 -15.333 -63.999 -46s-20 -67.334 -20 -110.001z" />
    <glyph glyph-name="afii10071" unicode="&#x451;" horiz-adv-x="519" 
d="M315 635c0 20 7.16699 37.5 21.5 52.5s33.5 22.5 57.5 22.5s43.167 -7.5 57.5 -22.5s21.5 -32.5 21.5 -52.5s-7.16699 -37.5 -21.5 -52.5s-33.5 -22.5 -57.5 -22.5s-43.167 7.5 -57.5 22.5s-21.5 32.5 -21.5 52.5zM75 635c0 20 7.16699 37.5 21.5 52.5
s33.5 22.5 57.5 22.5s43.167 -7.5 57.5 -22.5s21.5 -32.5 21.5 -52.5s-7.16699 -37.5 -21.5 -52.5s-33.5 -22.5 -57.5 -22.5s-43.167 7.5 -57.5 22.5s-21.5 32.5 -21.5 52.5zM34 245c0 76 20 137.831 60 185.498s102.333 71.5 187 71.5c36.667 0 69 -4.66699 97 -14
s49.833 -21 65.5 -35s28.334 -30.833 38.001 -50.5s16 -38 19 -55s4.5 -34.833 4.5 -53.5c0 -15.333 -4.33301 -26.166 -13 -32.499s-22.334 -9.5 -41.001 -9.5h-258c0 -124.667 44.667 -187 134 -187c58 0 102.667 29.667 134 89l36 -20
c-37.333 -97.333 -110 -146 -218 -146c-44.667 0 -83.334 6.83301 -116.001 20.5s-58.167 32.834 -76.5 57.501s-31.666 51.667 -39.999 81s-12.5 62 -12.5 98zM193 299.998l123.999 0.00195312c12 0 20.167 2.16699 24.5 6.5s6.5 13.166 6.5 26.499
c0 82 -23.667 123 -71 123c-29.333 0 -50.666 -15.333 -63.999 -46s-20 -67.334 -20 -110.001z" />
    <glyph glyph-name="afii10099" unicode="&#x452;" horiz-adv-x="606" 
d="M20 444l0.00390625 46.002h74v131c0 18.667 -1.83301 31.667 -5.5 39s-9.83398 11.666 -18.501 12.999l-35 6v36l203 27l7 -6v-246h204v-46h-204v-145c51.333 48.667 96.333 73 135 73c63.333 0 111.166 -17.833 143.499 -53.5s48.5 -96.167 48.5 -181.5
c0 -42 -8.16699 -81.833 -24.5 -119.5s-39.833 -72.167 -70.5 -103.5s-62.334 -58.833 -95.001 -82.5s-70.667 -48.167 -114 -73.5l-18 32c69.333 63.333 114 117 134 161s30 107.333 30 190c0 46.667 -6.83301 84 -20.5 112s-34.834 42 -63.501 42
c-15.333 0 -30 -4.83301 -44 -14.5s-24.333 -21.167 -31 -34.5s-10 -33 -10 -59v-107c0 -15.333 2.5 -25.5 7.5 -30.5s13.167 -8.16699 24.5 -9.5l21 -2v-38h-269v38c28.667 1.33301 46.667 4.66602 54 9.99902s11 18.333 11 39v357h-74z" />
    <glyph glyph-name="afii10100" unicode="&#x453;" horiz-adv-x="492" 
d="M144 561l145 149.001c18.667 19.333 33.167 32.5 43.5 39.5s20.5 10.5 30.5 10.5c12 0 23.833 -6.83301 35.5 -20.5s17.5 -26.834 17.5 -39.501c0 -12 -5.83301 -23 -17.5 -33s-28.5 -21 -50.5 -33l-183 -103zM29 0.000976562l0.00195312 38.002
c28.667 1.33301 46.667 4.66602 54 9.99902s11 18.333 11 39v316c0 20.667 -3.66699 33.667 -11 39s-25.333 8.66602 -54 9.99902v38h442v-168h-39c-14 48.667 -28.5 81.167 -43.5 97.5s-43.833 24.5 -86.5 24.5h-4l-21 -1c-8.66699 -0.666992 -14.834 -1.66699 -18.501 -3
s-6.83398 -4.83301 -9.50098 -10.5s-4 -13.834 -4 -24.501v-318c0 -20.667 4.16699 -33.667 12.5 -39s30.5 -8.66602 66.5 -9.99902v-38h-295z" />
    <glyph glyph-name="afii10101" unicode="&#x454;" horiz-adv-x="494" 
d="M34 241c0 82.667 22.1689 146.833 66.502 192.5s106.5 68.5 186.5 68.5c49.333 0 93.5 -10 132.5 -30s58.5 -46.667 58.5 -80c0 -20 -8.5 -35.333 -25.5 -46s-34.833 -16 -53.5 -16c-24 0 -39.667 11.667 -47 35c-17.333 60.667 -42 91 -74 91
c-22 0 -41.167 -14.667 -57.5 -44s-25.5 -72.333 -27.5 -129h162v-46h-161c3.33301 -61.333 16.666 -105.333 39.999 -132s52.333 -40 87 -40c27.333 0 49.666 5.5 66.999 16.5s35.333 30.833 54 59.5l35 -16c-22 -52 -50.333 -87.833 -85 -107.5s-75.667 -29.5 -123 -29.5
c-72.667 0 -130 21.667 -172 65s-63 106 -63 188z" />
    <glyph glyph-name="afii10102" unicode="&#x455;" horiz-adv-x="446" 
d="M38 185h37.998c14 -43.333 33.833 -79.333 59.5 -108s54.167 -43 85.5 -43c22 0 39 5.33301 51 16s18 25.667 18 45c0 40 -33.333 71.667 -100 95c-98 36.667 -147 88 -147 154c0 50 17.667 88.833 53 116.5s83.666 41.5 144.999 41.5c62 0 112 -11.667 150 -35v-133h-37
c-9.33301 38 -24.166 67.833 -44.499 89.5s-43.166 32.5 -68.499 32.5c-19.333 0 -34.666 -5.66699 -45.999 -17s-17 -25 -17 -41c0 -18.667 8.66699 -34.5 26 -47.5s42.333 -25.5 75 -37.5c49.333 -18.667 86 -40.167 110 -64.5s36 -56.833 36 -97.5
c0 -52.667 -18.667 -93 -56 -121s-87.333 -42 -150 -42c-78 0 -134.333 16 -169 48z" />
    <glyph glyph-name="afii10103" unicode="&#x456;" horiz-adv-x="316" 
d="M70 633c0 24 8.33301 44.501 25 61.501s38.667 25.5 66 25.5s49.5 -8.33301 66.5 -25s25.5 -37.334 25.5 -62.001s-8.66699 -45.5 -26 -62.5s-39.333 -25.5 -66 -25.5c-27.333 0 -49.333 8.5 -66 25.5s-25 37.833 -25 62.5zM26 0.000976562l0.000976562 38
c28.667 1.33301 46.667 4.66602 54 9.99902s11 18.333 11 39v294c0 19.333 -1.83301 32.333 -5.5 39s-9.83398 10.667 -18.501 12l-35 5v36l203 29l7 -6v-409c0 -20.667 3.66699 -33.667 11 -39s25.333 -8.66602 54 -9.99902v-38h-281z" />
    <glyph glyph-name="afii10104" unicode="&#x457;" horiz-adv-x="316" 
d="M26 0l0.000976562 38c28.667 1.33301 46.667 4.66602 54 9.99902s11 18.333 11 39v294c0 19.333 -1.83301 32.333 -5.5 39s-9.83398 10.667 -18.501 12l-35 5v36l203 29l7 -6v-409c0 -20.667 3.66699 -33.667 11 -39s25.333 -8.66602 54 -9.99902v-38h-281zM203.001 635
c0 20 7.16699 37.5 21.5 52.5s33.5 22.5 57.5 22.5s43.167 -7.5 57.5 -22.5s21.5 -32.5 21.5 -52.5s-7.16699 -37.5 -21.5 -52.5s-33.5 -22.5 -57.5 -22.5s-43.167 7.5 -57.5 22.5s-21.5 32.5 -21.5 52.5zM-36.999 635c0 20 7.16699 37.5 21.5 52.5s33.5 22.5 57.5 22.5
s43.167 -7.5 57.5 -22.5s21.5 -32.5 21.5 -52.5s-7.16699 -37.5 -21.5 -52.5s-33.5 -22.5 -57.5 -22.5s-43.167 7.5 -57.5 22.5s-21.5 32.5 -21.5 52.5z" />
    <glyph glyph-name="afii10105" unicode="&#x458;" horiz-adv-x="316" 
d="M77 633c0 24 8.33301 44.501 25 61.501s38.667 25.5 66 25.5c28 0 50.333 -8.33301 67 -25s25 -37.334 25 -62.001s-8.66699 -45.5 -26 -62.5s-39.333 -25.5 -66 -25.5c-27.333 0 -49.333 8.5 -66 25.5s-25 37.833 -25 62.5zM-12 -200.999
c32.667 10.667 56.667 25.666 72 44.999c25.333 32 38 94.333 38 187v350c0 19.333 -1.83301 32.333 -5.5 39s-9.83398 10.667 -18.501 12l-35 5v36l203 29l7 -6v-471c0 -117.333 -30.333 -191.666 -91 -222.999c-43.333 -22.667 -98.666 -34 -165.999 -34z" />
    <glyph glyph-name="afii10106" unicode="&#x459;" horiz-adv-x="876" 
d="M15 98c0 51.333 20.0078 77 60.0078 77c16 0 31.5 -5.5 46.5 -16.5s22.5 -23.167 22.5 -36.5c0 -7.33301 -3 -18.666 -9 -33.999s-9 -26.333 -9 -33c0 -14 7.66699 -21 23 -21c12 0 22.667 5.83301 32 17.5s16.666 29 21.999 52s9.66602 45.667 12.999 68
s5.66602 50 6.99902 83s2.16602 59 2.49902 78s0.5 42.5 0.5 70.5c0 20.667 -3.66699 33.667 -11 39s-25.333 8.66602 -54 9.99902v38h464v-38c-34 -1.33301 -55 -4.66602 -63 -9.99902s-12 -18.333 -12 -39v-126c22.667 5.33301 46.334 8 71.001 8c152 0 228 -49 228 -147
c0 -52.667 -18.167 -88.834 -54.5 -108.501s-94.833 -29.5 -175.5 -29.5h-273v38l21 2c11.333 1.33301 19.5 4.5 24.5 9.5s7.5 15.167 7.5 30.5v325c0 10.667 -1.33301 18.834 -4 24.501s-5.83398 9.16699 -9.50098 10.5s-9.83398 2.33301 -18.501 3l-21 1h-12l-21 -1
c-8.66699 -0.666992 -14.834 -1.66699 -18.501 -3s-6.83398 -4.83301 -9.50098 -10.5s-4 -13.834 -4 -24.501v-56.5c0 -13.667 -0.333008 -32.5 -1 -56.5s-1.66699 -43.5 -3 -58.5l-5 -54c-2 -21 -4.66699 -38.333 -8 -52l-11.5 -45
c-4.33301 -16.333 -9.83301 -29.5 -16.5 -39.5s-14 -19.5 -22 -28.5s-17.333 -15.667 -28 -20s-22.334 -6.5 -35.001 -6.5c-45.333 0 -79.333 11.833 -102 35.5s-34 48.5 -34 74.5zM550.008 88c0 -16 4 -27.333 12 -34s21 -10 39 -10c28 0 49.833 7.33301 65.5 22
s23.5 40.667 23.5 78c0 63.333 -33.667 95 -101 95c-15.333 0 -28.333 -2.66699 -39 -8v-143z" />
    <glyph glyph-name="afii10107" unicode="&#x45a;" horiz-adv-x="890" 
d="M29 0l-0.000976562 38.002c28.667 1.33301 46.667 4.66602 54 9.99902s11 18.333 11 39v316c0 20.667 -3.66699 33.667 -11 39s-25.333 8.66602 -54 9.99902v38h269v-38l-21 -2c-11.333 -1.33301 -19.5 -4.5 -24.5 -9.5s-7.5 -15.167 -7.5 -30.5v-133h168v133
c0 15.333 -2.5 25.5 -7.5 30.5s-13.167 8.16699 -24.5 9.5l-21 2v38h279v-38c-34 -1.33301 -55 -4.66602 -63 -9.99902s-12 -18.333 -12 -39v-126c22.667 5.33301 46.334 8 71.001 8c152 0 228 -49 228 -147c0 -52.667 -18.167 -88.834 -54.5 -108.501
s-94.833 -29.5 -175.5 -29.5h-273v38l21 2c11.333 1.33301 19.5 4.5 24.5 9.5s7.5 15.167 7.5 30.5v151h-168v-151c0 -15.333 2.5 -25.5 7.5 -30.5s13.167 -8.16699 24.5 -9.5l21 -2v-38h-269zM563.999 88.002c0 -16 4 -27.333 12 -34s21 -10 39 -10
c28 0 49.833 7.33301 65.5 22s23.5 40.667 23.5 78c0 63.333 -33.667 95 -101 95c-15.333 0 -28.333 -2.66699 -39 -8v-143z" />
    <glyph glyph-name="afii10108" unicode="&#x45b;" horiz-adv-x="644" 
d="M20 444l0.000976562 46.001h74v131c0 18.667 -1.83301 31.667 -5.5 39s-9.83398 11.666 -18.501 12.999l-35 6v36l203 27l7 -6v-246h204v-46h-204v-141l60 36c14 8 30.833 15.5 50.5 22.5s38.167 10.5 55.5 10.5c98 0 147.667 -51.333 149 -154v-131
c0 -20.667 3.66699 -33.667 11 -39s25.333 -8.66602 54 -9.99902v-38h-269v38l21 2c11.333 1.33301 19.5 4.5 24.5 9.5s7.5 15.167 7.5 30.5v124c-2 60.667 -27 91 -75 91c-36 0 -62.333 -16.333 -79 -49c-6.66699 -13.333 -10 -33 -10 -59v-107
c0 -15.333 2.5 -25.5 7.5 -30.5s13.167 -8.16699 24.5 -9.5l21 -2v-38h-269v38c28.667 1.33301 46.667 4.66602 54 9.99902s11 18.333 11 39v357h-74z" />
    <glyph glyph-name="afii10109" unicode="&#x45c;" horiz-adv-x="624" 
d="M198 561l145 149.001c18.667 19.333 33.167 32.5 43.5 39.5s20.5 10.5 30.5 10.5c12 0 23.833 -6.83301 35.5 -20.5s17.5 -26.834 17.5 -39.501c0 -12 -5.83301 -23 -17.5 -33s-28.5 -21 -50.5 -33l-183 -103zM29 0.000976562l0.00488281 37.999
c28.667 1.33301 46.667 4.66602 54 9.99902s11 18.333 11 39v316c0 20.667 -3.66699 33.667 -11 39s-25.333 8.66602 -54 9.99902v38h281v-38c-28.667 -1.33301 -46.667 -4.66602 -54 -9.99902s-11 -18.333 -11 -39v-126h11c32 0 54 8.33301 66 25s21.333 43 28 79
c6.66699 36.667 20.667 66 42 88s48.666 33 81.999 33c36 0 63.5 -10.167 82.5 -30.5s28.5 -42.166 28.5 -65.499c0 -7.33301 -1.33301 -14.833 -4 -22.5s-8.83398 -15.5 -18.501 -23.5s-22.5 -12 -38.5 -12c-34.667 0 -52 13.667 -52 41c0 7.33301 1 17 3 29s3 20.333 3 25
c0 8.66699 -5 13 -15 13c-9.33301 0 -19.666 -7 -30.999 -21s-18.333 -30.667 -21 -50c-5.33301 -38 -14.833 -67.667 -28.5 -89s-26.834 -34.333 -39.501 -39v-3c12 0 25.5 -2.16699 40.5 -6.5s31.5 -10.833 49.5 -19.5s34.167 -22 48.5 -40s24.166 -39 29.499 -63
c13.333 -60.667 41 -91 83 -91h5v-46h-25c-123.333 0 -192.333 33.333 -207 100c-4.66699 21.333 -8.5 37.5 -11.5 48.5s-7.33301 23.667 -13 38s-11.834 24.833 -18.501 31.5s-15.334 12.5 -26.001 17.5s-23 7.5 -37 7.5h-16v-144c0 -20.667 3.66699 -33.667 11 -39
s25.333 -8.66602 54 -9.99902v-38h-281z" />
    <glyph glyph-name="uni045D" unicode="&#x45d;" horiz-adv-x="660" 
d="M146 680c0 12.667 5.83301 25.833 17.5 39.5s23.5 20.5 35.5 20.5c10 0 20.167 -3.5 30.5 -10.5s24.833 -20.167 43.5 -39.5l145 -149l-21 -30l-183 103c-22 12 -38.833 23 -50.5 33s-17.5 21 -17.5 33zM29 -0.000976562v38c28.667 1.33301 46.667 4.66602 54 9.99902
s11 18.333 11 39v316c0 20.667 -3.66699 33.667 -11 39s-25.333 8.66602 -54 9.99902v38h269v-38l-21 -2c-11.333 -1.33301 -19.5 -4.5 -24.5 -9.5s-7.5 -15.167 -7.5 -30.5v-217l170 202v15c0 15.333 -2.5 25.5 -7.5 30.5s-13.167 8.16699 -24.5 9.5l-21 2v38h269v-38
c-28.667 -1.33301 -46.667 -4.66602 -54 -9.99902s-11 -18.333 -11 -39v-316c0 -20.667 3.66699 -33.667 11 -39s25.333 -8.66602 54 -9.99902v-38h-269v38l21 2c11.333 1.33301 19.5 4.5 24.5 9.5s7.5 15.167 7.5 30.5v235l-170 -202v-33c0 -15.333 2.5 -25.5 7.5 -30.5
s13.167 -8.16699 24.5 -9.5l21 -2v-38h-269z" />
    <glyph glyph-name="afii10110" unicode="&#x45e;" horiz-adv-x="524" 
d="M107 682c0 24.667 5.66504 41.834 16.998 51.501s24 14.5 38 14.5c23.333 0 41.5 -6.33301 54.5 -19s19.5 -24.334 19.5 -35.001s-2 -21.667 -6 -33s-6 -19 -6 -23c0 -11.333 4.5 -20 13.5 -26s25.5 -9 49.5 -9s40.5 3 49.5 9s13.5 14.667 13.5 26c0 4 -2 11.667 -6 23
s-6 22.333 -6 33s6.5 22.334 19.5 35.001s31.167 19 54.5 19c14 0 26.667 -4.83301 38 -14.5s17 -26.834 17 -51.501c0 -38 -14.667 -68.333 -44 -91s-74.666 -34 -135.999 -34s-106.666 11.333 -135.999 34s-44 53 -44 91zM-12.002 452l0.000976562 37.999h280v-38l-38 -6
c-15.333 -2 -19.333 -13 -12 -33c12 -36.667 30.833 -89.334 56.5 -158.001s40.5 -109 44.5 -121h2c49.333 150 79.666 244 90.999 282c4.66699 18 -0.333008 28 -15 30l-41 6v38h201v-38l-21 -2c-13.333 -1.33301 -23.666 -6.66602 -30.999 -15.999
s-16 -25.666 -26 -48.999c-75.333 -182 -134.333 -330.333 -177 -445c-26 -69.333 -51.667 -117 -77 -143s-56 -39 -92 -39c-20.667 0 -39.334 5.83301 -56.001 17.5s-25 26.834 -25 45.501c0 19.333 6.66699 37.666 20 54.999s28 26 44 26c10.667 0 25.667 -7 45 -21
c12 -10 24 -15 36 -15c17.333 0 30.333 16.333 39 49c5.33301 20.667 3.33301 42.667 -6 66c-48.667 127.333 -105.667 269 -171 425c-10 24 -22.667 37.667 -38 41z" />
    <glyph glyph-name="afii10193" unicode="&#x45f;" horiz-adv-x="654" 
d="M29 0l-0.00390625 38c28.667 1.33301 46.667 4.66602 54 9.99902s11 18.333 11 39v316c0 20.667 -3.66699 33.667 -11 39s-25.333 8.66602 -54 9.99902v38h269v-38l-21 -2c-11.333 -1.33301 -19.5 -4.5 -24.5 -9.5s-7.5 -15.167 -7.5 -30.5v-325
c0 -10.667 1.33301 -18.834 4 -24.501s5.83398 -9.16699 9.50098 -10.5s9.83398 -2.33301 18.501 -3l21 -1h58l21 1c8.66699 0.666992 14.834 1.66699 18.501 3s6.83398 4.83301 9.50098 10.5s4 13.834 4 24.501v325c0 15.333 -2.5 25.5 -7.5 30.5
s-13.167 8.16699 -24.5 9.5l-21 2v38h269v-38c-28.667 -1.33301 -46.667 -4.66602 -54 -9.99902s-11 -18.333 -11 -39v-316c0 -20.667 3.66699 -33.667 11 -39s25.333 -8.66602 54 -9.99902v-38h-104c-28.667 -0 -51.667 -1.66699 -69 -5s-34 -10.5 -50 -21.5
s-28.333 -28 -37 -51s-15 -53.167 -19 -90.5h-38c-4 37.333 -10.333 67.5 -19 90.5s-21 40 -37 51s-32.667 18.167 -50 21.5s-40.333 5 -69 5h-104z" />
    <glyph glyph-name="afii10146" unicode="&#x462;" horiz-adv-x="847" 
d="M16 448l-0.00585938 158.999h260c-1.33301 19.333 -6.16602 31.666 -14.499 36.999s-29.833 8.66602 -64.5 9.99902v38h318v-38c-34.667 -1.33301 -56.167 -4.66602 -64.5 -9.99902s-13.166 -17.666 -14.499 -36.999h260v-159h-38c-14 45.333 -29.667 75.5 -47 90.5
s-50.666 22.5 -99.999 22.5c-31.333 0 -51.666 -3.16699 -60.999 -9.5s-14 -18.166 -14 -35.499v-127c26.667 5.33301 55.334 8 86.001 8c191.333 0 287 -66.333 287 -199c0 -71.333 -23.333 -122.166 -70 -152.499s-117.334 -45.5 -212.001 -45.5h-345v36
c44 2.66699 70.667 7 80 13s14 22 14 48v419c0 17.333 -4.66699 29.166 -14 35.499s-29.666 9.5 -60.999 9.5c-49.333 0 -82.666 -7.5 -99.999 -22.5s-33 -45.167 -47 -90.5h-38zM435.994 110.999c0 -24 5.66797 -40.832 17.001 -50.499s29.666 -14.5 54.999 -14.5
c84 0 126 50.667 126 152c0 53.333 -13.5 92.166 -40.5 116.499s-61.167 36.5 -102.5 36.5c-22 0 -40.333 -3.33301 -55 -10v-230z" />
    <glyph glyph-name="afii10194" unicode="&#x463;" horiz-adv-x="703" 
d="M15 341v149.003h211v131c0 18.667 -1.83301 31.667 -5.5 39s-9.83398 11.666 -18.501 12.999l-35 6v36l203 27l7 -6v-246h211v-149h-38c-8 42 -20.5 69.667 -37.5 83s-42.833 20 -77.5 20h-3c-22.667 0 -37.5 -2.66699 -44.5 -8s-10.5 -18.333 -10.5 -39v-120
c22.667 5.33301 46.334 8 71.001 8c152 0 228 -49 228 -147c0 -52.667 -18.167 -88.834 -54.5 -108.501s-94.833 -29.5 -175.5 -29.5h-295v38c34 1.33301 55 4.66602 63 9.99902s12 18.333 12 39v310c0 20.667 -3.5 33.667 -10.5 39s-21.833 8 -44.5 8h-3
c-34.667 0 -60.5 -6.66699 -77.5 -20s-29.5 -41 -37.5 -83h-38zM377 88.0029c0 -16 4 -27.333 12 -34s21 -10 39 -10c28 0 49.833 7.33301 65.5 22s23.5 40.667 23.5 78c0 63.333 -33.667 95 -101 95c-15.333 0 -28.333 -2.66699 -39 -8v-143z" />
    <glyph glyph-name="uni046A" unicode="&#x46a;" horiz-adv-x="1170" 
d="M33 -15v46h5c26.667 0 48.667 11.5 66 34.5s31 60.167 41 111.5c7.33301 36.667 18.5 68.167 33.5 94.5s33.167 46.666 54.5 60.999s40.333 24.833 57 31.5s36.667 12.667 60 18c42 9.33301 89.333 14 142 14v1l-198 219c-14 15.333 -25 24.833 -33 28.5
s-24.667 6.83398 -50 9.50098v38h748v-38c-25.333 -2.66699 -42 -5.83398 -50 -9.50098s-19 -13.167 -33 -28.5l-198 -219v-1c52.667 0 100 -4.66699 142 -14c23.333 -5.33301 43.333 -11.333 60 -18s35.667 -17.167 57 -31.5s39.5 -34.666 54.5 -60.999
s26.167 -57.833 33.5 -94.5c10 -51.333 23.667 -88.5 41 -111.5s39.333 -34.5 66 -34.5h5v-46h-63c-30 0 -55.167 1.5 -75.5 4.5s-40.5 9.16699 -60.5 18.5s-36.167 23.666 -48.5 42.999s-20.833 44 -25.5 74c-11.333 72 -31 127.167 -59 165.5s-69 57.5 -123 57.5h-17v-251
c0 -25.333 4.16699 -41.166 12.5 -47.499s30.5 -10.166 66.5 -11.499v-38h-318v38c36 1.33301 58.167 5.16602 66.5 11.499s12.5 22.166 12.5 47.499v251h-17c-54 0 -95 -19.167 -123 -57.5s-47.667 -93.5 -59 -165.5c-4.66699 -30 -13.167 -54.667 -25.5 -74
s-28.5 -33.666 -48.5 -42.999s-40.167 -15.5 -60.5 -18.5s-45.5 -4.5 -75.5 -4.5h-63zM459 645l180 -200h1l182 200v1h-363v-1z" />
    <glyph glyph-name="uni046B" unicode="&#x46b;" horiz-adv-x="865" 
d="M25 -12l-0.000976562 46h5c38.667 0 64 30.333 76 91c4.66699 24 13.834 45.333 27.501 64s29.667 33.167 48 43.5s33.833 18 46.5 23s25.334 8.83301 38.001 11.5c33.333 6.66699 57 10 71 10v1l-120 145c-12.667 15.333 -34.667 25 -66 29v38h563v-38
c-31.333 -4 -53.333 -13.667 -66 -29l-120 -145v-1c14 0 37.667 -3.33301 71 -10c12.667 -2.66699 25.334 -6.5 38.001 -11.5s28.167 -12.667 46.5 -23s34.333 -24.833 48 -43.5s22.834 -40 27.501 -64c11.333 -60.667 36.666 -91 75.999 -91h5v-46h-25
c-122.667 0 -189.334 33.333 -200.001 100c-8 49.333 -18.667 85.5 -32 108.5s-35.333 34.5 -66 34.5h-9v-151c0 -15.333 2.5 -25.5 7.5 -30.5s13.167 -8.16699 24.5 -9.5l21 -2v-38h-257v38l21 2c11.333 1.33301 19.5 4.5 24.5 9.5s7.5 15.167 7.5 30.5v151h-9
c-30.667 0 -52.667 -11.5 -66 -34.5s-24 -59.167 -32 -108.5c-10.667 -66.667 -77.334 -100 -200.001 -100h-25zM369.999 443l113 -136h1l114 136v1h-228v-1z" />
    <glyph glyph-name="afii10147" unicode="&#x472;" horiz-adv-x="768" 
d="M42 346c0 115.333 28.667 204.333 86 267s142.666 94 255.999 94s198.666 -31.333 255.999 -94s86 -151.667 86 -267s-28.667 -204.333 -86 -267s-142.666 -94 -255.999 -94s-198.666 31.333 -255.999 94s-86 151.667 -86 267zM219 346c0 -28 1 -54.502 3 -79.502
s6.5 -52.667 13.5 -83s16.167 -56.166 27.5 -77.499s27.5 -39.166 48.5 -53.499s45.167 -21.5 72.5 -21.5c110 0 165 105 165 315h-330zM220 393.998h328c-7.33301 178 -62 267 -164 267s-156.667 -89 -164 -267z" />
    <glyph glyph-name="afii10195" unicode="&#x473;" horiz-adv-x="585" 
d="M34 245c0 171.333 86.333 257 259 257s259 -85.667 259 -257s-86.333 -257 -259 -257s-259 85.667 -259 257zM193 237c1.33301 -135.333 34.668 -203 100.001 -203s98.666 67.667 99.999 203h-200zM194.002 283h198c-5.33301 115.333 -38.333 173 -99 173
s-93.667 -57.667 -99 -173z" />
    <glyph glyph-name="afii10148" unicode="&#x474;" horiz-adv-x="787" 
d="M-16 654v38h303v-38l-48 -5c-18 -1.33301 -23.667 -13.333 -17 -36l150 -464h5l124 386c19.333 60 39.333 103.667 60 131s48.667 41 84 41c40.667 0 73.5 -9.83301 98.5 -29.5s37.5 -51.167 37.5 -94.5c0 -15.333 -5.33301 -29.5 -16 -42.5s-26 -19.5 -46 -19.5
c-21.333 0 -37.333 3.33301 -48 10s-16 20 -16 40c0 10.667 1.33301 22.5 4 35.5s4 23.167 4 30.5c0 9.33301 -1.33301 15.666 -4 18.999s-7.66699 5 -15 5c-14 0 -26.667 -10.667 -38 -32s-23.333 -50.666 -36 -87.999l-182 -541h-126l-202 603
c-6.66699 21.333 -14.5 34.833 -23.5 40.5s-26.5 9.16699 -52.5 10.5z" />
    <glyph glyph-name="afii10196" unicode="&#x475;" horiz-adv-x="637" 
d="M-8 452l0.000976562 38.001h265v-38l-37 -5c-8.66699 -0.666992 -14 -3.33398 -16 -8.00098s-1.33301 -11.667 2 -21l98 -286h4l86 249c13.333 38.667 29.333 68.5 48 89.5s45.667 31.5 81 31.5c36 0 63.5 -10.167 82.5 -30.5s28.5 -42.166 28.5 -65.499
c0 -6.66699 -1 -13.667 -3 -21s-8 -15.333 -18 -24s-23.333 -13 -40 -13c-34.667 0 -52 14.667 -52 44c0 6 1 14.833 3 26.5s3 20.167 3 25.5c0 8 -5 12 -15 12c-16.667 0 -34 -23.667 -52 -71l-142 -385h-110l-78 215c-36 97.333 -60.333 161.666 -73 192.999
c-6.66699 16 -14.334 27 -23.001 33s-22.667 9.66699 -42 11z" />
    <glyph glyph-name="afii10050" unicode="&#x490;" horiz-adv-x="556" 
d="M33 0l-0.000976562 38.0029c36 1.33301 58.167 5.16602 66.5 11.499s12.5 22.166 12.5 47.499v498c0 25.333 -4.16699 41.166 -12.5 47.499s-30.5 10.166 -66.5 11.499v38h305c57.333 0 97.833 10.167 121.5 30.5s39.834 57.833 48.501 112.5h37v-233h-37
c-4 13.333 -8.16699 22.5 -12.5 27.5s-13.333 9 -27 12s-35.5 4.5 -65.5 4.5h-96c-14 0 -23.333 -2.33301 -28 -7s-7 -14.334 -7 -29.001v-513c0 -25.333 5 -41.166 15 -47.499s37 -10.166 81 -11.499v-38h-335z" />
    <glyph glyph-name="afii10098" unicode="&#x491;" horiz-adv-x="469" 
d="M29 0l0.00390625 38.002c28.667 1.33301 46.667 4.66602 54 9.99902s11 18.333 11 39v316c0 20.667 -3.66699 33.667 -11 39s-25.333 8.66602 -54 9.99902v38h226c55.333 0 94.166 8.83301 116.499 26.5s39.166 53.167 50.499 106.5h38v-224h-38c-8 18 -17.667 30 -29 36
s-33.333 9 -66 9h-29l-21 -1c-8.66699 -0.666992 -14.834 -1.66699 -18.501 -3s-6.83398 -4.83301 -9.50098 -10.5s-4 -13.834 -4 -24.501v-318c0 -20.667 4.16699 -33.667 12.5 -39s30.5 -8.66602 66.5 -9.99902v-38h-295z" />
    <glyph glyph-name="uni0492" unicode="&#x492;" horiz-adv-x="578" 
d="M37 0v38.0029c36 1.33301 58.167 5.16602 66.5 11.499s12.5 22.166 12.5 47.499v285h-79v48h79v165c0 25.333 -4.16699 41.166 -12.5 47.499s-30.5 10.166 -66.5 11.499v38h526v-195h-37c-14 54 -31.5 92.333 -52.5 115s-54.833 34 -101.5 34h-61
c-14 0 -23.333 -2.33301 -28 -7s-7 -14.334 -7 -29.001v-180h188v-48h-188v-285c0 -25.333 5 -41.166 15 -47.499s37 -10.166 81 -11.499v-38h-335z" />
    <glyph glyph-name="uni0493" unicode="&#x493;" horiz-adv-x="496" 
d="M33 0l0.00195312 38.002c28.667 1.33301 46.667 4.66602 54 9.99902s11 18.333 11 39v144h-64v46h64v126c0 20.667 -3.66699 33.667 -11 39s-25.333 8.66602 -54 9.99902v38h442v-168h-39c-14 48.667 -28.5 81.167 -43.5 97.5s-43.833 24.5 -86.5 24.5h-4l-21 -1
c-8.66699 -0.666992 -14.834 -1.66699 -18.501 -3s-6.83398 -4.83301 -9.50098 -10.5s-4 -13.834 -4 -24.501v-128h133v-46h-133v-144c0 -20.667 4.16699 -33.667 12.5 -39s30.5 -8.66602 66.5 -9.99902v-38h-295z" />
    <glyph glyph-name="uni0494" unicode="&#x494;" horiz-adv-x="720" 
d="M33 0l0.000976562 38.002c36 1.33301 58.167 5.16602 66.5 11.499s12.5 22.166 12.5 47.499v498c0 25.333 -4.16699 41.166 -12.5 47.499s-30.5 10.166 -66.5 11.499v38h543v-195h-37c-14 54 -31.5 92.333 -52.5 115s-54.833 34 -101.5 34h-78
c-14 0 -23.333 -2.33301 -28 -7s-7 -14.334 -7 -29.001v-223h52c110.667 0 198 -28.333 262 -85s96 -132 96 -226c0 -95.333 -23.667 -172.166 -71 -230.499s-115.666 -87.5 -204.999 -87.5c-54 0 -98.333 9.83301 -133 29.5s-52 42.167 -52 67.5c0 20.667 8.66699 37 26 49
s35.666 18 54.999 18c14 0 26.5 -6.16699 37.5 -18.5s19.333 -25.833 25 -40.5s13 -28.167 22 -40.5s18.833 -18.5 29.5 -18.5c34 0 59 26.167 75 78.5s24 116.833 24 193.5c0 78 -17.333 141.667 -52 191s-89.334 74 -164.001 74h-27v-244
c0 -25.333 4.16699 -41.166 12.5 -47.499s30.5 -10.166 66.5 -11.499v-38h-318z" />
    <glyph glyph-name="uni0495" unicode="&#x495;" horiz-adv-x="616" 
d="M29 0l0.00195312 38.0039c28.667 1.33301 46.667 4.66602 54 9.99902s11 18.333 11 39v316c0 20.667 -3.66699 33.667 -11 39s-25.333 8.66602 -54 9.99902v38h462v-155h-39c-15.333 45.333 -30.5 74.833 -45.5 88.5s-43.167 20.5 -84.5 20.5h-24l-21 -1
c-8.66699 -0.666992 -14.834 -1.66699 -18.501 -3s-6.83398 -4.83301 -9.50098 -10.5s-4 -13.834 -4 -24.501v-124h36c98 0 173.667 -24.333 227 -73s80 -117.334 80 -206.001c0 -32 -4.5 -62 -13.5 -90s-22.667 -53.667 -41 -77s-43.666 -41.833 -75.999 -55.5
s-69.833 -20.5 -112.5 -20.5c-22 0 -42.833 1.5 -62.5 4.5s-38.834 7.83301 -57.501 14.5s-33.5 16.334 -44.5 29.001s-16.5 28 -16.5 46c0 15.333 7.16699 28.833 21.5 40.5s32.833 17.5 55.5 17.5c13.333 0 24.333 -5.5 33 -16.5s15.167 -23.167 19.5 -36.5
s11.166 -25.5 20.499 -36.5s21.333 -16.5 36 -16.5c12.667 0 23.5 2.5 32.5 7.5s16.333 13.167 22 24.5s10.334 22.5 14.001 33.5s6.16699 25.667 7.5 44s2.16602 34 2.49902 47s0.5 29.833 0.5 50.5c0 31.333 -2.33301 59 -7 83s-12.667 47.167 -24 69.5
s-28.666 39.666 -51.999 51.999s-52 18.5 -86 18.5h-15v-155c0 -15.333 2.5 -25.5 7.5 -30.5s13.167 -8.16699 24.5 -9.5l21 -2v-38h-269z" />
    <glyph glyph-name="uni0496" unicode="&#x496;" horiz-adv-x="1170" 
d="M33 -15l-0.00292969 46.001h5c26.667 0 48.667 11.5 66 34.5s31 60.167 41 111.5c7.33301 36.667 18 67.667 32 93s31.833 44.833 53.5 58.5s41.667 23.5 60 29.5s41.5 11.667 69.5 17v1c-22 10.667 -38.833 27.834 -50.5 51.501s-23.834 61.5 -36.501 113.5
c-20 80 -43 120 -69 120c-7.33301 0 -12.333 -1.83301 -15 -5.5s-4 -10.167 -4 -19.5c0 -7.33301 1.33301 -17 4 -29s4 -23.333 4 -34c0 -15.333 -3.5 -27 -10.5 -35s-14.167 -12.833 -21.5 -14.5s-16.666 -2.5 -27.999 -2.5c-21.333 0 -37.666 6 -48.999 18
s-17 26.333 -17 43c0 43.333 12.5 75 37.5 95s57.833 30 98.5 30c34.667 0 62.5 -15.333 83.5 -46s38.833 -72.667 53.5 -126c6 -22 10.833 -38.333 14.5 -49s9.33398 -23.5 17.001 -38.5s16.167 -25.833 25.5 -32.5s22 -12.667 38 -18s34.667 -8 56 -8h14v206
c0 25.333 -4.16699 41.166 -12.5 47.499s-30.5 10.166 -66.5 11.499v38h318v-38c-36 -1.33301 -58.167 -5.16602 -66.5 -11.499s-12.5 -22.166 -12.5 -47.499v-206h14c21.333 0 40 2.66699 56 8s28.667 11.333 38 18s17.833 17.5 25.5 32.5s13.334 27.833 17.001 38.5
s8.5 27 14.5 49c14.667 53.333 32.5 95.333 53.5 126s48.833 46 83.5 46c40.667 0 73.5 -10 98.5 -30s37.5 -51.667 37.5 -95c0 -16.667 -5.66699 -31 -17 -43s-27.666 -18 -48.999 -18c-11.333 0 -20.666 0.833008 -27.999 2.5s-14.5 6.5 -21.5 14.5s-10.5 19.667 -10.5 35
c0 10.667 1.33301 22 4 34s4 21.667 4 29c0 9.33301 -1.33301 15.833 -4 19.5s-7.66699 5.5 -15 5.5c-26 0 -49 -40 -69 -120c-12.667 -52 -24.834 -89.833 -36.501 -113.5s-28.5 -40.834 -50.5 -51.501v-1c28 -5.33301 51.167 -11 69.5 -17s38.333 -15.833 60 -29.5
s39.5 -33.167 53.5 -58.5s24.667 -56.333 32 -93c10 -51.333 23.667 -88.5 41 -111.5s39.333 -34.5 66 -34.5h15l12 -221h-38c-20 73.333 -37.333 120.166 -52 140.499s-40 33.5 -76 39.5s-64.667 19.167 -86 39.5s-35.666 52.166 -42.999 95.499
c-11.333 71.333 -30.833 125.166 -58.5 161.499s-68.834 54.5 -123.501 54.5h-17v-244c0 -25.333 4.16699 -41.166 12.5 -47.499s30.5 -10.166 66.5 -11.499v-38h-318v38c36 1.33301 58.167 5.16602 66.5 11.499s12.5 22.166 12.5 47.499v244h-17
c-54.667 0 -95.834 -18.167 -123.501 -54.5s-47.167 -90.166 -58.5 -161.499c-4.66699 -30 -13.167 -54.667 -25.5 -74s-28.5 -33.666 -48.5 -42.999s-40.167 -15.5 -60.5 -18.5s-45.5 -4.5 -75.5 -4.5h-63z" />
    <glyph glyph-name="uni0497" unicode="&#x497;" horiz-adv-x="868" 
d="M25 -12l0.00390625 45.999h5c38.667 0 64 30.333 76 91c4.66699 24 14.167 45 28.5 63s30.666 31.333 48.999 40s35 15.167 50 19.5s28.5 6.5 40.5 6.5v3c-12 4 -24.167 16.667 -36.5 38s-21.5 51.333 -27.5 90c-2.66699 16.667 -7.5 30.834 -14.5 42.501
s-13.333 19.334 -19 23.001s-10.5 5.5 -14.5 5.5c-10.667 0 -16 -4 -16 -12c0 -5.33301 1 -14 3 -26s3 -21.667 3 -29c0 -27.333 -17.333 -41 -52 -41c-22 0 -37.667 6.33301 -47 19s-14 25.667 -14 39c0 23.333 9.5 45.166 28.5 65.499s46.5 30.5 82.5 30.5
c32 0 58.667 -11.5 80 -34.5s35 -51.833 41 -86.5c12 -69.333 38 -104 78 -104h8v133c0 15.333 -2.5 25.5 -7.5 30.5s-13.167 8.16699 -24.5 9.5l-21 2v38h257v-38l-21 -2c-11.333 -1.33301 -19.5 -4.5 -24.5 -9.5s-7.5 -15.167 -7.5 -30.5v-133h8c40 0 66 34.667 78 104
c6 34.667 19.667 63.5 41 86.5s48 34.5 80 34.5c36 0 63.5 -10.167 82.5 -30.5s28.5 -42.166 28.5 -65.499c0 -13.333 -4.66699 -26.333 -14 -39s-25 -19 -47 -19c-34.667 0 -52 13.667 -52 41c0 7.33301 1 17 3 29s3 20.667 3 26c0 8 -5.33301 12 -16 12
c-4 0 -8.83301 -1.83301 -14.5 -5.5s-12 -11.334 -19 -23.001s-11.833 -25.834 -14.5 -42.501c-6 -38.667 -15.167 -68.667 -27.5 -90s-24.5 -34 -36.5 -38v-3c12 0 25.5 -2.16699 40.5 -6.5s31.667 -10.833 50 -19.5s34.666 -22 48.999 -40s23.833 -39 28.5 -63
c11.333 -60.667 36.666 -91 75.999 -91h11l15 -202h-38c-10.667 58.667 -25.5 99.167 -44.5 121.5s-44.833 38.5 -77.5 48.5c-50 14.667 -78.667 43.334 -86 86.001c-8 49.333 -18.667 85.5 -32 108.5s-35.333 34.5 -66 34.5h-9v-151c0 -15.333 2.5 -25.5 7.5 -30.5
s13.167 -8.16699 24.5 -9.5l21 -2v-38h-257v38l21 2c11.333 1.33301 19.5 4.5 24.5 9.5s7.5 15.167 7.5 30.5v151h-9c-30.667 0 -52.667 -11.5 -66 -34.5s-24 -59.167 -32 -108.5c-10.667 -66.667 -77.334 -100 -200.001 -100h-25z" />
    <glyph glyph-name="uni049A" unicode="&#x49a;" horiz-adv-x="812" 
d="M33 0l-0.00195312 38.001c36 1.33301 58.167 5.16602 66.5 11.499s12.5 22.166 12.5 47.499v498c0 25.333 -4.16699 41.166 -12.5 47.499s-30.5 10.166 -66.5 11.499v38h318v-38c-36 -1.33301 -58.167 -5.16602 -66.5 -11.499s-12.5 -22.166 -12.5 -47.499v-206h34
c49.333 0 85 12 107 36s40 60.667 54 110c14.667 53.333 32.834 95.333 54.501 126s50.834 46 87.501 46c40 0 72.667 -9.83301 98 -29.5s38 -50.5 38 -92.5c0 -16 -5.16699 -30.667 -15.5 -44s-26.5 -20 -48.5 -20c-20.667 0 -36.167 3.5 -46.5 10.5
s-15.5 20.167 -15.5 39.5c0 10.667 1.33301 22.5 4 35.5s4 23.167 4 30.5c0 9.33301 -1.33301 15.666 -4 18.999s-7.66699 5 -15 5c-13.333 0 -26.666 -10.5 -39.999 -31.5s-24.666 -50.5 -33.999 -88.5c-12 -48.667 -25.333 -85.5 -40 -110.5s-33.667 -43.167 -57 -54.5v-1
c23.333 -4 42.666 -8 57.999 -12s33 -10.833 53 -20.5s36.667 -21 50 -34s25.833 -30.667 37.5 -53s20.5 -48.5 26.5 -78.5c18.667 -97.333 56 -146 112 -146h15l12 -221h-38c-20.667 75.333 -38.167 122.5 -52.5 141.5s-42.5 32.167 -84.5 39.5
c-35.333 6 -63.333 19.167 -84 39.5s-34.334 51.833 -41.001 94.5c-22.667 144 -86.667 216 -192 216h-37v-244c0 -25.333 4.16699 -41.166 12.5 -47.499s30.5 -10.166 66.5 -11.499v-38h-318z" />
    <glyph glyph-name="uni049B" unicode="&#x49b;" horiz-adv-x="627" 
d="M29 0l0.00195312 37.9971c28.667 1.33301 46.667 4.66602 54 9.99902s11 18.333 11 39v316c0 20.667 -3.66699 33.667 -11 39s-25.333 8.66602 -54 9.99902v38h281v-38c-28.667 -1.33301 -46.667 -4.66602 -54 -9.99902s-11 -18.333 -11 -39v-126h11
c32 0 54 8.33301 66 25s21.333 43 28 79c6.66699 36.667 20.667 66 42 88s48.666 33 81.999 33c36 0 63.5 -10.167 82.5 -30.5s28.5 -42.166 28.5 -65.499c0 -7.33301 -1.33301 -14.833 -4 -22.5s-8.83398 -15.5 -18.501 -23.5s-22.5 -12 -38.5 -12
c-34.667 0 -52 13.667 -52 41c0 7.33301 1 17 3 29s3 20.333 3 25c0 8.66699 -5 13 -15 13c-9.33301 0 -19.666 -7 -30.999 -21s-18.333 -30.667 -21 -50c-5.33301 -38 -14.833 -67.667 -28.5 -89s-26.834 -34.333 -39.501 -39v-3c12 0 25.5 -2.16699 40.5 -6.5
s31.5 -10.833 49.5 -19.5s34.167 -22 48.5 -40s24.166 -39 29.499 -63c13.333 -60.667 41 -91 83 -91h11l15 -202h-38c-6 32.667 -13 59.334 -21 80.001s-18.167 36.834 -30.5 48.501s-23.666 20.167 -33.999 25.5s-25.166 11 -44.499 17
c-47.333 16 -75.666 44.333 -84.999 85c-4.66699 21.333 -8.5 37.5 -11.5 48.5s-7.33301 23.667 -13 38s-11.834 24.833 -18.501 31.5s-15.334 12.5 -26.001 17.5s-23 7.5 -37 7.5h-16v-144c0 -20.667 3.66699 -33.667 11 -39s25.333 -8.66602 54 -9.99902v-38h-281z" />
    <glyph glyph-name="uni049E" unicode="&#x49e;" horiz-adv-x="820" 
d="M30 538l-0.00390625 48.001h90v9c0 25.333 -4.16699 41.166 -12.5 47.499s-30.5 10.166 -66.5 11.499v38h318v-38c-36 -1.33301 -58.167 -5.16602 -66.5 -11.499s-12.5 -22.166 -12.5 -47.499v-9h90v-48h-90v-149h34c49.333 0 85 12 107 36s40 60.667 54 110
c14.667 53.333 32.834 95.333 54.501 126s50.834 46 87.501 46c40 0 72.667 -9.83301 98 -29.5s38 -50.5 38 -92.5c0 -16 -5.16699 -30.667 -15.5 -44s-26.5 -20 -48.5 -20c-20.667 0 -36.167 3.5 -46.5 10.5s-15.5 20.167 -15.5 39.5c0 10.667 1.33301 22.5 4 35.5
s4 23.167 4 30.5c0 9.33301 -1.33301 15.666 -4 18.999s-7.66699 5 -15 5c-13.333 0 -26.666 -10.5 -39.999 -31.5s-24.666 -50.5 -33.999 -88.5c-12 -48.667 -25.333 -85.5 -40 -110.5s-33.667 -43.167 -57 -54.5v-1c29.333 -5.33301 53.5 -11 72.5 -17
s40 -15.833 63 -29.5s42 -33.167 57 -58.5s25.833 -56.333 32.5 -93c18.667 -97.333 56 -146 112 -146h5v-46h-68c-64.667 0 -113.5 9 -146.5 27s-54.167 55.667 -63.5 113c-22.667 144 -86.667 216 -192 216h-37v-244c0 -25.333 4.16699 -41.166 12.5 -47.499
s30.5 -10.166 66.5 -11.499v-38h-318v38c36 1.33301 58.167 5.16602 66.5 11.499s12.5 22.166 12.5 47.499v441h-90z" />
    <glyph glyph-name="uni049F" unicode="&#x49f;" horiz-adv-x="624" 
d="M20 550l0.00585938 46.001h74v25c0 18.667 -1.83301 31.667 -5.5 39s-9.83398 11.666 -18.501 12.999l-35 6v36l203 27l7 -6v-140h169v-46h-169v-273h11c32 0 54 8.33301 66 25s21.333 43 28 79c6.66699 36.667 20.667 66 42 88s48.666 33 81.999 33
c36 0 63.5 -10.167 82.5 -30.5s28.5 -42.166 28.5 -65.499c0 -7.33301 -1.33301 -14.833 -4 -22.5s-8.83398 -15.5 -18.501 -23.5s-22.5 -12 -38.5 -12c-34.667 0 -52 13.667 -52 41c0 7.33301 1 17 3 29s3 20.333 3 25c0 8.66699 -5 13 -15 13
c-9.33301 0 -19.666 -7 -30.999 -21s-18.333 -30.667 -21 -50c-5.33301 -38 -14.833 -67.667 -28.5 -89s-26.834 -34.333 -39.501 -39v-3c12 0 25.5 -2.16699 40.5 -6.5s31.5 -10.833 49.5 -19.5s34.167 -22 48.5 -40s24.166 -39 29.499 -63c13.333 -60.667 41 -91 83 -91h5
v-46h-25c-123.333 0 -192.333 33.333 -207 100c-4.66699 21.333 -8.5 37.5 -11.5 48.5s-7.33301 23.667 -13 38s-11.834 24.833 -18.501 31.5s-15.334 12.5 -26.001 17.5s-23 7.5 -37 7.5h-16v-151c0 -15.333 2.5 -25.5 7.5 -30.5s13.167 -8.16699 24.5 -9.5l21 -2v-38h-269
v38c28.667 1.33301 46.667 4.66602 54 9.99902s11 18.333 11 39v463h-74z" />
    <glyph glyph-name="uni04A2" unicode="&#x4a2;" horiz-adv-x="807" 
d="M33 0l0.000976562 38c36 1.33301 58.167 5.16602 66.5 11.499s12.5 22.166 12.5 47.499v498c0 25.333 -4.16699 41.166 -12.5 47.499s-30.5 10.166 -66.5 11.499v38h318v-38c-36 -1.33301 -58.167 -5.16602 -66.5 -11.499s-12.5 -22.166 -12.5 -47.499v-206h263v206
c0 25.333 -4.16699 41.166 -12.5 47.499s-30.5 10.166 -66.5 11.499v38h318v-38c-36 -1.33301 -58.167 -5.16602 -66.5 -11.499s-12.5 -22.166 -12.5 -47.499v-498c0 -25.333 4.16699 -41.166 12.5 -47.499s30.5 -10.166 66.5 -11.499h10l13 -228h-38
c-8.66699 31.333 -15.334 54.666 -20.001 69.999s-11.167 31.666 -19.5 48.999s-16.5 29.333 -24.5 36s-19.5 13.334 -34.5 20.001s-31.333 10.834 -49 12.501s-40.5 2.5 -68.5 2.5h-87v38c36 1.33301 58.167 5.16602 66.5 11.499s12.5 22.166 12.5 47.499v244h-263v-244
c0 -25.333 4.16699 -41.166 12.5 -47.499s30.5 -10.166 66.5 -11.499v-38h-318z" />
    <glyph glyph-name="uni04A3" unicode="&#x4a3;" horiz-adv-x="658" 
d="M29 0v38c28.667 1.33301 46.667 4.66602 54 9.99902s11 18.333 11 39v316c0 20.667 -3.66699 33.667 -11 39s-25.333 8.66602 -54 9.99902v38h269v-38l-21 -2c-11.333 -1.33301 -19.5 -4.5 -24.5 -9.5s-7.5 -15.167 -7.5 -30.5v-133h168v133
c0 15.333 -2.5 25.5 -7.5 30.5s-13.167 8.16699 -24.5 9.5l-21 2v38h269v-38c-28.667 -1.33301 -46.667 -4.66602 -54 -9.99902s-11 -18.333 -11 -39v-316c0 -20.667 3.66699 -33.667 11 -39s25.333 -8.66602 54 -9.99902h6l15 -206h-38c-12.667 68 -32 113 -58 135
s-65 33 -117 33h-77v38l21 2c11.333 1.33301 19.5 4.5 24.5 9.5s7.5 15.167 7.5 30.5v151h-168v-151c0 -15.333 2.5 -25.5 7.5 -30.5s13.167 -8.16699 24.5 -9.5l21 -2v-38h-269z" />
    <glyph glyph-name="uni04A4" unicode="&#x4a4;" horiz-adv-x="997" 
d="M33 0v38.002c36 1.33301 58.167 5.16602 66.5 11.499s12.5 22.166 12.5 47.499v498c0 25.333 -4.16699 41.166 -12.5 47.499s-30.5 10.166 -66.5 11.499v38h318v-38c-36 -1.33301 -58.167 -5.16602 -66.5 -11.499s-12.5 -22.166 -12.5 -47.499v-206h263v206
c0 25.333 -4.16699 41.166 -12.5 47.499s-30.5 10.166 -66.5 11.499v38h526v-195h-37c-14 54 -31.5 92.333 -52.5 115s-54.833 34 -101.5 34h-61c-14 0 -23.333 -2.5 -28 -7.5s-7 -14.833 -7 -29.5v-512c0 -25.333 5 -41.166 15 -47.499s37 -10.166 81 -11.499v-38h-335v38
c36 1.33301 58.167 5.16602 66.5 11.499s12.5 22.166 12.5 47.499v244h-263v-244c0 -25.333 4.16699 -41.166 12.5 -47.499s30.5 -10.166 66.5 -11.499v-38h-318z" />
    <glyph glyph-name="uni04A5" unicode="&#x4a5;" horiz-adv-x="811" 
d="M29 0l0.00195312 38.002c28.667 1.33301 46.667 4.66602 54 9.99902s11 18.333 11 39v316c0 20.667 -3.66699 33.667 -11 39s-25.333 8.66602 -54 9.99902v38h269v-38l-21 -2c-11.333 -1.33301 -19.5 -4.5 -24.5 -9.5s-7.5 -15.167 -7.5 -30.5v-133h168v133
c0 15.333 -2.5 25.5 -7.5 30.5s-13.167 8.16699 -24.5 9.5l-21 2v38h430v-168h-39c-14 48.667 -28.5 81.167 -43.5 97.5s-43.833 24.5 -86.5 24.5h-4l-21 -1c-8.66699 -0.666992 -14.834 -1.66699 -18.501 -3s-6.83398 -4.83301 -9.50098 -10.5s-4 -13.834 -4 -24.501v-318
c0 -20.667 3.66699 -33.667 11 -39s25.333 -8.66602 54 -9.99902v-38h-269v38l21 2c11.333 1.33301 19.5 4.5 24.5 9.5s7.5 15.167 7.5 30.5v151h-168v-151c0 -15.333 2.5 -25.5 7.5 -30.5s13.167 -8.16699 24.5 -9.5l21 -2v-38h-269z" />
    <glyph glyph-name="uni04A8" unicode="&#x4a8;" horiz-adv-x="890" 
d="M42 346c0 48 5.33203 92.167 15.999 132.5s28.334 78.333 53.001 114s60.167 63.667 106.5 84s101.833 30.5 166.5 30.5v-46c-110 0 -165 -105 -165 -315s67.333 -315 202 -315c24.667 0 48.334 2.66699 71.001 8c-46.667 30.667 -84 70.667 -112 120
s-42 105.666 -42 168.999c0 92.667 21.667 163.667 65 213s101.333 74 174 74c32 0 61.833 -4.66699 89.5 -14s53.667 -24.333 78 -45s43.666 -50.667 57.999 -90s21.5 -86 21.5 -140c0 -60.667 -14.167 -117.5 -42.5 -170.5s-72.833 -94.5 -133.5 -124.5
c13.333 -4 27.666 -6 42.999 -6c63.333 0 116.333 20.333 159 61l26 -32c-44.667 -50 -108.334 -75 -191.001 -75c-41.333 0 -81 7.33301 -119 22c-40.667 -10.667 -89 -16 -145 -16c-59.333 0 -111.666 7.16699 -156.999 21.5s-81.833 32.833 -109.5 55.5
s-50.167 50.334 -67.5 83.001s-29.166 65 -35.499 97s-9.5 66.667 -9.5 104zM514.999 326c0 -110 19.332 -190.666 57.999 -241.999c49.333 46.667 74 127.334 74 242.001c0 27.333 -0.166992 48.666 -0.5 63.999s-1.16602 34 -2.49902 56s-3.5 39.167 -6.5 51.5
s-7 24.833 -12 37.5s-11.667 21.667 -20 27s-18.166 8 -29.499 8c-14 0 -25.333 -6 -34 -18s-14.834 -31.167 -18.501 -57.5s-6 -50.833 -7 -73.5s-1.5 -54.334 -1.5 -95.001z" />
    <glyph glyph-name="uni04A9" unicode="&#x4a9;" horiz-adv-x="694" 
d="M34 245c0 171.333 86.333 256.999 259 256.999v-46c-66.667 0 -100 -70.333 -100 -211c0 -22 0.5 -40.333 1.5 -55s4 -32.834 9 -54.501s12 -39 21 -52s22.667 -24.5 41 -34.5s40.5 -15 66.5 -15h18c-60 45.333 -90 107.333 -90 186
c0 66.667 17.833 114.834 53.5 144.501s80.167 44.5 133.5 44.5c54.667 0 101 -15.167 139 -45.5s57 -77.166 57 -140.499c0 -91.333 -39.333 -157 -118 -197h3c53.333 0 97.333 14 132 42l22 -29c-38.667 -39.333 -93.667 -59 -165 -59c-31.333 0 -62 5 -92 15
c-26 -4.66699 -57 -7 -93 -7c-198.667 0 -298 85.667 -298 257zM411 221.999c0 -78.667 10 -131.333 30 -158c18 15.333 29.667 35.5 35 60.5s8 57.5 8 97.5c0 52.667 -2.16699 89.334 -6.5 110.001s-14.833 31 -31.5 31c-16 0 -25.833 -10.333 -29.5 -31
s-5.5 -57.334 -5.5 -110.001z" />
    <glyph glyph-name="uni04AA" unicode="&#x4aa;" horiz-adv-x="689" 
d="M42 339c0 111.333 28.665 198.997 85.998 262.997c62.667 70 161 105 295 105c94.667 0 166.334 -14.667 215.001 -44v-179h-38c-6 19.333 -11.333 35 -16 47s-12.167 27.167 -22.5 45.5s-21.5 32.833 -33.5 43.5s-27.833 20.167 -47.5 28.5s-41.834 12.5 -66.501 12.5
c-34 0 -63.833 -8.5 -89.5 -25.5s-45 -37.167 -58 -60.5s-23.333 -50.666 -31 -81.999s-12.334 -57.166 -14.001 -77.499s-2.5 -40.5 -2.5 -60.5c0 -21.333 1 -42.5 3 -63.5s5.33301 -44.5 10 -70.5s12 -49.667 22 -71s22 -41.333 36 -60s32.333 -33.167 55 -43.5
s48.334 -15.5 77.001 -15.5c51.333 0 90.833 16.5 118.5 49.5s52.834 82.167 75.501 147.5h38l-12 -195c-48 -28.667 -118 -44.334 -210 -47.001l-28 -41c66 -11.333 99 -39.666 99 -84.999c0 -22 -5.66699 -40.667 -17 -56s-26 -26.333 -44 -33s-34.667 -11.167 -50 -13.5
s-30.666 -3.5 -45.999 -3.5s-32 1 -50 3v33c65.333 0 98 20.333 98 61c0 16.667 -7 28.834 -21 36.501s-28.667 12.167 -44 13.5l-4 8l48 77c-112.667 6 -196 39.833 -250 101.5s-81 145.5 -81 251.5z" />
    <glyph glyph-name="uni04AB" unicode="&#x4ab;" horiz-adv-x="494" 
d="M34 241c0 84 22.6641 148.665 67.9971 193.998c44.667 44.667 106.334 67 185.001 67c49.333 0 93.5 -10 132.5 -30s58.5 -46.667 58.5 -80c0 -20 -8.66699 -35.333 -26 -46s-36.333 -16 -57 -16c-24.667 0 -40.667 11.667 -48 35c-9.33301 32 -19 55.167 -29 69.5
s-23.333 21.5 -40 21.5c-23.333 0 -43.333 -16.167 -60 -48.5s-25 -79.833 -25 -142.5c0 -72 12 -123.333 36 -154s54.667 -46 92 -46c28.667 0 53 6.83301 73 20.5s38.333 37.167 55 70.5l35 -16c-28.667 -91.333 -89.667 -141.333 -183 -150l-32 -48
c14 -2 27.5 -5.16699 40.5 -9.5s26 -13.166 39 -26.499s19.5 -30 19.5 -50c0 -17.333 -3.83301 -32.333 -11.5 -45s-17 -22.5 -28 -29.5s-23.833 -12.667 -38.5 -17s-27.667 -7.16602 -39 -8.49902s-22.666 -2 -33.999 -2c-15.333 0 -31.333 1 -48 3v32
c62.667 0 94 19.333 94 58c0 31.333 -22 49 -66 53l-4 8l51 82c-65.333 4 -116.666 27.5 -153.999 70.5s-56 103.167 -56 180.5z" />
    <glyph glyph-name="uni04AC" unicode="&#x4ac;" horiz-adv-x="624" 
d="M15 504l-0.000976562 188h594v-188h-38c-7.33301 22 -12.666 37.333 -15.999 46s-8.16602 20.167 -14.499 34.5s-12.166 24 -17.499 29s-12.5 10.667 -21.5 17s-19 10.5 -30 12.5s-24.167 3 -39.5 3h-40v-551c0 -18.667 2.66699 -32 8 -40s15.666 -12.333 30.999 -13
l57 -4h10l13 -228h-38c-8.66699 31.333 -15.334 54.666 -20.001 69.999s-11.167 31.666 -19.5 48.999s-16.5 29.333 -24.5 36s-19.5 13.334 -34.5 20.001s-31.333 10.834 -49 12.501s-40.5 2.5 -68.5 2.5h-121v38l57 4c15.333 0.666992 25.666 5 30.999 13s8 21.333 8 40
v551h-40c-42.667 0 -71.667 -9.33301 -87 -28s-32.666 -56.667 -51.999 -114h-38z" />
    <glyph glyph-name="uni04AD" unicode="&#x4ad;" horiz-adv-x="531" 
d="M21 310l0.00195312 180h489v-180h-38c-15.333 89.333 -45 134 -89 134h-1c-8 0 -13.667 -0.166992 -17 -0.5s-7.33301 -1.66602 -12 -3.99902s-7.83398 -6.33301 -9.50098 -12s-2.5 -13.167 -2.5 -22.5v-318c0 -20.667 4.5 -33.667 13.5 -39
s32.167 -8.66602 69.5 -9.99902h6l15 -206h-38c-12.667 68 -32 113 -58 135s-65 33 -117 33h-125v38c37.333 1.33301 60.5 4.66602 69.5 9.99902s13.5 18.333 13.5 39v318c0 9.33301 -0.833008 16.833 -2.5 22.5s-4.83398 9.66699 -9.50098 12s-8.66699 3.66602 -12 3.99902
s-9 0.5 -17 0.5h-1c-44 0 -73.667 -44.667 -89 -134h-38z" />
    <glyph glyph-name="uni04AE" unicode="&#x4ae;" horiz-adv-x="617" 
d="M-12 654v38.001h316v-38l-54 -6c-18 -2.66699 -22.667 -13.667 -14 -33l123 -273h3l41 89.5l47 102c13.333 29.667 23.666 54.5 30.999 74.5c9.33301 24.667 4.33301 38 -15 40l-52 6v38h241v-38c-27.333 -3.33301 -47 -8.33301 -59 -15s-23.667 -19.667 -35 -39
c-34 -59.333 -82.333 -152.333 -145 -279c-12 -25.333 -18 -49 -18 -71v-153c0 -25.333 5 -41.166 15 -47.499s37 -10.166 81 -11.499v-38h-352v38c44 1.33301 71 5.16602 81 11.499s15 22.166 15 47.499v143c0 18 -7 41 -21 69l-145 288
c-11.333 23.333 -21.666 38.166 -30.999 44.499s-27 10.5 -53 12.5z" />
    <glyph glyph-name="uni04AF" unicode="&#x4af;" horiz-adv-x="524" 
d="M-12 452l0.000976562 38.001h265v-38l-37 -5c-8.66699 -0.666992 -14 -3.33398 -16 -8.00098s-1.33301 -11.667 2 -21l102 -298h4c48 127.333 81.333 225.333 100 294c5.33301 19.333 0 30 -16 32l-43 6v38h207v-38c-21.333 -1.33301 -36.166 -4.5 -44.499 -9.5
s-16.5 -16.167 -24.5 -33.5c-24.667 -49.333 -49.334 -107 -74.001 -173l-74 -195v-184c0 -20.667 4.5 -33.667 13.5 -39s32.167 -8.66602 69.5 -9.99902v-38h-317v38c37.333 1.33301 60.5 4.66602 69.5 9.99902s13.5 18.333 13.5 39v184l-63 174
c-26.667 76 -50.667 140.333 -72 193c-6.66699 16 -14.334 27 -23.001 33s-22.667 9.66699 -42 11z" />
    <glyph glyph-name="uni04B0" unicode="&#x4b0;" horiz-adv-x="617" 
d="M-12 654l-0.000976562 38.001h316v-38l-54 -6c-18 -2.66699 -22.667 -13.667 -14 -33l123 -273h3c62 132 101.667 220.667 119 266c9.33301 24.667 4.33301 38 -15 40l-52 6v38h241v-38c-27.333 -3.33301 -47 -8.33301 -59 -15s-23.667 -19.667 -35 -39
c-34 -59.333 -82.333 -152.333 -145 -279c-12 -25.333 -18 -49 -18 -71v-28h108v-48h-108v-77c0 -25.333 5 -41.166 15 -47.499s37 -10.166 81 -11.499v-38h-352v38c44 1.33301 71 5.16602 81 11.499s15 22.166 15 47.499v77h-108v48h108v18c0 18 -7 41 -21 69l-145 288
c-11.333 23.333 -21.666 38.166 -30.999 44.499s-27 10.5 -53 12.5z" />
    <glyph glyph-name="uni04B1" unicode="&#x4b1;" horiz-adv-x="524" 
d="M-12 452l0.000976562 38.001h265v-38l-37 -5c-8.66699 -0.666992 -14 -3.33398 -16 -8.00098s-1.33301 -11.667 2 -21l102 -298h4c48 127.333 81.333 225.333 100 294c5.33301 19.333 0 30 -16 32l-43 6v38h207v-38c-21.333 -1.33301 -36.166 -4.5 -44.499 -9.5
s-16.5 -16.167 -24.5 -33.5c-24.667 -49.333 -49.334 -107 -74.001 -173l-74 -195v-61h100v-46h-100v-85c0 -20.667 4.5 -33.667 13.5 -39s32.167 -8.66602 69.5 -9.99902v-38h-317v38c37.333 1.33301 60.5 4.66602 69.5 9.99902s13.5 18.333 13.5 39v85h-100v46h100v61
l-63 174c-26.667 76 -50.667 140.333 -72 193c-6.66699 16 -14.334 27 -23.001 33s-22.667 9.66699 -42 11z" />
    <glyph glyph-name="uni04B2" unicode="&#x4b2;" horiz-adv-x="664" 
d="M-19 0l0.000976562 38c32 2 53.333 5.66699 64 11s24 18.666 40 39.999c20.667 28 75.334 108.333 164.001 241l-166 273c-12.667 20.667 -23.667 33.667 -33 39s-28 9.33301 -56 12v38h305v-38l-42 -5c-19.333 -3.33301 -23 -15 -11 -35l100 -165h2
c59.333 94 93.666 150.333 102.999 169c8.66699 16.667 5.33398 26.334 -9.99902 29.001l-43 7v38h233v-38c-26.667 -1.33301 -46.5 -4.83301 -59.5 -10.5s-26.833 -17.5 -41.5 -35.5c-50 -62 -99.667 -131 -149 -207l187 -303c15.333 -25.333 28.666 -41.333 39.999 -48
s32.333 -10.667 63 -12h10l13 -228h-38c-8.66699 31.333 -15.334 54.666 -20.001 69.999s-11.167 31.666 -19.5 48.999s-16.5 29.333 -24.5 36s-19.5 13.334 -34.5 20.001s-31.333 10.834 -49 12.501s-40.5 2.5 -68.5 2.5h-105v38l51 6c20 2.66699 24.667 13.667 14 33
l-117 197h-4c-56 -92 -93 -157.667 -111 -197c-9.33301 -21.333 -4 -33 16 -35l58 -4v-38h-261z" />
    <glyph glyph-name="uni04B3" unicode="&#x4b3;" horiz-adv-x="542" 
d="M-15 0l0.00195312 38.001c36 4 62.167 12.833 78.5 26.5s50.833 53.5 103.5 119.5l34 43l-73 101c-22.667 32.667 -37.5 54.667 -44.5 66s-15.667 22.333 -26 33s-19.166 17 -26.499 19s-19.666 4 -36.999 6v38h260v-38l-23 -4c-12.667 -2 -14.667 -9 -6 -21l62 -95h2
l60 89c11.333 16.667 9.66602 26 -5.00098 28l-26 3v38h198v-38c-34.667 -0.666992 -63.334 -12.334 -86.001 -35.001c-42 -42.667 -78.667 -85.334 -110 -128.001l142 -202c14.667 -18.667 27.667 -31.167 39 -37.5s27.666 -10.166 48.999 -11.499h6l15 -206h-38
c-12.667 68 -32 113 -58 135s-65 33 -117 33h-86v38l22 3c19.333 2 23.666 11.333 12.999 28l-73 112h-2l-69 -108c-12 -18 -9.33301 -28 8 -30l35 -5v-38h-221z" />
    <glyph glyph-name="uni04B4" unicode="&#x4b4;" horiz-adv-x="948" 
d="M15 504l0.000976562 187.999h530v-188h-38c-15.333 55.333 -30.5 92.833 -45.5 112.5s-42.167 29.5 -81.5 29.5h-20v-546c0 -22.667 4.33301 -37 13 -43s30.667 -9.66699 66 -11h158c35.333 1.33301 57.333 5 66 11s13 20.333 13 43v495
c0 24.667 -3.33301 39.834 -10 45.501s-23 10.167 -49 13.5v38h298v-38c-36 -1.33301 -58.167 -5.16602 -66.5 -11.499s-12.5 -22.166 -12.5 -47.499v-495c0 -22.667 4.33301 -37 13 -43s30.667 -9.66699 66 -11h10l13 -236h-38
c-8.66699 31.333 -15.334 54.666 -20.001 69.999s-11.167 31.666 -19.5 48.999s-16.5 29.333 -24.5 36s-19.5 13.334 -34.5 20.001s-31.333 10.834 -49 12.501s-40.5 2.5 -68.5 2.5h-563v38c36 1.33301 58.167 5.16602 66.5 11.499s12.5 22.166 12.5 47.499v549h-20
c-39.333 0 -66.5 -9.83301 -81.5 -29.5s-30.167 -57.167 -45.5 -112.5h-38z" />
    <glyph glyph-name="uni04B5" unicode="&#x4b5;" horiz-adv-x="804" 
d="M21 310l-0.00390625 180.001h449v-180h-38c-7.33301 44.667 -16.5 78.167 -27.5 100.5s-26.833 33.5 -47.5 33.5c-8 0 -14 -0.5 -18 -1.5s-8 -4.5 -12 -10.5s-6 -15 -6 -27v-320c0 -10.667 1.33301 -18.834 4 -24.501s5.83398 -9.16699 9.50098 -10.5
s9.83398 -2.33301 18.501 -3l21 -1h132l21 1c8.66699 0.666992 14.834 1.66699 18.501 3s6.83398 4.83301 9.50098 10.5s4 13.834 4 24.501v325c0 12 -2 21.167 -6 27.5s-8 10.166 -12 11.499s-10.333 2.33301 -19 3v38h253v-38
c-28.667 -1.33301 -46.667 -4.66602 -54 -9.99902s-11 -18.333 -11 -39v-314c0 -19.333 3.16699 -31 9.5 -35s24.833 -6.66699 55.5 -8h6l16 -214h-38c-12.667 68 -32 113 -58 135s-65 33 -117 33h-479v38c28.667 1.33301 46.667 4.66602 54 9.99902s11 18.333 11 39v318
c0 12 -2 21 -6 27s-8 9.5 -12 10.5s-10 1.5 -18 1.5c-20.667 0 -36.5 -11.167 -47.5 -33.5s-20.167 -55.833 -27.5 -100.5h-38z" />
    <glyph glyph-name="uni04B6" unicode="&#x4b6;" horiz-adv-x="766" 
d="M25 654l0.00292969 37.999h310v-38c-32 -2 -51.833 -6.16699 -59.5 -12.5s-11.5 -21.833 -11.5 -46.5v-162c0 -37.333 5.33301 -64 16 -80s33 -24 67 -24c42 0 72.333 4.66699 91 14c23.333 12 38.5 22.333 45.5 31s10.5 21 10.5 37v184
c0 24.667 -3.83301 40.167 -11.5 46.5s-27.5 10.5 -59.5 12.5v38h310v-38c-36 -1.33301 -58.167 -5.16602 -66.5 -11.499s-12.5 -22.166 -12.5 -47.499v-498c0 -25.333 4.16699 -41.166 12.5 -47.499s30.5 -10.166 66.5 -11.499h10l13 -228h-38
c-8.66699 31.333 -15.334 54.666 -20.001 69.999s-11.167 31.666 -19.5 48.999s-16.5 29.333 -24.5 36s-19.5 13.334 -34.5 20.001s-31.333 10.834 -49 12.501s-40.5 2.5 -68.5 2.5h-104v36c44 2.66699 71 7.16699 81 13.5s15 22.166 15 47.499v216
c-26.667 -14 -48.834 -25 -66.501 -33s-41.334 -15.5 -71.001 -22.5s-60.167 -10.5 -91.5 -10.5c-56 0 -96.833 17 -122.5 51s-38.5 85.667 -38.5 155v142c0 25.333 -4.16699 41.166 -12.5 47.499s-30.5 10.166 -66.5 11.499z" />
    <glyph glyph-name="uni04B7" unicode="&#x4b7;" horiz-adv-x="640" 
d="M19 452l-0.00292969 38.001h269v-38l-21 -2c-11.333 -1.33301 -19.5 -4.5 -24.5 -9.5s-7.5 -15.167 -7.5 -30.5v-100c0 -22 4 -37.333 12 -46s23.667 -13 47 -13c20 0 40 2.33301 60 7c27.333 6.66699 41 22 41 46v106c0 15.333 -2.5 25.5 -7.5 30.5
s-13.167 8.16699 -24.5 9.5l-21 2v38h269v-38c-28.667 -1.33301 -46.667 -4.66602 -54 -9.99902s-11 -18.333 -11 -39v-316c0 -20.667 3.66699 -33.667 11 -39s25.333 -8.66602 54 -9.99902h6l15 -206h-38c-12.667 68 -32 113 -58 135s-65 33 -117 33h-99v38
c34 1.33301 55 4.66602 63 9.99902s12 18.333 12 39v144c-23.333 -14 -41.166 -24.167 -53.499 -30.5s-29.166 -12.333 -50.499 -18s-44.333 -8.5 -69 -8.5c-49.333 0 -84.666 10.667 -105.999 32s-32 56.666 -32 105.999v91c0 20.667 -3.66699 33.667 -11 39
s-25.333 8.66602 -54 9.99902z" />
    <glyph glyph-name="uni04BA" unicode="&#x4ba;" horiz-adv-x="768" 
d="M33 0v38c36 1.33301 58.167 5.16602 66.5 11.499s12.5 22.166 12.5 47.499v498c0 25.333 -4.16699 41.166 -12.5 47.499s-30.5 10.166 -66.5 11.499v38h318v-38c-36 -1.33301 -58.167 -5.16602 -66.5 -11.499s-12.5 -22.166 -12.5 -47.499v-216c26.667 14 49 25 67 33
s41.833 15.5 71.5 22.5s60.167 10.5 91.5 10.5c56.667 0 97.834 -17.167 123.501 -51.5s38.5 -85.833 38.5 -154.5v-142c0 -25.333 4.16699 -41.166 12.5 -47.499s30.5 -10.166 66.5 -11.499v-38h-310v38c32 2 51.833 6.16699 59.5 12.5s11.5 21.833 11.5 46.5v162
c0 36.667 -5.5 63.167 -16.5 79.5s-33.5 24.5 -67.5 24.5c-42.667 0 -73.334 -4.66699 -92.001 -14c-23.333 -12 -38.5 -22.333 -45.5 -31s-10.5 -21 -10.5 -37v-184c0 -24.667 3.83301 -40.167 11.5 -46.5s27.5 -10.5 59.5 -12.5v-38h-310z" />
    <glyph glyph-name="uni04BB" unicode="&#x4bb;" horiz-adv-x="631" 
d="M19 0l0.00292969 38c28.667 1.33301 46.667 4.66602 54 9.99902s11 18.333 11 39v534c0 18.667 -1.83301 31.667 -5.5 39s-9.83398 11.666 -18.501 12.999l-35 6v36l203 27l7 -6v-303c26.667 16.667 46.667 28.834 60 36.501s30.166 15 50.499 22s39.833 10.5 58.5 10.5
c51.333 0 89.666 -13.667 114.999 -41s38 -65.333 38 -114v-260c0 -20.667 3.66699 -33.667 11 -39s25.333 -8.66602 54 -9.99902v-38h-269v38l21 2c11.333 1.33301 19.5 4.5 24.5 9.5s7.5 15.167 7.5 30.5v252c0 62 -26.333 93 -79 93c-38 0 -65.333 -16.333 -82 -49
c-6.66699 -13.333 -10 -33 -10 -59v-237c0 -15.333 2.5 -25.5 7.5 -30.5s13.167 -8.16699 24.5 -9.5l21 -2v-38h-269z" />
    <glyph glyph-name="uni04BC" unicode="&#x4bc;" horiz-adv-x="865" 
d="M20 490c0 57.333 19.6689 86.0059 59.002 86.0059c24 0 42.833 -6 56.5 -18s20.5 -26.333 20.5 -43c0 -8 -4.33301 -21.333 -13 -40s-13 -30.334 -13 -35.001c0 -13.333 3.33301 -22.5 10 -27.5s21.667 -7.83301 45 -8.5c10.667 87.333 44.167 159.666 100.5 216.999
s132.833 86 229.5 86c58.667 0 109.167 -8.33301 151.5 -25s75.166 -39.834 98.499 -69.501s40.166 -62 50.499 -97s15.5 -73.833 15.5 -116.5c0 -29.333 -17.667 -44 -53 -44h-420c0 -98.667 16.667 -177.334 50 -236.001s77.333 -88 132 -88
c61.333 0 108.333 15.667 141 47s58 74.666 76 129.999h35l-12 -175c-57.333 -32 -137.333 -48 -240 -48c-239.333 0 -359 120.333 -359 361v9c-57.333 2 -98.5 16.167 -123.5 42.5s-37.5 57.166 -37.5 92.499zM360.002 404.006l286 0.000976562c15.333 0 23 7.66699 23 23
c0 71.333 -13.5 128.166 -40.5 170.499s-64.833 63.5 -113.5 63.5c-38.667 0 -74.167 -27 -106.5 -81s-48.5 -112.667 -48.5 -176z" />
    <glyph glyph-name="uni04BD" unicode="&#x4bd;" horiz-adv-x="654" 
d="M13 368c0 19.333 4.00098 37.3301 12.001 53.9971s22.667 25 44 25c20.667 0 37.667 -6.33301 51 -19s20 -25.667 20 -39c0 -8 -2.33301 -18.333 -7 -31s-7 -22.667 -7 -30c0 -6 4.5 -12 13.5 -18s20.167 -9.33301 33.5 -10c8.66699 61.333 32.834 110.333 72.501 147
s96.5 55 170.5 55c36.667 0 69 -4.66699 97 -14s49.833 -21 65.5 -35s28.334 -30.833 38.001 -50.5s16 -38 19 -55s4.5 -34.833 4.5 -53.5c0 -15.333 -4.33301 -26.166 -13 -32.499s-22.334 -9.5 -41.001 -9.5h-258c0 -124.667 44.667 -187 134 -187
c58 0 102.667 29.667 134 89l36 -20c-37.333 -97.333 -110.333 -146 -219 -146c-44.667 0 -83.334 6.83301 -116.001 20.5s-58 32.834 -76 57.501s-31.167 51.834 -39.5 81.501s-12.5 62.167 -12.5 97.5v7c-52.667 0.666992 -91.834 12.167 -117.501 34.5
s-38.5 49.5 -38.5 81.5zM328.001 299.997l123.999 0.00195312c12 0 20.167 2.16699 24.5 6.5s6.5 13.166 6.5 26.499c0 82 -23.667 123 -71 123c-29.333 0 -50.666 -15.333 -63.999 -46s-20 -67.334 -20 -110.001z" />
    <glyph glyph-name="uni04BE" unicode="&#x4be;" horiz-adv-x="865" 
d="M20 490c0 57.333 19.668 86.0068 59.001 86.0068c24 0 42.833 -6 56.5 -18s20.5 -26.333 20.5 -43c0 -8 -4.33301 -21.333 -13 -40s-13 -30.334 -13 -35.001c0 -13.333 3.33301 -22.5 10 -27.5s21.667 -7.83301 45 -8.5c10.667 87.333 44.167 159.666 100.5 216.999
s132.833 86 229.5 86c58.667 0 109.167 -8.33301 151.5 -25s75.166 -39.834 98.499 -69.501s40.166 -62 50.499 -97s15.5 -73.833 15.5 -116.5c0 -29.333 -17.667 -44 -53 -44h-420c0 -98.667 16.667 -177.334 50 -236.001s77.333 -88 132 -88
c61.333 0 108.333 15.667 141 47s58 74.666 76 129.999h35l-12 -175c-27.333 -14.667 -60.333 -26.334 -99 -35.001c-34 -11.333 -59 -29.166 -75 -53.499s-30 -69.166 -42 -134.499h-38c-8 44.667 -18 79.667 -30 105s-23.667 42.666 -35 51.999s-28.666 20.333 -51.999 33
c-152 39.333 -228 154.666 -228 345.999v9c-57.333 2 -98.5 16.167 -123.5 42.5s-37.5 57.166 -37.5 92.499zM360.001 404.007l286 0.000976562c15.333 0 23 7.66699 23 23c0 71.333 -13.5 128.166 -40.5 170.499s-64.833 63.5 -113.5 63.5
c-38.667 0 -74.167 -27 -106.5 -81s-48.5 -112.667 -48.5 -176z" />
    <glyph glyph-name="uni04BF" unicode="&#x4bf;" horiz-adv-x="654" 
d="M13 368c0 19.333 4 37.3281 12 53.9951s22.667 25 44 25c20.667 0 37.667 -6.33301 51 -19s20 -25.667 20 -39c0 -8 -2.33301 -18.333 -7 -31s-7 -22.667 -7 -30c0 -6 4.5 -12 13.5 -18s20.167 -9.33301 33.5 -10c8.66699 61.333 32.834 110.333 72.501 147
s96.5 55 170.5 55c36.667 0 69 -4.66699 97 -14s49.833 -21 65.5 -35s28.334 -30.833 38.001 -50.5s16 -38 19 -55s4.5 -34.833 4.5 -53.5c0 -15.333 -4.33301 -26.166 -13 -32.499s-22.334 -9.5 -41.001 -9.5h-258c0 -124.667 44.667 -187 134 -187
c58 0 102.667 29.667 134 89l36 -20c-26.667 -68 -70.667 -112.333 -132 -133v-1c-32 -40.667 -52 -96.667 -60 -168h-38c-8 82.667 -34 138.334 -78 167.001c-37.333 10.667 -67.833 28.834 -91.5 54.501s-40.167 54.334 -49.5 86.001s-14 66.834 -14 105.501v7
c-52.667 0.666992 -91.834 12.167 -117.501 34.5s-38.5 49.5 -38.5 81.5zM328 299.995l123.999 0.00195312c12 0 20.167 2.16699 24.5 6.5s6.5 13.166 6.5 26.499c0 82 -23.667 123 -71 123c-29.333 0 -50.666 -15.333 -63.999 -46s-20 -67.334 -20 -110.001z" />
    <glyph glyph-name="uni04C0" unicode="&#x4c0;" horiz-adv-x="384" 
d="M33 0v38c36 1.33301 58.167 5.16602 66.5 11.499s12.5 22.166 12.5 47.499v498c0 25.333 -4.16699 41.166 -12.5 47.499s-30.5 10.166 -66.5 11.499v38h318v-38c-36 -1.33301 -58.167 -5.16602 -66.5 -11.499s-12.5 -22.166 -12.5 -47.499v-498
c0 -25.333 4.16699 -41.166 12.5 -47.499s30.5 -10.166 66.5 -11.499v-38h-318z" />
    <glyph glyph-name="uni04C1" unicode="&#x4c1;" horiz-adv-x="1170" 
d="M419 896h40.998c1.33301 -16.667 11.5 -32.334 30.5 -47.001s50.167 -22 93.5 -22s74.5 7.33301 93.5 22s29.167 30.334 30.5 47.001h41c0 -20.667 -2.16699 -39 -6.5 -55s-12.166 -31.667 -23.499 -47s-28.333 -27.166 -51 -35.499s-50.667 -12.5 -84 -12.5
s-61.333 4.16699 -84 12.5s-39.667 20.166 -51 35.499s-19.166 31 -23.499 47s-6.5 34.333 -6.5 55zM32.998 -15l-0.00195312 46h5c26.667 0 48.667 11.5 66 34.5s31 60.167 41 111.5c6.66699 36.667 17.167 67.667 31.5 93s32.333 44.833 54 58.5s41.667 23.5 60 29.5
s41.5 11.667 69.5 17v1c-22 10.667 -38.833 27.834 -50.5 51.501s-23.834 61.5 -36.501 113.5c-20 80 -43 120 -69 120c-7.33301 0 -12.333 -1.83301 -15 -5.5s-4 -10.167 -4 -19.5c0 -7.33301 1.33301 -17 4 -29s4 -23.333 4 -34c0 -15.333 -3.5 -27 -10.5 -35
s-14.167 -12.833 -21.5 -14.5s-16.666 -2.5 -27.999 -2.5c-21.333 0 -37.666 6 -48.999 18s-17 26.333 -17 43c0 43.333 12.5 75 37.5 95s57.833 30 98.5 30c34.667 0 62.5 -15.333 83.5 -46s38.833 -72.667 53.5 -126c6 -22 10.833 -38.333 14.5 -49
s9.33398 -23.5 17.001 -38.5s16.167 -25.833 25.5 -32.5s22 -12.667 38 -18s34.667 -8 56 -8h14v206c0 25.333 -4.16699 41.166 -12.5 47.499s-30.5 10.166 -66.5 11.499v38h318v-38c-36 -1.33301 -58.167 -5.16602 -66.5 -11.499s-12.5 -22.166 -12.5 -47.499v-206h14
c21.333 0 40 2.66699 56 8s28.667 11.333 38 18s17.833 17.5 25.5 32.5s13.334 27.833 17.001 38.5s8.5 27 14.5 49c14.667 53.333 32.5 95.333 53.5 126s48.833 46 83.5 46c40.667 0 73.5 -10 98.5 -30s37.5 -51.667 37.5 -95c0 -16.667 -5.66699 -31 -17 -43
s-27.666 -18 -48.999 -18c-11.333 0 -20.666 0.833008 -27.999 2.5s-14.5 6.5 -21.5 14.5s-10.5 19.667 -10.5 35c0 10.667 1.33301 22 4 34s4 21.667 4 29c0 9.33301 -1.33301 15.833 -4 19.5s-7.66699 5.5 -15 5.5c-26 0 -49 -40 -69 -120
c-12.667 -52 -24.834 -89.833 -36.501 -113.5s-28.5 -40.834 -50.5 -51.501v-1c28 -5.33301 51.167 -11 69.5 -17s38.333 -15.833 60 -29.5s39.667 -33.167 54 -58.5s24.833 -56.333 31.5 -93c10 -51.333 23.667 -88.5 41 -111.5s39.333 -34.5 66 -34.5h5v-46h-63
c-30 0 -55.167 1.5 -75.5 4.5s-40.5 9.16699 -60.5 18.5s-36.167 23.666 -48.5 42.999s-20.833 44 -25.5 74c-11.333 71.333 -30.833 125.166 -58.5 161.499s-68.834 54.5 -123.501 54.5h-17v-244c0 -25.333 4.16699 -41.166 12.5 -47.499s30.5 -10.166 66.5 -11.499v-38
h-318v38c36 1.33301 58.167 5.16602 66.5 11.499s12.5 22.166 12.5 47.499v244h-17c-54.667 0 -95.834 -18.167 -123.501 -54.5s-47.167 -90.166 -58.5 -161.499c-4.66699 -30 -13.167 -54.667 -25.5 -74s-28.5 -33.666 -48.5 -42.999s-40.167 -15.5 -60.5 -18.5
s-45.5 -4.5 -75.5 -4.5h-63z" />
    <glyph glyph-name="uni04C2" unicode="&#x4c2;" horiz-adv-x="865" 
d="M272 716h38c0.666992 -7.33301 2.66699 -14.666 6 -21.999s8.83301 -15.333 16.5 -24s20 -15.667 37 -21s37.5 -8 61.5 -8s44.5 2.66699 61.5 8s29.333 12.333 37 21s13.167 16.667 16.5 24s5.33301 14.666 6 21.999h39c0 -20.667 -1.83301 -39.167 -5.5 -55.5
s-10.5 -33 -20.5 -50s-26.333 -30.333 -49 -40s-50.667 -14.5 -84 -14.5c-34 0 -62.333 4.5 -85 13.5s-39 22 -49 39s-16.833 33.667 -20.5 50s-5.5 35.5 -5.5 57.5zM25 -12l0.00488281 46h5c38.667 0 64 30.333 76 91c4.66699 24 14.167 45 28.5 63
s30.666 31.333 48.999 40s35 15.167 50 19.5s28.5 6.5 40.5 6.5v3c-12 4 -24.167 16.667 -36.5 38s-21.5 51.333 -27.5 90c-2.66699 16.667 -7.5 30.834 -14.5 42.501s-13.333 19.334 -19 23.001s-10.5 5.5 -14.5 5.5c-10.667 0 -16 -4 -16 -12c0 -5.33301 1 -14 3 -26
s3 -21.667 3 -29c0 -27.333 -17.333 -41 -52 -41c-22 0 -37.667 6.33301 -47 19s-14 25.667 -14 39c0 23.333 9.5 45.166 28.5 65.499s46.5 30.5 82.5 30.5c32 0 58.667 -11.5 80 -34.5s35 -51.833 41 -86.5c12 -69.333 38 -104 78 -104h8v133c0 15.333 -2.5 25.5 -7.5 30.5
s-13.167 8.16699 -24.5 9.5l-21 2v38h257v-38l-21 -2c-11.333 -1.33301 -19.5 -4.5 -24.5 -9.5s-7.5 -15.167 -7.5 -30.5v-133h8c40 0 66 34.667 78 104c6 34.667 19.667 63.5 41 86.5s48 34.5 80 34.5c36 0 63.5 -10.167 82.5 -30.5s28.5 -42.166 28.5 -65.499
c0 -13.333 -4.66699 -26.333 -14 -39s-25 -19 -47 -19c-34.667 0 -52 13.667 -52 41c0 7.33301 1 17 3 29s3 20.667 3 26c0 8 -5.33301 12 -16 12c-4 0 -8.83301 -1.83301 -14.5 -5.5s-12 -11.334 -19 -23.001s-11.833 -25.834 -14.5 -42.501
c-6 -38.667 -15.167 -68.667 -27.5 -90s-24.5 -34 -36.5 -38v-3c12 0 25.5 -2.16699 40.5 -6.5s31.667 -10.833 50 -19.5s34.666 -22 48.999 -40s23.833 -39 28.5 -63c11.333 -60.667 36.666 -91 75.999 -91h5v-46h-25c-122.667 0 -189.334 33.333 -200.001 100
c-8 49.333 -18.667 85.5 -32 108.5s-35.333 34.5 -66 34.5h-9v-151c0 -15.333 2.5 -25.5 7.5 -30.5s13.167 -8.16699 24.5 -9.5l21 -2v-38h-257v38l21 2c11.333 1.33301 19.5 4.5 24.5 9.5s7.5 15.167 7.5 30.5v151h-9c-30.667 0 -52.667 -11.5 -66 -34.5
s-24 -59.167 -32 -108.5c-10.667 -66.667 -77.334 -100 -200.001 -100h-25z" />
    <glyph glyph-name="uni04C3" unicode="&#x4c3;" horiz-adv-x="776" 
d="M33 0l-0.00292969 38.001c36 1.33301 58.167 5.16602 66.5 11.499s12.5 22.166 12.5 47.499v498c0 25.333 -4.16699 41.166 -12.5 47.499s-30.5 10.166 -66.5 11.499v38h318v-38c-36 -1.33301 -58.167 -5.16602 -66.5 -11.499s-12.5 -22.166 -12.5 -47.499v-206h34
c49.333 0 85 12 107 36s40 60.667 54 110c14.667 53.333 32.834 95.333 54.501 126s50.834 46 87.501 46c40 0 72.667 -9.83301 98 -29.5s38 -50.5 38 -92.5c0 -16 -5.16699 -30.667 -15.5 -44s-26.5 -20 -48.5 -20c-20.667 0 -36.167 3.5 -46.5 10.5
s-15.5 20.167 -15.5 39.5c0 10.667 1.33301 22.5 4 35.5s4 23.167 4 30.5c0 9.33301 -1.33301 15.666 -4 18.999s-7.66699 5 -15 5c-13.333 0 -26.666 -10.5 -39.999 -31.5s-24.666 -50.5 -33.999 -88.5c-12 -48.667 -24.833 -84.834 -38.5 -108.501
s-32.167 -41.5 -55.5 -53.5v-1c96 -14.667 168.667 -48.667 218 -102s74 -120 74 -200c0 -95.333 -23.667 -172.166 -71 -230.499s-115.666 -87.5 -204.999 -87.5c-54 0 -98.333 9.83301 -133 29.5s-52 42.167 -52 67.5c0 20.667 8.66699 37 26 49s35.666 18 54.999 18
c14 0 26.5 -6.16699 37.5 -18.5s19.333 -25.833 25 -40.5s13 -28.167 22 -40.5s18.833 -18.5 29.5 -18.5c34 0 59 26.167 75 78.5s24 116.833 24 193.5c0 78 -17.333 141.667 -52 191s-89.334 74 -164.001 74h-77v-244c0 -25.333 4.16699 -41.166 12.5 -47.499
s30.5 -10.166 66.5 -11.499v-38h-318z" />
    <glyph glyph-name="uni04C4" unicode="&#x4c4;" horiz-adv-x="618" 
d="M29 0l0.000976562 37.9941c28.667 1.33301 46.667 4.66602 54 9.99902s11 18.333 11 39v316c0 20.667 -3.66699 33.667 -11 39s-25.333 8.66602 -54 9.99902v38h281v-38c-28.667 -1.33301 -46.667 -4.66602 -54 -9.99902s-11 -18.333 -11 -39v-126h11
c32 0 54 8.33301 66 25s21.333 43 28 79c6.66699 36.667 20.667 66 42 88s48.666 33 81.999 33c36 0 63.5 -10.167 82.5 -30.5s28.5 -42.166 28.5 -65.499c0 -7.33301 -1.33301 -14.833 -4 -22.5s-8.83398 -15.5 -18.501 -23.5s-22.5 -12 -38.5 -12
c-34.667 0 -52 13.667 -52 41c0 7.33301 1 17 3 29s3 20.333 3 25c0 8.66699 -5 13 -15 13c-9.33301 0 -19.666 -7 -30.999 -21s-18.333 -30.667 -21 -50c-8.66699 -61.333 -27.667 -100.666 -57 -117.999v-3c156 -19.333 234 -106.666 234 -261.999
c0 -32 -4.5 -62 -13.5 -90s-22.667 -53.667 -41 -77s-43.666 -41.833 -75.999 -55.5s-69.833 -20.5 -112.5 -20.5c-22 0 -42.833 1.5 -62.5 4.5s-38.834 7.83301 -57.501 14.5s-33.5 16.334 -44.5 29.001s-16.5 28 -16.5 46c0 15.333 7.16699 28.833 21.5 40.5
s32.833 17.5 55.5 17.5c13.333 0 24.333 -5.5 33 -16.5s15.167 -23.167 19.5 -36.5s11.166 -25.5 20.499 -36.5s21.333 -16.5 36 -16.5c12.667 0 23.5 2.5 32.5 7.5s16.333 13.167 22 24.5s10.334 22.5 14.001 33.5s6.16699 25.667 7.5 44s2.16602 34 2.49902 47
s0.5 29.833 0.5 50.5c0 24.667 -1.16699 46.834 -3.5 66.501s-7.16602 39.334 -14.499 59.001s-17 36 -29 49s-28.333 23.667 -49 32s-44.667 12.5 -72 12.5h-16v-144c0 -20.667 3.66699 -33.667 11 -39s25.333 -8.66602 54 -9.99902v-38h-281z" />
    <glyph glyph-name="uni04C7" unicode="&#x4c7;" horiz-adv-x="802" 
d="M33 0l-0.000976562 37.9961c36 1.33301 58.167 5.16602 66.5 11.499s12.5 22.166 12.5 47.499v498c0 25.333 -4.16699 41.166 -12.5 47.499s-30.5 10.166 -66.5 11.499v38h318v-38c-36 -1.33301 -58.167 -5.16602 -66.5 -11.499s-12.5 -22.166 -12.5 -47.499v-206h263
v206c0 25.333 -4.16699 41.166 -12.5 47.499s-30.5 10.166 -66.5 11.499v38h318v-38c-36 -1.33301 -58.167 -5.16602 -66.5 -11.499s-12.5 -22.166 -12.5 -47.499v-568c0 -53.333 -7.33301 -98.666 -22 -135.999s-34.667 -65.166 -60 -83.499s-50.833 -31.166 -76.5 -38.499
s-53.5 -11 -83.5 -11c-55.333 0 -96.333 9.5 -123 28.5s-40 41.833 -40 68.5c0 20 8.83301 36.167 26.5 48.5s35.834 18.5 54.501 18.5c14 0 25.333 -6.16699 34 -18.5s14.5 -25.833 17.5 -40.5s7.83301 -28.167 14.5 -40.5s15.334 -18.5 26.001 -18.5
c29.333 0 48.666 20.333 57.999 61s14 101.334 14 182.001v294h-263v-244c0 -25.333 4.16699 -41.166 12.5 -47.499s30.5 -10.166 66.5 -11.499v-38h-318z" />
    <glyph glyph-name="uni04C8" unicode="&#x4c8;" horiz-adv-x="648" 
d="M29 0v38.002c28.667 1.33301 46.667 4.66602 54 9.99902s11 18.333 11 39v316c0 20.667 -3.66699 33.667 -11 39s-25.333 8.66602 -54 9.99902v38h269v-38l-21 -2c-11.333 -1.33301 -19.5 -4.5 -24.5 -9.5s-7.5 -15.167 -7.5 -30.5v-133h168v133
c0 15.333 -2.5 25.5 -7.5 30.5s-13.167 8.16699 -24.5 9.5l-21 2v38h269v-38c-28.667 -1.33301 -46.667 -4.66602 -54 -9.99902s-11 -18.333 -11 -39v-436c0 -67.333 -15.667 -119 -47 -155s-74.333 -54 -129 -54c-51.333 0 -88.833 8.5 -112.5 25.5
s-35.5 35.833 -35.5 56.5c0 15.333 7.5 29.5 22.5 42.5s31.5 19.5 49.5 19.5c11.333 0 22 -5.16699 32 -15.5s18.333 -21.5 25 -33.5s14 -23.167 22 -33.5s15.333 -15.5 22 -15.5c14.667 0 22 12.333 22 37c0 11.333 -3.66699 38.166 -11 80.499s-11 71.833 -11 88.5v221
h-168v-151c0 -15.333 2.5 -25.5 7.5 -30.5s13.167 -8.16699 24.5 -9.5l21 -2v-38h-269z" />
    <glyph glyph-name="uni04CF" unicode="&#x4cf;" horiz-adv-x="309" 
d="M19 0l0.000976562 38.001c28.667 1.33301 46.667 4.66602 54 9.99902s11 18.333 11 39v534c0 18.667 -1.83301 31.667 -5.5 39s-9.83398 11.666 -18.501 12.999l-35 6v36l203 27l7 -6v-649c0 -20.667 3.66699 -33.667 11 -39s25.333 -8.66602 54 -9.99902v-38h-281z" />
    <glyph glyph-name="uni04D0" unicode="&#x4d0;" horiz-adv-x="644" 
d="M-28 0v38.002c27.333 1.33301 45.666 5.16602 54.999 11.499s18 19.833 26 40.5c2 6 33 94.333 93 265l116 337h126l197 -606c6.66699 -20 14.667 -32.833 24 -38.5s27.333 -8.83398 54 -9.50098v-38h-316v38l58 6c18.667 2 24.334 14 17.001 36l-52 166h-194
c-26.667 -87.333 -42.667 -143 -48 -167c-3.33301 -10.667 -3.83301 -19.167 -1.5 -25.5s8.83301 -9.83301 19.5 -10.5l60 -5v-38h-234zM192 294.002h162l-78 259h-3zM160 896.002h40.998c1.33301 -16.667 11.5 -32.334 30.5 -47.001s50.167 -22 93.5 -22
s74.5 7.33301 93.5 22s29.167 30.334 30.5 47.001h41c0 -20.667 -2.16699 -39 -6.5 -55s-12.166 -31.667 -23.499 -47s-28.333 -27.166 -51 -35.499s-50.667 -12.5 -84 -12.5s-61.333 4.16699 -84 12.5s-39.667 20.166 -51 35.499s-19.166 31 -23.499 47
s-6.5 34.333 -6.5 55z" />
    <glyph glyph-name="uni04D1" unicode="&#x4d1;" horiz-adv-x="544" 
d="M41 133c0 59.333 35.333 101.001 106 125.001c7.33301 2.66699 20.5 7.16699 39.5 13.5l44.5 14.5c10.667 3.33301 23.334 7.83301 38.001 13.5s27 10.834 37 15.501s18.333 9.33398 25 14.001v53c0 49.333 -19.333 74 -58 74c-36.667 0 -66 -33.333 -88 -100
c-8.66699 -26.667 -22.334 -40 -41.001 -40c-18 0 -37.5 5.5 -58.5 16.5s-31.5 26.5 -31.5 46.5c0 34 21.667 63 65 87s100.666 36 171.999 36c34 0 63.167 -3 87.5 -9s42.666 -13.333 54.999 -22s22 -19.834 29 -33.501s11.333 -25.834 13 -36.501s2.5 -23.667 2.5 -39
v-231c0 -43.333 10.667 -68.333 32 -75c14 -4.66699 30 -6.33398 48 -5.00098l3 -33c-50.667 -20 -100 -30 -148 -30c-22 0 -38.5 5 -49.5 15s-20.5 24.333 -28.5 43l-15.5 -10.5c-8.33301 -5.66699 -14.166 -9.5 -17.499 -11.5l-17.5 -10
c-8.33301 -4.66699 -15.333 -8.16699 -21 -10.5s-12.667 -5 -21 -8s-16.666 -5 -24.999 -6s-16.833 -1.5 -25.5 -1.5c-48 0 -85.167 14.167 -111.5 42.5s-39.5 62.5 -39.5 102.5zM195 150.001c0 -25.333 7.16699 -45.667 21.5 -61s31.833 -23 52.5 -23
c16 0 30.167 5.16699 42.5 15.5s18.833 27.833 19.5 52.5v145c-54.667 -24.667 -84.667 -38.667 -90 -42c-30.667 -17.333 -46 -46.333 -46 -87zM131 716h38c0.666992 -7.33301 2.66699 -14.666 6 -21.999s8.83301 -15.333 16.5 -24s20 -15.667 37 -21s37.5 -8 61.5 -8
s44.5 2.66699 61.5 8s29.333 12.333 37 21s13.167 16.667 16.5 24s5.33301 14.666 6 21.999h39c0 -20.667 -1.83301 -39.167 -5.5 -55.5s-10.5 -33 -20.5 -50s-26.333 -30.333 -49 -40s-50.667 -14.5 -84 -14.5c-34 0 -62.333 4.5 -85 13.5s-39 22 -49 39
s-16.833 33.667 -20.5 50s-5.5 35.5 -5.5 57.5z" />
    <glyph glyph-name="uni04D2" unicode="&#x4d2;" horiz-adv-x="644" 
d="M369 806c0 20 7.16699 37.5 21.5 52.5s33.5 22.5 57.5 22.5s43.167 -7.5 57.5 -22.5s21.5 -32.5 21.5 -52.5s-7.16699 -37.5 -21.5 -52.5s-33.5 -22.5 -57.5 -22.5s-43.167 7.5 -57.5 22.5s-21.5 32.5 -21.5 52.5zM117 806c0 20 7.16699 37.5 21.5 52.5
s33.5 22.5 57.5 22.5s43.167 -7.5 57.5 -22.5s21.5 -32.5 21.5 -52.5s-7.16699 -37.5 -21.5 -52.5s-33.5 -22.5 -57.5 -22.5s-43.167 7.5 -57.5 22.5s-21.5 32.5 -21.5 52.5zM-28 0v38.002c27.333 1.33301 45.666 5.16602 54.999 11.499s18 19.833 26 40.5
c2 6 33 94.333 93 265l116 337h126l197 -606c6.66699 -20 14.667 -32.833 24 -38.5s27.333 -8.83398 54 -9.50098v-38h-316v38l58 6c18.667 2 24.334 14 17.001 36l-52 166h-194c-26.667 -87.333 -42.667 -143 -48 -167c-3.33301 -10.667 -3.83301 -19.167 -1.5 -25.5
s8.83301 -9.83301 19.5 -10.5l60 -5v-38h-234zM192 294.002h162l-78 259h-3z" />
    <glyph glyph-name="uni04D3" unicode="&#x4d3;" horiz-adv-x="544" 
d="M321 635c0 20 7.16699 37.5 21.5 52.5s33.5 22.5 57.5 22.5s43.167 -7.5 57.5 -22.5s21.5 -32.5 21.5 -52.5s-7.16699 -37.5 -21.5 -52.5s-33.5 -22.5 -57.5 -22.5s-43.167 7.5 -57.5 22.5s-21.5 32.5 -21.5 52.5zM81 635c0 20 7.16699 37.5 21.5 52.5
s33.5 22.5 57.5 22.5s43.167 -7.5 57.5 -22.5s21.5 -32.5 21.5 -52.5s-7.16699 -37.5 -21.5 -52.5s-33.5 -22.5 -57.5 -22.5s-43.167 7.5 -57.5 22.5s-21.5 32.5 -21.5 52.5zM41 133c0 59.333 35.333 101.001 106 125.001c7.33301 2.66699 20.5 7.16699 39.5 13.5l44.5 14.5
c10.667 3.33301 23.334 7.83301 38.001 13.5s27 10.834 37 15.501s18.333 9.33398 25 14.001v53c0 49.333 -19.333 74 -58 74c-36.667 0 -66 -33.333 -88 -100c-8.66699 -26.667 -22.334 -40 -41.001 -40c-18 0 -37.5 5.5 -58.5 16.5s-31.5 26.5 -31.5 46.5
c0 34 21.667 63 65 87s100.666 36 171.999 36c34 0 63.167 -3 87.5 -9s42.666 -13.333 54.999 -22s22 -19.834 29 -33.501s11.333 -25.834 13 -36.501s2.5 -23.667 2.5 -39v-231c0 -43.333 10.667 -68.333 32 -75c14 -4.66699 30 -6.33398 48 -5.00098l3 -33
c-50.667 -20 -100 -30 -148 -30c-22 0 -38.5 5 -49.5 15s-20.5 24.333 -28.5 43l-15.5 -10.5c-8.33301 -5.66699 -14.166 -9.5 -17.499 -11.5l-17.5 -10c-8.33301 -4.66699 -15.333 -8.16699 -21 -10.5s-12.667 -5 -21 -8s-16.666 -5 -24.999 -6s-16.833 -1.5 -25.5 -1.5
c-48 0 -85.167 14.167 -111.5 42.5s-39.5 62.5 -39.5 102.5zM195 150.001c0 -25.333 7.16699 -45.667 21.5 -61s31.833 -23 52.5 -23c16 0 30.167 5.16699 42.5 15.5s18.833 27.833 19.5 52.5v145c-54.667 -24.667 -84.667 -38.667 -90 -42
c-30.667 -17.333 -46 -46.333 -46 -87z" />
    </font>
</defs>
</svg>
