<?xml version="1.0" standalone="no"?>
<!DOCTYPE svg PUBLIC "-//W3C//DTD SVG 1.1//EN" "http://www.w3.org/Graphics/SVG/1.1/DTD/svg11.dtd" >
<svg>
<metadata>
Created by FontForge 20090914 at Wed Oct  5 13:38:29 2016
 By www-data
Copyright (c) 1989, 1991 Adobe Systems Incorporated.  All Rights Reserved. Utopia is either a registered trademark or trademark of Adobe Systems Incorporated in the United States and/or other countries. Used under license. The Utopia fonts are freely available; see http://tug.org/fonts/utopia.

Copyright (c) 2008-2012 Andrey V. Panov (panov@canopus.iacp.dvo.ru).

</metadata>
<defs>
<font id="Heuristica-Regular" horiz-adv-x="762" >
  <font-face 
    font-family="Heuristica"
    font-weight="400"
    font-stretch="normal"
    units-per-em="1000"
    panose-1="2 2 6 3 5 7 5 2 2 4"
    ascent="750"
    descent="-250"
    x-height="489.996"
    cap-height="692"
    bbox="-63 -250 1074 926"
    underline-thickness="50"
    underline-position="-100"
    unicode-range="U+0020-U+04F9"
  />
<missing-glyph horiz-adv-x="608" 
d="M90 0v692h428v-692h-428zM133 93l147 253l-147 254v-507zM153 43h302l-151 261zM153 649l151 -260l150 260h-301zM328 346l147 -253v507z" />
    <glyph glyph-name="f_b" unicode="fb" horiz-adv-x="917" 
d="M30 450l-0.00488281 40.001h77v21c0 72.667 18 129.334 54 170.001s87.333 61 154 61c46.667 0 86.334 -9.33301 119.001 -28l62 28l7 -6v-305l30.5 19.5c18.333 11.667 32.5 20.167 42.5 25.5s24.5 11 43.5 17s37.5 9 55.5 9c34 0 63.667 -6.83301 89 -20.5
s44.333 -29.667 57 -48s22.834 -40 30.501 -65s12.334 -45.833 14.001 -62.5s2.5 -33.334 2.5 -50.001c0 -49.333 -6.66699 -91.833 -20 -127.5s-31.833 -63.5 -55.5 -83.5s-49.667 -34.5 -78 -43.5s-60.166 -13.5 -95.499 -13.5c-56 0 -106.667 13 -152 39l-40 -39l-18 8
v634c-7.33301 24.667 -20.333 43.667 -39 57s-38.667 20 -60 20c-72.667 0 -109 -61.333 -109 -184v-33h112v-40h-112v-364c0 -25.333 3.83301 -40.5 11.5 -45.5s30.834 -8.83301 69.501 -11.5v-29h-250v29c36 2.66699 57.5 6.66699 64.5 12s10.5 20.666 10.5 45.999v363
h-77zM502.995 163.001c0 -28 2.33398 -49.001 7.00098 -63.001c18.667 -51.333 55.334 -77 110.001 -77c96 0 144 75.667 144 227c0 40.667 -4.66699 75.167 -14 103.5s-21.333 48.833 -36 61.5s-28.334 21.334 -41.001 26.001s-25.334 7 -38.001 7
c-58 0 -98.667 -23.333 -122 -70c-6.66699 -13.333 -10 -32.333 -10 -57v-158z" />
    <glyph glyph-name="f_h" unicode="fh" horiz-adv-x="926" 
d="M32 0l-0.000976562 29.0059c36 2.66699 57.5 6.66699 64.5 12s10.5 20.666 10.5 45.999v363h-77v40h77v21c0 75.333 18 131.666 54 168.999c39.333 41.333 92 62 158 62c46.667 0 86.334 -9.33301 119.001 -28l62 28l7 -6v-310c51.333 34 87.333 55 108 63
c23.333 8.66699 47.666 13 72.999 13c46.667 0 83 -13.833 109 -41.5s39 -66.834 39 -117.501v-256c0 -24.667 3.83301 -39.834 11.5 -45.501s28.834 -9.83398 63.501 -12.501v-29h-244v29c34.667 2.66699 55.834 6.83398 63.501 12.501s11.5 20.834 11.5 45.501v236
c0 83.333 -35 125 -105 125c-25.333 0 -49 -7 -71 -21s-38.333 -31.333 -49 -52c-6 -11.333 -9 -29.333 -9 -54v-234c0 -24.667 3.83301 -39.834 11.5 -45.501s28.834 -9.83398 63.501 -12.501v-29h-244v29c35.333 2.66699 56.666 6.66699 63.999 12s11 20.666 11 45.999
v543c-7.33301 24.667 -20.5 43.667 -39.5 57s-39.167 20 -60.5 20c-75.333 0 -113 -61.333 -113 -184v-33h112v-40h-112v-364c0 -24.667 3.66699 -39.667 11 -45s28.666 -9.33301 63.999 -12v-29h-244z" />
    <glyph glyph-name="f_j" unicode="fj" horiz-adv-x="599" 
d="M32 0v28.999c36 2.66699 57.5 6.66699 64.5 12s10.5 20.666 10.5 45.999v363h-77v40h77v18c0 72 19.667 129 59 171s94.666 63 165.999 63c52.667 0 94.834 -9.33301 126.501 -28s47.5 -40 47.5 -64c0 -14.667 -5.83301 -26 -17.5 -34s-24.167 -12 -37.5 -12
c-14 0 -23.333 6 -28 18c-20 56.667 -54 85 -102 85c-80 0 -120 -57 -120 -171v-46h145c27.333 0 85 4 173 12v-495c0 -68 -11.5 -121.667 -34.5 -161s-64.5 -65.666 -124.5 -78.999c-28 -6 -53.333 -9 -76 -9l-2 24c60 14.667 98.333 38 115 70c18.667 36.667 28 98 28 184
v368c0 18 -2 30.167 -6 36.5s-12.333 9.5 -25 9.5h-193v-364c0 -25.333 4 -40.666 12 -45.999s32.333 -9 73 -11v-29h-254z" />
    <glyph glyph-name="f_k" unicode="fk" horiz-adv-x="843" 
d="M30 450l0.00195312 40.002h77v21c0 70 18.5 126 55.5 168s89.167 63 156.5 63c46.667 0 86.334 -9.33301 119.001 -28l62 28l8 -6v-468h2c26.667 39.333 77 103.666 151 192.999c10 12 18.833 19.833 26.5 23.5s19.834 5.5 36.501 5.5h103v-28
c-45.333 -4.66699 -84.333 -19 -117 -43c-35.333 -26 -73.333 -62.333 -114 -109c-7.33301 -8 -8.33301 -15.667 -3 -23c53.333 -75.333 112.666 -145.333 177.999 -210c28 -28 56.667 -46 86 -54v-28l-75 3c-40.667 2.66699 -76.667 19.667 -108 51
c-64.667 66 -119.334 134.333 -164.001 205h-2v-167c0 -25.333 3.5 -40.666 10.5 -45.999s28.5 -9.33301 64.5 -12v-29h-244v29c35.333 2.66699 56.666 6.66699 63.999 12s11 20.666 11 45.999v543c-7.33301 24.667 -20.5 43.667 -39.5 57s-39.167 20 -60.5 20
c-32 0 -58.833 -13.833 -80.5 -41.5s-32.5 -75.167 -32.5 -142.5v-33h112v-40h-112v-364c0 -24.667 3.66699 -39.667 11 -45s28.666 -9.33301 63.999 -12v-29h-244v29c36 2.66699 57.5 6.66699 64.5 12s10.5 20.666 10.5 45.999v363h-77z" />
    <glyph glyph-name="ff" unicode="ff" horiz-adv-x="638" 
d="M30 450l0.000976562 40.001h77v27c0 64.667 11 113.667 33 147c27.333 42 68.666 63 123.999 63c36 0 65.333 -7.66699 88 -23s34 -32 34 -50c0 -14 -5.16699 -25 -15.5 -33s-21.166 -12 -32.499 -12c-12 0 -21 5.66699 -27 17c-18.667 44 -41 66 -67 66
c-4.66699 0 -9.5 -1.16699 -14.5 -3.5s-10.333 -6.66602 -16 -12.999s-10 -17 -13 -32s-4.16699 -33.167 -3.5 -54.5l4 -99h225v35c0 69.333 11 120.666 33 153.999c12.667 19.333 30.167 34.666 52.5 45.999s47.166 17 74.499 17c37.333 0 67 -7.5 89 -22.5
s33 -31.833 33 -50.5c0 -14 -5.33301 -25.333 -16 -34s-21.667 -13 -33 -13c-12.667 0 -21.667 5.66699 -27 17c-11.333 26.667 -22.5 44.667 -33.5 54s-22.5 14 -34.5 14c-34 0 -50 -35 -48 -105l4 -112h122v-40h-122v-364c0 -25.333 4.5 -40.666 13.5 -45.999
s36.167 -9 81.5 -11v-29h-264v29c36 2.66699 57.5 6.66699 64.5 12s10.5 20.666 10.5 45.999v363h-225v-364c0 -25.333 4 -40.666 12 -45.999s32.333 -9 73 -11v-29h-254v29c36 2.66699 57.5 6.66699 64.5 12s10.5 20.666 10.5 45.999v363h-77z" />
    <glyph glyph-name="fi" unicode="fi" horiz-adv-x="610" 
d="M30 450v40.001h77v18c0 69.333 18 124.666 54 165.999c40 45.333 97.667 68 173 68c54 0 96.833 -9.33301 128.5 -28s47.5 -40 47.5 -64c0 -14.667 -5.83301 -26 -17.5 -34s-24.167 -12 -37.5 -12c-14 0 -23.333 6 -28 18c-20 56.667 -54.667 85 -104 85
c-81.333 0 -122 -57 -122 -171v-46h146c27.333 0 85 4 173 12v-415c0 -25.333 3.5 -40.666 10.5 -45.999s28.5 -9.33301 64.5 -12v-29h-244v29c36 2.66699 57.5 6.66699 64.5 12s10.5 20.666 10.5 45.999v317c0 18 -2.16699 30.167 -6.5 36.5s-12.833 9.5 -25.5 9.5h-193
v-364c0 -25.333 4 -40.666 12 -45.999s32.333 -9 73 -11v-29h-254v29c36 2.66699 57.5 6.66699 64.5 12s10.5 20.666 10.5 45.999v363h-77z" />
    <glyph glyph-name="fl" unicode="fl" horiz-adv-x="610" 
d="M30 450l-0.000976562 40.001h77v21c0 75.333 18 131.666 54 168.999c39.333 41.333 94 62 164 62c50.667 0 92.334 -9.33301 125.001 -28l63 28l7 -6v-649c0 -25.333 3.5 -40.666 10.5 -45.999s28.5 -9.33301 64.5 -12v-29h-244v29c36 2.66699 57.5 6.66699 64.5 12
s10.5 20.666 10.5 45.999v543c-7.33301 24.667 -20.833 43.667 -40.5 57s-41.5 20 -65.5 20c-36 0 -64.833 -13 -86.5 -39s-32.5 -74.333 -32.5 -145v-33h122v-40h-122v-364c0 -25.333 4.5 -40.666 13.5 -45.999s36.167 -9 81.5 -11v-29h-264v29
c36 2.66699 57.5 6.66699 64.5 12s10.5 20.666 10.5 45.999v363h-77z" />
    <glyph glyph-name="ffi" unicode="ffi" horiz-adv-x="929" 
d="M30 450v39.998h77v27c0 64.667 11 113.667 33 147c27.333 42 68.666 63 123.999 63c36 0 65.333 -7.66699 88 -23s34 -32 34 -50c0 -14 -5.16699 -25 -15.5 -33s-21.166 -12 -32.499 -12c-12 0 -21 5.66699 -27 17c-18.667 44 -41 66 -67 66
c-4.66699 0 -9.5 -1.16699 -14.5 -3.5s-10.333 -6.66602 -16 -12.999s-10 -17 -13 -32s-4.16699 -33.167 -3.5 -54.5l4 -99h225v18c0 72.667 19.833 129.834 59.5 171.501s95.5 62.5 167.5 62.5c54 0 96.833 -9.33301 128.5 -28s47.5 -40 47.5 -64
c0 -14.667 -5.83301 -26 -17.5 -34s-24.167 -12 -37.5 -12c-14 0 -23.333 6 -28 18c-20 56.667 -54.667 85 -104 85c-81.333 0 -122 -57 -122 -171v-46h146c27.333 0 85 4 173 12v-415c0 -25.333 3.5 -40.666 10.5 -45.999s28.5 -9.33301 64.5 -12v-29h-244v29
c36 2.66699 57.5 6.66699 64.5 12s10.5 20.666 10.5 45.999v317c0 18 -2.16699 30.167 -6.5 36.5s-12.833 9.5 -25.5 9.5h-193v-364c0 -25.333 4 -40.666 12 -45.999s32.333 -9 73 -11v-29h-254v29c36 2.66699 57.5 6.66699 64.5 12s10.5 20.666 10.5 45.999v363h-225v-364
c0 -25.333 4 -40.666 12 -45.999s32.333 -9 73 -11v-29h-254v29c36 2.66699 57.5 6.66699 64.5 12s10.5 20.666 10.5 45.999v363h-77z" />
    <glyph glyph-name="ffl" unicode="ffl" horiz-adv-x="929" 
d="M30 450l-0.000976562 40h77v27c0 64.667 11 113.667 33 147c27.333 42 68.666 63 123.999 63c36 0 65.333 -7.66699 88 -23s34 -32 34 -50c0 -14 -5.16699 -25 -15.5 -33s-21.166 -12 -32.499 -12c-12 0 -21 5.66699 -27 17c-18.667 44 -41 66 -67 66
c-4.66699 0 -9.5 -1.16699 -14.5 -3.5s-10.333 -6.66602 -16 -12.999s-10 -17 -13 -32s-4.16699 -33.167 -3.5 -54.5l4 -99h225v21c0 75.333 18 131.666 54 168.999c39.333 41.333 94 62 164 62c50.667 0 92.334 -9.33301 125.001 -28l63 28l7 -6v-649
c0 -25.333 3.5 -40.666 10.5 -45.999s28.5 -9.33301 64.5 -12v-29h-244v29c36 2.66699 57.5 6.66699 64.5 12s10.5 20.666 10.5 45.999v543c-7.33301 24.667 -20.833 43.667 -40.5 57s-41.5 20 -65.5 20c-36 0 -64.833 -13 -86.5 -39s-32.5 -74.333 -32.5 -145v-33h122v-40
h-122v-364c0 -25.333 4.5 -40.666 13.5 -45.999s36.167 -9 81.5 -11v-29h-264v29c36 2.66699 57.5 6.66699 64.5 12s10.5 20.666 10.5 45.999v363h-225v-364c0 -25.333 4 -40.666 12 -45.999s32.333 -9 73 -11v-29h-254v29c36 2.66699 57.5 6.66699 64.5 12
s10.5 20.666 10.5 45.999v363h-77z" />
    <glyph glyph-name=".notdef" horiz-adv-x="608" 
d="M90 0v692h428v-692h-428zM133 93l147 253l-147 254v-507zM153 43h302l-151 261zM153 649l151 -260l150 260h-301zM328 346l147 -253v507z" />
    <glyph glyph-name=".notdef" horiz-adv-x="608" 
d="M90 0v692h428v-692h-428zM133 93l147 253l-147 254v-507zM153 43h302l-151 261zM153 649l151 -260l150 260h-301zM328 346l147 -253v507z" />
    <glyph glyph-name="space" unicode=" " horiz-adv-x="225" 
 />
    <glyph glyph-name="exclam" unicode="!" horiz-adv-x="242" 
d="M66 640c-2 24.667 0.333008 42 7 52s22.667 15 48 15c26 0 42.333 -5 49 -15s9 -27.333 7 -52l-42 -431h-29zM58 51c0 18.667 5.83398 34.168 17.501 46.501s26.834 18.5 45.501 18.5c19.333 0 34.666 -6.16699 45.999 -18.5s17 -27.833 17 -46.5
c-0.666992 -18.667 -6.5 -33.834 -17.5 -45.501s-26.167 -17.5 -45.5 -17.5c-18.667 0 -33.834 6 -45.501 18s-17.5 27 -17.5 45z" />
    <glyph glyph-name="quotedbl" unicode="&#x22;" horiz-adv-x="458" 
d="M267 689c-4.66699 35.333 10.333 53 45 53s49.667 -17.667 45 -53l-35 -225h-20zM102 689c-4.66699 35.333 10.333 53 45 53s49.667 -17.667 45 -53l-35 -225h-20z" />
    <glyph glyph-name="numbersign" unicode="#" horiz-adv-x="530" 
d="M11 232l12 46h106l33 133h-107l12 46h106l52 211h54l-52 -211h135l52 211h53l-52 -211h104l-10 -46h-105l-33 -133h104l-10 -46h-105l-57 -232h-54l58 232h-135l-57 -232h-55l58 232h-107zM183 278h135l33 133h-135z" />
    <glyph glyph-name="dollar" unicode="$" horiz-adv-x="530" 
d="M44 110c0 14 5.00098 26.002 15.001 36.002s20.333 15 31 15c12 0 21.667 -7.33301 29 -22c32.667 -68 74 -102.667 124 -104v276c-66.667 20 -114.5 45.167 -143.5 75.5s-43.5 66.5 -43.5 108.5c0 54.667 18.333 96.667 55 126s80.667 44.666 132 45.999v76h40v-75
c54.667 -1.33301 97.5 -12.833 128.5 -34.5s46.5 -44.5 46.5 -68.5c0 -13.333 -5.16699 -23.5 -15.5 -30.5s-20.5 -10.5 -30.5 -10.5c-12.667 0 -21.667 6.66699 -27 20c-22.667 56 -56.667 85.667 -102 89v-243c68.667 -19.333 119.834 -45.5 153.501 -78.5
s50.5 -75.833 50.5 -128.5c0 -30.667 -6 -57.834 -18 -81.501s-26.167 -41.667 -42.5 -54s-34.833 -22.333 -55.5 -30s-37.834 -12.5 -51.501 -14.5s-25.834 -3 -36.501 -3v-102h-40v102c-67.333 2 -117.333 15.167 -150 39.5s-49 47.833 -49 70.5zM135.001 522.002
c0 -33.333 9.83301 -58.5 29.5 -75.5s45.834 -30.833 78.501 -41.5v227c-26.667 0 -51.334 -9 -74.001 -27s-34 -45.667 -34 -83zM283.001 35.002c30 -0.666992 56.999 8.16699 80.999 26.5s36 48.5 36 90.5c0 41.333 -10.167 73 -30.5 95s-49.166 39 -86.499 51v-263z" />
    <glyph glyph-name="percent" unicode="%" horiz-adv-x="838" 
d="M50 497c0 58.667 13.168 103.834 39.501 135.501s65.5 47.5 117.5 47.5c43.333 0 80.333 -11.333 111 -34c13.333 -8.66699 27.666 -13 42.999 -13h169c18 1.33301 32.167 4.16602 42.5 8.49902s19.833 12.5 28.5 24.5l24 34l34 -21l-440 -704l-36 27l374 599h-205
c8.66699 -23.333 13 -58 13 -104c0 -58.667 -13.167 -103.834 -39.5 -135.501s-65.833 -47.5 -118.5 -47.5c-52 0 -91.167 15.833 -117.5 47.5s-39.5 76.834 -39.5 135.501zM124.001 497c0 -48 7.33203 -85.167 21.999 -111.5s35 -39.5 61 -39.5
c26.667 0 47.334 13.167 62.001 39.5s22 63.5 22 111.5c0 100.667 -28 151 -84 151c-26 0 -46.333 -12.5 -61 -37.5s-22 -62.833 -22 -113.5zM473 171c0 58.667 13.167 103.834 39.5 135.501s65.5 47.5 117.5 47.5c52.667 0 92.167 -15.833 118.5 -47.5
s39.5 -76.834 39.5 -135.501s-13.167 -103.834 -39.5 -135.501s-65.833 -47.5 -118.5 -47.5c-52 0 -91.167 15.833 -117.5 47.5s-39.5 76.834 -39.5 135.501zM547 171c0 -48 7.33203 -85.167 21.999 -111.5s35 -39.5 61 -39.5c26.667 0 47.334 13.167 62.001 39.5
s22 63.5 22 111.5c0 100.667 -28 151 -84 151c-26 0 -46.333 -12.5 -61 -37.5s-22 -62.833 -22 -113.5z" />
    <glyph glyph-name="ampersand" unicode="&#x26;" horiz-adv-x="706" 
d="M46 176c0 23.333 4 44.835 12 64.502s20.333 37.334 37 53.001s31.5 28.334 44.5 38.001s30.5 21.167 52.5 34.5c-13.333 16.667 -24 31.167 -32 43.5s-15.667 28.666 -23 48.999s-11 41.166 -11 62.499c0 44 15.5 81.5 46.5 112.5s69.833 46.5 116.5 46.5
c42 0 77.167 -12.333 105.5 -37s42.5 -58.334 42.5 -101.001c0 -19.333 -3.5 -36.833 -10.5 -52.5s-18.333 -30 -34 -43s-30.5 -23.833 -44.5 -32.5s-33 -19.334 -57 -32.001c62.667 -76.667 132.667 -150.334 210 -221.001c52 60.667 72.333 145.667 61 255
c26 14.667 51.333 20.334 76 17.001c18.667 -36 22.667 -70.333 12 -103c-19.333 -56 -60.333 -120.667 -123 -194c25.333 -24.667 53.833 -49 85.5 -73s58.167 -39 79.5 -45l-5 -25l-21 2c-72 6 -127.333 24.667 -166 56l-28 22c-64.667 -56.667 -134 -85 -208 -85
c-64 0 -116.333 16.667 -157 50s-61 79.333 -61 138zM143 196.002c0 -46.667 14.334 -84.833 43.001 -114.5s64.667 -44.5 108 -44.5c53.333 0 103.666 20.333 150.999 61c-87.333 78.667 -165 158.667 -233 240c-46 -40 -69 -87.333 -69 -142zM203.001 546.003
c0 -44.667 21.667 -91.334 65 -140.001c61.333 42.667 92 90 92 142c0 28 -6.5 51.167 -19.5 69.5s-31.5 27.5 -55.5 27.5c-22 0 -41.167 -9.16699 -57.5 -27.5s-24.5 -42.166 -24.5 -71.499z" />
    <glyph glyph-name="quotesingle" unicode="'" horiz-adv-x="278" 
d="M94 689c-4.66699 35.333 10.333 53 45 53s49.667 -17.667 45 -53l-35 -225h-20z" />
    <glyph glyph-name="parenleft" unicode="(" horiz-adv-x="350" 
d="M105 282c0 50.667 3.49805 98.168 10.498 142.501s18.167 87.166 33.5 128.499s38 74.333 68 99s66 38 108 40v-25c-17.333 -3.33301 -34.166 -12 -50.499 -26s-32.333 -35 -48 -63s-28.167 -67.333 -37.5 -118s-14 -110 -14 -178s5 -127.667 15 -179
s23 -90.666 39 -117.999s31.833 -48 47.5 -62s31.834 -22.667 48.501 -26v-25c-42 2 -78 15.333 -108 40s-52.667 57.667 -68 99s-26.5 84.166 -33.5 128.499s-10.5 91.833 -10.5 142.5z" />
    <glyph glyph-name="parenright" unicode=")" horiz-adv-x="350" 
d="M25 -103c16.667 3.33301 32.832 11.999 48.499 25.999s31.5 34.667 47.5 62s29 66.666 39 117.999s15 111 15 179s-4.66699 127.333 -14 178s-21.833 90 -37.5 118s-31.667 49 -48 63s-33.166 22.667 -50.499 26v25c42 -2 78 -15.333 108 -40s52.667 -57.667 68 -99
s26.5 -84.166 33.5 -128.499s10.5 -91.833 10.5 -142.5s-3.5 -98.167 -10.5 -142.5s-18.167 -87.166 -33.5 -128.499s-38 -74.333 -68 -99s-66 -38 -108 -40v25z" />
    <glyph glyph-name="asterisk" unicode="*" horiz-adv-x="412" 
d="M57 628c14 20.667 29.9961 23.0039 47.9961 7.00391l76 -64c5.33301 -4.66699 9.33301 -6 12 -4s3 7 1 15l-19 94c-4 20.667 6.33301 31 31 31s35 -10.333 31 -31l-19 -94c-2 -8 -1.66699 -13 1 -15s6.66699 -0.666992 12 4l77 65c18.667 16 34.667 13.333 48 -8
c13.333 -22 9 -37 -13 -45l-96 -38c-6 -2 -10.167 -4.16699 -12.5 -6.5s-2.66602 -4.66602 -0.999023 -6.99902s5.16699 -4.5 10.5 -6.5l96 -39c10.667 -4.66699 17.334 -11.5 20.001 -20.5s0.333984 -18.5 -6.99902 -28.5c-14.667 -20.667 -30.667 -22.334 -48 -5.00098
l-72 69c-6.66699 6 -11.167 7.66699 -13.5 5s-2.83301 -8.33398 -1.5 -17.001l19 -93c6 -26.667 -4.33301 -40 -31 -40s-37 13.333 -31 40l19 93c1.33301 8.66699 0.833008 14.334 -1.5 17.001s-6.83301 1 -13.5 -5l-72 -68c-18 -16.667 -34 -15.334 -48 3.99902
c-14.667 23.333 -10.334 39.666 12.999 48.999l96 39c5.33301 2 8.83301 4.16699 10.5 6.5s1.33398 4.66602 -0.999023 6.99902s-6.5 4.5 -12.5 6.5l-95 37c-23.333 9.33301 -27.666 24.666 -12.999 45.999z" />
    <glyph glyph-name="plus" unicode="+" horiz-adv-x="570" 
d="M43 221v58h208v211h68v-211h208v-58h-208v-221h-68v221h-208z" />
    <glyph glyph-name="comma" unicode="," horiz-adv-x="265" 
d="M51 -122c38.667 42 58.001 80.668 58.001 116.001c0 14.667 -5.5 31.667 -16.5 51s-16.5 34.666 -16.5 45.999c0 14 4.5 25.833 13.5 35.5s20.833 14.5 35.5 14.5c19.333 0 35.5 -8.5 48.5 -25.5s19.5 -38.5 19.5 -64.5c0 -18.667 -3.5 -37 -10.5 -55
s-18.333 -36.333 -34 -55s-27.834 -32.5 -36.501 -41.5s-22.667 -22.5 -42 -40.5z" />
    <glyph glyph-name="hyphen" unicode="-" horiz-adv-x="392" 
d="M74 216v70h245v-70h-245z" />
    <glyph glyph-name="period" unicode="." horiz-adv-x="265" 
d="M70 51c0 18.667 5.83398 34.168 17.501 46.501s26.834 18.5 45.501 18.5c19.333 0 34.666 -6.16699 45.999 -18.5s17 -27.833 17 -46.5c-0.666992 -18.667 -6.5 -33.834 -17.5 -45.501s-26.167 -17.5 -45.5 -17.5c-18.667 0 -33.834 6 -45.501 18s-17.5 27 -17.5 45z" />
    <glyph glyph-name="slash" unicode="/" horiz-adv-x="460" 
d="M92 -15l210 722h67l-210 -722h-67z" />
    <glyph glyph-name="zero" unicode="0" horiz-adv-x="530" 
d="M41 334c0 230.667 74.667 346 224 346s224 -115.333 224 -346s-74.667 -346 -224 -346s-224 115.333 -224 346zM143 334c0 -207.333 40.667 -311 122 -311s122 103.667 122 311s-40.667 311 -122 311s-122 -103.667 -122 -311z" />
    <glyph glyph-name="one" unicode="1" horiz-adv-x="530" 
d="M109 0l0.00195312 29l84 7c11.333 1.33301 19.333 5 24 11c6 6.66699 9 19.334 9 38.001v485c0 14 -1.83301 23.667 -5.5 29s-9.83398 8.66602 -18.501 9.99902l-93 11v25l206 35l5 -6v-589c0 -18 2.66699 -30.333 8 -37s13.666 -10.667 24.999 -12l84 -7v-29h-328z" />
    <glyph glyph-name="two" unicode="2" horiz-adv-x="530" 
d="M27 10c10 40.667 28.501 80.168 55.501 118.501s70.167 83.166 129.5 134.499c49.333 44 85.166 83.333 107.499 118s33.5 76.667 33.5 126c0 92 -33 138 -99 138c-29.333 0 -54 -11.333 -74 -34s-34.333 -52.334 -43 -89.001c-4 -18 -13.667 -27 -29 -27
c-11.333 0 -23.333 4.5 -36 13.5s-19 21.167 -19 36.5c0 30.667 19 60.834 57 90.501s88.333 44.5 151 44.5c58 0 105.333 -14.833 142 -44.5s55 -77.167 55 -142.5c0 -25.333 -3.5 -48 -10.5 -68s-17.833 -38.167 -32.5 -54.5s-30.167 -31.166 -46.5 -44.499
s-36.5 -28.666 -60.5 -45.999l-20 -14c-45.333 -32.667 -82.666 -65.834 -111.999 -99.501s-48 -63.834 -56 -90.501h256c21.333 0 37.666 3.83301 48.999 11.5s22 24.167 32 49.5l28 -5l-34 -132h-414z" />
    <glyph glyph-name="three" unicode="3" horiz-adv-x="530" 
d="M27 102c0 16 5.99805 29.165 17.998 39.498s23.667 15.5 35 15.5c14 0 24 -9.33301 30 -28c10.667 -30.667 26.834 -56 48.501 -76s48.167 -30 79.5 -30c38.667 0 70 12.833 94 38.5s36 66.5 36 122.5c0 46 -12 84.833 -36 116.5s-56.333 47.5 -97 47.5
c-18.667 0 -37.5 -1.66699 -56.5 -5s-29.167 -5 -30.5 -5c-12 0 -18 9.33301 -18 28s6 28 18 28c1.33301 0 11.5 -1.66699 30.5 -5s37.833 -5 56.5 -5c38.667 0 66 13.333 82 40s24 58.334 24 95.001c0 21.333 -2.5 40.666 -7.5 57.999s-15.167 33 -30.5 47
s-35.333 21 -60 21c-53.333 0 -92 -37.333 -116 -112c-4 -13.333 -12.333 -20 -25 -20c-9.33301 0 -19.833 4.5 -31.5 13.5s-17.5 20.5 -17.5 34.5c0 26 17.833 52.333 53.5 79s83.5 40 143.5 40c57.333 0 104 -13.5 140 -40.5s54 -66.833 54 -119.5
c0 -44 -14.667 -78.167 -44 -102.5s-61.666 -39.5 -96.999 -45.5v-4c16 -1.33301 32.833 -5.16602 50.5 -11.499s36 -16 55 -29s34.5 -31.5 46.5 -55.5s18 -51.667 18 -83c0 -63.333 -21 -112.666 -63 -147.999s-99.667 -53 -173 -53c-64 0 -115 12.5 -153 37.5
s-57 50.5 -57 76.5z" />
    <glyph glyph-name="four" unicode="4" horiz-adv-x="530" 
d="M19 200c89.333 151.333 188.667 307.333 298 468h73v-442h103v-47h-103v-102c0 -16.667 2 -27.667 6 -33s12 -8.66602 24 -9.99902l45 -5v-29h-264v29l64 6c12.667 1.33301 21.667 4.66602 27 9.99902s8 16 8 32v102h-272zM91.001 226h209v345h-2
c-84.667 -132.667 -153.667 -247.667 -207 -345z" />
    <glyph glyph-name="five" unicode="5" horiz-adv-x="530" 
d="M40 102c0 15.333 6.00195 27.999 18.002 37.999s23.667 15 35 15c13.333 0 22.666 -8 27.999 -24c25.333 -72 67.333 -108 126 -108c42 0 74 16.667 96 50s33 77 33 131c0 60.667 -13.167 105.667 -39.5 135s-57.833 44 -94.5 44c-50 0 -95.667 -23.667 -137 -71l-24 12
l20 335l10 9h334l5 -8l-24 -68h-249c-10 0 -17 -1.83301 -21 -5.5s-6.66699 -11.5 -8 -23.5l-23 -187l2 -2c16.667 15.333 38.5 28 65.5 38s53.833 15 80.5 15c62 0 112 -18.333 150 -55s57 -89 57 -157c0 -67.333 -20.333 -122 -61 -164s-100.334 -63 -179.001 -63
c-60 0 -108.333 12.333 -145 37s-55 50.334 -55 77.001z" />
    <glyph glyph-name="six" unicode="6" horiz-adv-x="530" 
d="M44 309c0 122 22.332 214.332 66.999 276.999s107.667 94 189 94c54 0 95.667 -11.667 125 -35s44 -47.333 44 -72c0 -13.333 -5.83301 -24.166 -17.5 -32.499s-23.5 -12.5 -35.5 -12.5c-14 0 -22.667 7 -26 21c-8 29.333 -20 52.666 -36 69.999s-35 26 -57 26
c-47.333 0 -84.666 -25.167 -111.999 -75.5s-41.333 -128.166 -42 -233.499h2c46.667 57.333 101 86 163 86c55.333 0 101 -18.333 137 -55s54 -87.667 54 -153c0 -69.333 -19.667 -124.333 -59 -165s-95.333 -61 -168 -61c-152 0 -228 107 -228 321zM144.999 235.999
c0 -62.667 10.999 -113.833 32.999 -153.5s54 -59.5 96 -59.5c40.667 0 71.667 15.833 93 47.5s32 74.5 32 128.5c0 54.667 -12.333 97 -37 127s-54 45 -88 45c-39.333 0 -70.666 -14 -93.999 -42s-35 -59 -35 -93z" />
    <glyph glyph-name="seven" unicode="7" horiz-adv-x="530" 
d="M41 528l30.998 139.999h416l9 -11c-8 -29.333 -18.167 -58 -30.5 -86s-23.5 -50.5 -33.5 -67.5l-43.5 -71.5c-19 -30.667 -33.833 -55.667 -44.5 -75c-54.667 -96 -79.667 -206.333 -75 -331c0.666992 -14 -3.33301 -23.833 -12 -29.5s-21 -8.5 -37 -8.5
c-36 0 -54 13.667 -54 41c0 55.333 12.167 111.333 36.5 168s59.833 118.334 106.5 185.001c56 80 92.333 150 109 210h-270c-21.333 0 -36.666 -3.33301 -45.999 -10s-17.666 -17.667 -24.999 -33l-10 -21h-27z" />
    <glyph glyph-name="eight" unicode="8" horiz-adv-x="530" 
d="M42 182c0 48 12.835 87.167 38.502 117.5s56.834 49.833 93.501 58.5v3c-32 8.66699 -58.333 25.834 -79 51.501s-31 58.167 -31 97.5c0 52.667 18.667 94.167 56 124.5s85.666 45.5 144.999 45.5s107.666 -15.167 144.999 -45.5s56 -71.833 56 -124.5
c0 -39.333 -10.333 -71.833 -31 -97.5s-47 -42.834 -79 -51.501v-3c37.333 -8.66699 68.666 -28.167 93.999 -58.5s38 -69.5 38 -117.5c0 -56 -18.167 -102.333 -54.5 -139s-92.5 -55 -168.5 -55s-132.167 18.333 -168.5 55s-54.5 83 -54.5 139zM142.002 179
c0 -46.667 10.502 -84.334 31.502 -113.001s51.5 -43 91.5 -43s70.5 14.333 91.5 43s31.5 66.334 31.5 113.001c0 47.333 -10.833 85.666 -32.5 114.999s-51.834 44 -90.501 44s-68.834 -14.667 -90.501 -44s-32.5 -67.666 -32.5 -114.999zM161.004 512
c0 -37.333 8.83301 -69.666 26.5 -96.999s43.5 -41 77.5 -41s59.833 13.667 77.5 41s26.5 59.666 26.5 96.999c0 40 -9 72.167 -27 96.5s-43.667 36.5 -77 36.5s-59 -12.167 -77 -36.5s-27 -56.5 -27 -96.5z" />
    <glyph glyph-name="nine" unicode="9" horiz-adv-x="530" 
d="M36 457c0 68 20.499 122.166 61.499 162.499s93.833 60.5 158.5 60.5c66.667 0 119 -22.333 157 -67c42.667 -51.333 64 -135.333 64 -252c0 -132 -22 -228.667 -66 -290c-40 -55.333 -100.333 -83 -181 -83c-55.333 0 -98.166 11 -128.499 33s-45.5 46 -45.5 72
c0 14.667 5.16699 26.834 15.5 36.501s20.833 14.5 31.5 14.5c14.667 0 24 -7 28 -21c9.33301 -30 22 -54.167 38 -72.5s39.333 -27.5 70 -27.5c56.667 0 95.667 38.667 117 116c15.333 58.667 23 129.667 23 213h-2c-38.667 -56 -88 -84 -148 -84
c-54.667 0 -100.5 16.5 -137.5 49.5s-55.5 79.5 -55.5 139.5zM135.999 484.999c0 -48.667 11 -88.1689 33 -118.502s52 -45.5 90 -45.5c26 0 48.5 7.16699 67.5 21.5s32.5 33.5 40.5 57.5c4.66699 12.667 7 30.334 7 53.001c0 52.667 -10.333 97.834 -31 135.501
s-50 56.5 -88 56.5s-67.333 -14.833 -88 -44.5s-31 -68.167 -31 -115.5z" />
    <glyph glyph-name="colon" unicode=":" horiz-adv-x="265" 
d="M70 425c0 18.667 5.83398 34.168 17.501 46.501s26.834 18.5 45.501 18.5c19.333 0 34.666 -6.16699 45.999 -18.5s17 -27.833 17 -46.5c-0.666992 -18.667 -6.5 -33.834 -17.5 -45.501s-26.167 -17.5 -45.5 -17.5c-18.667 0 -33.834 6 -45.501 18s-17.5 27 -17.5 45z
M70.001 51.001c0 18.667 5.83398 34.168 17.501 46.501s26.834 18.5 45.501 18.5c19.333 0 34.666 -6.16699 45.999 -18.5s17 -27.833 17 -46.5c-0.666992 -18.667 -6.5 -33.834 -17.5 -45.501s-26.167 -17.5 -45.5 -17.5c-18.667 0 -33.834 6 -45.501 18s-17.5 27 -17.5 45
z" />
    <glyph glyph-name="semicolon" unicode=";" horiz-adv-x="265" 
d="M70 425c0 18.667 5.83398 34.168 17.501 46.501s26.834 18.5 45.501 18.5c19.333 0 34.666 -6.16699 45.999 -18.5s17 -27.833 17 -46.5c-0.666992 -18.667 -6.5 -33.834 -17.5 -45.501s-26.167 -17.5 -45.5 -17.5c-18.667 0 -33.834 6 -45.501 18s-17.5 27 -17.5 45z
M51.001 -121.999c38.667 42 58.001 80.668 58.001 116.001c0 14.667 -5.5 31.667 -16.5 51s-16.5 34.666 -16.5 45.999c0 14 4.5 25.833 13.5 35.5s20.833 14.5 35.5 14.5c19.333 0 35.5 -8.5 48.5 -25.5s19.5 -38.5 19.5 -64.5c0 -18.667 -3.5 -37 -10.5 -55
s-18.333 -36.333 -34 -55s-27.834 -32.5 -36.501 -41.5s-22.667 -22.5 -42 -40.5z" />
    <glyph glyph-name="less" unicode="&#x3c;" horiz-adv-x="570" 
d="M46 210v80l478 209v-69l-419 -180l419 -180v-69z" />
    <glyph glyph-name="equal" unicode="=" horiz-adv-x="570" 
d="M43 111v58h484v-58h-484zM43 331v58h484v-58h-484z" />
    <glyph glyph-name="greater" unicode="&#x3e;" horiz-adv-x="570" 
d="M46 1v69l419 180l-419 180v69l478 -209v-80z" />
    <glyph glyph-name="question" unicode="?" horiz-adv-x="389" 
d="M29 591c0 24 14.166 49.3301 42.499 75.9971s71.5 40 129.5 40c46.667 0 84.667 -11.667 114 -35s44 -57 44 -101c0 -8 -0.666992 -15.667 -2 -23s-2.83301 -13.833 -4.5 -19.5s-4.33398 -11.667 -8.00098 -18l-9 -16c-2.33301 -4.33301 -6.33301 -9.16602 -12 -14.499
s-9.66699 -9.33301 -12 -12s-6.66602 -6.5 -12.999 -11.5s-10.5 -8.16699 -12.5 -9.5l-12.5 -8.5c-6.33301 -4.33301 -9.83301 -6.83301 -10.5 -7.5c-50.667 -35.333 -76 -73.666 -76 -114.999c0 -24 7.66699 -42.167 23 -54.5s30.333 -18.5 45 -18.5
c10.667 0 20.667 1.33301 30 4l8 -20c-22.667 -18.667 -54.667 -28 -96 -28c-28.667 0 -53.667 8.66699 -75 26s-32 41 -32 71c0 22 5.83301 41 17.5 57s32.834 36 63.501 60c24.667 18.667 45.667 42.334 63 71.001s26 57.667 26 87c0 67.333 -21.333 101 -64 101
c-41.333 0 -68.666 -35.667 -81.999 -107c-2.66699 -16 -13.334 -24 -32.001 -24c-11.333 0 -23 4.16699 -35 12.5s-18 20.833 -18 37.5zM127.999 49.9971c0 18.667 5.83301 33.834 17.5 45.501s26.5 17.5 44.5 17.5s32.833 -5.83301 44.5 -17.5s17.5 -26.834 17.5 -45.501
c0 -18 -5.83301 -32.833 -17.5 -44.5s-26.5 -17.5 -44.5 -17.5s-32.833 5.83301 -44.5 17.5s-17.5 26.5 -17.5 44.5z" />
    <glyph glyph-name="at" unicode="@" horiz-adv-x="793" 
d="M46 303c0 81.333 19.5 153.333 58.5 216s88.667 109.667 149 141s125.5 47 195.5 47c92.667 0 166.834 -28 222.501 -84s83.5 -125.667 83.5 -209c0 -67.333 -22.5 -124.5 -67.5 -171.5s-97.5 -70.5 -157.5 -70.5c-46.667 0 -70 21 -70 63c0 21.333 4.66699 46 14 74
l-2 1c-18 -32 -44.167 -63 -78.5 -93s-69.166 -45 -104.499 -45c-18 0 -33.5 6.5 -46.5 19.5s-19.5 34.167 -19.5 63.5c0 16 3 35.167 9 57.5s15.667 46.5 29 72.5s29.333 49.833 48 71.5s42.5 39.834 71.5 54.501s60.5 22 94.5 22c20 0 38.333 -4.33301 55 -13l4 8h65
l-66 -258c-2.66699 -8.66699 -4 -17.334 -4 -26.001c0 -22.667 12.667 -34 38 -34c34 0 65.5 20.5 94.5 61.5s43.5 86.833 43.5 137.5c0 80.667 -23.833 143.667 -71.5 189s-108.5 68 -182.5 68c-64.667 0 -122.334 -17.333 -173.001 -52s-89 -79 -115 -133
s-39 -112 -39 -174c0 -33.333 4.83301 -65.5 14.5 -96.5s25 -61 46 -90s51.333 -52.333 91 -70s86.167 -26.5 139.5 -26.5c64 0 120.333 10.333 169 31l8 -25c-54.667 -30 -123 -45 -205 -45c-42.667 0 -84 6.66699 -124 20s-76.333 32.5 -109 57.5
s-58.834 58.333 -78.501 100s-29.5 88.5 -29.5 140.5zM305 270c0 -34 11.3311 -51 33.998 -51c32.667 0 68.834 31.833 108.501 95.5s64.834 122.167 75.501 175.5c-14 9.33301 -29.667 14 -47 14c-24.667 0 -48.167 -9.16699 -70.5 -27.5s-40.5 -40.5 -54.5 -66.5
s-25.167 -51.833 -33.5 -77.5s-12.5 -46.5 -12.5 -62.5z" />
    <glyph glyph-name="A" unicode="A" horiz-adv-x="635" 
d="M-29 0l-0.00195312 29.002c30.667 1.33301 51.167 6.16602 61.5 14.499s20.833 26.5 31.5 54.5c16.667 42.667 52.667 142 108 298l105 296h74l212 -603c8.66699 -25.333 17.834 -41 27.501 -47s29.5 -10.333 59.5 -13v-29h-256v29l45 4
c16 1.33301 25.833 5.16602 29.5 11.499s2.83398 16.833 -2.49902 31.5l-67 191h-224c-33.333 -104 -53.666 -168.333 -60.999 -193c-4.66699 -13.333 -5.33398 -23 -2.00098 -29s12.333 -9.66699 27 -11l52 -5v-29h-220zM187.998 305.002h199l-99 286h-3z" />
    <glyph glyph-name="B" unicode="B" horiz-adv-x="646" 
d="M35 0v28.999c44 2.66699 70 7 78 13s12 23 12 51v506c0 28 -4 45 -12 51s-34 10.333 -78 13v29h289c82 0 141 -12 177 -36c41.333 -28 62 -69 62 -123c0 -38.667 -13.167 -71.667 -39.5 -99s-62.833 -45.666 -109.5 -54.999v-2
c53.333 -7.33301 96.833 -25.833 130.5 -55.5s50.5 -72.167 50.5 -127.5c0 -129.333 -83.333 -194 -250 -194h-310zM224 111.999c0 -31.333 6.16699 -51.999 18.5 -61.999s38.166 -15 77.499 -15c112 0 168 50.667 168 152c0 53.333 -16.667 94.666 -50 123.999
s-80.666 44 -141.999 44h-72v-243zM224 390l67 -0.000976562c111.333 0 167 45.667 167 137c0 24.667 -4.5 45.834 -13.5 63.501s-21.167 31.167 -36.5 40.5s-31.333 16 -48 20s-35 6 -55 6c-38 0 -61 -2.83301 -69 -8.5s-12 -19.5 -12 -41.5v-217z" />
    <glyph glyph-name="C" unicode="C" horiz-adv-x="684" 
d="M48 341c0 107.333 30.3369 194.999 91.0039 262.999c61.333 68.667 155.333 103 282 103c85.333 0 156 -13 212 -39v-156h-30c-17.333 106.667 -81.333 160 -192 160c-44.667 0 -83.667 -9.16699 -117 -27.5s-59.5 -43.5 -78.5 -75.5s-33 -66.667 -42 -104
s-13.5 -77.666 -13.5 -120.999c0 -27.333 2 -54.333 6 -81s11.667 -55 23 -85s25.833 -56.333 43.5 -79s41.667 -41.5 72 -56.5s65.166 -22.5 104.499 -22.5c61.333 0 107.833 15.5 139.5 46.5s55.167 75.5 70.5 133.5h30l-14 -167
c-24.667 -13.333 -57.834 -24.666 -99.501 -33.999s-81.834 -14 -120.501 -14c-124.667 0 -215.334 28.333 -272.001 85c-63.333 63.333 -95 153.666 -95 270.999z" />
    <glyph glyph-name="D" unicode="D" horiz-adv-x="779" 
d="M35 0l-0.00195312 29.001c44 2.66699 70 7 78 13s12 23 12 51v506c0 28 -4 45 -12 51s-34 10.333 -78 13v29h332c56 0 105.667 -6.5 149 -19.5s78.333 -29.833 105 -50.5s48.5 -45.834 65.5 -75.501s28.667 -59.667 35 -90s9.5 -63.166 9.5 -98.499
c0 -48.667 -5.83301 -92.834 -17.5 -132.501s-31.167 -77.167 -58.5 -112.5s-67.166 -63 -119.499 -83s-115.166 -30 -188.499 -30h-312zM223.998 125.001c0 -38.667 6.33398 -63.333 19.001 -74s41 -16 85 -16c44.667 0 83.667 5 117 15s63.666 26.5 90.999 49.5
s48 55.833 62 98.5s21 94.667 21 156c0 202 -93 303 -279 303c-53.333 0 -86 -3 -98 -9s-18 -22 -18 -48v-475z" />
    <glyph glyph-name="E" unicode="E" horiz-adv-x="606" 
d="M35 0l-0.000976562 28.998c44 2.66699 70 7 78 13s12 23 12 51v506c0 28 -4 45 -12 51s-34 10.333 -78 13v29h505v-164h-30c-7.33301 52.667 -20.333 87.334 -39 104.001s-56 25 -112 25h-98c-16 0 -26.167 -2 -30.5 -6s-6.5 -14 -6.5 -30v-242h140
c21.333 0 38 1.33301 50 4s21.167 8.16699 27.5 16.5s10.666 16.666 12.999 24.999s4.83301 21.833 7.5 40.5h30v-211h-30c-2.66699 19.333 -5.16699 33 -7.5 41s-6.66602 16.333 -12.999 25s-15.5 14.334 -27.5 17.001s-28.667 4 -50 4h-140v-221
c0 -25.333 1.66699 -43 5 -53s10 -17.333 20 -22c17.333 -6.66699 52 -10 104 -10c66.667 0 112.834 8.33301 138.501 25s44.167 54.334 55.5 113.001h30l-12 -173h-530z" />
    <glyph glyph-name="F" unicode="F" horiz-adv-x="580" 
d="M35 0v29.001c44 2.66699 70 7 78 13s12 23 12 51v506c0 28 -4 45 -12 51s-34 10.333 -78 13v29h508v-160h-30c-7.33301 52 -20.333 85.833 -39 101.5s-56.667 23.5 -114 23.5h-99c-16.667 0 -27 -1.83301 -31 -5.5s-6 -13.834 -6 -30.501v-256h140
c21.333 0 38 1.33301 50 4s21.167 8.33398 27.5 17.001s10.666 17.167 12.999 25.5s4.83301 22.166 7.5 41.499h30v-214h-30c-2.66699 19.333 -5.16699 33.166 -7.5 41.499s-6.66602 16.833 -12.999 25.5s-15.5 14.334 -27.5 17.001s-28.667 4 -50 4h-140v-234
c0 -28 4.83301 -45 14.5 -51s40.167 -10.333 91.5 -13v-29h-295z" />
    <glyph glyph-name="G" unicode="G" horiz-adv-x="734" 
d="M48 333c0 101.333 25 184.996 75 250.996c63.333 82 165.666 123 306.999 123c87.333 0 159 -13.667 215 -41v-157h-30c-20 108.667 -85 163 -195 163c-38 0 -72.167 -6.16699 -102.5 -18.5s-55.166 -28.833 -74.499 -49.5s-35.333 -45.167 -48 -73.5
s-21.667 -57.333 -27 -87s-8 -61.167 -8 -94.5c0 -28 2 -55.5 6 -82.5s12 -56 24 -87s27.667 -57.833 47 -80.5s45.833 -41.5 79.5 -56.5s72.5 -22.5 116.5 -22.5c32.667 0 62 5 88 15c11.333 4.66699 19.833 10.667 25.5 18s8.5 19.333 8.5 36v135c0 18 -2 30.333 -6 37
s-12.833 11.834 -26.5 15.501s-38.167 6.83398 -73.5 9.50098v29h276v-29c-32.667 -3.33301 -52.667 -8.16602 -60 -14.499s-11 -22.166 -11 -47.499v-197c-88 -28 -164.667 -42 -230 -42c-106.667 0 -190.667 21.333 -252 64c-37.333 26.667 -67.333 65 -90 115
s-34 106.333 -34 169z" />
    <glyph glyph-name="H" unicode="H" horiz-adv-x="798" 
d="M35 0v29c44 2.66699 70 7 78 13s12 23 12 51v506c0 28 -4 45 -12 51s-34 10.333 -78 13v29h279v-29c-43.333 -3.33301 -69.166 -7.83301 -77.499 -13.5s-12.5 -22.5 -12.5 -50.5v-220h350v220c0 28 -4 45 -12 51s-34 10.333 -78 13v29h279v-29
c-43.333 -3.33301 -69.166 -7.83301 -77.499 -13.5s-12.5 -22.5 -12.5 -50.5v-506c0 -28 4.16699 -44.833 12.5 -50.5s34.166 -10.167 77.499 -13.5v-29h-279v29c44 2.66699 70 7 78 13s12 23 12 51v248h-350v-248c0 -28 4.16699 -44.833 12.5 -50.5
s34.166 -10.167 77.499 -13.5v-29h-279z" />
    <glyph glyph-name="I" unicode="I" horiz-adv-x="349" 
d="M35 0v29c44 2.66699 70 7 78 13s12 23 12 51v506c0 28 -4 45 -12 51s-34 10.333 -78 13v29h279v-29c-43.333 -3.33301 -69.166 -7.83301 -77.499 -13.5s-12.5 -22.5 -12.5 -50.5v-506c0 -28 4.16699 -44.833 12.5 -50.5s34.166 -10.167 77.499 -13.5v-29h-279z" />
    <glyph glyph-name="J" unicode="J" horiz-adv-x="350" 
d="M0 -89c42 10.667 72.998 27.999 92.998 51.999c27.333 33.333 41 91.333 41 174v462c0 28 -4 45 -12 51s-34 10.333 -78 13v29h279v-29c-43.333 -3.33301 -69.166 -7.83301 -77.499 -13.5s-12.5 -22.5 -12.5 -50.5v-456c0 -59.333 -6.66699 -107.166 -20 -143.499
s-40.666 -63.833 -81.999 -82.5c-40 -18.667 -82 -29 -126 -31z" />
    <glyph glyph-name="K" unicode="K" horiz-adv-x="658" 
d="M35 0l-0.000976562 29c44 2.66699 70 7 78 13s12 23 12 51v506c0 28 -4 45 -12 51s-34 10.333 -78 13v29h279v-29c-43.333 -3.33301 -69.166 -7.83301 -77.499 -13.5s-12.5 -22.5 -12.5 -50.5v-236c110 113.333 191 199 243 257c20.667 24.667 20.334 38 -0.999023 40
l-38 3v29h243v-29c-41.333 -2.66699 -71.166 -7.66699 -89.499 -15s-40.833 -23 -67.5 -47c-66.667 -58 -134.667 -125.333 -204 -202c62.667 -94 143 -193.333 241 -298c45.333 -48 84 -75.333 116 -82v-24l-63 3c-66.667 2 -124.334 30.667 -173.001 86
c-70.667 80 -138.667 169.667 -204 269l-1 4h-2v-264c0 -28 4.16699 -44.833 12.5 -50.5s34.166 -10.167 77.499 -13.5v-29h-279z" />
    <glyph glyph-name="L" unicode="L" horiz-adv-x="568" 
d="M35 0l0.000976562 29.001c44 2.66699 70 7 78 13s12 23 12 51v506c0 28 -4 45 -12 51s-34 10.333 -78 13v29h285v-29c-46.667 -3.33301 -74.334 -7.83301 -83.001 -13.5s-13 -22.5 -13 -50.5v-479c0 -25.333 1.66699 -43 5 -53s10 -17.333 20 -22
c17.333 -6.66699 53 -10 107 -10c58.667 0 101 8.66699 127 26s43.667 56.666 53 117.999h30l-12 -179h-519z" />
    <glyph glyph-name="M" unicode="M" horiz-adv-x="944" 
d="M34 0l0.00195312 29.001c29.333 2 49.666 6 60.999 12s18.333 18.667 21 38c4.66699 30.667 7 72 7 124v396c0 28 -4 45 -12 51s-34 10.333 -78 13v29h203l35.5 -84l43.5 -98l38 -84l118 -267h2l120 268c57.333 126.667 95.666 215 114.999 265h201v-29
c-43.333 -3.33301 -69.166 -7.83301 -77.499 -13.5s-12.5 -22.5 -12.5 -50.5v-506c0 -28 4.16699 -44.833 12.5 -50.5s34.166 -10.167 77.499 -13.5v-29h-279v29c44 2.66699 70 7 78 13s12 23 12 51v507h-3l-261 -588h-27l-258 588h-2v-397c0 -52 2.33301 -93.333 7 -124
c2.66699 -19.333 10.167 -31.833 22.5 -37.5s36.5 -9.83398 72.5 -12.501v-29h-237z" />
    <glyph glyph-name="N" unicode="N" horiz-adv-x="780" 
d="M35 0v29c29.333 2 49.666 6 60.999 12s18.333 18.667 21 38c4.66699 30.667 7 72 7 124v396c0 28 -4 45 -12 51s-34 10.333 -78 13v29h192l390 -552l2 -2v351c0 52 -2.33301 93.333 -7 124c-2.66699 19.333 -10.167 31.833 -22.5 37.5s-36.5 9.83398 -72.5 12.501v29h237
v-29c-29.333 -2 -49.666 -6 -60.999 -12s-18.333 -18.667 -21 -38c-4.66699 -30.667 -7 -72 -7 -124v-489h-66l-426 602h-2v-399c0 -52 2.33301 -93.333 7 -124c2.66699 -19.333 10.167 -31.833 22.5 -37.5s36.5 -9.83398 72.5 -12.501v-29h-237z" />
    <glyph glyph-name="O" unicode="O" 
d="M48 346c0 113.333 28.333 201.333 85 264c57.333 64.667 140 97 248 97s190.667 -32.333 248 -97c56.667 -62.667 85 -150.667 85 -264s-28.333 -201.333 -85 -264c-57.333 -64.667 -140 -97 -248 -97s-190.667 32.333 -248 97c-56.667 62.667 -85 150.667 -85 264z
M160 346c0 -40.667 3.33301 -78.667 10 -114s17.667 -69.666 33 -102.999s38.166 -59.833 68.499 -79.5s66.833 -29.5 109.5 -29.5s79.167 9.83301 109.5 29.5s53.166 46.167 68.499 79.5s26.333 67.666 33 102.999s10 73.333 10 114s-3.33301 78.667 -10 114
s-17.667 69.666 -33 102.999s-38.166 59.833 -68.499 79.5s-66.833 29.5 -109.5 29.5s-79.167 -9.83301 -109.5 -29.5s-53.166 -46.167 -68.499 -79.5s-26.333 -67.666 -33 -102.999s-10 -73.333 -10 -114z" />
    <glyph glyph-name="P" unicode="P" horiz-adv-x="600" 
d="M35 0l-0.000976562 29c44 2.66699 70 7 78 13s12 23 12 51v506c0 28 -4 45 -12 51s-34 10.333 -78 13v29h279c78.667 0 139.334 -13.333 182.001 -40c52 -32.667 78 -84.667 78 -156c0 -56.667 -16 -101 -48 -133s-71 -54 -117 -66c-35.333 -8.66699 -78 -13 -128 -13
h-57v-191c0 -28 4.83301 -45 14.5 -51s40.167 -10.333 91.5 -13v-29h-295zM223.999 358c0 -18 4.5 -29 13.5 -33s29.167 -6 60.5 -6c48 0 88 13.833 120 41.5s48 70.5 48 128.5c0 54 -14.667 95.5 -44 124.5s-70 43.5 -122 43.5c-31.333 0 -51.833 -2.5 -61.5 -7.5
s-14.5 -14.833 -14.5 -29.5v-262z" />
    <glyph glyph-name="Q" unicode="Q" 
d="M48 346c0 113.333 28.333 201.332 85 263.999c57.333 64.667 140 97 248 97s190.667 -32.333 248 -97c56.667 -62 85 -150 85 -264s-28.333 -202 -85 -264c-43.333 -48.667 -99.666 -78.667 -168.999 -90c13.333 -24 32.666 -49.667 57.999 -77
c45.333 -49.333 88.666 -74 129.999 -74c10.667 0 19.334 0.333008 26.001 1l3 -16c-20.667 -12.667 -48.667 -19 -84 -19c-52 0 -100.167 16.333 -144.5 49s-79.833 76.334 -106.5 131.001c-89.333 6 -159 37.667 -209 95c-56.667 62.667 -85 150.667 -85 264zM160 345.999
c0 -40.667 3.33301 -78.667 10 -114s17.667 -69.666 33 -102.999s38.166 -59.833 68.499 -79.5s66.833 -29.5 109.5 -29.5s79.167 9.83301 109.5 29.5s53.166 46.167 68.499 79.5s26.333 67.666 33 102.999s10 73.333 10 114s-3.33301 78.667 -10 114
s-17.667 69.666 -33 102.999s-38.166 59.833 -68.499 79.5s-66.833 29.5 -109.5 29.5s-79.167 -9.83301 -109.5 -29.5s-53.166 -46.167 -68.499 -79.5s-26.333 -67.666 -33 -102.999s-10 -73.333 -10 -114z" />
    <glyph glyph-name="R" unicode="R" horiz-adv-x="644" 
d="M35 0l-0.00195312 29c44 2.66699 70 7 78 13s12 23 12 51v506c0 28 -4 45 -12 51s-34 10.333 -78 13v29h292c82.667 0 142.5 -15.5 179.5 -46.5s55.5 -72.5 55.5 -124.5c0 -46 -15 -84.5 -45 -115.5s-69.333 -51.167 -118 -60.5v-2c48.667 -12 81.667 -32.167 99 -60.5
s29.666 -68.833 36.999 -121.5c5.33301 -40.667 15 -72 29 -94s38.667 -34.667 74 -38v-29h-81c-61.333 0 -98.666 28.667 -111.999 86c-4 16.667 -9.33301 44.167 -16 82.5s-11 61.833 -13 70.5c-14.667 58 -55.667 87 -123 87h-69v-233c0 -29.333 1 -45.333 3 -48
c0.666992 -2 1.83398 -3.5 3.50098 -4.5s3.83398 -2 6.50098 -3s5.16699 -1.83301 7.5 -2.5s6 -1.33398 11 -2.00098s9 -1.16699 12 -1.5s8 -0.666016 15 -0.999023s12.5 -0.833008 16.5 -1.5v-29h-264zM223.998 361h79c101.333 0 152 50.333 152 151
c0 53.333 -15.167 90.833 -45.5 112.5s-67.833 32.5 -112.5 32.5c-32 0 -52.167 -3 -60.5 -9s-12.5 -19.667 -12.5 -41v-246z" />
    <glyph glyph-name="S" unicode="S" horiz-adv-x="541" 
d="M50 205h31.9971c12.667 -57.333 34.5 -102.5 65.5 -135.5s69.5 -49.5 115.5 -49.5c44.667 0 79.834 12.333 105.501 37s38.5 58.334 38.5 101.001c0 27.333 -9.16699 52.5 -27.5 75.5s-36.5 39.5 -54.5 49.5s-37 19 -57 27l-18 7
c-59.333 20.667 -105.666 46.5 -138.999 77.5s-50 70.833 -50 119.5c0 62.667 22 110.5 66 143.5s98.667 49.5 164 49.5c76.667 0 133.334 -14.667 170.001 -44v-141h-31c-16 100 -66 150 -150 150c-40.667 0 -72.167 -11.667 -94.5 -35s-33.5 -54 -33.5 -92
c0 -28 11.333 -53 34 -75s52.334 -39.667 89.001 -53l32 -12c64.667 -24 113.667 -52.333 147 -85s50 -76.667 50 -132c0 -56.667 -20.5 -104.667 -61.5 -144s-102.833 -59 -185.5 -59c-37.333 0 -74.333 5.16699 -111 15.5s-65.334 25.166 -86.001 44.499z" />
    <glyph glyph-name="T" unicode="T" horiz-adv-x="621" 
d="M22 526v166h577v-166h-30c-6 55.333 -18 91 -36 107s-56 24 -114 24h-59v-564c0 -28 5 -45 15 -51s41.667 -10.333 95 -13v-29h-319v29c53.333 2.66699 85 7 95 13s15 23 15 51v564h-59c-58 0 -96 -8 -114 -24s-30 -51.667 -36 -107h-30z" />
    <glyph glyph-name="U" unicode="U" horiz-adv-x="791" 
d="M29 663l-0.000976562 28.999h279v-29c-43.333 -3.33301 -69.166 -7.83301 -77.499 -13.5s-12.5 -22.5 -12.5 -50.5v-324c0 -90 15 -155 45 -195c31.333 -40 75.333 -60 132 -60c57.333 0 101.666 20 132.999 60c30 40 45 105 45 195v324c0 28 -4 45 -12 51
s-34 10.333 -78 13v29h279v-29c-43.333 -3.33301 -69.166 -7.83301 -77.499 -13.5s-12.5 -22.5 -12.5 -50.5v-344c0 -61.333 -9 -110.666 -27 -147.999c-38 -81.333 -121.333 -122 -250 -122c-128 0 -211 40.667 -249 122c-18 36 -27 84.667 -27 146v346c0 28 -4 45 -12 51
s-34 10.333 -78 13z" />
    <glyph glyph-name="V" unicode="V" horiz-adv-x="634" 
d="M-18 663l0.000976562 29.001h258v-29l-52 -5c-12 -0.666992 -19.167 -3.66699 -21.5 -9s-1.5 -14.333 2.5 -27l88 -255l93 -257l2 -2l104 287c43.333 121.333 69.333 198.666 78 231.999c3.33301 9.33301 3.5 16.666 0.5 21.999s-10.5 8.33301 -22.5 9l-55 5v29h221v-29
c-28.667 -1.33301 -47.834 -4.66602 -57.501 -9.99902s-19.5 -19.333 -29.5 -42c-24.667 -54 -59.667 -142.667 -105 -266l-128 -345h-71l-113 320c-31.333 90 -66 184.667 -104 284c-10 26 -20 42 -30 48s-29.333 9.66699 -58 11z" />
    <glyph glyph-name="W" unicode="W" horiz-adv-x="940" 
d="M-13 663v28.999h251v-29l-50 -5c-12 -1.33301 -19.5 -4.33301 -22.5 -9s-2.5 -15.334 1.5 -32.001c50.667 -200 96 -365.667 136 -497h2l153 554h75l169 -554h3l74 286c31.333 118.667 49 189.667 53 213c4.66699 22.667 -2.66602 35.334 -21.999 38.001l-62 6v29h229
v-29c-32 -2 -53 -6.5 -63 -13.5s-20 -24.833 -30 -53.5c-4 -10 -27 -89.667 -69 -239l-100 -357h-76c-54.667 192 -110.334 376.667 -167.001 554h-2l-157 -554h-77l-85 319c-18.667 70 -45 163 -79 279c-8 28.667 -16.5 46.334 -25.5 53.001s-28.833 10.667 -59.5 12z" />
    <glyph glyph-name="X" unicode="X" horiz-adv-x="624" 
d="M-19 0l0.000976562 29.002c32.667 3.33301 54.5 7.66602 65.5 12.999s24.833 19 41.5 41c16 21.333 47 66.333 93 135l86 127l-160 255c-17.333 27.333 -32 44.5 -44 51.5s-33.667 10.833 -65 11.5v29h258v-29l-48 -5c-18.667 -2 -21.667 -13.333 -9 -34l125 -196h2
c50.667 73.333 93.667 139.333 129 198c12 20 9 31 -9 33l-48 4v29h221v-29c-30 -1.33301 -51.333 -5.33301 -64 -12s-29.667 -23 -51 -49c-46.667 -57.333 -98.667 -128.333 -156 -213l196 -303c14.667 -22.667 28.167 -37.167 40.5 -43.5s36.5 -10.833 72.5 -13.5v-29
h-284v29l55 6c21.333 2 26.666 11.667 15.999 29l-152 241h-2c-56 -86.667 -104.333 -167.334 -145 -242.001c-10 -16 -6.33301 -25 11 -27l64 -7v-29h-239z" />
    <glyph glyph-name="Y" unicode="Y" horiz-adv-x="588" 
d="M-12 663l0.00195312 29.001h259v-29l-59 -6c-15.333 -2 -19 -12 -11 -30c41.333 -90.667 92.666 -191.334 153.999 -302.001h2c75.333 147.333 124 247.666 146 300.999c8 19.333 4 30 -12 32l-54 5v29h219v-29c-32.667 -1.33301 -54.167 -5.5 -64.5 -12.5
s-24.5 -24.833 -42.5 -53.5c-38 -61.333 -90.333 -158.666 -157 -291.999c-8.66699 -17.333 -13 -37 -13 -59v-153c0 -28 4.83301 -45 14.5 -51s40.167 -10.333 91.5 -13v-29h-311v29c51.333 2.66699 81.833 7 91.5 13s14.5 23 14.5 51v149c0 19.333 -5 38.666 -15 57.999
c-42 84.667 -96.667 189 -164 313c-10.667 20.667 -21.334 33.834 -32.001 39.501s-29.667 9.16699 -57 10.5z" />
    <glyph glyph-name="Z" unicode="Z" horiz-adv-x="610" 
d="M9 13l446.999 644h-179c-68 0 -112.5 -8.33301 -133.5 -25s-34.5 -54 -40.5 -112h-32v172h511l6 -13l-447 -644h202c80 0 134.333 8.66699 163 26s47.334 56.333 56.001 117h32l-10 -178h-570z" />
    <glyph glyph-name="bracketleft" unicode="[" horiz-adv-x="330" 
d="M133 -128v820h159v-27c-44.667 -2 -71.834 -5.83301 -81.501 -11.5s-14.5 -20.167 -14.5 -43.5v-656c0 -23.333 4.83301 -37.833 14.5 -43.5s36.834 -9.5 81.501 -11.5v-27h-159z" />
    <glyph glyph-name="backslash" unicode="\" horiz-adv-x="460" 
d="M91 707h67l211 -722h-67z" />
    <glyph glyph-name="bracketright" unicode="]" horiz-adv-x="330" 
d="M38 -101c44.667 2 71.834 5.83301 81.501 11.5s14.5 20.167 14.5 43.5v656c0 23.333 -4.83301 37.833 -14.5 43.5s-36.834 9.5 -81.501 11.5v27h159v-820h-159v27z" />
    <glyph glyph-name="asciicircum" unicode="^" horiz-adv-x="570" 
d="M56 228l196 440h71l191 -440h-71l-156 371l-160 -371h-71z" />
    <glyph glyph-name="underscore" unicode="_" horiz-adv-x="500" 
d="M0 -75h500v-50h-500v50z" />
    <glyph glyph-name="grave" unicode="`" horiz-adv-x="400" 
d="M49 680c0 9.33301 4.5 18.833 13.5 28.5s17.5 14.5 25.5 14.5c16 0 37.333 -13.667 64 -41l119 -120l-15 -20l-151 84c-37.333 20 -56 38 -56 54z" />
    <glyph glyph-name="a" unicode="a" horiz-adv-x="523" 
d="M49 130c0 60.667 31 100.333 93 119c10 3.33301 25.833 8.16602 47.5 14.499s38.667 11.5 51 15.5l42.5 14.5c16 5.66699 28.833 11.167 38.5 16.5s16.834 10.333 21.501 15v42c0 36 -8.33301 61.667 -25 77s-36.667 23 -60 23c-49.333 0 -83.666 -32.667 -102.999 -98
c-5.33301 -18.667 -16 -28 -32 -28c-12 0 -24.333 4.16699 -37 12.5s-19 19.833 -19 34.5c0 28.667 20 54.834 60 78.501s87.333 35.5 142 35.5c36 0 65.667 -4 89 -12s40 -19.167 50 -33.5s16.667 -28 20 -41s5 -28.5 5 -46.5v-242c0 -52 11.667 -80.667 35 -86
c14 -4 31 -3.66699 51 1l6 -24c-40 -20 -79.333 -30 -118 -30c-16.667 0 -29.667 5 -39 15s-18 25 -26 45c-60.667 -40 -110.334 -60 -149.001 -60c-44.667 0 -79.834 13.667 -105.501 41s-38.5 61 -38.5 101zM150 143.999c0 -30.667 7.83301 -55.499 23.5 -74.499
s38.5 -28.5 68.5 -28.5c25.333 0 48.5 8 69.5 24s31.5 42 31.5 78v141c-12.667 -8 -51 -24 -115 -48c-28 -10.667 -48 -22.834 -60 -36.501s-18 -32.167 -18 -55.5z" />
    <glyph glyph-name="b" unicode="b" horiz-adv-x="598" 
d="M20 692l-0.00292969 25.002l157 25l7 -6v-305l30.5 19.5c18.333 11.667 32.5 20.167 42.5 25.5s24.5 11 43.5 17s37.5 9 55.5 9c34 0 63.667 -6.83301 89 -20.5s44.333 -29.667 57 -48s22.834 -40 30.501 -65s12.334 -45.833 14.001 -62.5s2.5 -33.334 2.5 -50.001
c0 -49.333 -6.66699 -91.833 -20 -127.5s-31.833 -63.5 -55.5 -83.5s-49.667 -34.5 -78 -43.5s-60.166 -13.5 -95.499 -13.5c-56 0 -106.667 13 -152 39l-40 -39l-18 8v646c0 18.667 -2 30.667 -6 36s-12.667 8.66602 -26 9.99902zM183.997 163.002
c0 -28 2.33398 -49.001 7.00098 -63.001c18.667 -51.333 55.334 -77 110.001 -77c96 0 144 75.667 144 227c0 40.667 -4.66699 75.167 -14 103.5s-21.333 48.833 -36 61.5s-28.334 21.334 -41.001 26.001s-25.334 7 -38.001 7c-58 0 -98.667 -23.333 -122 -70
c-6.66699 -13.333 -10 -32.333 -10 -57v-158z" />
    <glyph glyph-name="c" unicode="c" horiz-adv-x="496" 
d="M49 240c0 35.333 4.33691 67.835 13.0039 97.502s22 57.167 40 82.5s43.167 45.333 75.5 60s70.5 22 114.5 22c51.333 0 93.166 -10 125.499 -30s48.5 -42.333 48.5 -67c0 -16.667 -6.5 -29.334 -19.5 -38.001s-26.167 -13 -39.5 -13c-14 0 -24.333 8.66699 -31 26
c-21.333 58 -53 87 -95 87c-37.333 0 -68 -17.167 -92 -51.5s-36 -86.833 -36 -157.5c0 -26 2.16699 -50.833 6.5 -74.5s11.666 -46.834 21.999 -69.501s25.666 -40.667 45.999 -54s44.5 -20 72.5 -20c35.333 0 64.166 8.66699 86.499 26s41.5 44 57.5 80l29 -14
c-8.66699 -33.333 -24.334 -61.333 -47.001 -84s-46.167 -38.334 -70.5 -47.001s-49.166 -13 -74.499 -13c-75.333 0 -132.833 21.333 -172.5 64s-59.5 105.334 -59.5 188.001z" />
    <glyph glyph-name="d" unicode="d" horiz-adv-x="598" 
d="M49 235c0 84 22.999 150 68.999 198c44.667 46 106.334 69 185.001 69c44 0 81 -8 111 -24v164c0 18.667 -2 30.667 -6 36s-12.667 8.66602 -26 9.99902l-38 4v25l157 25l7 -6v-649c0 -25.333 3.5 -40.666 10.5 -45.999s28.5 -9.33301 64.5 -12v-29h-162l-8 7v49
c-55.333 -45.333 -107 -68 -155 -68c-65.333 0 -116.5 22.5 -153.5 67.5s-55.5 104.833 -55.5 179.5zM152.999 247c0 -60 11.999 -109.167 35.999 -147.5s58 -57.5 102 -57.5c58.667 0 97.334 24 116.001 72c4.66699 13.333 7 32 7 56v176c0 26 -3 45.333 -9 58
c-18.667 42 -53 63 -103 63c-49.333 0 -86.5 -19.833 -111.5 -59.5s-37.5 -93.167 -37.5 -160.5z" />
    <glyph glyph-name="e" unicode="e" horiz-adv-x="514" 
d="M49 241c0 78.667 19.5 141.834 58.5 189.501s96.167 71.5 171.5 71.5c34.667 0 65 -5.16699 91 -15.5s45.833 -22.833 59.5 -37.5s24.667 -32 33 -52s13.5 -37.333 15.5 -52s3 -29.334 3 -44.001c0 -25.333 -13.333 -38 -40 -38h-288
c-2.66699 -149.333 46.333 -224 147 -224c36 0 65.167 9.33301 87.5 28s41.5 44.667 57.5 78l30 -16c-32 -94 -97 -141 -195 -141c-154 0 -231 84.333 -231 253zM154 301h188.996c13.333 0 22.333 2.66699 27 8s7 13.333 7 24c0 9.33301 -0.5 19 -1.5 29
s-3.66699 21.667 -8 35s-10.166 24.833 -17.499 34.5s-17.666 18 -30.999 25s-28.666 10.5 -45.999 10.5c-24 0 -44.667 -6.5 -62 -19.5s-29.666 -29.333 -36.999 -49s-12.5 -37.5 -15.5 -53.5s-4.5 -30.667 -4.5 -44z" />
    <glyph glyph-name="f" unicode="f" horiz-adv-x="319" 
d="M30 450l0.000976562 40.002h77v35c0 69.333 11 120.666 33 153.999c12.667 19.333 30.167 34.666 52.5 45.999s47.166 17 74.499 17c37.333 0 67 -7.5 89 -22.5s33 -31.833 33 -50.5c0 -14 -5.33301 -25.333 -16 -34s-21.667 -13 -33 -13c-12 0 -21 5.66699 -27 17
c-11.333 26.667 -22.5 44.667 -33.5 54s-22.5 14 -34.5 14c-34 0 -50 -35 -48 -105l4 -112h122v-40h-122v-364c0 -25.333 4.5 -40.666 13.5 -45.999s36.167 -9 81.5 -11v-29h-264v29c36 2.66699 57.5 6.66699 64.5 12s10.5 20.666 10.5 45.999v363h-77z" />
    <glyph glyph-name="g" unicode="g" horiz-adv-x="520" 
d="M42 -96c0 16.667 3.66504 31.668 10.998 45.001s17.833 24.166 31.5 32.499s25.334 14.666 35.001 18.999s22.167 8.83301 37.5 13.5v2c-23.333 2.66699 -43.833 11.834 -61.5 27.501s-26.5 32.5 -26.5 50.5c0 35.333 30.667 65 92 89v2c-28 7.33301 -53 23.333 -75 48
s-33 58.334 -33 101.001c0 43.333 17 82.166 51 116.499s86 51.5 156 51.5c55.333 0 98.333 -10.333 129 -31l128 41l8 -9l-20 -63l-79 -12c20 -20 30 -51.333 30 -94c0 -38 -10.5 -69.833 -31.5 -95.5s-46 -43.334 -75 -53.001s-60.833 -14.5 -95.5 -14.5
c-14.667 0 -31.667 1 -51 3c-11.333 -3.33301 -22.666 -9.16602 -33.999 -17.499s-17 -18.833 -17 -31.5c0 -28.667 27.667 -43 83 -43h80c58 0 104.667 -11.667 140 -35s53 -60.333 53 -111c0 -59.333 -26.333 -105 -79 -137c-45.333 -27.333 -102.333 -41 -171 -41
c-62 0 -113.5 12.333 -154.5 37s-61.5 61 -61.5 109zM136.998 -90.999c0 -35.333 13.168 -63.5 39.501 -84.5s61.166 -31.5 104.499 -31.5c38.667 0 72.167 10.333 100.5 31s42.5 49.667 42.5 87c0 64 -51 96 -153 96c-48.667 0 -83 -7.66699 -103 -23
c-20.667 -16 -31 -41 -31 -75zM154.999 334.001c0 -40.667 9.83301 -72.167 29.5 -94.5s44.167 -33.5 73.5 -33.5c30 0 54.5 11.167 73.5 33.5s28.5 53.833 28.5 94.5c0 44.667 -9.83301 78 -29.5 100s-43.167 33 -70.5 33c-30 0 -55 -10.667 -75 -32s-30 -55 -30 -101z" />
    <glyph glyph-name="h" unicode="h" horiz-adv-x="607" 
d="M21 0l-0.00195312 29.002c34.667 2.66699 55.667 6.83398 63 12.501s11 20.834 11 45.501v555c0 17.333 -2 28.666 -6 33.999s-12.667 9 -26 11l-38 5v25l156 25l7 -6v-310c51.333 34 87.333 55 108 63c23.333 8.66699 47.666 13 72.999 13
c46.667 0 83 -13.833 109 -41.5s39 -66.834 39 -117.501v-256c0 -24.667 3.83301 -39.834 11.5 -45.501s28.834 -9.83398 63.501 -12.501v-29h-244v29c34.667 2.66699 55.834 6.83398 63.501 12.501s11.5 20.834 11.5 45.501v236c0 83.333 -35 125 -105 125
c-25.333 0 -49 -7 -71 -21s-38.333 -31.333 -49 -52c-6 -11.333 -9 -29.333 -9 -54v-234c0 -24.667 3.83301 -39.834 11.5 -45.501s28.834 -9.83398 63.501 -12.501v-29h-243z" />
    <glyph glyph-name="i" unicode="i" horiz-adv-x="291" 
d="M92 654c0 18 5.66699 32.667 17 44s26 17 44 17s32.667 -5.66699 44 -17s17 -26 17 -44s-5.66699 -32.667 -17 -44s-26 -17 -44 -17s-32.667 5.66699 -44 17s-17 26 -17 44zM32 0v29.001c36 2.66699 57.5 6.66699 64.5 12s10.5 20.666 10.5 45.999v315
c0 17.333 -2 28.666 -6 33.999s-12.667 9 -26 11l-38 5v25l157 25l7 -6v-409c0 -25.333 3.5 -40.666 10.5 -45.999s28.5 -9.33301 64.5 -12v-29h-244z" />
    <glyph glyph-name="j" unicode="j" horiz-adv-x="280" 
d="M92 654c0 18 5.66699 32.667 17 44s26 17 44 17s32.667 -5.66699 44 -17s17 -26 17 -44s-5.66699 -32.667 -17 -44s-26 -17 -44 -17s-32.667 5.66699 -44 17s-17 26 -17 44zM-33 -218c58.667 14.667 96.333 38.3311 113 70.998c17.333 34 26 95 26 183v366
c0 16.667 -2 27.834 -6 33.501s-12.667 9.5 -26 11.5l-38 5v25l157 25l7 -6v-489c0 -68 -11.167 -121.667 -33.5 -161s-63.5 -65.666 -123.5 -78.999c-28 -6 -52.667 -9 -74 -9z" />
    <glyph glyph-name="k" unicode="k" horiz-adv-x="524" 
d="M20 0l0.000976562 29.002c36 2.66699 57.5 6.66699 64.5 12s10.5 20.666 10.5 45.999v555c0 18.667 -2 30.667 -6 36s-12.667 8.66602 -26 9.99902l-38 4v25l157 25l7 -6v-468h2c26.667 39.333 77 103.666 151 192.999c10 12 18.833 19.833 26.5 23.5
s19.834 5.5 36.501 5.5h103v-28c-45.333 -4.66699 -84.333 -19 -117 -43c-35.333 -26 -73.333 -62.333 -114 -109c-7.33301 -8 -8.33301 -15.667 -3 -23c53.333 -75.333 112.666 -145.333 177.999 -210c28 -28 56.667 -46 86 -54v-28l-75 3
c-40.667 2.66699 -76.667 19.667 -108 51c-64.667 66 -119.334 134.333 -164.001 205h-2v-167c0 -25.333 3.5 -40.666 10.5 -45.999s28.5 -9.33301 64.5 -12v-29h-244z" />
    <glyph glyph-name="l" unicode="l" horiz-adv-x="279" 
d="M20 0v29.001c36 2.66699 57.5 6.66699 64.5 12s10.5 20.666 10.5 45.999v555c0 18.667 -2 30.667 -6 36s-12.667 8.66602 -26 9.99902l-38 4v25l157 25l7 -6v-649c0 -25.333 3.5 -40.666 10.5 -45.999s28.5 -9.33301 64.5 -12v-29h-244z" />
    <glyph glyph-name="m" unicode="m" horiz-adv-x="923" 
d="M32 0v29.0039c36 2.66699 57.5 6.66699 64.5 12s10.5 20.666 10.5 45.999v315c0 17.333 -2 28.666 -6 33.999s-12.667 9 -26 11l-38 5v25l155 25l9 -76l46 33c10.667 7.33301 29 16.333 55 27s50.667 16 74 16c62 0 106 -25.667 132 -77c2.66699 1.33301 12.5 8 29.5 20
s31 21.167 42 27.5s26.333 12.833 46 19.5s39.167 10 58.5 10c47.333 0 84 -13.833 110 -41.5s39 -66.834 39 -117.501v-256c0 -25.333 3.5 -40.666 10.5 -45.999s28.5 -9.33301 64.5 -12v-29h-244v29c36 2.66699 57.5 6.66699 64.5 12s10.5 20.666 10.5 45.999v236
c0 83.333 -33.667 125 -101 125c-27.333 0 -51.166 -6.83301 -71.499 -20.5s-34.5 -30.834 -42.5 -51.501c-4.66699 -12.667 -7 -31 -7 -55v-234c0 -25.333 3.5 -40.666 10.5 -45.999s28.5 -9.33301 64.5 -12v-29h-244v29c36 2.66699 57.5 6.66699 64.5 12
s10.5 20.666 10.5 45.999v236c0 38.667 -6.33301 69.167 -19 91.5s-38.334 33.5 -77.001 33.5c-26 0 -49.667 -7 -71 -21s-37 -31.667 -47 -53c-5.33301 -10.667 -8 -28.334 -8 -53.001v-234c0 -25.333 3.5 -40.666 10.5 -45.999s28.5 -9.33301 64.5 -12v-29h-244z" />
    <glyph glyph-name="n" unicode="n" horiz-adv-x="619" 
d="M32 0l-0.00195312 29.001c36 2.66699 57.5 6.66699 64.5 12s10.5 20.666 10.5 45.999v315c0 17.333 -2 28.666 -6 33.999s-12.667 9 -26 11l-38 5v25l149 25l14 -76c2.66699 2 11 7.5 25 16.5s22.667 14.5 26 16.5l22.5 13c11.667 6.66699 20.334 11 26.001 13l24 8.5
c10.333 3.66699 20.166 6 29.499 7s19 1.5 29 1.5c46 0 82 -14 108 -42s39 -67 39 -117v-256c0 -25.333 3.5 -40.666 10.5 -45.999s28.5 -9.33301 64.5 -12v-29h-244v29c36 2.66699 57.5 6.66699 64.5 12s10.5 20.666 10.5 45.999v236c0 83.333 -35 125 -105 125
c-25.333 0 -48.666 -6.83301 -69.999 -20.5s-37.666 -30.834 -48.999 -51.501c-6.66699 -13.333 -10 -31.666 -10 -54.999v-234c0 -25.333 3.5 -40.666 10.5 -45.999s28.5 -9.33301 64.5 -12v-29h-244z" />
    <glyph glyph-name="o" unicode="o" horiz-adv-x="577" 
d="M49 245c0 82 20.167 145.333 60.5 190s100.166 67 179.499 67s139.166 -22.333 179.499 -67s60.5 -108 60.5 -190s-20.167 -145.333 -60.5 -190s-100.166 -67 -179.499 -67s-139.166 22.333 -179.499 67s-60.5 108 -60.5 190zM153 245
c0 -70.667 11.333 -125.334 34 -164.001s56.667 -58 102 -58s79.333 19.333 102 58s34 93.334 34 164.001s-11.333 125.334 -34 164.001s-56.667 58 -102 58s-79.333 -19.333 -102 -58s-34 -93.334 -34 -164.001z" />
    <glyph glyph-name="p" unicode="p" horiz-adv-x="608" 
d="M25 -201c35.333 2.66699 56.667 6.66797 64 12.001s11 20.666 11 45.999v545c0 17.333 -2 28.666 -6 33.999s-12.667 9 -26 11l-38 5v25l151 25l13 -74c3.33301 2 11.5 7.5 24.5 16.5s23.667 16 32 21s19.166 10.833 32.499 17.5s26.666 11.5 39.999 14.5s27 4.5 41 4.5
c34.667 0 64.667 -6.5 90 -19.5s44.5 -28.333 57.5 -46s23.333 -39 31 -64s12.334 -46 14.001 -63s2.5 -34.833 2.5 -53.5c0 -96 -23 -164.667 -69 -206s-106.667 -62 -182 -62c-49.333 0 -87.333 7.66699 -114 23v-154c0 -25.333 4.33301 -40.666 13 -45.999
s34.334 -9.33301 77.001 -12v-29h-259v29zM194.001 157.001c0 -26.667 2.33496 -47 7.00195 -61c8 -22.667 21.5 -40.5 40.5 -53.5s41.5 -19.5 67.5 -19.5c97.333 0 146 75.667 146 227c0 40 -4.66699 74.167 -14 102.5s-21.333 48.833 -36 61.5s-28.334 21.5 -41.001 26.5
s-25.334 7.5 -38.001 7.5c-56 0 -95.667 -23.333 -119 -70c-8.66699 -17.333 -13 -36.333 -13 -57v-164z" />
    <glyph glyph-name="q" unicode="q" horiz-adv-x="591" 
d="M49 233c0 85.333 23.333 152 70 200c44.667 46 107 69 187 69c50.667 0 94.667 -10.333 132 -31l43 31h27v-645c0 -25.333 3.66699 -40.666 11 -45.999s28.666 -9.33301 63.999 -12v-29h-249v29c38 2.66699 60.833 6.66699 68.5 12s11.5 20.666 11.5 45.999v196
c-59.333 -43.333 -111.666 -65 -156.999 -65c-62.667 0 -113 21.333 -151 64s-57 103 -57 181zM153 246c0 -60 11.833 -109 35.5 -147s59.167 -57 106.5 -57c56.667 0 94 24.667 112 74c4.66699 12.667 7 31 7 55v169c0 24.667 -2.66699 44 -8 58
c-17.333 46 -53.333 69 -108 69c-48.667 0 -85 -20.333 -109 -61s-36 -94 -36 -160z" />
    <glyph glyph-name="r" unicode="r" horiz-adv-x="389" 
d="M32 0l0.00195312 29.001c35.333 2.66699 56.666 6.66699 63.999 12s11 20.666 11 45.999v315c0 17.333 -2 28.666 -6 33.999s-12.667 9 -26 11l-38 5v25l152 25l12 -80c35.333 30.667 61.833 51.667 79.5 63s35.167 17 52.5 17c18 0 31.333 -5 40 -15s13 -21.333 13 -34
c0 -15.333 -4.66699 -28.5 -14 -39.5s-20 -16.5 -32 -16.5c-7.33301 0 -14 1.66699 -20 5c-26.667 14.667 -47.334 22 -62.001 22c-14 0 -27 -8.5 -39 -25.5s-18 -42.833 -18 -77.5v-234c0 -25.333 4.66699 -40.666 14 -45.999s36.333 -9.33301 81 -12v-29h-264z" />
    <glyph glyph-name="s" unicode="s" horiz-adv-x="436" 
d="M47 167l28.9971 -0.000976562c22.667 -96 71.334 -144 146.001 -144c26.667 0 48.834 7.5 66.501 22.5s26.5 35.167 26.5 60.5c0 16 -3.16699 30.167 -9.5 42.5s-15.666 22.5 -27.999 30.5s-23.5 14.167 -33.5 18.5s-22.333 8.83301 -37 13.5
c-47.333 14.667 -84.333 33 -111 55s-40 52 -40 90c0 46.667 16.5 82.667 49.5 108s77.167 38 132.5 38c54.667 0 97.667 -11.333 129 -34v-117h-29c-4 33.333 -15.333 61 -34 83s-44.667 33 -78 33c-26 0 -47.5 -7.16699 -64.5 -21.5s-25.5 -34.166 -25.5 -59.499
c0 -17.333 6.83301 -32.666 20.5 -45.999s26.5 -22.333 38.5 -27s28 -10.334 48 -17.001c54.667 -16.667 94.5 -37 119.5 -61s37.5 -57 37.5 -99c0 -43.333 -16.667 -78.833 -50 -106.5s-79 -41.5 -137 -41.5c-68 0 -120 16 -156 48z" />
    <glyph glyph-name="t" unicode="t" horiz-adv-x="344" 
d="M31 450v40h76l61 126h29v-126h129v-40h-129v-310c0 -66.667 22 -100 66 -100c26.667 0 50.334 4.33301 71.001 13l8 -21c-47.333 -29.333 -90 -44 -128 -44c-11.333 0 -22.333 1.33301 -33 4s-22.334 7.5 -35.001 14.5s-23 18.667 -31 35s-12 36.5 -12 60.5v348h-72z" />
    <glyph glyph-name="u" unicode="u" horiz-adv-x="606" 
d="M26 452l0.00195312 25.001l157 25l7 -6v-340c0 -37.333 9.16699 -65.666 27.5 -84.999s42.833 -29 73.5 -29c26 0 50.167 6.83301 72.5 20.5s39.166 31.834 50.499 54.501c5.33301 10.667 8 30.667 8 60v225c0 17.333 -2 28.666 -6 33.999s-12.667 9 -26 11l-38 5v25
l157 25l7 -6v-409c0 -25.333 3.66699 -40.666 11 -45.999s28.666 -9.33301 63.999 -12v-29h-160l-10 60c-0.666992 -0.666992 -13 -8.33398 -37 -23.001s-48 -26.5 -72 -35.5s-48.667 -13.5 -74 -13.5c-42 0 -76.167 11.667 -102.5 35s-39.5 61.666 -39.5 114.999v264
c0 17.333 -2 28.666 -6 33.999s-12.667 9 -26 11z" />
    <glyph glyph-name="v" unicode="v" horiz-adv-x="504" 
d="M1 461l-0.000976562 29.001h224v-29l-45 -5c-17.333 -2 -22.666 -11.667 -15.999 -29l30 -85l29 -84l61 -168h2l67 185c25.333 70 42 121.333 50 154c4.66699 16 -0.333008 25 -15 27l-49 5v29h190v-29c-23.333 -1.33301 -39.333 -4.5 -48 -9.5
s-16.667 -16.167 -24 -33.5c-29.333 -66.667 -53.333 -125.334 -72 -176.001l-89 -242h-72l-77 216c-35.333 97.333 -60.333 164 -75 200c-7.33301 18 -15 29.5 -23 34.5s-24 8.5 -48 10.5z" />
    <glyph glyph-name="w" unicode="w" horiz-adv-x="768" 
d="M-2 461v29.001h211v-29l-35 -3c-18 -2 -24 -12 -18 -30l43.5 -151c23 -80.667 41.5 -143.334 55.5 -188.001h2l116 389h76l125 -389h2c55.333 202.667 85.333 314 90 334c4.66699 20.667 0 31.667 -14 33l-57 5v29h197v-29c-26 -1.33301 -43.5 -5.16602 -52.5 -11.499
s-17.5 -21.833 -25.5 -46.5c-66.667 -208 -108.667 -342.333 -126 -403h-76l-123 381h-3l-118 -381h-76c-23.333 83.333 -66 222.666 -128 417.999c-6 18 -13 29.333 -21 34s-23 7.66699 -45 9z" />
    <glyph glyph-name="x" unicode="x" horiz-adv-x="486" 
d="M1 0l-0.00488281 28.9971c24 1.33301 42.333 4.66602 55 9.99902s25 16.333 37 33c26.667 35.333 65.667 90.333 117 165c-63.333 94.667 -106 157 -128 187c-11.333 16 -21.166 25.833 -29.499 29.5s-23.166 6.16699 -44.499 7.5v29h209v-29l-30 -3
c-7.33301 -0.666992 -11.666 -3.5 -12.999 -8.5s0 -10.5 4 -16.5l84 -125h1l80 126c8.66699 13.333 6.33398 21 -6.99902 23l-39 4v29h186v-29c-24.667 -1.33301 -42.167 -4.16602 -52.5 -8.49902s-21.833 -14.166 -34.5 -29.499
c-45.333 -54.667 -82.333 -103.667 -111 -147c40 -64 85.667 -132.667 137 -206c12 -17.333 23.333 -28.166 34 -32.499s28.334 -7.16602 53.001 -8.49902v-29h-235v29l42 5c15.333 2 17.666 11.333 6.99902 28l-89 139h-2c-45.333 -69.333 -74.666 -117 -87.999 -143
c-8 -14 -5.66699 -22 7 -24l42 -5v-29h-192z" />
    <glyph glyph-name="y" unicode="y" horiz-adv-x="506" 
d="M-5 461l0.00195312 29.0039h229v-29l-43 -4c-10.667 -0.666992 -16.834 -3.83398 -18.501 -9.50098s-0.5 -12.834 3.5 -21.501l123 -335h2c59.333 161.333 96.333 271.666 111 330.999c5.33301 20.667 0.666016 32 -14.001 34l-52 5v29h192v-29
c-24 -1.33301 -40 -5 -48 -11s-16.667 -19.333 -26 -40c-42.667 -96 -104.334 -260 -185.001 -492c-12 -35.333 -24.5 -64.333 -37.5 -87s-25.833 -39 -38.5 -49s-23.834 -16.5 -33.501 -19.5s-20.5 -4.5 -32.5 -4.5c-20 0 -36.667 5.5 -50 16.5s-20 22.833 -20 35.5
c0 14 4.83301 26.833 14.5 38.5s19.5 17.5 29.5 17.5c9.33301 0 19.333 -4.66699 30 -14c14 -14 26.333 -21 37 -21c16.667 0 31.334 14 44.001 42c16 34 24 62.333 24 85c0 17.333 -2.66699 33.666 -8 48.999c-35.333 102 -87.666 236 -156.999 402
c-8.66699 22 -17.5 35.833 -26.5 41.5s-25.5 9.16699 -49.5 10.5z" />
    <glyph glyph-name="z" unicode="z" horiz-adv-x="480" 
d="M19 15l314.999 440h-100c-53.333 0 -88.666 -7.16699 -105.999 -21.5s-29.333 -44.833 -36 -91.5h-31v148h384l8 -14l-312 -441h129c56 0 94.833 8 116.5 24s36.5 47.333 44.5 94h31l-10 -153h-425z" />
    <glyph glyph-name="braceleft" unicode="{" horiz-adv-x="340" 
d="M79 267v29.9951c34.667 -0.666992 58.667 9 72 29s18 48.333 14 85l-10 94c-4 20.667 -5 42 -3 64s5.83301 42.167 11.5 60.5s17.834 33.333 36.501 45s42.667 17.5 72 17.5h26v-27c-38 -2 -61.833 -13.5 -71.5 -34.5s-12.5 -51.5 -8.5 -91.5l8 -77
c0.666992 -4 1.5 -11.833 2.5 -23.5l2 -23.5c0.333008 -4 0.833008 -11.167 1.5 -21.5s0.5 -17.666 -0.5 -21.999s-2.33301 -10.666 -4 -18.999s-4.16699 -14.5 -7.5 -18.5l-12 -15c-4.66699 -6 -10.5 -10.833 -17.5 -14.5s-15.167 -7.16699 -24.5 -10.5
s-19.666 -6.33301 -30.999 -9v-6c11.333 -2.66699 21.666 -5.66699 30.999 -9s17.5 -6.83301 24.5 -10.5s12.833 -8.5 17.5 -14.5l12 -15c3.33301 -4 5.83301 -10.167 7.5 -18.5s3 -14.666 4 -18.999s1.16699 -11.666 0.5 -21.999s-1.16699 -17.5 -1.5 -21.5l-2 -23.5
c-1 -11.667 -1.83301 -19.5 -2.5 -23.5l-8 -77c-4 -40 -1.16699 -70.5 8.5 -91.5s33.5 -32.5 71.5 -34.5v-27h-26c-29.333 0 -53.333 5.83301 -72 17.5s-30.834 26.667 -36.501 45s-9.5 38.5 -11.5 60.5s-1 43.333 3 64l10 94c4.66699 38.667 1 67.334 -11 86.001
s-37 28 -75 28z" />
    <glyph glyph-name="bar" unicode="|" horiz-adv-x="228" 
d="M80 -250v1000h68v-1000h-68z" />
    <glyph glyph-name="braceright" unicode="}" horiz-adv-x="340" 
d="M42 -101c38 2 61.833 13.5039 71.5 34.5039s12.5 51.5 8.5 91.5l-8 77c-0.666992 4 -1.5 11.833 -2.5 23.5l-2 23.5c-0.333008 4 -0.833008 11.167 -1.5 21.5s-0.5 17.666 0.5 21.999s2.33301 10.666 4 18.999s4.16699 14.5 7.5 18.5l12 15
c4.66699 6 10.5 10.833 17.5 14.5s15.167 7.16699 24.5 10.5s19.666 6.33301 30.999 9v6c-11.333 2.66699 -21.666 5.66699 -30.999 9s-17.5 6.83301 -24.5 10.5s-12.833 8.5 -17.5 14.5l-12 15c-3.33301 4 -5.83301 10.167 -7.5 18.5s-3 14.666 -4 18.999
s-1.16699 11.666 -0.5 21.999s1.16699 17.5 1.5 21.5l2 23.5c1 11.667 1.83301 19.5 2.5 23.5l8 77c4 40 1.16699 70.5 -8.5 91.5s-33.5 32.5 -71.5 34.5v27h26c29.333 0 53.333 -5.83301 72 -17.5s30.834 -26.667 36.501 -45s9.5 -38.5 11.5 -60.5s1 -43.333 -3 -64
l-10 -94c-4 -38 0.166992 -66.5 12.5 -85.5s36.833 -28.5 73.5 -28.5v-30c-36.667 0 -61.167 -9.5 -73.5 -28.5s-16.5 -47.5 -12.5 -85.5l10 -94c4 -20.667 5 -42 3 -64s-5.83301 -42.167 -11.5 -60.5s-17.834 -33.333 -36.501 -45s-42.667 -17.5 -72 -17.5h-26v27z" />
    <glyph glyph-name="asciitilde" unicode="~" horiz-adv-x="570" 
d="M73 200c15.333 32.667 32.666 58.499 51.999 77.499s45.333 28.5 78 28.5c22.667 0 53.667 -7.66699 93 -23c43.333 -15.333 71.333 -23 84 -23c16.667 0 29.834 3.83301 39.501 11.5s22.167 22.834 37.5 45.501l40 -25c-30.667 -67.333 -70.667 -101 -120 -101
c-18.667 0 -50.334 7.66699 -95.001 23c-40.667 15.333 -70.667 23 -90 23c-18 0 -32.667 -4.83301 -44 -14.5s-22.666 -25.5 -33.999 -47.5z" />
    <glyph glyph-name="uni0400" unicode="&#x400;" horiz-adv-x="606" 
d="M138 838c-0.666992 10 2.66699 20.833 10 32.5s14.666 18.167 21.999 19.5c13.333 2.66699 35 -6.33301 65 -27l145 -99l-11 -22l-170 56c-23.333 7.33301 -39.166 13.5 -47.499 18.5s-12.833 12.167 -13.5 21.5zM35.001 0l-0.000976562 28.998c44 2.66699 70 7 78 13
s12 23 12 51v506c0 28 -4 45 -12 51s-34 10.333 -78 13v29h505v-164h-30c-7.33301 52.667 -20.333 87.334 -39 104.001s-56 25 -112 25h-98c-16 0 -26.167 -2 -30.5 -6s-6.5 -14 -6.5 -30v-242h140c21.333 0 38 1.33301 50 4s21.167 8.16699 27.5 16.5
s10.666 16.666 12.999 24.999s4.83301 21.833 7.5 40.5h30v-211h-30c-2.66699 19.333 -5.16699 33 -7.5 41s-6.66602 16.333 -12.999 25s-15.5 14.334 -27.5 17.001s-28.667 4 -50 4h-140v-221c0 -25.333 1.66699 -43 5 -53s10 -17.333 20 -22
c17.333 -6.66699 52 -10 104 -10c66.667 0 112.834 8.33301 138.501 25s44.167 54.334 55.5 113.001h30l-12 -173h-530z" />
    <glyph glyph-name="afii10023" unicode="&#x401;" horiz-adv-x="606" 
d="M141 787c0 14.667 5.16699 27.334 15.5 38.001s24.5 16 42.5 16s32.167 -5.33301 42.5 -16s15.5 -23.334 15.5 -38.001s-5.16699 -27.5 -15.5 -38.5s-24.5 -16.5 -42.5 -16.5c-17.333 0 -31.333 5.5 -42 16.5s-16 23.833 -16 38.5zM349 787
c0 14.667 5.16699 27.334 15.5 38.001s24.5 16 42.5 16s32.167 -5.33301 42.5 -16s15.5 -23.334 15.5 -38.001s-5.16699 -27.5 -15.5 -38.5s-24.5 -16.5 -42.5 -16.5c-17.333 0 -31.333 5.5 -42 16.5s-16 23.833 -16 38.5zM35 0l-0.000976562 28.998c44 2.66699 70 7 78 13
s12 23 12 51v506c0 28 -4 45 -12 51s-34 10.333 -78 13v29h505v-164h-30c-7.33301 52.667 -20.333 87.334 -39 104.001s-56 25 -112 25h-98c-16 0 -26.167 -2 -30.5 -6s-6.5 -14 -6.5 -30v-242h140c21.333 0 38 1.33301 50 4s21.167 8.16699 27.5 16.5
s10.666 16.666 12.999 24.999s4.83301 21.833 7.5 40.5h30v-211h-30c-2.66699 19.333 -5.16699 33 -7.5 41s-6.66602 16.333 -12.999 25s-15.5 14.334 -27.5 17.001s-28.667 4 -50 4h-140v-221c0 -25.333 1.66699 -43 5 -53s10 -17.333 20 -22
c17.333 -6.66699 52 -10 104 -10c66.667 0 112.834 8.33301 138.501 25s44.167 54.334 55.5 113.001h30l-12 -173h-530z" />
    <glyph glyph-name="afii10051" unicode="&#x402;" horiz-adv-x="802" 
d="M22 526l0.000976562 166.001h577v-166h-30c-6 55.333 -18 91 -36 107s-56 24 -114 24h-79v-307c27.333 21.333 60.166 41 98.499 59s72.5 27 102.5 27c69.333 0 121.666 -23.167 156.999 -69.5s53 -105.166 53 -176.499c0 -62 -18.833 -111.167 -56.5 -147.5
s-84.167 -54.5 -139.5 -54.5c-41.333 0 -72.833 11 -94.5 33s-32.5 50.333 -32.5 85c0 19.333 4.16699 34 12.5 44s18.5 15 30.5 15c15.333 0 28.333 -3.33301 39 -10s16 -15 16 -25c0 -10.667 -2.16699 -23.667 -6.5 -39s-6.5 -26 -6.5 -32
c0 -12.667 3.16699 -21.834 9.5 -27.501s13.833 -8.5 22.5 -8.5c40.667 0 67.334 14.667 80.001 44s19 73.666 19 132.999c0 29.333 -3.66699 56.5 -11 81.5s-20.5 46.667 -39.5 65s-42.5 27.5 -70.5 27.5c-40 0 -72 -4.66699 -96 -14c-58 -23.333 -87 -49.333 -87 -78v-282
h-209v29c53.333 2.66699 85 7 95 13s15 23 15 51v564h-39c-58 0 -96 -8 -114 -24s-30 -51.667 -36 -107h-30z" />
    <glyph glyph-name="afii10052" unicode="&#x403;" horiz-adv-x="554" 
d="M209 764l145.001 99c30 20.667 51.667 29.667 65 27c7.33301 -1.33301 14.666 -7.83301 21.999 -19.5s10.666 -22.5 9.99902 -32.5c-0.666992 -9.33301 -5.16699 -16.5 -13.5 -21.5s-24.166 -11.167 -47.499 -18.5l-170 -56zM35.001 0l0.000976562 29.001
c44 2.66699 70 7 78 13s12 23 12 51v506c0 28 -4 45 -12 51s-34 10.333 -78 13v29h502v-164h-30c-7.33301 52 -20.833 86.5 -40.5 103.5s-57.834 25.5 -114.501 25.5h-91c-16.667 0 -27 -1.83301 -31 -5.5s-6 -13.834 -6 -30.501v-528c0 -28 4.83301 -45 14.5 -51
s40.167 -10.333 91.5 -13v-29h-295z" />
    <glyph glyph-name="afii10053" unicode="&#x404;" horiz-adv-x="684" 
d="M48 341c0 34.667 3.33496 68.167 10.002 100.5s18.667 65 36 98s39.5 61.5 66.5 85.5s62.833 43.667 107.5 59s95.667 23 153 23c85.333 0 156 -13 212 -39v-156h-30c-17.333 106.667 -81.333 160 -192 160c-41.333 0 -77.833 -7.83301 -109.5 -23.5
s-57.167 -37.334 -76.5 -65.001s-34.166 -58.167 -44.499 -91.5s-16.833 -69.666 -19.5 -108.999h335v-38h-336v-1c0 -27.333 2 -54.333 6 -81s11.667 -55 23 -85s25.833 -56.333 43.5 -79s41.667 -41.5 72 -56.5s65.166 -22.5 104.499 -22.5
c60.667 0 106.334 14.167 137.001 42.5s54 69.5 70 123.5h32l-13 -153c-24.667 -13.333 -57.834 -24.666 -99.501 -33.999s-81.834 -14 -120.501 -14c-124.667 0 -215.334 28.333 -272.001 85c-63.333 63.333 -95 153.666 -95 270.999z" />
    <glyph glyph-name="afii10054" unicode="&#x405;" horiz-adv-x="541" 
d="M50 205h31.9971c12.667 -57.333 34.5 -102.5 65.5 -135.5s69.5 -49.5 115.5 -49.5c44.667 0 79.834 12.333 105.501 37s38.5 58.334 38.5 101.001c0 27.333 -9.16699 52.5 -27.5 75.5s-36.5 39.5 -54.5 49.5s-37 19 -57 27l-18 7
c-59.333 20.667 -105.666 46.5 -138.999 77.5s-50 70.833 -50 119.5c0 62.667 22 110.5 66 143.5s98.667 49.5 164 49.5c76.667 0 133.334 -14.667 170.001 -44v-141h-31c-16 100 -66 150 -150 150c-40.667 0 -72.167 -11.667 -94.5 -35s-33.5 -54 -33.5 -92
c0 -28 11.333 -53 34 -75s52.334 -39.667 89.001 -53l32 -12c64.667 -24 113.667 -52.333 147 -85s50 -76.667 50 -132c0 -56.667 -20.5 -104.667 -61.5 -144s-102.833 -59 -185.5 -59c-37.333 0 -74.333 5.16699 -111 15.5s-65.334 25.166 -86.001 44.499z" />
    <glyph glyph-name="afii10055" unicode="&#x406;" horiz-adv-x="349" 
d="M35 0v29c44 2.66699 70 7 78 13s12 23 12 51v506c0 28 -4 45 -12 51s-34 10.333 -78 13v29h279v-29c-43.333 -3.33301 -69.166 -7.83301 -77.499 -13.5s-12.5 -22.5 -12.5 -50.5v-506c0 -28 4.16699 -44.833 12.5 -50.5s34.166 -10.167 77.499 -13.5v-29h-279z" />
    <glyph glyph-name="afii10056" unicode="&#x407;" horiz-adv-x="349" 
d="M13 787c0 14.667 5.16699 27.334 15.5 38.001s24.5 16 42.5 16s32.167 -5.33301 42.5 -16s15.5 -23.334 15.5 -38.001s-5.16699 -27.5 -15.5 -38.5s-24.5 -16.5 -42.5 -16.5c-17.333 0 -31.333 5.5 -42 16.5s-16 23.833 -16 38.5zM221 787
c0 14.667 5.16699 27.334 15.5 38.001s24.5 16 42.5 16s32.167 -5.33301 42.5 -16s15.5 -23.334 15.5 -38.001s-5.16699 -27.5 -15.5 -38.5s-24.5 -16.5 -42.5 -16.5c-17.333 0 -31.333 5.5 -42 16.5s-16 23.833 -16 38.5zM35 0v29c44 2.66699 70 7 78 13s12 23 12 51v506
c0 28 -4 45 -12 51s-34 10.333 -78 13v29h279v-29c-43.333 -3.33301 -69.166 -7.83301 -77.499 -13.5s-12.5 -22.5 -12.5 -50.5v-506c0 -28 4.16699 -44.833 12.5 -50.5s34.166 -10.167 77.499 -13.5v-29h-279z" />
    <glyph glyph-name="afii10057" unicode="&#x408;" horiz-adv-x="350" 
d="M0 -89c42 10.667 72.998 27.999 92.998 51.999c27.333 33.333 41 91.333 41 174v462c0 28 -4 45 -12 51s-34 10.333 -78 13v29h279v-29c-43.333 -3.33301 -69.166 -7.83301 -77.499 -13.5s-12.5 -22.5 -12.5 -50.5v-456c0 -59.333 -6.66699 -107.166 -20 -143.499
s-40.666 -63.833 -81.999 -82.5c-40 -18.667 -82 -29 -126 -31z" />
    <glyph glyph-name="afii10058" unicode="&#x409;" horiz-adv-x="1051" 
d="M16 109c0 40.667 17.334 60.999 52.001 60.999c13.333 0 24.333 -4 33 -12s13 -16.667 13 -26c0 -8 -3 -21.167 -9 -39.5s-9 -31.166 -9 -38.499c0 -20.667 12.333 -31 37 -31c44.667 0 80.167 52.167 106.5 156.5s39.5 244.166 39.5 419.499c0 28 -4 45 -12 51
s-34 10.333 -78 13v29h554v-29c-51.333 -2.66699 -81.833 -7 -91.5 -13s-14.5 -23 -14.5 -51v-219c21.333 6.66699 57 10 107 10c75.333 0 138.166 -16.667 188.499 -50s75.5 -80.666 75.5 -141.999c0 -132 -83.333 -198 -250 -198h-310v29c44 2.66699 70 7 78 13
s12 23 12 51v512c0 24 -4.5 38.667 -13.5 44s-31.167 8 -66.5 8h-53c-36 0 -58.333 -2.83301 -67 -8.5s-13 -21.167 -13 -46.5c0 -187.333 -16.833 -336.5 -50.5 -447.5s-77.5 -166.5 -131.5 -166.5c-42 0 -73.667 10.667 -95 32s-32 51 -32 89zM637.001 111.999
c0 -31.333 6.16797 -52 18.501 -62s38.166 -15 77.499 -15c112 0 168 52 168 156c0 51.333 -16.5 91.5 -49.5 120.5s-76.167 43.5 -129.5 43.5c-36.667 0 -65 -4.33301 -85 -13v-230z" />
    <glyph glyph-name="afii10059" unicode="&#x40a;" horiz-adv-x="1087" 
d="M35 0l0.000976562 28.999c44 2.66699 70 7 78 13s12 23 12 51v506c0 28 -4 45 -12 51s-34 10.333 -78 13v29h279v-29c-43.333 -3.33301 -69.166 -7.83301 -77.499 -13.5s-12.5 -22.5 -12.5 -50.5v-220h350v220c0 28 -4 45 -12 51s-34 10.333 -78 13v29h295v-29
c-51.333 -2.66699 -81.833 -7 -91.5 -13s-14.5 -23 -14.5 -51v-219c21.333 6.66699 57 10 107 10c75.333 0 138.166 -16.667 188.499 -50s75.5 -80.666 75.5 -141.999c0 -132 -83.333 -198 -250 -198h-310v29c44 2.66699 70 7 78 13s12 23 12 51v248h-350v-248
c0 -28 4.16699 -44.833 12.5 -50.5s34.166 -10.167 77.499 -13.5v-29h-279zM673.001 111.999c0 -31.333 6.16797 -52 18.501 -62s38.166 -15 77.499 -15c112 0 168 52 168 156c0 51.333 -16.5 91.5 -49.5 120.5s-76.167 43.5 -129.5 43.5c-36.667 0 -65 -4.33301 -85 -13
v-230z" />
    <glyph glyph-name="afii10060" unicode="&#x40b;" horiz-adv-x="864" 
d="M22 526l-0.000976562 166h577v-166h-30c-6 55.333 -18 91 -36 107s-56 24 -114 24h-79v-308c72.667 57.333 150.334 86 233.001 86c66 0 111.167 -17.833 135.5 -53.5s36.5 -93.167 36.5 -172.5v-116c0 -28 4 -45 12 -51s34 -10.333 78 -13v-29h-279v29
c44 2.66699 70 7 78 13s12 23 12 51v146c0 46.667 -7.33301 80.667 -22 102s-43 32 -85 32c-50.667 0 -88 -4.66699 -112 -14c-58 -23.333 -87 -49.333 -87 -78v-188c0 -28 4 -45 12 -51s34 -10.333 78 -13v-29h-299v29c53.333 2.66699 85 7 95 13s15 23 15 51v564h-39
c-58 0 -96 -8 -114 -24s-30 -51.667 -36 -107h-30z" />
    <glyph glyph-name="afii10061" unicode="&#x40c;" horiz-adv-x="732" 
d="M249 764l145.001 99c30 20.667 51.667 29.667 65 27c7.33301 -1.33301 14.666 -7.83301 21.999 -19.5s10.666 -22.5 9.99902 -32.5c-0.666992 -9.33301 -5.16699 -16.5 -13.5 -21.5s-24.166 -11.167 -47.499 -18.5l-170 -56zM35.001 0l0.00195312 28.998
c44 2.66699 70 7 78 13s12 23 12 51v506c0 28 -4 45 -12 51s-34 10.333 -78 13v29h279v-29c-44 -2.66699 -70 -7 -78 -13s-12 -23 -12 -51v-219h26c27.333 0 50.833 3.83301 70.5 11.5s35.334 19.834 47.001 36.501s20.667 32.667 27 48s12.833 35.666 19.5 60.999
c13.333 51.333 31.666 92.5 54.999 123.5s49.666 46.5 78.999 46.5c78.667 0 118 -38.667 118 -116c0 -12 -4.33301 -23.333 -13 -34s-22.334 -16 -41.001 -16c-28 0 -42 12 -42 36c0 10.667 1 22.667 3 36s3 23 3 29c0 8.66699 -2.5 15.834 -7.5 21.501
s-12.167 8.5 -21.5 8.5c-14.667 0 -29.834 -11.833 -45.501 -35.5s-28.167 -53.167 -37.5 -88.5c-15.333 -57.333 -30.666 -99.166 -45.999 -125.499s-36 -43.5 -62 -51.5v-3c47.333 -7.33301 91.166 -29.5 131.499 -66.5s65.5 -80.5 75.5 -130.5
c11.333 -58 27.333 -97.667 48 -119s49.334 -32 86.001 -32v-35h-58c-53.333 0 -93 9.16699 -119 27.5s-44.333 54.833 -55 109.5c-16.667 84 -38.5 141.5 -65.5 172.5s-69.167 46.5 -126.5 46.5h-49v-248c0 -28 4 -45 12 -51s34 -10.333 78 -13v-29h-279z" />
    <glyph glyph-name="uni040D" unicode="&#x40d;" horiz-adv-x="804" 
d="M234 838c-0.666992 10 2.66699 20.833 10 32.5s14.666 18.167 21.999 19.5c13.333 2.66699 35 -6.33301 65 -27l145 -99l-11 -22l-170 56c-23.333 7.33301 -39.166 13.5 -47.499 18.5s-12.833 12.167 -13.5 21.5zM35.001 0v29c44 2.66699 70 7 78 13s12 23 12 51v506
c0 28 -4 45 -12 51s-34 10.333 -78 13v29h279v-29c-44 -2.66699 -70 -7 -78 -13s-12 -23 -12 -51v-427l356 425v2c0 28 -4 45 -12 51s-34 10.333 -78 13v29h279v-29c-44 -2.66699 -70 -7 -78 -13s-12 -23 -12 -51v-506c0 -28 4 -45 12 -51s34 -10.333 78 -13v-29h-279v29
c44 2.66699 70 7 78 13s12 23 12 51v443l-356 -424v-19c0 -28 4 -45 12 -51s34 -10.333 78 -13v-29h-279z" />
    <glyph glyph-name="afii10062" unicode="&#x40e;" 
d="M226 847c0 52.667 16.002 79 48.002 79c19.333 0 33.666 -4.66699 42.999 -14s14 -19 14 -29c0 -8.66699 -3 -19.667 -9 -33s-9 -22.666 -9 -27.999c0 -11.333 9.33301 -20.666 28 -27.999s39 -11 61 -11s42.333 3.66699 61 11s28 16.666 28 27.999
c0 5.33301 -3 14.666 -9 27.999s-9 24.333 -9 33c0 10 4.66699 19.667 14 29s23.666 14 42.999 14c32 0 48 -26.333 48 -79c0 -24 -13.667 -46.5 -41 -67.5s-72.333 -31.5 -135 -31.5s-107.667 10.5 -135 31.5s-41 43.5 -41 67.5zM28.002 663l0.00195312 28.9961h258v-29
l-42 -4c-16.667 -1.33301 -25 -9 -25 -23c0 -11.333 33.667 -76.666 101 -195.999l123 -218l3 -2l90 220c42 102.667 63 167.667 63 195c0 13.333 -8.66699 21 -26 23l-54 5v29h221v-29c-28.667 -1.33301 -47.334 -4.5 -56.001 -9.5s-17.667 -19.167 -27 -42.5l-225 -526
c-27.333 -64.667 -75 -97 -143 -97c-40.667 0 -72 11.5 -94 34.5s-33 51.5 -33 85.5c0 21.333 5 38.333 15 51s23.333 19 40 19c12.667 0 23.834 -3.33301 33.501 -10s14.5 -15 14.5 -25c0 -7.33301 -4.33301 -19.666 -13 -36.999s-13 -30.333 -13 -39
c0 -29.333 19.667 -44 59 -44c16 0 32.833 7 50.5 21s31.167 31 40.5 51l11 23l-264 458l-13.5 23c-5 8.66699 -8.66699 14.834 -11 18.501l-8.5 14c-3.33301 5.66699 -6 9.5 -8 11.5l-7.5 7.5c-3 3 -5.83301 5 -8.5 6s-5.83398 1.83301 -9.50098 2.5
s-7.83398 1.33398 -12.501 2.00098z" />
    <glyph glyph-name="afii10145" unicode="&#x40f;" horiz-adv-x="788" 
d="M35 0l-0.00390625 29c44 2.66699 70 7 78 13s12 23 12 51v506c0 28 -4 45 -12 51s-34 10.333 -78 13v29h279v-29c-44 -2.66699 -70 -7 -78 -13s-12 -23 -12 -51v-509c0 -25.333 4.33301 -40.833 13 -46.5s31 -8.5 67 -8.5h180c36 0 58.333 2.83301 67 8.5
s13 21.167 13 46.5v509c0 28 -4 45 -12 51s-34 10.333 -78 13v29h279v-29c-44 -2.66699 -70 -7 -78 -13s-12 -23 -12 -51v-509c0 -25.333 4.33301 -40.833 13 -46.5s31 -8.5 67 -8.5v-35h-122c-25.333 0 -46.833 -0.333008 -64.5 -1s-34 -2.83398 -49 -6.50098
s-27 -6.83398 -36 -9.50098s-17.333 -8.66699 -25 -18s-13.167 -17.166 -16.5 -23.499s-6.66602 -17.666 -9.99902 -33.999s-5.66602 -30.5 -6.99902 -42.5s-3 -30.333 -5 -55h-28c-2 24.667 -3.66699 43 -5 55s-3.66602 26.167 -6.99902 42.5
s-6.66602 27.666 -9.99902 33.999s-8.83301 14.166 -16.5 23.499s-16 15.333 -25 18s-21 5.83398 -36 9.50098s-31.333 5.83398 -49 6.50098s-39.167 1 -64.5 1h-132z" />
    <glyph glyph-name="afii10017" unicode="&#x410;" horiz-adv-x="635" 
d="M-29 0l-0.00195312 29.002c30.667 1.33301 51.167 6.16602 61.5 14.499s20.833 26.5 31.5 54.5c16.667 42.667 52.667 142 108 298l105 296h74l212 -603c8.66699 -25.333 17.834 -41 27.501 -47s29.5 -10.333 59.5 -13v-29h-256v29l45 4
c16 1.33301 25.833 5.16602 29.5 11.499s2.83398 16.833 -2.49902 31.5l-67 191h-224c-33.333 -104 -53.666 -168.333 -60.999 -193c-4.66699 -13.333 -5.33398 -23 -2.00098 -29s12.333 -9.66699 27 -11l52 -5v-29h-220zM187.998 305.002h199l-99 286h-3z" />
    <glyph glyph-name="afii10018" unicode="&#x411;" horiz-adv-x="642" 
d="M35 0l0.000976562 29.001c44 2.66699 70 7 78 13s12 23 12 51v506c0 28 -4 45 -12 51s-34 10.333 -78 13v29h512v-164h-30c-10.667 50.667 -27.334 84.834 -50.001 102.501s-58 26.5 -106 26.5h-100c-16.667 0 -27 -1.83301 -31 -5.5s-6 -13.834 -6 -30.501v-232
c22.667 4.66699 58.334 7 107.001 7c75.333 0 138.166 -16.833 188.499 -50.5s75.5 -81.834 75.5 -144.501c0 -134 -83.333 -201 -250 -201h-310zM224.001 112.001c0 -31.333 6.16699 -52 18.5 -62s38.166 -15 77.499 -15c112 0 168 53 168 159
c0 52.667 -16.5 93.667 -49.5 123s-76.167 44 -129.5 44c-25.333 0 -53.666 -3.33301 -84.999 -10v-239z" />
    <glyph glyph-name="afii10019" unicode="&#x412;" horiz-adv-x="646" 
d="M35 0v28.999c44 2.66699 70 7 78 13s12 23 12 51v506c0 28 -4 45 -12 51s-34 10.333 -78 13v29h289c82 0 141 -12 177 -36c41.333 -28 62 -69 62 -123c0 -38.667 -13.167 -71.667 -39.5 -99s-62.833 -45.666 -109.5 -54.999v-2
c53.333 -7.33301 96.833 -25.833 130.5 -55.5s50.5 -72.167 50.5 -127.5c0 -129.333 -83.333 -194 -250 -194h-310zM224 111.999c0 -31.333 6.16699 -51.999 18.5 -61.999s38.166 -15 77.499 -15c112 0 168 50.667 168 152c0 53.333 -16.667 94.666 -50 123.999
s-80.666 44 -141.999 44h-72v-243zM224 390l67 -0.000976562c111.333 0 167 45.667 167 137c0 24.667 -4.5 45.834 -13.5 63.501s-21.167 31.167 -36.5 40.5s-31.333 16 -48 20s-35 6 -55 6c-38 0 -61 -2.83301 -69 -8.5s-12 -19.5 -12 -41.5v-217z" />
    <glyph glyph-name="afii10020" unicode="&#x413;" horiz-adv-x="554" 
d="M35 0l0.000976562 29.001c44 2.66699 70 7 78 13s12 23 12 51v506c0 28 -4 45 -12 51s-34 10.333 -78 13v29h502v-164h-30c-7.33301 52 -20.833 86.5 -40.5 103.5s-57.834 25.5 -114.501 25.5h-91c-16.667 0 -27 -1.83301 -31 -5.5s-6 -13.834 -6 -30.501v-528
c0 -28 4.83301 -45 14.5 -51s40.167 -10.333 91.5 -13v-29h-295z" />
    <glyph glyph-name="afii10021" unicode="&#x414;" horiz-adv-x="702" 
d="M11 -190l13 225h42c45.333 0 83.833 51.5 115.5 154.5s47.5 239.5 47.5 409.5c0 28 -4 45 -12 51s-34 10.333 -78 13v29h538v-29c-44 -2.66699 -70 -7 -78 -13s-12 -23 -12 -51v-509c0 -25.333 4.33301 -40.833 13 -46.5s31 -8.5 67 -8.5l13 -225h-28
c-5.33301 34 -10.5 60 -15.5 78s-12.167 35.5 -21.5 52.5s-21.833 29.167 -37.5 36.5s-35.5 13 -59.5 17s-54.667 6 -92 6h-161c-37.333 0 -68 -2 -92 -6s-43.833 -9.66699 -59.5 -17s-28.167 -19.5 -37.5 -36.5s-16.5 -34.5 -21.5 -52.5s-10.167 -44 -15.5 -78h-28zM146 35
l262 0.000976562c36 0 58.333 2.83301 67 8.5s13 21.167 13 46.5v512c0 25.333 -4.33301 40.833 -13 46.5s-31 8.5 -67 8.5h-53c-36 0 -58.333 -2.83301 -67 -8.5s-13 -21.167 -13 -46.5c0 -140.667 -12 -260.334 -36 -359.001s-55 -168 -93 -208z" />
    <glyph glyph-name="afii10022" unicode="&#x415;" horiz-adv-x="606" 
d="M35 0l-0.000976562 28.998c44 2.66699 70 7 78 13s12 23 12 51v506c0 28 -4 45 -12 51s-34 10.333 -78 13v29h505v-164h-30c-7.33301 52.667 -20.333 87.334 -39 104.001s-56 25 -112 25h-98c-16 0 -26.167 -2 -30.5 -6s-6.5 -14 -6.5 -30v-242h140
c21.333 0 38 1.33301 50 4s21.167 8.16699 27.5 16.5s10.666 16.666 12.999 24.999s4.83301 21.833 7.5 40.5h30v-211h-30c-2.66699 19.333 -5.16699 33 -7.5 41s-6.66602 16.333 -12.999 25s-15.5 14.334 -27.5 17.001s-28.667 4 -50 4h-140v-221
c0 -25.333 1.66699 -43 5 -53s10 -17.333 20 -22c17.333 -6.66699 52 -10 104 -10c66.667 0 112.834 8.33301 138.501 25s44.167 54.334 55.5 113.001h30l-12 -173h-530z" />
    <glyph glyph-name="afii10024" unicode="&#x416;" horiz-adv-x="1075" 
d="M35 -15v35.001c35.333 0 63.333 10.833 84 32.5s36.667 61.167 48 118.5c10 50 34.667 93.5 74 130.5s82.333 59.167 129 66.5v3c-26 8 -46.333 25 -61 51s-29.667 68 -45 126c-8.66699 34.667 -21 64 -37 88s-30.667 36 -44 36c-10.667 0 -18.167 -3.33301 -22.5 -10
s-6.5 -13.334 -6.5 -20.001c0 -7.33301 1 -17.333 3 -30s3 -24.334 3 -35.001c0 -24 -14 -36 -42 -36c-18.667 0 -32.334 5.33301 -41.001 16s-13 22 -13 34c0 77.333 39.333 116 118 116c27.333 0 52.833 -15.667 76.5 -47s42.167 -72.333 55.5 -123
c6.66699 -24.667 13.334 -45 20.001 -61s15.834 -32 27.501 -48s27 -28 46 -36s41.833 -12 68.5 -12h12v219c0 28 -4 45 -12 51s-34 10.333 -78 13v29h279v-29c-44 -2.66699 -70 -7 -78 -13s-12 -23 -12 -51v-219h12c26.667 0 49.5 4 68.5 12s34.333 20 46 36
s20.834 32 27.501 48s13.334 36.333 20.001 61c13.333 50.667 31.833 91.667 55.5 123s49.167 47 76.5 47c78.667 0 118 -38.667 118 -116c0 -12 -4.33301 -23.333 -13 -34s-22.334 -16 -41.001 -16c-28 0 -42 12 -42 36c0 10.667 1 22.334 3 35.001s3 22.667 3 30
c0 4 -0.666992 8 -2 12s-4.33301 8 -9 12s-10.667 6 -18 6c-13.333 0 -28 -12 -44 -36s-28.333 -53.333 -37 -88c-15.333 -58 -30.333 -100 -45 -126s-35 -43 -61 -51v-3c46.667 -7.33301 89.667 -29.5 129 -66.5s64 -80.5 74 -130.5
c11.333 -57.333 27.333 -96.833 48 -118.5s48.667 -32.5 84 -32.5v-35h-56c-53.333 0 -93 9.16699 -119 27.5s-44.333 54.833 -55 109.5c-16.667 84 -38.334 141.5 -65.001 172.5s-67.667 46.5 -123 46.5h-35v-248c0 -28 4 -45 12 -51s34 -10.333 78 -13v-29h-279v29
c44 2.66699 70 7 78 13s12 23 12 51v248h-35c-55.333 0 -96.333 -15.5 -123 -46.5s-48.334 -88.5 -65.001 -172.5c-10.667 -54.667 -29 -91.167 -55 -109.5s-65.667 -27.5 -119 -27.5h-56z" />
    <glyph glyph-name="afii10025" unicode="&#x417;" horiz-adv-x="616" 
d="M45 139c0 44.667 17.333 67.001 52 67.001s52 -17 52 -51c0 -8 -2.16699 -20.167 -6.5 -36.5s-6.5 -27.833 -6.5 -34.5c0 -18.667 12.833 -34 38.5 -46s56.167 -18 91.5 -18c47.333 0 91.166 15.333 131.499 46s60.5 67.667 60.5 111c0 49.333 -20 90.333 -60 123
s-84 49 -132 49h-72v38h67c38.667 0 76.667 13.167 114 39.5s56 61.833 56 106.5c0 40.667 -15.667 74.167 -47 100.5s-67 39.5 -107 39.5c-52 0 -91 -11.833 -117 -35.5s-44.333 -70.834 -55 -141.501h-32v170c58.667 27.333 124.334 41 197.001 41
c46 0 88.333 -5.5 127 -16.5s71.5 -29.667 98.5 -56s40.5 -58.166 40.5 -95.499c0 -80.667 -50.667 -137.334 -152 -170.001v-2c120.667 -35.333 181 -96.333 181 -183c0 -29.333 -4.66699 -55.333 -14 -78s-25 -43.5 -47 -62.5s-53.5 -33.5 -94.5 -43.5
s-90.5 -15 -148.5 -15c-62 0 -113.5 13.5 -154.5 40.5s-61.5 64.833 -61.5 113.5z" />
    <glyph glyph-name="afii10026" unicode="&#x418;" horiz-adv-x="804" 
d="M35 0v29c44 2.66699 70 7 78 13s12 23 12 51v506c0 28 -4 45 -12 51s-34 10.333 -78 13v29h279v-29c-44 -2.66699 -70 -7 -78 -13s-12 -23 -12 -51v-427l356 425v2c0 28 -4 45 -12 51s-34 10.333 -78 13v29h279v-29c-44 -2.66699 -70 -7 -78 -13s-12 -23 -12 -51v-506
c0 -28 4 -45 12 -51s34 -10.333 78 -13v-29h-279v29c44 2.66699 70 7 78 13s12 23 12 51v443l-356 -424v-19c0 -28 4 -45 12 -51s34 -10.333 78 -13v-29h-279z" />
    <glyph glyph-name="afii10027" unicode="&#x419;" horiz-adv-x="804" 
d="M226 847c0 52.667 16.002 79 48.002 79c19.333 0 33.666 -4.66699 42.999 -14s14 -19 14 -29c0 -8.66699 -3 -19.667 -9 -33s-9 -22.666 -9 -27.999c0 -11.333 9.33301 -20.666 28 -27.999s39 -11 61 -11s42.333 3.66699 61 11s28 16.666 28 27.999
c0 5.33301 -3 14.666 -9 27.999s-9 24.333 -9 33c0 10 4.66699 19.667 14 29s23.666 14 42.999 14c32 0 48 -26.333 48 -79c0 -24 -13.667 -46.5 -41 -67.5s-72.333 -31.5 -135 -31.5s-107.667 10.5 -135 31.5s-41 43.5 -41 67.5zM35.002 0v29c44 2.66699 70 7 78 13
s12 23 12 51v506c0 28 -4 45 -12 51s-34 10.333 -78 13v29h279v-29c-44 -2.66699 -70 -7 -78 -13s-12 -23 -12 -51v-427l356 425v2c0 28 -4 45 -12 51s-34 10.333 -78 13v29h279v-29c-44 -2.66699 -70 -7 -78 -13s-12 -23 -12 -51v-506c0 -28 4 -45 12 -51
s34 -10.333 78 -13v-29h-279v29c44 2.66699 70 7 78 13s12 23 12 51v443l-356 -424v-19c0 -28 4 -45 12 -51s34 -10.333 78 -13v-29h-279z" />
    <glyph glyph-name="afii10028" unicode="&#x41a;" horiz-adv-x="732" 
d="M35 0l0.00195312 28.998c44 2.66699 70 7 78 13s12 23 12 51v506c0 28 -4 45 -12 51s-34 10.333 -78 13v29h279v-29c-44 -2.66699 -70 -7 -78 -13s-12 -23 -12 -51v-219h26c27.333 0 50.833 3.83301 70.5 11.5s35.334 19.834 47.001 36.501s20.667 32.667 27 48
s12.833 35.666 19.5 60.999c13.333 51.333 31.666 92.5 54.999 123.5s49.666 46.5 78.999 46.5c78.667 0 118 -38.667 118 -116c0 -12 -4.33301 -23.333 -13 -34s-22.334 -16 -41.001 -16c-28 0 -42 12 -42 36c0 10.667 1 22.667 3 36s3 23 3 29
c0 8.66699 -2.5 15.834 -7.5 21.501s-12.167 8.5 -21.5 8.5c-14.667 0 -29.834 -11.833 -45.501 -35.5s-28.167 -53.167 -37.5 -88.5c-15.333 -57.333 -30.666 -99.166 -45.999 -125.499s-36 -43.5 -62 -51.5v-3c47.333 -7.33301 91.166 -29.5 131.499 -66.5
s65.5 -80.5 75.5 -130.5c11.333 -58 27.333 -97.667 48 -119s49.334 -32 86.001 -32v-35h-58c-53.333 0 -93 9.16699 -119 27.5s-44.333 54.833 -55 109.5c-16.667 84 -38.5 141.5 -65.5 172.5s-69.167 46.5 -126.5 46.5h-49v-248c0 -28 4 -45 12 -51s34 -10.333 78 -13v-29
h-279z" />
    <glyph glyph-name="afii10029" unicode="&#x41b;" 
d="M16 109c0 40.667 17.333 61 52 61c13.333 0 24.333 -4 33 -12s13 -16.667 13 -26c0 -8 -3 -21.167 -9 -39.5s-9 -31.166 -9 -38.499c0 -20.667 12.333 -31 37 -31c44.667 0 80.167 52.167 106.5 156.5s39.5 244.166 39.5 419.499c0 28 -4 45 -12 51s-34 10.333 -78 13v29
h538v-29c-44 -2.66699 -70 -7 -78 -13s-12 -23 -12 -51v-506c0 -28 4 -45 12 -51s34 -10.333 78 -13v-29h-279v29c44 2.66699 70 7 78 13s12 23 12 51v509c0 25.333 -4.33301 40.833 -13 46.5s-31 8.5 -67 8.5h-53c-36 0 -58.333 -2.83301 -67 -8.5s-13 -21.167 -13 -46.5
c0 -187.333 -16.833 -336.5 -50.5 -447.5s-77.5 -166.5 -131.5 -166.5c-42 0 -73.667 10.667 -95 32s-32 51 -32 89z" />
    <glyph glyph-name="afii10030" unicode="&#x41c;" horiz-adv-x="944" 
d="M34 0l0.00195312 29.001c29.333 2 49.666 6 60.999 12s18.333 18.667 21 38c4.66699 30.667 7 72 7 124v396c0 28 -4 45 -12 51s-34 10.333 -78 13v29h203l35.5 -84l43.5 -98l38 -84l118 -267h2l120 268c57.333 126.667 95.666 215 114.999 265h201v-29
c-43.333 -3.33301 -69.166 -7.83301 -77.499 -13.5s-12.5 -22.5 -12.5 -50.5v-506c0 -28 4.16699 -44.833 12.5 -50.5s34.166 -10.167 77.499 -13.5v-29h-279v29c44 2.66699 70 7 78 13s12 23 12 51v507h-3l-261 -588h-27l-258 588h-2v-397c0 -52 2.33301 -93.333 7 -124
c2.66699 -19.333 10.167 -31.833 22.5 -37.5s36.5 -9.83398 72.5 -12.501v-29h-237z" />
    <glyph glyph-name="afii10031" unicode="&#x41d;" horiz-adv-x="798" 
d="M35 0v29c44 2.66699 70 7 78 13s12 23 12 51v506c0 28 -4 45 -12 51s-34 10.333 -78 13v29h279v-29c-43.333 -3.33301 -69.166 -7.83301 -77.499 -13.5s-12.5 -22.5 -12.5 -50.5v-220h350v220c0 28 -4 45 -12 51s-34 10.333 -78 13v29h279v-29
c-43.333 -3.33301 -69.166 -7.83301 -77.499 -13.5s-12.5 -22.5 -12.5 -50.5v-506c0 -28 4.16699 -44.833 12.5 -50.5s34.166 -10.167 77.499 -13.5v-29h-279v29c44 2.66699 70 7 78 13s12 23 12 51v248h-350v-248c0 -28 4.16699 -44.833 12.5 -50.5
s34.166 -10.167 77.499 -13.5v-29h-279z" />
    <glyph glyph-name="afii10032" unicode="&#x41e;" 
d="M48 346c0 113.333 28.333 201.333 85 264c57.333 64.667 140 97 248 97s190.667 -32.333 248 -97c56.667 -62.667 85 -150.667 85 -264s-28.333 -201.333 -85 -264c-57.333 -64.667 -140 -97 -248 -97s-190.667 32.333 -248 97c-56.667 62.667 -85 150.667 -85 264z
M160 346c0 -40.667 3.33301 -78.667 10 -114s17.667 -69.666 33 -102.999s38.166 -59.833 68.499 -79.5s66.833 -29.5 109.5 -29.5s79.167 9.83301 109.5 29.5s53.166 46.167 68.499 79.5s26.333 67.666 33 102.999s10 73.333 10 114s-3.33301 78.667 -10 114
s-17.667 69.666 -33 102.999s-38.166 59.833 -68.499 79.5s-66.833 29.5 -109.5 29.5s-79.167 -9.83301 -109.5 -29.5s-53.166 -46.167 -68.499 -79.5s-26.333 -67.666 -33 -102.999s-10 -73.333 -10 -114z" />
    <glyph glyph-name="afii10033" unicode="&#x41f;" horiz-adv-x="788" 
d="M35 0v29c44 2.66699 70 7 78 13s12 23 12 51v506c0 28 -4 45 -12 51s-34 10.333 -78 13v29h718v-29c-44 -2.66699 -70 -7 -78 -13s-12 -23 -12 -51v-506c0 -28 4 -45 12 -51s34 -10.333 78 -13v-29h-279v29c44 2.66699 70 7 78 13s12 23 12 51v509
c0 25.333 -4.33301 40.833 -13 46.5s-31 8.5 -67 8.5h-180c-36 0 -58.333 -2.83301 -67 -8.5s-13 -21.167 -13 -46.5v-509c0 -28 4 -45 12 -51s34 -10.333 78 -13v-29h-279z" />
    <glyph glyph-name="afii10034" unicode="&#x420;" horiz-adv-x="600" 
d="M35 0l-0.000976562 29c44 2.66699 70 7 78 13s12 23 12 51v506c0 28 -4 45 -12 51s-34 10.333 -78 13v29h279c78.667 0 139.334 -13.333 182.001 -40c52 -32.667 78 -84.667 78 -156c0 -56.667 -16 -101 -48 -133s-71 -54 -117 -66c-35.333 -8.66699 -78 -13 -128 -13
h-57v-191c0 -28 4.83301 -45 14.5 -51s40.167 -10.333 91.5 -13v-29h-295zM223.999 358c0 -18 4.5 -29 13.5 -33s29.167 -6 60.5 -6c48 0 88 13.833 120 41.5s48 70.5 48 128.5c0 54 -14.667 95.5 -44 124.5s-70 43.5 -122 43.5c-31.333 0 -51.833 -2.5 -61.5 -7.5
s-14.5 -14.833 -14.5 -29.5v-262z" />
    <glyph glyph-name="afii10035" unicode="&#x421;" horiz-adv-x="684" 
d="M48 341c0 107.333 30.3369 194.999 91.0039 262.999c61.333 68.667 155.333 103 282 103c85.333 0 156 -13 212 -39v-156h-30c-17.333 106.667 -81.333 160 -192 160c-44.667 0 -83.667 -9.16699 -117 -27.5s-59.5 -43.5 -78.5 -75.5s-33 -66.667 -42 -104
s-13.5 -77.666 -13.5 -120.999c0 -27.333 2 -54.333 6 -81s11.667 -55 23 -85s25.833 -56.333 43.5 -79s41.667 -41.5 72 -56.5s65.166 -22.5 104.499 -22.5c61.333 0 107.833 15.5 139.5 46.5s55.167 75.5 70.5 133.5h30l-14 -167
c-24.667 -13.333 -57.834 -24.666 -99.501 -33.999s-81.834 -14 -120.501 -14c-124.667 0 -215.334 28.333 -272.001 85c-63.333 63.333 -95 153.666 -95 270.999z" />
    <glyph glyph-name="afii10036" unicode="&#x422;" horiz-adv-x="621" 
d="M22 526v166h577v-166h-30c-6 55.333 -18 91 -36 107s-56 24 -114 24h-59v-564c0 -28 5 -45 15 -51s41.667 -10.333 95 -13v-29h-319v29c53.333 2.66699 85 7 95 13s15 23 15 51v564h-59c-58 0 -96 -8 -114 -24s-30 -51.667 -36 -107h-30z" />
    <glyph glyph-name="afii10037" unicode="&#x423;" 
d="M28 663l0.00195312 28.9961h258v-29l-42 -4c-16.667 -1.33301 -25 -9 -25 -23c0 -11.333 33.667 -76.666 101 -195.999l123 -218l3 -2l90 220c42 102.667 63 167.667 63 195c0 13.333 -8.66699 21 -26 23l-54 5v29h221v-29c-28.667 -1.33301 -47.334 -4.5 -56.001 -9.5
s-17.667 -19.167 -27 -42.5l-225 -526c-27.333 -64.667 -75 -97 -143 -97c-40.667 0 -72 11.5 -94 34.5s-33 51.5 -33 85.5c0 21.333 5 38.333 15 51s23.333 19 40 19c12.667 0 23.834 -3.33301 33.501 -10s14.5 -15 14.5 -25c0 -7.33301 -4.33301 -19.666 -13 -36.999
s-13 -30.333 -13 -39c0 -29.333 19.667 -44 59 -44c16 0 32.833 7 50.5 21s31.167 31 40.5 51l11 23l-264 458l-13.5 23c-5 8.66699 -8.66699 14.834 -11 18.501l-8.5 14c-3.33301 5.66699 -6 9.5 -8 11.5l-7.5 7.5c-3 3 -5.83301 5 -8.5 6s-5.83398 1.83301 -9.50098 2.5
s-7.83398 1.33398 -12.501 2.00098z" />
    <glyph glyph-name="afii10038" unicode="&#x424;" horiz-adv-x="891" 
d="M48 353c0 153.333 116 230 348 230v20c0 28 -4.83301 45 -14.5 51s-40.167 10.333 -91.5 13v29h311v-29c-51.333 -2.66699 -81.833 -7 -91.5 -13s-14.5 -23 -14.5 -51v-20c232 0 348 -76.667 348 -230s-116 -230 -348 -230v-30c0 -28 4.83301 -45 14.5 -51
s40.167 -10.333 91.5 -13v-29h-311v29c51.333 2.66699 81.833 7 91.5 13s14.5 23 14.5 51v30c-232 0 -348 76.667 -348 230zM158 353c0 -62.667 20.333 -110.332 61 -142.999s99.667 -49 177 -49v384c-77.333 0 -136.333 -16.333 -177 -49s-61 -80.334 -61 -143.001z
M495 161.002c77.333 0 136.333 16.3311 177 48.998s61 80.334 61 143.001s-20.333 110.334 -61 143.001s-99.667 49 -177 49v-384z" />
    <glyph glyph-name="afii10039" unicode="&#x425;" horiz-adv-x="624" 
d="M-19 0l0.000976562 29.002c32.667 3.33301 54.5 7.66602 65.5 12.999s24.833 19 41.5 41c16 21.333 47 66.333 93 135l86 127l-160 255c-17.333 27.333 -32 44.5 -44 51.5s-33.667 10.833 -65 11.5v29h258v-29l-48 -5c-18.667 -2 -21.667 -13.333 -9 -34l125 -196h2
c50.667 73.333 93.667 139.333 129 198c12 20 9 31 -9 33l-48 4v29h221v-29c-30 -1.33301 -51.333 -5.33301 -64 -12s-29.667 -23 -51 -49c-46.667 -57.333 -98.667 -128.333 -156 -213l196 -303c14.667 -22.667 28.167 -37.167 40.5 -43.5s36.5 -10.833 72.5 -13.5v-29
h-284v29l55 6c21.333 2 26.666 11.667 15.999 29l-152 241h-2c-56 -86.667 -104.333 -167.334 -145 -242.001c-10 -16 -6.33301 -25 11 -27l64 -7v-29h-239z" />
    <glyph glyph-name="afii10040" unicode="&#x426;" horiz-adv-x="786" 
d="M35 0v29c44 2.66699 70 7 78 13s12 23 12 51v506c0 28 -4 45 -12 51s-34 10.333 -78 13v29h279v-29c-44 -2.66699 -70 -7 -78 -13s-12 -23 -12 -51v-509c0 -25.333 4.33301 -40.833 13 -46.5s31 -8.5 67 -8.5h178c36 0 58.333 2.83301 67 8.5s13 21.167 13 46.5v509
c0 28 -4 45 -12 51s-34 10.333 -78 13v29h279v-29c-44 -2.66699 -70 -7 -78 -13s-12 -23 -12 -51v-509c0 -25.333 4.33301 -40.833 13 -46.5s31 -8.5 67 -8.5h19l13 -225h-28c-5.33301 34 -10.5 60 -15.5 78s-12.167 35.5 -21.5 52.5s-21.833 29.167 -37.5 36.5
s-35.5 13 -59.5 17s-54.667 6 -92 6h-484z" />
    <glyph glyph-name="afii10041" unicode="&#x427;" horiz-adv-x="748" 
d="M29 663l0.000976562 29h279v-29c-44 -2.66699 -70 -7 -78 -13s-12 -23 -12 -51v-146c0 -46.667 7.33301 -80.667 22 -102s43 -32 85 -32c50.667 0 88 4.66699 112 14c58 23.333 87 49.333 87 78v188c0 28 -4 45 -12 51s-34 10.333 -78 13v29h279v-29
c-44 -2.66699 -70 -7 -78 -13s-12 -23 -12 -51v-506c0 -28 4 -45 12 -51s34 -10.333 78 -13v-29h-295v29c51.333 2.66699 81.833 7 91.5 13s14.5 23 14.5 51v250c-72.667 -57.333 -150.334 -86 -233.001 -86c-66 0 -111.167 17.833 -135.5 53.5s-36.5 93.167 -36.5 172.5
v116c0 28 -4 45 -12 51s-34 10.333 -78 13z" />
    <glyph glyph-name="afii10042" unicode="&#x428;" horiz-adv-x="1087" 
d="M35 0v29c44 2.66699 70 7 78 13s12 23 12 51v506c0 28 -4 45 -12 51s-34 10.333 -78 13v29h279v-29c-44 -2.66699 -70 -7 -78 -13s-12 -23 -12 -51v-509c0 -25.333 4.33301 -40.833 13 -46.5s31 -8.5 67 -8.5h110c36 0 58.333 2.83301 67 8.5s13 21.167 13 46.5v509
c0 28 -4 45 -12 51s-34 10.333 -78 13v29h279v-29c-44 -2.66699 -70 -7 -78 -13s-12 -23 -12 -51v-509c0 -25.333 4.33301 -40.833 13 -46.5s31 -8.5 67 -8.5h110c36 0 58.333 2.83301 67 8.5s13 21.167 13 46.5v509c0 28 -4 45 -12 51s-34 10.333 -78 13v29h279v-29
c-44 -2.66699 -70 -7 -78 -13s-12 -23 -12 -51v-506c0 -28 4 -45 12 -51s34 -10.333 78 -13v-29h-1017z" />
    <glyph glyph-name="afii10043" unicode="&#x429;" horiz-adv-x="1087" 
d="M35 0v29c44 2.66699 70 7 78 13s12 23 12 51v506c0 28 -4 45 -12 51s-34 10.333 -78 13v29h279v-29c-44 -2.66699 -70 -7 -78 -13s-12 -23 -12 -51v-509c0 -25.333 4.33301 -40.833 13 -46.5s31 -8.5 67 -8.5h110c36 0 58.333 2.83301 67 8.5s13 21.167 13 46.5v509
c0 28 -4 45 -12 51s-34 10.333 -78 13v29h279v-29c-44 -2.66699 -70 -7 -78 -13s-12 -23 -12 -51v-509c0 -25.333 4.33301 -40.833 13 -46.5s31 -8.5 67 -8.5h110c36 0 58.333 2.83301 67 8.5s13 21.167 13 46.5v509c0 28 -4 45 -12 51s-34 10.333 -78 13v29h279v-29
c-44 -2.66699 -70 -7 -78 -13s-12 -23 -12 -51v-509c0 -25.333 4.33301 -40.833 13 -46.5s31 -8.5 67 -8.5h19l13 -225h-28c-5.33301 34 -10.5 60 -15.5 78s-12.167 35.5 -21.5 52.5s-21.833 29.167 -37.5 36.5s-35.5 13 -59.5 17s-54.667 6 -92 6h-785z" />
    <glyph glyph-name="afii10044" unicode="&#x42a;" horiz-adv-x="774" 
d="M22 528l0.000976562 163.999h444v-29c-51.333 -2.66699 -81.833 -7 -91.5 -13s-14.5 -23 -14.5 -51v-219c21.333 6.66699 57 10 107 10c75.333 0 138.166 -16.667 188.499 -50s75.5 -80.666 75.5 -141.999c0 -132 -83.333 -198 -250 -198h-326v29
c51.333 2.66699 81.833 7 91.5 13s14.5 23 14.5 51v512c0 22 -3.83301 36 -11.5 42s-25.5 9.33301 -53.5 10c-52.667 -0.666992 -88 -9.66699 -106 -27s-30.667 -51.333 -38 -102h-30zM360.001 111.999c0 -31.333 6.16797 -52 18.501 -62s38.166 -15 77.499 -15
c112 0 168 52 168 156c0 51.333 -16.5 91.5 -49.5 120.5s-76.167 43.5 -129.5 43.5c-36.667 0 -65 -4.33301 -85 -13v-230z" />
    <glyph glyph-name="afii10045" unicode="&#x42b;" horiz-adv-x="930" 
d="M616 0v29c44 2.66699 70 7 78 13s12 23 12 51v506c0 28 -4 45 -12 51s-34 10.333 -78 13v29h279v-29c-43.333 -3.33301 -69.166 -7.83301 -77.499 -13.5s-12.5 -22.5 -12.5 -50.5v-506c0 -28 4.16699 -44.833 12.5 -50.5s34.166 -10.167 77.499 -13.5v-29h-279zM35 0
l0.000976562 28.999c44 2.66699 70 7 78 13s12 23 12 51v506c0 28 -4 45 -12 51s-34 10.333 -78 13v29h295v-29c-51.333 -2.66699 -81.833 -7 -91.5 -13s-14.5 -23 -14.5 -51v-219c21.333 6.66699 57 10 107 10c75.333 0 138.166 -16.667 188.499 -50
s75.5 -80.666 75.5 -141.999c0 -132 -83.333 -198 -250 -198h-310zM224.001 111.999c0 -31.333 6.16797 -52 18.501 -62s38.166 -15 77.499 -15c112 0 168 52 168 156c0 51.333 -16.5 91.5 -49.5 120.5s-76.167 43.5 -129.5 43.5c-36.667 0 -65 -4.33301 -85 -13v-230z" />
    <glyph glyph-name="afii10046" unicode="&#x42c;" horiz-adv-x="638" 
d="M35 0l0.000976562 28.999c44 2.66699 70 7 78 13s12 23 12 51v506c0 28 -4 45 -12 51s-34 10.333 -78 13v29h295v-29c-51.333 -2.66699 -81.833 -7 -91.5 -13s-14.5 -23 -14.5 -51v-219c21.333 6.66699 57 10 107 10c75.333 0 138.166 -16.667 188.499 -50
s75.5 -80.666 75.5 -141.999c0 -132 -83.333 -198 -250 -198h-310zM224.001 111.999c0 -31.333 6.16797 -52 18.501 -62s38.166 -15 77.499 -15c112 0 168 52 168 156c0 51.333 -16.5 91.5 -49.5 120.5s-76.167 43.5 -129.5 43.5c-36.667 0 -65 -4.33301 -85 -13v-230z" />
    <glyph glyph-name="afii10047" unicode="&#x42d;" horiz-adv-x="641" 
d="M45 139c0 21.333 4.83301 37.832 14.5 49.499s20.5 17.5 32.5 17.5c38.667 0 58 -16.333 58 -49c0 -10 -2.16699 -22.333 -6.5 -37s-6.5 -26.667 -6.5 -36c0 -16.667 11.5 -31.5 34.5 -44.5s54.5 -19.5 94.5 -19.5c78 0 133.333 28.333 166 85s49 136.334 49 239.001v1
h-298v38h297c-4 91.333 -22.5 162.333 -55.5 213s-85.833 76 -158.5 76c-44 0 -81 -12.333 -111 -37s-50 -71 -60 -139h-32v170c58.667 27.333 124.334 41 197.001 41c222 0 333 -120.333 333 -361s-110.667 -361 -332 -361c-62.667 0 -114.334 13.5 -155.001 40.5
s-61 64.833 -61 113.5z" />
    <glyph glyph-name="afii10048" unicode="&#x42e;" horiz-adv-x="1065" 
d="M35 0v29c44 2.66699 70 7 78 13s12 23 12 51v506c0 28 -4 45 -12 51s-34 10.333 -78 13v29h279v-29c-44 -2.66699 -70 -7 -78 -13s-12 -23 -12 -51v-220h128c6.66699 103.333 38 183.833 94 241.5s135.333 86.5 238 86.5c108 0 190.5 -32 247.5 -96
s85.5 -152.333 85.5 -265s-28.5 -201 -85.5 -265s-139.5 -96 -247.5 -96c-107.333 0 -189.333 31.333 -246 94s-85.667 150 -87 262h-127v-248c0 -28 4 -45 12 -51s34 -10.333 78 -13v-29h-279zM463 346c0 -40.667 3.33301 -78.667 10 -114s17.667 -69.666 33 -102.999
s38.166 -59.833 68.499 -79.5s66.833 -29.5 109.5 -29.5s79.167 9.83301 109.5 29.5s53.166 46.167 68.499 79.5s26.333 67.666 33 102.999s10 73.333 10 114s-3.33301 78.667 -10 114s-17.667 69.666 -33 102.999s-38.166 59.833 -68.499 79.5s-66.833 29.5 -109.5 29.5
s-79.167 -9.83301 -109.5 -29.5s-53.166 -46.167 -68.499 -79.5s-26.333 -67.666 -33 -102.999s-10 -73.333 -10 -114z" />
    <glyph glyph-name="afii10049" unicode="&#x42f;" horiz-adv-x="705" 
d="M31 -15l0.000976562 35.0039c33.333 0 58 10 74 30s30.667 60.333 44 121c8 36.667 22.833 67.167 44.5 91.5s44.5 42.166 68.5 53.499v3h1c-23.333 8 -43 16 -59 24s-32.667 19.167 -50 33.5s-30.5 32.666 -39.5 54.999s-13.5 48.5 -13.5 78.5
c0 62 24.667 107.833 74 137.5s111.333 44.5 186 44.5h309v-29c-44 -2.66699 -70 -7 -78 -13s-12 -23 -12 -51v-506c0 -28 4 -45 12 -51s34 -10.333 78 -13v-29h-295v29c51.333 2.66699 81.833 7 91.5 13s14.5 23 14.5 51v211h-77
c-22.667 -0.666992 -41.5 -3.16699 -56.5 -7.5s-27.5 -9.83301 -37.5 -16.5s-18.833 -18.334 -26.5 -35.001s-13.834 -33.334 -18.501 -50.001s-10.667 -41 -18 -73c-12 -54 -30.833 -90.333 -56.5 -109s-62.5 -28 -110.5 -28h-49zM209.001 499.004
c0 -54 16.168 -94.167 48.501 -120.5s71.166 -39.5 116.499 -39.5h33c31.333 0 51.5 2 60.5 6s13.5 15 13.5 33v242c0 14.667 -4.83301 24.5 -14.5 29.5s-30.167 7.5 -61.5 7.5h-32c-51.333 0 -91.5 -13.833 -120.5 -41.5s-43.5 -66.5 -43.5 -116.5z" />
    <glyph glyph-name="afii10065" unicode="&#x430;" horiz-adv-x="523" 
d="M49 130c0 60.667 31 100.333 93 119c10 3.33301 25.833 8.16602 47.5 14.499s38.667 11.5 51 15.5l42.5 14.5c16 5.66699 28.833 11.167 38.5 16.5s16.834 10.333 21.501 15v42c0 36 -8.33301 61.667 -25 77s-36.667 23 -60 23c-49.333 0 -83.666 -32.667 -102.999 -98
c-5.33301 -18.667 -16 -28 -32 -28c-12 0 -24.333 4.16699 -37 12.5s-19 19.833 -19 34.5c0 28.667 20 54.834 60 78.501s87.333 35.5 142 35.5c36 0 65.667 -4 89 -12s40 -19.167 50 -33.5s16.667 -28 20 -41s5 -28.5 5 -46.5v-242c0 -52 11.667 -80.667 35 -86
c14 -4 31 -3.66699 51 1l6 -24c-40 -20 -79.333 -30 -118 -30c-16.667 0 -29.667 5 -39 15s-18 25 -26 45c-60.667 -40 -110.334 -60 -149.001 -60c-44.667 0 -79.834 13.667 -105.501 41s-38.5 61 -38.5 101zM150 143.999c0 -30.667 7.83301 -55.499 23.5 -74.499
s38.5 -28.5 68.5 -28.5c25.333 0 48.5 8 69.5 24s31.5 42 31.5 78v141c-12.667 -8 -51 -24 -115 -48c-28 -10.667 -48 -22.834 -60 -36.501s-18 -32.167 -18 -55.5z" />
    <glyph glyph-name="afii10066" unicode="&#x431;" horiz-adv-x="578" 
d="M52 318c0 86 9.66797 157.998 29.001 215.998c4 12 10.333 25.167 19 39.5s20.667 30.5 36 48.5s35.666 34.333 60.999 49s53.333 24.667 84 30c16.667 2.66699 35.334 5.33398 56.001 8.00098l50.5 6.5c13 1.66699 26.167 3.83398 39.5 6.50098
s23.666 6.33398 30.999 11.001s12.666 10.334 15.999 17.001h26c-5.33301 -16.667 -11.5 -31.167 -18.5 -43.5s-15.333 -22.833 -25 -31.5s-18 -15.667 -25 -21s-17 -10 -30 -14s-22.5 -6.66699 -28.5 -8s-16.667 -3.16602 -32 -5.49902s-25 -3.83301 -29 -4.5
c-62 -10.667 -106.167 -23.834 -132.5 -39.501s-47.5 -39.834 -63.5 -72.501c-6 -11.333 -11.833 -32.166 -17.5 -62.499s-8.5 -55.5 -8.5 -75.5l4 -2c18.667 41.333 43 73.666 73 96.999s70.667 35 122 35c79.333 0 139.166 -22.333 179.499 -67s60.5 -108 60.5 -190
s-20.167 -145.333 -60.5 -190s-100.166 -67 -179.499 -67c-31.333 0 -59.333 3.66699 -84 11s-45.167 16.833 -61.5 28.5s-30.333 26.667 -42 45s-20.667 36.333 -27 54s-11.166 38.667 -14.499 63s-5.5 45.666 -6.5 63.999s-1.5 39.833 -1.5 64.5zM153.001 244.998
c0 -70.667 11.333 -125.334 34 -164.001s56.667 -58 102 -58s79.333 19.333 102 58s34 93.334 34 164.001s-11.333 125.334 -34 164.001s-56.667 58 -102 58s-79.333 -19.333 -102 -58s-34 -93.334 -34 -164.001z" />
    <glyph glyph-name="afii10067" unicode="&#x432;" horiz-adv-x="557" 
d="M32 0v29c36 2.66699 57.5 6.66699 64.5 12s10.5 20.666 10.5 45.999v316c0 25.333 -3.5 40.666 -10.5 45.999s-28.5 9.33301 -64.5 12v29h254c54 0 100.167 -10.167 138.5 -30.5s57.5 -52.166 57.5 -95.499c0 -28 -8.66699 -49.667 -26 -65s-43 -27.666 -77 -36.999v-3
c85.333 -21.333 128 -62.333 128 -123c0 -47.333 -17.5 -81.833 -52.5 -103.5s-79.5 -32.5 -133.5 -32.5h-289zM201 90c0 -25.333 3.16797 -40.5 9.50098 -45.5s28.166 -8.16699 65.499 -9.5h7c80 0 120 33.667 120 101c0 31.333 -11.5 56 -34.5 74s-54.167 27 -93.5 27h-74
v-147zM201.001 272h80c30.667 0 55.334 9.16699 74.001 27.5s28 39.833 28 64.5c0 24 -8.16699 45.167 -24.5 63.5s-39.833 27.5 -70.5 27.5h-12c-36.667 0 -58.334 -2.66699 -65.001 -8s-10 -21 -10 -47v-128z" />
    <glyph glyph-name="afii10068" unicode="&#x433;" horiz-adv-x="472" 
d="M32 0l-0.00195312 29.001c36 2.66699 57.5 6.66699 64.5 12s10.5 20.666 10.5 45.999v316c0 25.333 -3.5 40.666 -10.5 45.999s-28.5 9.33301 -64.5 12v29h418v-148h-31c-6.66699 46.667 -18.667 77.167 -36 91.5s-52.666 21.5 -105.999 21.5h-1
c-37.333 -1.33301 -59.166 -4.5 -65.499 -9.5s-9.5 -20.167 -9.5 -45.5v-314c0 -25.333 4.5 -40.666 13.5 -45.999s36.167 -9 81.5 -11v-29h-264z" />
    <glyph glyph-name="afii10069" unicode="&#x434;" horiz-adv-x="572" 
d="M9 -168l12.998 203h34c25.333 0 46.666 13.833 63.999 41.5s29.5 64.167 36.5 109.5s11.667 84.333 14 117s3.5 66 3.5 100c0 25.333 -3.5 40.666 -10.5 45.999s-28.5 9.33301 -64.5 12v29h441v-29c-36 -2.66699 -57.5 -6.66699 -64.5 -12s-10.5 -20.666 -10.5 -45.999
v-313c0 -25.333 3.16699 -40.5 9.5 -45.5s28.166 -8.16699 65.499 -9.5l13 -203h-28c-7.33301 71.333 -21.666 117.166 -42.999 137.499s-62.666 30.5 -123.999 30.5h-154c-61.333 0 -102.666 -10.167 -123.999 -30.5s-35.666 -66.166 -42.999 -137.499h-28zM139.998 35
l155.999 0.000976562c37.333 1.33301 59.166 4.5 65.499 9.5s9.5 20.167 9.5 45.5v310c0 25.333 -3.16699 40.5 -9.5 45.5s-28.166 8.16699 -65.499 9.5h-7c-37.333 -1.33301 -59.166 -4.5 -65.499 -9.5s-9.5 -20.167 -9.5 -45.5c0 -184.667 -24.667 -306.334 -74 -365.001z
" />
    <glyph glyph-name="afii10070" unicode="&#x435;" horiz-adv-x="514" 
d="M49 241c0 78.667 19.5 141.834 58.5 189.501s96.167 71.5 171.5 71.5c34.667 0 65 -5.16699 91 -15.5s45.833 -22.833 59.5 -37.5s24.667 -32 33 -52s13.5 -37.333 15.5 -52s3 -29.334 3 -44.001c0 -25.333 -13.333 -38 -40 -38h-288
c-2.66699 -149.333 46.333 -224 147 -224c36 0 65.167 9.33301 87.5 28s41.5 44.667 57.5 78l30 -16c-32 -94 -97 -141 -195 -141c-154 0 -231 84.333 -231 253zM154 301h188.996c13.333 0 22.333 2.66699 27 8s7 13.333 7 24c0 9.33301 -0.5 19 -1.5 29
s-3.66699 21.667 -8 35s-10.166 24.833 -17.499 34.5s-17.666 18 -30.999 25s-28.666 10.5 -45.999 10.5c-24 0 -44.667 -6.5 -62 -19.5s-29.666 -29.333 -36.999 -49s-12.5 -37.5 -15.5 -53.5s-4.5 -30.667 -4.5 -44z" />
    <glyph glyph-name="afii10072" unicode="&#x436;" horiz-adv-x="850" 
d="M27 -12l-0.00195312 33c26.667 0 47 6.66699 61 20s25.333 40 34 80c7.33301 34 24.833 63 52.5 87s63.5 38.667 107.5 44v2c-13.333 3.33301 -27.5 17.333 -42.5 42s-27.167 56 -36.5 94c-4.66699 18 -13.5 35.333 -26.5 52s-24.833 25 -35.5 25
c-12.667 0 -19 -6.66699 -19 -20c0 -7.33301 1 -17 3 -29s3 -19.667 3 -23c0 -21.333 -14.333 -32 -43 -32c-15.333 0 -26.666 5 -33.999 15s-11 20.333 -11 31c0 21.333 7.66699 42.166 23 62.499s39.666 30.5 72.999 30.5c28 0 51.5 -11.5 70.5 -34.5
s33.167 -51.5 42.5 -85.5c10 -37.333 23.5 -66.5 40.5 -87.5s44.167 -31.5 81.5 -31.5h7v140c0 25.333 -3.5 40.666 -10.5 45.999s-28.5 9.33301 -64.5 12v29h244v-29c-36 -2.66699 -57.5 -6.66699 -64.5 -12s-10.5 -20.666 -10.5 -45.999v-140h7
c37.333 0 64.5 10.5 81.5 31.5s30.5 50.167 40.5 87.5c9.33301 34 23.5 62.5 42.5 85.5s42.5 34.5 70.5 34.5c33.333 0 57.666 -10.167 72.999 -30.5s23 -41.166 23 -62.499c0 -10.667 -3.66699 -21 -11 -31s-18.666 -15 -33.999 -15c-28.667 0 -43 10.667 -43 32
c0 3.33301 1 11 3 23s3 21.667 3 29c0 13.333 -6.33301 20 -19 20c-10.667 0 -22.5 -8.33301 -35.5 -25s-21.833 -34 -26.5 -52c-9.33301 -38 -21.5 -69.333 -36.5 -94s-29.167 -38.667 -42.5 -42v-2c44 -5.33301 79.833 -20 107.5 -44s45.167 -53 52.5 -87
c8.66699 -40 20 -66.667 34 -80s34.333 -20 61 -20v-33h-20c-92.667 0 -147.334 32.667 -164.001 98c-5.33301 21.333 -9.5 37 -12.5 47s-7.16699 21.833 -12.5 35.5s-10.666 23.167 -15.999 28.5s-12.666 11 -21.999 17s-20 9.83301 -32 11.5s-26.667 2.5 -44 2.5h-28v-141
c0 -25.333 3.5 -40.666 10.5 -45.999s28.5 -9.33301 64.5 -12v-29h-244v29c36 2.66699 57.5 6.66699 64.5 12s10.5 20.666 10.5 45.999v141h-28c-17.333 0 -32 -0.833008 -44 -2.5s-22.667 -5.5 -32 -11.5s-16.666 -11.667 -21.999 -17s-10.666 -14.833 -15.999 -28.5
s-9.5 -25.5 -12.5 -35.5s-7.16699 -25.667 -12.5 -47c-16.667 -65.333 -71.334 -98 -164.001 -98h-20z" />
    <glyph glyph-name="afii10073" unicode="&#x437;" horiz-adv-x="512" 
d="M50 131c0 18 4.66699 32.168 14 42.501s21 15.5 35 15.5s26.167 -3.5 36.5 -10.5s15.5 -16.833 15.5 -29.5c0 -8.66699 -2.66699 -20 -8 -34s-8 -26.333 -8 -37c0 -12.667 11.333 -25 34 -37s47 -18 73 -18c34.667 0 62.667 9.66699 84 29s32 45.333 32 78
c0 30 -10.667 56 -32 78s-49.333 33 -84 33h-63v35h59c32.667 0 57.667 8.83301 75 26.5s26 40.167 26 67.5c0 28 -9.16699 51.167 -27.5 69.5s-43.833 27.5 -76.5 27.5c-34 0 -60.833 -10.167 -80.5 -30.5s-35.167 -51.833 -46.5 -94.5h-33v113
c32.667 19.333 61.167 32 85.5 38s53.5 9 87.5 9c53.333 0 98.333 -11.5 135 -34.5s55 -53.167 55 -90.5c0 -52.667 -34.667 -89.667 -104 -111v-3c40 -10 71.333 -28.167 94 -54.5s34 -54.833 34 -85.5c0 -42.667 -21.5 -75.834 -64.5 -99.501s-94.167 -35.5 -153.5 -35.5
c-58.667 0 -105.667 13.667 -141 41s-53 61.333 -53 102z" />
    <glyph glyph-name="afii10074" unicode="&#x438;" horiz-adv-x="632" 
d="M32 0l-0.000976562 28.999c36 2.66699 57.5 6.66699 64.5 12s10.5 20.666 10.5 45.999v316c0 25.333 -3.5 40.666 -10.5 45.999s-28.5 9.33301 -64.5 12v29h244v-29c-36 -2.66699 -57.5 -6.66699 -64.5 -12s-10.5 -20.666 -10.5 -45.999v-258l230 264
c0 22 -3.66699 35.5 -11 40.5s-28.666 8.83301 -63.999 11.5v29h244v-29c-36 -2.66699 -57.5 -6.66699 -64.5 -12s-10.5 -20.666 -10.5 -45.999v-316c0 -25.333 3.5 -40.666 10.5 -45.999s28.5 -9.33301 64.5 -12v-29h-244v29c36 2.66699 57.5 6.66699 64.5 12
s10.5 20.666 10.5 45.999v264l-230 -264c0 -25.333 3.5 -40.666 10.5 -45.999s28.5 -9.33301 64.5 -12v-29h-244z" />
    <glyph glyph-name="afii10075" unicode="&#x439;" horiz-adv-x="632" 
d="M155 667c0 23.333 4.50195 41.5 13.502 54.5s20.5 19.5 34.5 19.5c16 0 28.667 -4.66699 38 -14s14 -19 14 -29c0 -6.66699 -3.83301 -16.334 -11.5 -29.001s-11.5 -23 -11.5 -31c0 -10 8.16699 -18.333 24.5 -25s36.166 -10 59.499 -10s43.166 3.33301 59.499 10
s24.5 15 24.5 25c0 8 -3.83301 18.333 -11.5 31s-11.5 22.334 -11.5 29.001c0 10 4.66699 19.667 14 29s22 14 38 14c14 0 25.5 -6.5 34.5 -19.5s13.5 -31.167 13.5 -54.5s-13.333 -45.666 -40 -66.999s-67 -32 -121 -32s-94.333 10.667 -121 32s-40 43.666 -40 66.999z
M32.002 0l-0.000976562 28.999c36 2.66699 57.5 6.66699 64.5 12s10.5 20.666 10.5 45.999v316c0 25.333 -3.5 40.666 -10.5 45.999s-28.5 9.33301 -64.5 12v29h244v-29c-36 -2.66699 -57.5 -6.66699 -64.5 -12s-10.5 -20.666 -10.5 -45.999v-258l230 264
c0 22 -3.66699 35.5 -11 40.5s-28.666 8.83301 -63.999 11.5v29h244v-29c-36 -2.66699 -57.5 -6.66699 -64.5 -12s-10.5 -20.666 -10.5 -45.999v-316c0 -25.333 3.5 -40.666 10.5 -45.999s28.5 -9.33301 64.5 -12v-29h-244v29c36 2.66699 57.5 6.66699 64.5 12
s10.5 20.666 10.5 45.999v264l-230 -264c0 -25.333 3.5 -40.666 10.5 -45.999s28.5 -9.33301 64.5 -12v-29h-244z" />
    <glyph glyph-name="afii10076" unicode="&#x43a;" horiz-adv-x="594" 
d="M32 0l0.000976562 28.998c36 2.66699 57.5 6.66699 64.5 12s10.5 20.666 10.5 45.999v316c0 25.333 -3.5 40.666 -10.5 45.999s-28.5 9.33301 -64.5 12v29h244v-29c-36 -2.66699 -57.5 -6.66699 -64.5 -12s-10.5 -20.666 -10.5 -45.999v-140h17c38 0 65.667 10.333 83 31
s31 50 41 88c8.66699 33.333 23.167 61.666 43.5 84.999s44.5 35 72.5 35c33.333 0 57.666 -10.167 72.999 -30.5s23 -41.166 23 -62.499c0 -10.667 -3.66699 -21 -11 -31s-18.666 -15 -33.999 -15c-28.667 0 -43 10.667 -43 32c0 4 1 11.833 3 23.5s3 21.167 3 28.5
c0 13.333 -6.33301 20 -19 20c-10.667 0 -23 -8.33301 -37 -25s-23.333 -34 -28 -52c-9.33301 -38 -21.833 -69.333 -37.5 -94s-30.167 -38.667 -43.5 -42v-2c44 -5.33301 80.167 -20.166 108.5 -44.499s46.166 -53.166 53.499 -86.499
c8.66699 -40 20.334 -66.667 35.001 -80s35.667 -20 63 -20v-33h-20c-94.667 0 -150.334 32.667 -167.001 98c-6.66699 26 -11.667 44.667 -15 56s-8.5 24 -15.5 38s-14.833 23.667 -23.5 29s-20 9.83301 -34 13.5s-31.667 5.5 -53 5.5h-38v-141
c0 -25.333 3.5 -40.666 10.5 -45.999s28.5 -9.33301 64.5 -12v-29h-244z" />
    <glyph glyph-name="afii10077" unicode="&#x43b;" horiz-adv-x="616" 
d="M16 91c0 19.333 4.99805 34.001 14.998 44.001s21 15 33 15s22.667 -3.83301 32 -11.5s14 -16.834 14 -27.501c0 -6 -4.16699 -15.833 -12.5 -29.5s-12.5 -25.167 -12.5 -34.5c0 -16 9.66699 -24 29 -24c69.333 0 104 126.667 104 380c0 25.333 -3.5 40.666 -10.5 45.999
s-28.5 9.33301 -64.5 12v29h441v-29c-36 -2.66699 -57.5 -6.66699 -64.5 -12s-10.5 -20.666 -10.5 -45.999v-316c0 -25.333 3.5 -40.666 10.5 -45.999s28.5 -9.33301 64.5 -12v-29h-244v29c36 2.66699 57.5 6.66699 64.5 12s10.5 20.666 10.5 45.999v313
c0 25.333 -3.16699 40.5 -9.5 45.5s-28.166 8.16699 -65.499 9.5h-7c-37.333 -1.33301 -59.166 -4.5 -65.499 -9.5s-9.5 -20.167 -9.5 -45.5c0 -274.667 -44 -412 -132 -412c-22 0 -40.833 3.66699 -56.5 11s-27.167 17 -34.5 29s-12.333 23 -15 33s-4 20 -4 30z" />
    <glyph glyph-name="afii10078" unicode="&#x43c;" horiz-adv-x="718" 
d="M32 0l0.000976562 29c36 2.66699 57.5 6.66699 64.5 12s10.5 20.666 10.5 45.999v316c0 25.333 -3.5 40.666 -10.5 45.999s-28.5 9.33301 -64.5 12v29h178c24 -47.333 55.333 -116 94 -206l58 -132h2l58 134c37.333 87.333 67.666 155.333 90.999 204h173v-29
c-36 -2.66699 -57.5 -6.66699 -64.5 -12s-10.5 -20.666 -10.5 -45.999v-316c0 -25.333 3.5 -40.666 10.5 -45.999s28.5 -9.33301 64.5 -12v-29h-244v29c36 2.66699 57.5 6.66699 64.5 12s10.5 20.666 10.5 45.999v313h-3l-168 -388h-24l-171 388h-4v-313
c0 -25.333 3.5 -40.666 10.5 -45.999s28.5 -9.33301 64.5 -12v-29h-190z" />
    <glyph glyph-name="afii10079" unicode="&#x43d;" horiz-adv-x="624" 
d="M32 0v29c36 2.66699 57.5 6.66699 64.5 12s10.5 20.666 10.5 45.999v316c0 25.333 -3.5 40.666 -10.5 45.999s-28.5 9.33301 -64.5 12v29h244v-29c-36 -2.66699 -57.5 -6.66699 -64.5 -12s-10.5 -20.666 -10.5 -45.999v-133h222v133c0 25.333 -3.5 40.666 -10.5 45.999
s-28.5 9.33301 -64.5 12v29h244v-29c-36 -2.66699 -57.5 -6.66699 -64.5 -12s-10.5 -20.666 -10.5 -45.999v-316c0 -25.333 3.5 -40.666 10.5 -45.999s28.5 -9.33301 64.5 -12v-29h-244v29c36 2.66699 57.5 6.66699 64.5 12s10.5 20.666 10.5 45.999v148h-222v-148
c0 -25.333 3.5 -40.666 10.5 -45.999s28.5 -9.33301 64.5 -12v-29h-244z" />
    <glyph glyph-name="afii10080" unicode="&#x43e;" horiz-adv-x="577" 
d="M49 245c0 82 20.167 145.333 60.5 190s100.166 67 179.499 67s139.166 -22.333 179.499 -67s60.5 -108 60.5 -190s-20.167 -145.333 -60.5 -190s-100.166 -67 -179.499 -67s-139.166 22.333 -179.499 67s-60.5 108 -60.5 190zM153 245
c0 -70.667 11.333 -125.334 34 -164.001s56.667 -58 102 -58s79.333 19.333 102 58s34 93.334 34 164.001s-11.333 125.334 -34 164.001s-56.667 58 -102 58s-79.333 -19.333 -102 -58s-34 -93.334 -34 -164.001z" />
    <glyph glyph-name="afii10081" unicode="&#x43f;" horiz-adv-x="618" 
d="M32 0l-0.00195312 29c36 2.66699 57.5 6.66699 64.5 12s10.5 20.666 10.5 45.999v316c0 25.333 -3.5 40.666 -10.5 45.999s-28.5 9.33301 -64.5 12v29h554v-29c-36 -2.66699 -57.5 -6.66699 -64.5 -12s-10.5 -20.666 -10.5 -45.999v-316
c0 -25.333 3.5 -40.666 10.5 -45.999s28.5 -9.33301 64.5 -12v-29h-244v29c36 2.66699 57.5 6.66699 64.5 12s10.5 20.666 10.5 45.999v313c0 25.333 -3.16699 40.5 -9.5 45.5s-28.166 8.16699 -65.499 9.5h-66c-37.333 -1.33301 -59.166 -4.5 -65.499 -9.5
s-9.5 -20.167 -9.5 -45.5v-313c0 -25.333 3.5 -40.666 10.5 -45.999s28.5 -9.33301 64.5 -12v-29h-244z" />
    <glyph glyph-name="afii10082" unicode="&#x440;" horiz-adv-x="608" 
d="M25 -201c35.333 2.66699 56.667 6.66797 64 12.001s11 20.666 11 45.999v545c0 17.333 -2 28.666 -6 33.999s-12.667 9 -26 11l-38 5v25l151 25l13 -74c3.33301 2 11.5 7.5 24.5 16.5s23.667 16 32 21s19.166 10.833 32.499 17.5s26.666 11.5 39.999 14.5s27 4.5 41 4.5
c34.667 0 64.667 -6.5 90 -19.5s44.5 -28.333 57.5 -46s23.333 -39 31 -64s12.334 -46 14.001 -63s2.5 -34.833 2.5 -53.5c0 -96 -23 -164.667 -69 -206s-106.667 -62 -182 -62c-49.333 0 -87.333 7.66699 -114 23v-154c0 -25.333 4.33301 -40.666 13 -45.999
s34.334 -9.33301 77.001 -12v-29h-259v29zM194.001 157.001c0 -26.667 2.33496 -47 7.00195 -61c8 -22.667 21.5 -40.5 40.5 -53.5s41.5 -19.5 67.5 -19.5c97.333 0 146 75.667 146 227c0 40 -4.66699 74.167 -14 102.5s-21.333 48.833 -36 61.5s-28.334 21.5 -41.001 26.5
s-25.334 7.5 -38.001 7.5c-56 0 -95.667 -23.333 -119 -70c-8.66699 -17.333 -13 -36.333 -13 -57v-164z" />
    <glyph glyph-name="afii10083" unicode="&#x441;" horiz-adv-x="496" 
d="M49 240c0 35.333 4.33691 67.835 13.0039 97.502s22 57.167 40 82.5s43.167 45.333 75.5 60s70.5 22 114.5 22c51.333 0 93.166 -10 125.499 -30s48.5 -42.333 48.5 -67c0 -16.667 -6.5 -29.334 -19.5 -38.001s-26.167 -13 -39.5 -13c-14 0 -24.333 8.66699 -31 26
c-21.333 58 -53 87 -95 87c-37.333 0 -68 -17.167 -92 -51.5s-36 -86.833 -36 -157.5c0 -26 2.16699 -50.833 6.5 -74.5s11.666 -46.834 21.999 -69.501s25.666 -40.667 45.999 -54s44.5 -20 72.5 -20c35.333 0 64.166 8.66699 86.499 26s41.5 44 57.5 80l29 -14
c-8.66699 -33.333 -24.334 -61.333 -47.001 -84s-46.167 -38.334 -70.5 -47.001s-49.166 -13 -74.499 -13c-75.333 0 -132.833 21.333 -172.5 64s-59.5 105.334 -59.5 188.001z" />
    <glyph glyph-name="afii10084" unicode="&#x442;" horiz-adv-x="500" 
d="M22 330v160h456v-160h-31c-15.333 50.667 -29 84.167 -41 100.5s-30.333 24.5 -55 24.5h-6c-20 0 -33 -2.83301 -39 -8.5s-9 -21.167 -9 -46.5v-313c0 -25.333 4.5 -40.666 13.5 -45.999s34.833 -9.33301 77.5 -12v-29h-276v29c42.667 2.66699 68.5 6.66699 77.5 12
s13.5 20.666 13.5 45.999v313c0 25.333 -3 40.833 -9 46.5s-19 8.5 -39 8.5h-6c-24.667 0 -43 -8.16699 -55 -24.5s-25.667 -49.833 -41 -100.5h-31z" />
    <glyph glyph-name="afii10085" unicode="&#x443;" horiz-adv-x="506" 
d="M-5 461l0.00195312 29.0039h229v-29l-43 -4c-10.667 -0.666992 -16.834 -3.83398 -18.501 -9.50098s-0.5 -12.834 3.5 -21.501l123 -335h2c59.333 161.333 96.333 271.666 111 330.999c5.33301 20.667 0.666016 32 -14.001 34l-52 5v29h192v-29
c-24 -1.33301 -40 -5 -48 -11s-16.667 -19.333 -26 -40c-42.667 -96 -104.334 -260 -185.001 -492c-12 -35.333 -24.5 -64.333 -37.5 -87s-25.833 -39 -38.5 -49s-23.834 -16.5 -33.501 -19.5s-20.5 -4.5 -32.5 -4.5c-20 0 -36.667 5.5 -50 16.5s-20 22.833 -20 35.5
c0 14 4.83301 26.833 14.5 38.5s19.5 17.5 29.5 17.5c9.33301 0 19.333 -4.66699 30 -14c14 -14 26.333 -21 37 -21c16.667 0 31.334 14 44.001 42c16 34 24 62.333 24 85c0 17.333 -2.66699 33.666 -8 48.999c-35.333 102 -87.666 236 -156.999 402
c-8.66699 22 -17.5 35.833 -26.5 41.5s-25.5 9.16699 -49.5 10.5z" />
    <glyph glyph-name="afii10086" unicode="&#x444;" horiz-adv-x="812" 
d="M49 245c0 74.667 19.167 136.168 57.5 184.501s86.5 72.5 144.5 72.5c44.667 0 80.334 -17.667 107.001 -53h1v193c0 18.667 -2 30.667 -6 36s-12.667 8.66602 -26 9.99902l-38 4v25l157 25l7 -6v-287h1c26.667 35.333 62.334 53 107.001 53
c58 0 106.167 -24.167 144.5 -72.5s57.5 -109.833 57.5 -184.5s-19.167 -136.167 -57.5 -184.5s-86.5 -72.5 -144.5 -72.5c-44.667 0 -80.334 17.667 -107.001 53h-1v-184c0 -25.333 4.5 -40.666 13.5 -45.999s34.833 -9.33301 77.5 -12v-29h-276v29
c42.667 2.66699 68.5 6.66699 77.5 12s13.5 20.666 13.5 45.999v184h-1c-26.667 -35.333 -62.334 -53 -107.001 -53c-58 0 -106.167 24.167 -144.5 72.5s-57.5 109.833 -57.5 184.5zM153 245.001c0 -59.333 9.33301 -111.168 28 -155.501s46.334 -66.5 83.001 -66.5
c26.667 0 49.167 12.5 67.5 37.5s27.5 53.167 27.5 84.5v200c0 31.333 -9.16699 59.5 -27.5 84.5s-40.833 37.5 -67.5 37.5c-36.667 0 -64.334 -22.167 -83.001 -66.5s-28 -96.166 -28 -155.499zM453 144.999c0 -31.333 9.16699 -59.498 27.5 -84.498
s40.833 -37.5 67.5 -37.5c36.667 0 64.334 22.167 83.001 66.5s28 96.166 28 155.499s-9.33301 111.166 -28 155.499s-46.334 66.5 -83.001 66.5c-26.667 0 -49.167 -12.5 -67.5 -37.5s-27.5 -53.167 -27.5 -84.5v-200z" />
    <glyph glyph-name="afii10087" unicode="&#x445;" horiz-adv-x="486" 
d="M1 0l-0.00488281 28.9971c24 1.33301 42.333 4.66602 55 9.99902s25 16.333 37 33c26.667 35.333 65.667 90.333 117 165c-63.333 94.667 -106 157 -128 187c-11.333 16 -21.166 25.833 -29.499 29.5s-23.166 6.16699 -44.499 7.5v29h209v-29l-30 -3
c-7.33301 -0.666992 -11.666 -3.5 -12.999 -8.5s0 -10.5 4 -16.5l84 -125h1l80 126c8.66699 13.333 6.33398 21 -6.99902 23l-39 4v29h186v-29c-24.667 -1.33301 -42.167 -4.16602 -52.5 -8.49902s-21.833 -14.166 -34.5 -29.499
c-45.333 -54.667 -82.333 -103.667 -111 -147c40 -64 85.667 -132.667 137 -206c12 -17.333 23.333 -28.166 34 -32.499s28.334 -7.16602 53.001 -8.49902v-29h-235v29l42 5c15.333 2 17.666 11.333 6.99902 28l-89 139h-2c-45.333 -69.333 -74.666 -117 -87.999 -143
c-8 -14 -5.66699 -22 7 -24l42 -5v-29h-192z" />
    <glyph glyph-name="afii10088" unicode="&#x446;" horiz-adv-x="616" 
d="M32 0l0.000976562 29.002c36 2.66699 57.5 6.66699 64.5 12s10.5 20.666 10.5 45.999v316c0 25.333 -3.5 40.666 -10.5 45.999s-28.5 9.33301 -64.5 12v29h244v-29c-36 -2.66699 -57.5 -6.66699 -64.5 -12s-10.5 -20.666 -10.5 -45.999v-313
c0 -25.333 3.16699 -40.5 9.5 -45.5s28.166 -8.16699 65.499 -9.5h64c37.333 1.33301 59.166 4.5 65.499 9.5s9.5 20.167 9.5 45.5v313c0 25.333 -3.5 40.666 -10.5 45.999s-28.5 9.33301 -64.5 12v29h244v-29c-36 -2.66699 -57.5 -6.66699 -64.5 -12
s-10.5 -20.666 -10.5 -45.999v-313c0 -25.333 3.16699 -40.5 9.5 -45.5s28.166 -8.16699 65.499 -9.5h2l13 -203h-28c-7.33301 71.333 -21.666 117.166 -42.999 137.499s-62.666 30.5 -123.999 30.5h-372z" />
    <glyph glyph-name="afii10089" unicode="&#x447;" horiz-adv-x="582" 
d="M22 461v29h233v-29c-29.333 -2 -47.333 -6.16699 -54 -12.5s-10 -21.5 -10 -45.5v-76c0 -32 6 -53.5 18 -64.5s28.333 -16.5 49 -16.5c40 0 69.5 4.33301 88.5 13s30.5 25.334 34.5 50.001v94c0 24 -3.33301 39.167 -10 45.5s-24.667 10.5 -54 12.5v29h233v-29
c-36 -2.66699 -57.5 -6.66699 -64.5 -12s-10.5 -20.666 -10.5 -45.999v-316c0 -25.333 3.5 -40.666 10.5 -45.999s28.5 -9.33301 64.5 -12v-29h-254v29c41.333 2.66699 65.833 6.66699 73.5 12s11.5 20.666 11.5 45.999v153c-59.333 -32 -116 -48 -170 -48
c-38 0 -66.5 10.667 -85.5 32s-28.5 49.666 -28.5 84.999v94c0 25.333 -3.5 40.666 -10.5 45.999s-28.5 9.33301 -64.5 12z" />
    <glyph glyph-name="afii10090" unicode="&#x448;" horiz-adv-x="904" 
d="M32 0l0.00390625 29c36 2.66699 57.5 6.66699 64.5 12s10.5 20.666 10.5 45.999v316c0 25.333 -3.5 40.666 -10.5 45.999s-28.5 9.33301 -64.5 12v29h244v-29c-36 -2.66699 -57.5 -6.66699 -64.5 -12s-10.5 -20.666 -10.5 -45.999v-313
c0 -25.333 3.16699 -40.5 9.5 -45.5s28.166 -8.16699 65.499 -9.5h54c37.333 1.33301 59.166 4.5 65.499 9.5s9.5 20.167 9.5 45.5v313c0 25.333 -3.5 40.666 -10.5 45.999s-28.5 9.33301 -64.5 12v29h244v-29c-36 -2.66699 -57.5 -6.66699 -64.5 -12
s-10.5 -20.666 -10.5 -45.999v-313c0 -25.333 3.16699 -40.5 9.5 -45.5s28.166 -8.16699 65.499 -9.5h54c37.333 1.33301 59.166 4.5 65.499 9.5s9.5 20.167 9.5 45.5v313c0 25.333 -3.5 40.666 -10.5 45.999s-28.5 9.33301 -64.5 12v29h244v-29
c-36 -2.66699 -57.5 -6.66699 -64.5 -12s-10.5 -20.666 -10.5 -45.999v-316c0 -25.333 3.5 -40.666 10.5 -45.999s28.5 -9.33301 64.5 -12v-29h-840z" />
    <glyph glyph-name="afii10091" unicode="&#x449;" horiz-adv-x="904" 
d="M32 0l0.00292969 29.002c36 2.66699 57.5 6.66699 64.5 12s10.5 20.666 10.5 45.999v316c0 25.333 -3.5 40.666 -10.5 45.999s-28.5 9.33301 -64.5 12v29h244v-29c-36 -2.66699 -57.5 -6.66699 -64.5 -12s-10.5 -20.666 -10.5 -45.999v-313
c0 -25.333 3.16699 -40.5 9.5 -45.5s28.166 -8.16699 65.499 -9.5h54c37.333 1.33301 59.166 4.5 65.499 9.5s9.5 20.167 9.5 45.5v313c0 25.333 -3.5 40.666 -10.5 45.999s-28.5 9.33301 -64.5 12v29h244v-29c-36 -2.66699 -57.5 -6.66699 -64.5 -12
s-10.5 -20.666 -10.5 -45.999v-313c0 -25.333 3.16699 -40.5 9.5 -45.5s28.166 -8.16699 65.499 -9.5h54c37.333 1.33301 59.166 4.5 65.499 9.5s9.5 20.167 9.5 45.5v313c0 25.333 -3.5 40.666 -10.5 45.999s-28.5 9.33301 -64.5 12v29h244v-29
c-36 -2.66699 -57.5 -6.66699 -64.5 -12s-10.5 -20.666 -10.5 -45.999v-313c0 -25.333 3.16699 -40.5 9.5 -45.5s28.166 -8.16699 65.499 -9.5h2l13 -203h-28c-7.33301 71.333 -21.666 117.166 -42.999 137.499s-62.666 30.5 -123.999 30.5h-660z" />
    <glyph glyph-name="afii10092" unicode="&#x44a;" horiz-adv-x="668" 
d="M18 342l0.00195312 148h387v-29c-41.333 -2.66699 -65.833 -6.66699 -73.5 -12s-11.5 -20.666 -11.5 -45.999v-133c42.667 7.33301 74 11 94 11c57.333 0 107 -11.833 149 -35.5s63 -59.167 63 -106.5c0 -48.667 -17.5 -84 -52.5 -106s-79.5 -33 -133.5 -33h-299v29
c41.333 2.66699 65.833 6.66699 73.5 12s11.5 20.666 11.5 45.999v313c0 24 -2.5 38.5 -7.5 43.5s-20.833 8.83301 -47.5 11.5h-7c-32.667 0 -56.834 -6.5 -72.501 -19.5s-29.834 -44.167 -42.501 -93.5h-31zM320.002 90c0 -25.333 3.16797 -40.499 9.50098 -45.499
s28.166 -8.16699 65.499 -9.5h7c42 0 72.5 8.66699 91.5 26s28.5 43.666 28.5 78.999c0 30 -9.16699 54.833 -27.5 74.5s-47.833 29.5 -88.5 29.5c-26 0 -54.667 -3 -86 -9v-145z" />
    <glyph glyph-name="afii10093" unicode="&#x44b;" horiz-adv-x="808" 
d="M532 0v29c36 2.66699 57.5 6.66699 64.5 12s10.5 20.666 10.5 45.999v316c0 25.333 -3.5 40.666 -10.5 45.999s-28.5 9.33301 -64.5 12v29h244v-29c-36 -2.66699 -57.5 -6.66699 -64.5 -12s-10.5 -20.666 -10.5 -45.999v-316c0 -25.333 3.5 -40.666 10.5 -45.999
s28.5 -9.33301 64.5 -12v-29h-244zM32 0v29.001c36 2.66699 57.5 6.66699 64.5 12s10.5 20.666 10.5 45.999v316c0 25.333 -3.5 40.666 -10.5 45.999s-28.5 9.33301 -64.5 12v29h254v-29c-41.333 -2.66699 -65.833 -6.66699 -73.5 -12s-11.5 -20.666 -11.5 -45.999v-133
c42.667 7.33301 74 11 94 11c57.333 0 107 -11.833 149 -35.5s63 -59.167 63 -106.5c0 -48.667 -17.5 -84 -52.5 -106s-79.5 -33 -133.5 -33h-289zM201 90.001c0 -25.333 3.16797 -40.499 9.50098 -45.499s28.166 -8.16699 65.499 -9.5h7c42 0 72.5 8.66699 91.5 26
s28.5 43.666 28.5 78.999c0 30 -9.16699 54.833 -27.5 74.5s-47.833 29.5 -88.5 29.5c-26 0 -54.667 -3 -86 -9v-145z" />
    <glyph glyph-name="afii10094" unicode="&#x44c;" horiz-adv-x="549" 
d="M32 0v29.001c36 2.66699 57.5 6.66699 64.5 12s10.5 20.666 10.5 45.999v316c0 25.333 -3.5 40.666 -10.5 45.999s-28.5 9.33301 -64.5 12v29h254v-29c-41.333 -2.66699 -65.833 -6.66699 -73.5 -12s-11.5 -20.666 -11.5 -45.999v-133c42.667 7.33301 74 11 94 11
c57.333 0 107 -11.833 149 -35.5s63 -59.167 63 -106.5c0 -48.667 -17.5 -84 -52.5 -106s-79.5 -33 -133.5 -33h-289zM201 90.001c0 -25.333 3.16797 -40.499 9.50098 -45.499s28.166 -8.16699 65.499 -9.5h7c42 0 72.5 8.66699 91.5 26s28.5 43.666 28.5 78.999
c0 30 -9.16699 54.833 -27.5 74.5s-47.833 29.5 -88.5 29.5c-26 0 -54.667 -3 -86 -9v-145z" />
    <glyph glyph-name="afii10095" unicode="&#x44d;" horiz-adv-x="494" 
d="M42 128c0 16.667 4.50293 30.335 13.5029 41.002s21.167 16 36.5 16c11.333 0 22.666 -3.5 33.999 -10.5s17 -16.5 17 -28.5c0 -6.66699 -2.5 -16.834 -7.5 -30.501s-7.5 -25.167 -7.5 -34.5c0 -16.667 10 -29.334 30 -38.001s38.667 -13 56 -13
c80.667 0 123 69.333 127 208h-188v35h188c-0.666992 70 -10.667 119.833 -30 149.5s-49 44.5 -89 44.5c-33.333 0 -60.333 -12.5 -81 -37.5s-35.334 -55.5 -44.001 -91.5h-33v116c41.333 32 93.666 48 156.999 48c73.333 0 129 -21.833 167 -65.5s57 -106.167 57 -187.5
c0 -174 -72.667 -261 -218 -261c-52 0 -95.833 13.667 -131.5 41s-53.5 60.333 -53.5 99z" />
    <glyph glyph-name="afii10096" unicode="&#x44e;" horiz-adv-x="828" 
d="M32 0l-0.000976562 29c36 2.66699 57.5 6.66699 64.5 12s10.5 20.666 10.5 45.999v316c0 25.333 -3.5 40.666 -10.5 45.999s-28.5 9.33301 -64.5 12v29h244v-29c-36 -2.66699 -57.5 -6.66699 -64.5 -12s-10.5 -20.666 -10.5 -45.999v-133h100c4 74.667 26 132 66 172
s97.667 60 173 60c79.333 0 139.166 -22.333 179.499 -67s60.5 -108 60.5 -190s-20.167 -145.333 -60.5 -190s-100.166 -67 -179.499 -67c-78 0 -137.167 21.333 -177.5 64s-61.166 103.667 -62.499 183h-99v-148c0 -25.333 3.5 -40.666 10.5 -45.999
s28.5 -9.33301 64.5 -12v-29h-244zM403.999 245c0 -70.667 11.333 -125.334 34 -164.001s56.667 -58 102 -58s79.333 19.333 102 58s34 93.334 34 164.001s-11.333 125.334 -34 164.001s-56.667 58 -102 58s-79.333 -19.333 -102 -58s-34 -93.334 -34 -164.001z" />
    <glyph glyph-name="afii10097" unicode="&#x44f;" horiz-adv-x="596" 
d="M27 -12v32.998c46 0 74.667 30.667 86 92c6 30 15.667 52.667 29 68s35.333 29.333 66 42v5c-36 11.333 -65.667 27.833 -89 49.5s-35 48.167 -35 79.5c0 44 17.5 77.167 52.5 99.5s78.833 33.5 131.5 33.5h296v-29c-36 -2.66699 -57.5 -6.66699 -64.5 -12
s-10.5 -20.666 -10.5 -45.999v-316c0 -25.333 3.5 -40.666 10.5 -45.999s28.5 -9.33301 64.5 -12v-29h-244v29c36 2.66699 57.5 6.66699 64.5 12s10.5 20.666 10.5 45.999v127h-53c-49.333 0 -82.5 -9.83301 -99.5 -29.5s-30.5 -55.167 -40.5 -106.5
c-6 -31.333 -23.833 -54.166 -53.5 -68.499s-64.5 -21.5 -104.5 -21.5h-17zM188 351.998c0 -68.667 39.999 -103 119.999 -103h87v151c0 25.333 -3.16699 40.5 -9.5 45.5s-28.166 8.16699 -65.499 9.5h-12c-80 0 -120 -34.333 -120 -103z" />
    <glyph glyph-name="uni0450" unicode="&#x450;" horiz-adv-x="514" 
d="M117 680c0 9.33301 4.5 18.833 13.5 28.5s17.5 14.5 25.5 14.5c16 0 37.333 -13.667 64 -41l119 -120l-15 -20l-151 84c-37.333 20 -56 38 -56 54zM49 241c0 78.667 19.5 141.834 58.5 189.501s96.167 71.5 171.5 71.5c34.667 0 65 -5.16699 91 -15.5
s45.833 -22.833 59.5 -37.5s24.667 -32 33 -52s13.5 -37.333 15.5 -52s3 -29.334 3 -44.001c0 -25.333 -13.333 -38 -40 -38h-288c-2.66699 -149.333 46.333 -224 147 -224c36 0 65.167 9.33301 87.5 28s41.5 44.667 57.5 78l30 -16c-32 -94 -97 -141 -195 -141
c-154 0 -231 84.333 -231 253zM154 301h188.996c13.333 0 22.333 2.66699 27 8s7 13.333 7 24c0 9.33301 -0.5 19 -1.5 29s-3.66699 21.667 -8 35s-10.166 24.833 -17.499 34.5s-17.666 18 -30.999 25s-28.666 10.5 -45.999 10.5c-24 0 -44.667 -6.5 -62 -19.5
s-29.666 -29.333 -36.999 -49s-12.5 -37.5 -15.5 -53.5s-4.5 -30.667 -4.5 -44z" />
    <glyph glyph-name="afii10071" unicode="&#x451;" horiz-adv-x="514" 
d="M312 627c0 15.333 5.33301 28.5 16 39.5s25.334 16.5 44.001 16.5s33.334 -5.5 44.001 -16.5s16 -24.167 16 -39.5s-5.33301 -28.666 -16 -39.999s-25.334 -17 -44.001 -17s-33.334 5.66699 -44.001 17s-16 24.666 -16 39.999zM104 627c0 15.333 5.33301 28.5 16 39.5
s25.334 16.5 44.001 16.5s33.334 -5.5 44.001 -16.5s16 -24.167 16 -39.5s-5.33301 -28.666 -16 -39.999s-25.334 -17 -44.001 -17s-33.334 5.66699 -44.001 17s-16 24.666 -16 39.999zM49 241c0 78.667 19.5 141.834 58.5 189.501s96.167 71.5 171.5 71.5
c34.667 0 65 -5.16699 91 -15.5s45.833 -22.833 59.5 -37.5s24.667 -32 33 -52s13.5 -37.333 15.5 -52s3 -29.334 3 -44.001c0 -25.333 -13.333 -38 -40 -38h-288c-2.66699 -149.333 46.333 -224 147 -224c36 0 65.167 9.33301 87.5 28s41.5 44.667 57.5 78l30 -16
c-32 -94 -97 -141 -195 -141c-154 0 -231 84.333 -231 253zM154 301h188.996c13.333 0 22.333 2.66699 27 8s7 13.333 7 24c0 9.33301 -0.5 19 -1.5 29s-3.66699 21.667 -8 35s-10.166 24.833 -17.499 34.5s-17.666 18 -30.999 25s-28.666 10.5 -45.999 10.5
c-24 0 -44.667 -6.5 -62 -19.5s-29.666 -29.333 -36.999 -49s-12.5 -37.5 -15.5 -53.5s-4.5 -30.667 -4.5 -44z" />
    <glyph glyph-name="afii10099" unicode="&#x452;" horiz-adv-x="563" 
d="M20 0l0.000976562 28.999c34.667 2.66699 55.834 6.83398 63.501 12.501s11.5 20.834 11.5 45.501v368h-75v35h75v152c0 17.333 -2 28.666 -6 33.999s-12.667 9 -26 11l-38 5v25l156 25l7 -6v-246h221v-35h-221v-172c63.333 50.667 114.666 76 153.999 76
c115.333 0 173 -71 173 -213c0 -71.333 -27.667 -140.833 -83 -208.5s-122.666 -127.5 -201.999 -179.5l-17 25c77.333 54.667 129.666 106.667 156.999 156s41 121 41 215c0 44 -4 76.667 -12 98s-19.833 35.5 -35.5 42.5s-39.834 10.5 -72.501 10.5
c-12 0 -28 -7.33301 -48 -22s-35 -31.667 -45 -51c-6 -11.333 -9 -29.333 -9 -54v-91c0 -24 3.33301 -39.167 10 -45.5s24.667 -10.5 54 -12.5v-29h-233z" />
    <glyph glyph-name="afii10100" unicode="&#x453;" horiz-adv-x="472" 
d="M169 562l119 120c26.667 27.333 48 41 64 41c8 0 16.5 -4.83301 25.5 -14.5s13.5 -19.167 13.5 -28.5c0 -16 -18.667 -34 -56 -54l-151 -84zM32 0l-0.00195312 29.001c36 2.66699 57.5 6.66699 64.5 12s10.5 20.666 10.5 45.999v316c0 25.333 -3.5 40.666 -10.5 45.999
s-28.5 9.33301 -64.5 12v29h418v-148h-31c-6.66699 46.667 -18.667 77.167 -36 91.5s-52.666 21.5 -105.999 21.5h-1c-37.333 -1.33301 -59.166 -4.5 -65.499 -9.5s-9.5 -20.167 -9.5 -45.5v-314c0 -25.333 4.5 -40.666 13.5 -45.999s36.167 -9 81.5 -11v-29h-264z" />
    <glyph glyph-name="afii10101" unicode="&#x454;" horiz-adv-x="496" 
d="M49 240c0 35.333 4.33398 67.835 13.001 97.502s22 57.167 40 82.5s43.167 45.333 75.5 60s70.5 22 114.5 22c51.333 0 93.166 -10 125.499 -30s48.5 -42.333 48.5 -67c0 -16.667 -6.5 -29.334 -19.5 -38.001s-26.167 -13 -39.5 -13c-14 0 -24.333 8.66699 -31 26
c-21.333 58 -53 87 -95 87c-36 0 -65.833 -16 -89.5 -48s-36.5 -80.667 -38.5 -146h206v-35h-206c1.33301 -24.667 4.5 -47.834 9.5 -69.501s12.833 -42.667 23.5 -63s25.667 -36.333 45 -48s42.333 -17.5 69 -17.5c33.333 0 60.5 7.16699 81.5 21.5
s40.833 39.166 59.5 74.499l29 -14c-16.667 -48 -42.667 -82.333 -78 -103s-72.333 -31 -111 -31c-75.333 0 -132.833 21.333 -172.5 64s-59.5 105.334 -59.5 188.001z" />
    <glyph glyph-name="afii10102" unicode="&#x455;" horiz-adv-x="436" 
d="M47 167l28.9971 -0.000976562c22.667 -96 71.334 -144 146.001 -144c26.667 0 48.834 7.5 66.501 22.5s26.5 35.167 26.5 60.5c0 16 -3.16699 30.167 -9.5 42.5s-15.666 22.5 -27.999 30.5s-23.5 14.167 -33.5 18.5s-22.333 8.83301 -37 13.5
c-47.333 14.667 -84.333 33 -111 55s-40 52 -40 90c0 46.667 16.5 82.667 49.5 108s77.167 38 132.5 38c54.667 0 97.667 -11.333 129 -34v-117h-29c-4 33.333 -15.333 61 -34 83s-44.667 33 -78 33c-26 0 -47.5 -7.16699 -64.5 -21.5s-25.5 -34.166 -25.5 -59.499
c0 -17.333 6.83301 -32.666 20.5 -45.999s26.5 -22.333 38.5 -27s28 -10.334 48 -17.001c54.667 -16.667 94.5 -37 119.5 -61s37.5 -57 37.5 -99c0 -43.333 -16.667 -78.833 -50 -106.5s-79 -41.5 -137 -41.5c-68 0 -120 16 -156 48z" />
    <glyph glyph-name="afii10103" unicode="&#x456;" horiz-adv-x="291" 
d="M92 654c0 18 5.66699 32.667 17 44s26 17 44 17s32.667 -5.66699 44 -17s17 -26 17 -44s-5.66699 -32.667 -17 -44s-26 -17 -44 -17s-32.667 5.66699 -44 17s-17 26 -17 44zM32 0v29.001c36 2.66699 57.5 6.66699 64.5 12s10.5 20.666 10.5 45.999v315
c0 17.333 -2 28.666 -6 33.999s-12.667 9 -26 11l-38 5v25l157 25l7 -6v-409c0 -25.333 3.5 -40.666 10.5 -45.999s28.5 -9.33301 64.5 -12v-29h-244z" />
    <glyph glyph-name="afii10104" unicode="&#x457;" horiz-adv-x="291" 
d="M-19 627c0 15.333 5.5 28.5 16.5 39.5s25.833 16.5 44.5 16.5s33.334 -5.5 44.001 -16.5s16 -24.167 16 -39.5s-5.33301 -28.666 -16 -39.999s-25.334 -17 -44.001 -17s-33.5 5.66699 -44.5 17s-16.5 24.666 -16.5 39.999zM190 627c0 15.333 5.33301 28.5 16 39.5
s25.334 16.5 44.001 16.5s33.334 -5.5 44.001 -16.5s16 -24.167 16 -39.5s-5.33301 -28.666 -16 -39.999s-25.334 -17 -44.001 -17s-33.334 5.66699 -44.001 17s-16 24.666 -16 39.999zM32 0v29.001c36 2.66699 57.5 6.66699 64.5 12s10.5 20.666 10.5 45.999v315
c0 17.333 -2 28.666 -6 33.999s-12.667 9 -26 11l-38 5v25l157 25l7 -6v-409c0 -25.333 3.5 -40.666 10.5 -45.999s28.5 -9.33301 64.5 -12v-29h-244z" />
    <glyph glyph-name="afii10105" unicode="&#x458;" horiz-adv-x="280" 
d="M92 654c0 18 5.66699 32.667 17 44s26 17 44 17s32.667 -5.66699 44 -17s17 -26 17 -44s-5.66699 -32.667 -17 -44s-26 -17 -44 -17s-32.667 5.66699 -44 17s-17 26 -17 44zM-33 -218c58.667 14.667 96.333 38.3311 113 70.998c17.333 34 26 95 26 183v366
c0 16.667 -2 27.834 -6 33.501s-12.667 9.5 -26 11.5l-38 5v25l157 25l7 -6v-489c0 -68 -11.167 -121.667 -33.5 -161s-63.5 -65.666 -123.5 -78.999c-28 -6 -52.667 -9 -74 -9z" />
    <glyph glyph-name="afii10106" unicode="&#x459;" horiz-adv-x="857" 
d="M16 91c0 19.333 5 34.0029 15 44.0029s21 15 33 15s22.667 -3.66699 32 -11s14 -16.333 14 -27c0 -6 -4.16699 -16 -12.5 -30s-12.5 -25.667 -12.5 -35c0 -16 9.66699 -24 29 -24c69.333 0 104 126.667 104 380c0 25.333 -3.5 40.666 -10.5 45.999
s-28.5 9.33301 -64.5 12v29h451v-29c-41.333 -2.66699 -65.833 -6.66699 -73.5 -12s-11.5 -20.666 -11.5 -45.999v-133c42.667 7.33301 74 11 94 11c57.333 0 107 -11.833 149 -35.5s63 -59.167 63 -106.5c0 -48.667 -17.5 -84 -52.5 -106s-79.5 -33 -133.5 -33h-289v29
c36 2.66699 57.5 6.66699 64.5 12s10.5 20.666 10.5 45.999v336c-0.666992 13.333 -5.33398 21.666 -14.001 24.999s-29 5.66602 -61 6.99902h-7c-37.333 -1.33301 -59.166 -4.5 -65.499 -9.5s-9.5 -20.167 -9.5 -45.5c0 -274.667 -44 -412 -132 -412
c-22 0 -40.833 3.66699 -56.5 11s-27.167 17 -34.5 29s-12.333 23 -15 33s-4 20 -4 30zM509 90.0029c0 -25.333 3.16797 -40.499 9.50098 -45.499s28.166 -8.16699 65.499 -9.5h7c42 0 72.5 8.66699 91.5 26s28.5 43.666 28.5 78.999c0 30 -9.16699 54.833 -27.5 74.5
s-47.833 29.5 -88.5 29.5c-26 0 -54.667 -3 -86 -9v-145z" />
    <glyph glyph-name="afii10107" unicode="&#x45a;" horiz-adv-x="865" 
d="M32 0v29.001c36 2.66699 57.5 6.66699 64.5 12s10.5 20.666 10.5 45.999v316c0 25.333 -3.5 40.666 -10.5 45.999s-28.5 9.33301 -64.5 12v29h244v-29c-36 -2.66699 -57.5 -6.66699 -64.5 -12s-10.5 -20.666 -10.5 -45.999v-133h222v133
c0 25.333 -3.5 40.666 -10.5 45.999s-28.5 9.33301 -64.5 12v29h254v-29c-41.333 -2.66699 -65.833 -6.66699 -73.5 -12s-11.5 -20.666 -11.5 -45.999v-133c42.667 7.33301 74 11 94 11c57.333 0 107 -11.833 149 -35.5s63 -59.167 63 -106.5
c0 -48.667 -17.5 -84 -52.5 -106s-79.5 -33 -133.5 -33h-289v29c36 2.66699 57.5 6.66699 64.5 12s10.5 20.666 10.5 45.999v148h-222v-148c0 -25.333 3.5 -40.666 10.5 -45.999s28.5 -9.33301 64.5 -12v-29h-244zM517 67.001c0.666992 -14 5.16699 -22.499 13.5 -25.499
s28.833 -5.16699 61.5 -6.5h7c42 0 72.5 8.66699 91.5 26s28.5 43.666 28.5 78.999c0 30 -9.16699 54.833 -27.5 74.5s-47.833 29.5 -88.5 29.5c-26 0 -54.667 -3 -86 -9v-168z" />
    <glyph glyph-name="afii10108" unicode="&#x45b;" horiz-adv-x="594" 
d="M20 0l-0.000976562 29.001c34.667 2.66699 55.834 6.83398 63.501 12.501s11.5 20.834 11.5 45.501v368h-75v35h75v152c0 17.333 -2 28.666 -6 33.999s-12.667 9 -26 11l-38 5v25l156 25l7 -6v-246h221v-35h-221v-172c63.333 50.667 120.333 76 171 76
c43.333 0 77.166 -13.5 101.499 -40.5s36.5 -66.5 36.5 -118.5v-113c0 -24.667 3.83301 -39.834 11.5 -45.501s28.834 -9.83398 63.501 -12.501v-29h-233v29c29.333 2 47.333 6.16699 54 12.5s10 21.5 10 45.5v93c0 46 -7.33301 78.333 -22 97s-39 28 -73 28
c-22 0 -43.167 -7 -63.5 -21s-35.833 -31.333 -46.5 -52c-6 -11.333 -9 -29.333 -9 -54v-91c0 -24 3.33301 -39.167 10 -45.5s24.667 -10.5 54 -12.5v-29h-233z" />
    <glyph glyph-name="afii10109" unicode="&#x45c;" horiz-adv-x="594" 
d="M199 562l119 120c26.667 27.333 48 41 64 41c8 0 16.5 -4.83301 25.5 -14.5s13.5 -19.167 13.5 -28.5c0 -16 -18.667 -34 -56 -54l-151 -84zM32 0l0.000976562 28.998c36 2.66699 57.5 6.66699 64.5 12s10.5 20.666 10.5 45.999v316c0 25.333 -3.5 40.666 -10.5 45.999
s-28.5 9.33301 -64.5 12v29h244v-29c-36 -2.66699 -57.5 -6.66699 -64.5 -12s-10.5 -20.666 -10.5 -45.999v-140h17c38 0 65.667 10.333 83 31s31 50 41 88c8.66699 33.333 23.167 61.666 43.5 84.999s44.5 35 72.5 35c33.333 0 57.666 -10.167 72.999 -30.5
s23 -41.166 23 -62.499c0 -10.667 -3.66699 -21 -11 -31s-18.666 -15 -33.999 -15c-28.667 0 -43 10.667 -43 32c0 4 1 11.833 3 23.5s3 21.167 3 28.5c0 13.333 -6.33301 20 -19 20c-10.667 0 -23 -8.33301 -37 -25s-23.333 -34 -28 -52
c-9.33301 -38 -21.833 -69.333 -37.5 -94s-30.167 -38.667 -43.5 -42v-2c44 -5.33301 80.167 -20.166 108.5 -44.499s46.166 -53.166 53.499 -86.499c8.66699 -40 20.334 -66.667 35.001 -80s35.667 -20 63 -20v-33h-20c-94.667 0 -150.334 32.667 -167.001 98
c-6.66699 26 -11.667 44.667 -15 56s-8.5 24 -15.5 38s-14.833 23.667 -23.5 29s-20 9.83301 -34 13.5s-31.667 5.5 -53 5.5h-38v-141c0 -25.333 3.5 -40.666 10.5 -45.999s28.5 -9.33301 64.5 -12v-29h-244z" />
    <glyph glyph-name="uni045D" unicode="&#x45d;" horiz-adv-x="632" 
d="M155 680c0 9.33301 4.5 18.833 13.5 28.5s17.5 14.5 25.5 14.5c16 0 37.333 -13.667 64 -41l119 -120l-15 -20l-151 84c-37.333 20 -56 38 -56 54zM32 0l-0.000976562 28.999c36 2.66699 57.5 6.66699 64.5 12s10.5 20.666 10.5 45.999v316
c0 25.333 -3.5 40.666 -10.5 45.999s-28.5 9.33301 -64.5 12v29h244v-29c-36 -2.66699 -57.5 -6.66699 -64.5 -12s-10.5 -20.666 -10.5 -45.999v-258l230 264c0 22 -3.66699 35.5 -11 40.5s-28.666 8.83301 -63.999 11.5v29h244v-29c-36 -2.66699 -57.5 -6.66699 -64.5 -12
s-10.5 -20.666 -10.5 -45.999v-316c0 -25.333 3.5 -40.666 10.5 -45.999s28.5 -9.33301 64.5 -12v-29h-244v29c36 2.66699 57.5 6.66699 64.5 12s10.5 20.666 10.5 45.999v264l-230 -264c0 -25.333 3.5 -40.666 10.5 -45.999s28.5 -9.33301 64.5 -12v-29h-244z" />
    <glyph glyph-name="afii10110" unicode="&#x45e;" horiz-adv-x="506" 
d="M105 667c0 23.333 4.50195 41.5 13.502 54.5s20.5 19.5 34.5 19.5c16 0 28.667 -4.66699 38 -14s14 -19 14 -29c0 -6.66699 -3.83301 -16.334 -11.5 -29.001s-11.5 -23 -11.5 -31c0 -10 8.16699 -18.333 24.5 -25s36.166 -10 59.499 -10s43.166 3.33301 59.499 10
s24.5 15 24.5 25c0 8 -3.83301 18.333 -11.5 31s-11.5 22.334 -11.5 29.001c0 10 4.66699 19.667 14 29s22 14 38 14c14 0 25.5 -6.5 34.5 -19.5s13.5 -31.167 13.5 -54.5s-13.333 -45.666 -40 -66.999s-67 -32 -121 -32s-94.333 10.667 -121 32s-40 43.666 -40 66.999z
M-4.99805 461l0.00195312 29.0039h229v-29l-43 -4c-10.667 -0.666992 -16.834 -3.83398 -18.501 -9.50098s-0.5 -12.834 3.5 -21.501l123 -335h2c59.333 161.333 96.333 271.666 111 330.999c5.33301 20.667 0.666016 32 -14.001 34l-52 5v29h192v-29
c-24 -1.33301 -40 -5 -48 -11s-16.667 -19.333 -26 -40c-42.667 -96 -104.334 -260 -185.001 -492c-12 -35.333 -24.5 -64.333 -37.5 -87s-25.833 -39 -38.5 -49s-23.834 -16.5 -33.501 -19.5s-20.5 -4.5 -32.5 -4.5c-20 0 -36.667 5.5 -50 16.5s-20 22.833 -20 35.5
c0 14 4.83301 26.833 14.5 38.5s19.5 17.5 29.5 17.5c9.33301 0 19.333 -4.66699 30 -14c14 -14 26.333 -21 37 -21c16.667 0 31.334 14 44.001 42c16 34 24 62.333 24 85c0 17.333 -2.66699 33.666 -8 48.999c-35.333 102 -87.666 236 -156.999 402
c-8.66699 22 -17.5 35.833 -26.5 41.5s-25.5 9.16699 -49.5 10.5z" />
    <glyph glyph-name="afii10193" unicode="&#x45f;" horiz-adv-x="618" 
d="M32 0l0.00683594 29.001c36 2.66699 57.5 6.66699 64.5 12s10.5 20.666 10.5 45.999v316c0 25.333 -3.5 40.666 -10.5 45.999s-28.5 9.33301 -64.5 12v29h244v-29c-36 -2.66699 -57.5 -6.66699 -64.5 -12s-10.5 -20.666 -10.5 -45.999v-313
c0 -25.333 3.16699 -40.5 9.5 -45.5s28.166 -8.16699 65.499 -9.5h66c37.333 1.33301 59.166 4.5 65.499 9.5s9.5 20.167 9.5 45.5v313c0 25.333 -3.5 40.666 -10.5 45.999s-28.5 9.33301 -64.5 12v29h244v-29c-36 -2.66699 -57.5 -6.66699 -64.5 -12
s-10.5 -20.666 -10.5 -45.999v-313c0 -25.333 3.16699 -40.5 9.5 -45.5s28.166 -8.16699 65.499 -9.5v-35h-107c-35.333 -0 -61 -1.16699 -77 -3.5s-30.333 -9.66602 -43 -21.999s-20.834 -28.666 -24.501 -48.999s-6.83398 -51.5 -9.50098 -93.5h-32
c-2.66699 42 -5.83398 73.167 -9.50098 93.5s-11.834 36.666 -24.501 48.999s-27 19.666 -43 21.999s-41.667 3.5 -77 3.5h-107z" />
    <glyph glyph-name="afii10146" unicode="&#x462;" horiz-adv-x="790" 
d="M22 453l0.000976562 153.998h255c0 24 -4.33301 38.5 -13 43.5s-34.334 9.16699 -77.001 12.5v29h279v-29l-37.5 -3c-8.33301 -0.666992 -16.5 -2 -24.5 -4s-13.333 -3.66699 -16 -5s-5.16699 -4.5 -7.5 -9.5s-3.66602 -9.66699 -3.99902 -14s-0.5 -11.166 -0.5 -20.499
h255v-154h-30c-9.33301 49.333 -23.333 81.5 -42 96.5s-53 22.5 -103 22.5c-36 0 -58.333 -2.83301 -67 -8.5s-13 -21.167 -13 -46.5v-137c21.333 6.66699 57 10 107 10c75.333 0 138.166 -16.667 188.499 -50s75.5 -80.666 75.5 -141.999c0 -132 -83.333 -198 -250 -198
h-326v29c51.333 2.66699 81.833 7 91.5 13s14.5 23 14.5 51v424c0 25.333 -4.33301 40.833 -13 46.5s-31 8.5 -67 8.5c-50 0 -84.333 -7.5 -103 -22.5s-32.667 -47.167 -42 -96.5h-30zM376.001 111.998c0 -31.333 6.16797 -52 18.501 -62s38.166 -15 77.499 -15
c112 0 168 52 168 156c0 51.333 -16.5 91.5 -49.5 120.5s-76.167 43.5 -129.5 43.5c-36.667 0 -65 -4.33301 -85 -13v-230z" />
    <glyph glyph-name="afii10194" unicode="&#x463;" horiz-adv-x="668" 
d="M18 352v138.002h208v152c0 18.667 -2 30.667 -6 36s-12.667 8.66602 -26 9.99902l-38 4v25l157 25l7 -6v-246h208v-138h-31c-10 44 -23.333 72.167 -40 84.5s-41.667 18.5 -75 18.5h-7c-26.667 -2.66699 -42.5 -6.5 -47.5 -11.5s-7.5 -19.5 -7.5 -43.5v-130
c42.667 7.33301 74 11 94 11c57.333 0 107 -11.833 149 -35.5s63 -59.167 63 -106.5c0 -48.667 -17.5 -84 -52.5 -106s-79.5 -33 -133.5 -33h-299v29c41.333 2.66699 65.833 6.66699 73.5 12s11.5 20.666 11.5 45.999v313c0 24 -2.5 38.5 -7.5 43.5
s-20.833 8.83301 -47.5 11.5h-7c-33.333 0 -58.333 -6.16699 -75 -18.5s-30 -40.5 -40 -84.5h-31zM320 90.002c0 -25.333 3.16797 -40.499 9.50098 -45.499s28.166 -8.16699 65.499 -9.5h7c42 0 72.5 8.66699 91.5 26s28.5 43.666 28.5 78.999
c0 30 -9.16699 54.833 -27.5 74.5s-47.833 29.5 -88.5 29.5c-26 0 -54.667 -3 -86 -9v-145z" />
    <glyph glyph-name="uni046A" unicode="&#x46a;" horiz-adv-x="1075" 
d="M35 -15l-0.00195312 35c35.333 0 63.333 10.833 84 32.5s36.667 61.167 48 118.5c10 50.667 34.167 94.5 72.5 131.5s82.5 60.833 132.5 71.5c28 6 61 9 99 9v1l-188 238c-12 16 -22.667 26 -32 30s-27.666 7.66699 -54.999 11v29h683v-29
c-27.333 -3.33301 -45.666 -7 -54.999 -11s-20 -14 -32 -30l-188 -238v-1c38 0 71 -3 99 -9c50 -10.667 94.167 -34.5 132.5 -71.5s62.5 -80.833 72.5 -131.5c11.333 -57.333 27.333 -96.833 48 -118.5s48.667 -32.5 84 -32.5v-35h-56c-53.333 0 -93 9.16699 -119 27.5
s-44.333 54.833 -55 109.5c-17.333 84 -40.5 142.667 -69.5 176s-72.5 50 -130.5 50h-23v-255c0 -28 4 -45 12 -51s34 -10.333 78 -13v-29h-279v29c44 2.66699 70 7 78 13s12 23 12 51v255h-23c-58 0 -101.5 -16.667 -130.5 -50s-52.167 -92 -69.5 -176
c-10.667 -54.667 -29 -91.167 -55 -109.5s-65.667 -27.5 -119 -27.5h-56zM374.998 656l193 -246h1l193 246v1h-387v-1z" />
    <glyph glyph-name="uni046B" unicode="&#x46b;" horiz-adv-x="850" 
d="M27 -12l0.0126953 33c26.667 0 46.834 6.5 60.501 19.5s25.167 39.833 34.5 80.5c7.33301 34 26.666 64.333 57.999 91s70 42.667 116 48c22 2 42.333 3 61 3v1l-134 164c-5.33301 6.66699 -10.333 11.834 -15 15.501s-11.834 7.16699 -21.501 10.5
s-22.167 5.66602 -37.5 6.99902v29h552v-29c-22 -2 -37.667 -5.5 -47 -10.5s-18.333 -12.5 -27 -22.5l-134 -164v-1c18.667 0 39 -1 61 -3c46 -5.33301 84.667 -21.333 116 -48s50.666 -57 57.999 -91c9.33301 -40.667 20.833 -67.5 34.5 -80.5s33.834 -19.5 60.501 -19.5
v-33h-20c-92.667 0 -147.334 32.667 -164.001 98c-6.66699 26 -11.834 44.5 -15.501 55.5s-8.83398 23.667 -15.501 38s-14.334 24 -23.001 29s-19.834 9.5 -33.501 13.5s-30.834 6 -51.501 6h-28v-141c0 -25.333 3.5 -40.666 10.5 -45.999s28.5 -9.33301 64.5 -12v-29h-244
v29c36 2.66699 57.5 6.66699 64.5 12s10.5 20.666 10.5 45.999v141h-28c-20.667 0 -37.834 -2 -51.501 -6s-24.834 -8.5 -33.501 -13.5s-16.334 -14.667 -23.001 -29s-11.834 -27 -15.501 -38s-8.83398 -29.5 -15.501 -55.5c-16.667 -65.333 -71.334 -98 -164.001 -98h-20z
M312.013 454l141 -173h1l141 173v1h-283v-1z" />
    <glyph glyph-name="afii10147" unicode="&#x472;" 
d="M48 346c0 112.667 28.5 201 85.5 265s139.5 96 247.5 96s190.5 -32 247.5 -96s85.5 -152.333 85.5 -265s-28.5 -201 -85.5 -265s-139.5 -96 -247.5 -96s-190.5 32 -247.5 96s-85.5 152.333 -85.5 265zM160 341c0 -40 3.5 -77.5 10.5 -112.5s18.333 -69 34 -102
s38.5 -59 68.5 -78s66 -28.5 108 -28.5s78 9.5 108 28.5s52.833 45 68.5 78s27 67 34 102s10.5 72.5 10.5 112.5h-442zM161 379h440c-1.33301 38 -6 73.167 -14 105.5s-20 63.166 -36 92.499s-38.5 52.5 -67.5 69.5s-63.167 25.5 -102.5 25.5s-73.5 -8.5 -102.5 -25.5
s-51.5 -40.167 -67.5 -69.5s-28 -60.166 -36 -92.499s-12.667 -67.5 -14 -105.5z" />
    <glyph glyph-name="afii10195" unicode="&#x473;" horiz-adv-x="577" 
d="M49 245c0 82 20.167 145.333 60.5 190s100.166 67 179.499 67s139.166 -22.333 179.499 -67s60.5 -108 60.5 -190s-20.167 -145.333 -60.5 -190s-100.166 -67 -179.499 -67s-139.166 22.333 -179.499 67s-60.5 108 -60.5 190zM153 235
c1.33301 -67.333 13.333 -119.5 36 -156.5s56 -55.5 100 -55.5s77.333 18.5 100 55.5s34.667 89.167 36 156.5h-272zM154 270h270.002c-2.66699 62.667 -15.334 111.167 -38.001 145.5s-55 51.5 -97 51.5s-74.333 -17.167 -97 -51.5s-35.334 -82.833 -38.001 -145.5z" />
    <glyph glyph-name="afii10148" unicode="&#x474;" horiz-adv-x="772" 
d="M-18 663v29.001h258v-29l-52 -5c-12 -0.666992 -19.167 -3.66699 -21.5 -9s-1.5 -14.333 2.5 -27l88 -255l93 -257l2 -2l100 287c41.333 118 68 189.667 80 215c24.667 51.333 54.334 82 89.001 92c10.667 3.33301 22.667 5 36 5c22 0 40.5 -4.33301 55.5 -13
s25.667 -19.834 32 -33.501s10.5 -25.5 12.5 -35.5s3 -19.667 3 -29c0 -13.333 -3.66699 -25.833 -11 -37.5s-20 -17.5 -38 -17.5c-29.333 0 -44 12.333 -44 37c0 10 1.16699 21.5 3.5 34.5s3.5 24.167 3.5 33.5c0 17.333 -7 26 -21 26c-26.667 0 -51 -22 -73 -66
c-12 -24 -40 -98 -84 -222c-4.66699 -14 -9.33398 -27 -14.001 -39l-124 -345h-71l-217 604c-10 26 -20 42 -30 48s-29.333 9.66699 -58 11z" />
    <glyph glyph-name="afii10196" unicode="&#x475;" horiz-adv-x="590" 
d="M1 461l-0.000976562 29.002h224v-29l-45 -5c-17.333 -2 -22.666 -11.667 -15.999 -29l120 -337h2l63 185c30.667 89.333 54.5 149.5 71.5 180.5s39.5 46.5 67.5 46.5c33.333 0 57.166 -10 71.499 -30s21.5 -41 21.5 -63c0 -6 -0.666992 -11.833 -2 -17.5
s-5.66602 -11.834 -12.999 -18.501s-17.333 -10 -30 -10c-28 0 -42 12.333 -42 37c0 6.66699 1.16699 15 3.5 25s3.5 17 3.5 21c0 14 -5.33301 21 -16 21c-10 0 -22.333 -16.333 -37 -49s-37 -91.334 -67 -176.001l-85 -242h-72l-77 216c-35.333 97.333 -60.333 164 -75 200
c-7.33301 18 -15 29.5 -23 34.5s-24 8.5 -48 10.5z" />
    <glyph glyph-name="afii10050" unicode="&#x490;" horiz-adv-x="536" 
d="M35 0v29.001c44 2.66699 70 7 78 13s12 23 12 51v506c0 28 -4 45 -12 51s-34 10.333 -78 13v29h297c58 0 98.5 10.167 121.5 30.5s37.5 57.833 43.5 112.5h30v-217h-30c-4.66699 12 -9.16699 20.167 -13.5 24.5s-13.333 7.83301 -27 10.5s-35.167 4 -64.5 4h-131
c-16.667 0 -27 -1.83301 -31 -5.5s-6 -13.834 -6 -30.501v-528c0 -28 4.5 -44.833 13.5 -50.5s37.833 -10.167 86.5 -13.5v-29h-289z" />
    <glyph glyph-name="afii10098" unicode="&#x491;" horiz-adv-x="448" 
d="M32 0l-0.00195312 29.001c36 2.66699 57.5 6.66699 64.5 12s10.5 20.666 10.5 45.999v316c0 25.333 -3.5 40.666 -10.5 45.999s-28.5 9.33301 -64.5 12v29h225c54.667 0 91.834 8.5 111.501 25.5s34.167 52.833 43.5 107.5h28v-208h-31
c-8 16.667 -17.167 27.5 -27.5 32.5s-31.833 7.5 -64.5 7.5h-41c-35.333 0 -56.666 -2.66699 -63.999 -8s-11 -21 -11 -47v-314c0 -25.333 4.5 -40.666 13.5 -45.999s36.167 -9 81.5 -11v-29h-264z" />
    <glyph glyph-name="uni0492" unicode="&#x492;" horiz-adv-x="558" 
d="M39 0l0.000976562 29.001c44 2.66699 70 7 78 13s12 23 12 51v297h-90v38h90v171c0 28 -4 45 -12 51s-34 10.333 -78 13v29h502v-164h-30c-7.33301 52 -20.833 86.5 -40.5 103.5s-57.834 25.5 -114.501 25.5h-91c-16.667 0 -27 -1.83301 -31 -5.5s-6 -13.834 -6 -30.501
v-193h223v-38h-223v-297c0 -28 4.83301 -45 14.5 -51s40.167 -10.333 91.5 -13v-29h-295z" />
    <glyph glyph-name="uni0493" unicode="&#x493;" horiz-adv-x="476" 
d="M36 0l-0.00195312 29.001c36 2.66699 57.5 6.66699 64.5 12s10.5 20.666 10.5 45.999v148h-74v40h74v128c0 25.333 -3.5 40.666 -10.5 45.999s-28.5 9.33301 -64.5 12v29h418v-148h-31c-6.66699 46.667 -18.667 77.167 -36 91.5s-52.666 21.5 -105.999 21.5h-1
c-37.333 -1.33301 -59.166 -4.5 -65.499 -9.5s-9.5 -20.167 -9.5 -45.5v-125h171v-40h-171v-149c0 -25.333 4.5 -40.666 13.5 -45.999s36.167 -9 81.5 -11v-29h-264z" />
    <glyph glyph-name="uni0494" unicode="&#x494;" horiz-adv-x="650" 
d="M35 0l-0.00195312 29.002c44 2.66699 70 7 78 13s12 23 12 51v506c0 28 -4 45 -12 51s-34 10.333 -78 13v29h502v-164h-30c-7.33301 52 -20.833 86.5 -40.5 103.5s-57.834 25.5 -114.501 25.5h-91c-16.667 0 -27 -1.83301 -31 -5.5s-6 -13.834 -6 -30.501v-245h84
c88 0 158.833 -27.833 212.5 -83.5s80.5 -127.834 80.5 -216.501c0 -58 -8.5 -110.333 -25.5 -157s-44.833 -85 -83.5 -115s-85.667 -45 -141 -45c-52.667 0 -98.167 8.66699 -136.5 26s-57.5 40.666 -57.5 69.999c0 14.667 6.33301 28.167 19 40.5s26 18.5 40 18.5
c21.333 0 36 -14 44 -42c2.66699 -10.667 5.83398 -20 9.50098 -28s8.83398 -16.167 15.501 -24.5s15.334 -14.666 26.001 -18.999s23.334 -6.5 38.001 -6.5c26 0 48.5 8.16699 67.5 24.5s33.5 38.5 43.5 66.5s17.333 57.667 22 89s7 65.333 7 102
c0 76.667 -17.167 140 -51.5 190s-85.833 75 -154.5 75h-59v-248c0 -28 4.16699 -44.833 12.5 -50.5s34.166 -10.167 77.499 -13.5v-29h-279z" />
    <glyph glyph-name="uni0495" unicode="&#x495;" horiz-adv-x="586" 
d="M32 0l-0.000976562 28.998c36 2.66699 57.5 6.66699 64.5 12s10.5 20.666 10.5 45.999v316c0 25.333 -3.5 40.666 -10.5 45.999s-28.5 9.33301 -64.5 12v29h418v-148h-31c-6.66699 46.667 -18.667 77.167 -36 91.5s-52.666 21.5 -105.999 21.5h-1
c-37.333 -1.33301 -59.166 -4.5 -65.499 -9.5s-9.5 -20.167 -9.5 -45.5v-130h50c87.333 0 157.833 -24.167 211.5 -72.5s80.5 -113.5 80.5 -195.5c0 -67.333 -18.167 -124.666 -54.5 -171.999s-90.833 -71 -163.5 -71c-51.333 0 -94 8.16699 -128 24.5s-51 39.5 -51 69.5
c0 14.667 5.33301 26.5 16 35.5s23 13.5 37 13.5c14.667 0 25.667 -5.66699 33 -17s12.166 -23.666 14.499 -36.999s9.83301 -25.666 22.5 -36.999s30.667 -17 54 -17c77.333 0 116 72.667 116 218c0 65.333 -17 118.833 -51 160.5s-86.667 62.5 -158 62.5h-29v-148
c0 -25.333 3.5 -40.666 10.5 -45.999s28.5 -9.33301 64.5 -12v-29h-244z" />
    <glyph glyph-name="uni0496" unicode="&#x496;" horiz-adv-x="1081" 
d="M35 -15l0.000976562 35.001c35.333 0 63.333 10.833 84 32.5s36.667 61.167 48 118.5c10 50 34.667 93.5 74 130.5s82.333 59.167 129 66.5v3c-26 8 -46.333 25 -61 51s-29.667 68 -45 126c-8.66699 34.667 -21 64 -37 88s-30.667 36 -44 36
c-10.667 0 -18.167 -3.33301 -22.5 -10s-6.5 -13.334 -6.5 -20.001c0 -7.33301 1 -17.333 3 -30s3 -24.334 3 -35.001c0 -24 -14 -36 -42 -36c-18.667 0 -32.334 5.33301 -41.001 16s-13 22 -13 34c0 77.333 39.333 116 118 116c27.333 0 52.833 -15.667 76.5 -47
s42.167 -72.333 55.5 -123c6.66699 -24.667 13.334 -45 20.001 -61s15.834 -32 27.501 -48s27 -28 46 -36s41.833 -12 68.5 -12h12v219c0 28 -4 45 -12 51s-34 10.333 -78 13v29h279v-29c-44 -2.66699 -70 -7 -78 -13s-12 -23 -12 -51v-219h12c26.667 0 49.5 4 68.5 12
s34.333 20 46 36s20.834 32 27.501 48s13.334 36.333 20.001 61c13.333 50.667 31.833 91.667 55.5 123s49.167 47 76.5 47c78.667 0 118 -38.667 118 -116c0 -12 -4.33301 -23.333 -13 -34s-22.334 -16 -41.001 -16c-28 0 -42 12 -42 36c0 10.667 1 22.334 3 35.001
s3 22.667 3 30c0 4 -0.666992 8 -2 12s-4.33301 8 -9 12s-10.667 6 -18 6c-13.333 0 -28 -12 -44 -36s-28.333 -53.333 -37 -88c-15.333 -58 -30.333 -100 -45 -126s-35 -43 -61 -51v-3c46.667 -7.33301 89.667 -29.5 129 -66.5s64 -80.5 74 -130.5
c11.333 -57.333 27.333 -96.833 48 -118.5s48.667 -32.5 84 -32.5h16l12 -210h-28c-8 48.667 -16.5 84 -25.5 106s-20.833 38.167 -35.5 48.5s-38.334 19.5 -71.001 27.5c-26.667 7.33301 -47.667 20.833 -63 40.5s-27 49.5 -35 89.5
c-16.667 84 -38.334 141.5 -65.001 172.5s-67.667 46.5 -123 46.5h-35v-248c0 -28 4 -45 12 -51s34 -10.333 78 -13v-29h-279v29c44 2.66699 70 7 78 13s12 23 12 51v248h-35c-55.333 0 -96.333 -15.5 -123 -46.5s-48.334 -88.5 -65.001 -172.5
c-10.667 -54.667 -29 -91.167 -55 -109.5s-65.667 -27.5 -119 -27.5h-56z" />
    <glyph glyph-name="uni0497" unicode="&#x497;" horiz-adv-x="856" 
d="M27 -12l-0.00195312 33.001c26.667 0 46.834 6.5 60.501 19.5s25.167 39.833 34.5 80.5c7.33301 34 24.833 63 52.5 87s63.5 38.667 107.5 44v2c-13.333 3.33301 -27.5 17.333 -42.5 42s-27.167 56 -36.5 94c-4.66699 18 -13.5 35.333 -26.5 52s-24.833 25 -35.5 25
c-12.667 0 -19 -6.66699 -19 -20c0 -7.33301 1 -17 3 -29s3 -19.667 3 -23c0 -21.333 -14.333 -32 -43 -32c-15.333 0 -26.666 5 -33.999 15s-11 20.333 -11 31c0 21.333 7.66699 42.166 23 62.499s39.666 30.5 72.999 30.5c28 0 51.5 -11.5 70.5 -34.5
s33.167 -51.5 42.5 -85.5c10 -37.333 23.5 -66.5 40.5 -87.5s44.167 -31.5 81.5 -31.5h7v140c0 25.333 -3.5 40.666 -10.5 45.999s-28.5 9.33301 -64.5 12v29h244v-29c-36 -2.66699 -57.5 -6.66699 -64.5 -12s-10.5 -20.666 -10.5 -45.999v-140h7
c37.333 0 64.5 10.5 81.5 31.5s30.5 50.167 40.5 87.5c9.33301 34 23.5 62.5 42.5 85.5s42.5 34.5 70.5 34.5c33.333 0 57.666 -10.167 72.999 -30.5s23 -41.166 23 -62.499c0 -10.667 -3.66699 -21 -11 -31s-18.666 -15 -33.999 -15c-28.667 0 -43 10.667 -43 32
c0 3.33301 1 11 3 23s3 21.667 3 29c0 13.333 -6.33301 20 -19 20c-10.667 0 -22.5 -8.33301 -35.5 -25s-21.833 -34 -26.5 -52c-9.33301 -38 -21.5 -69.333 -36.5 -94s-29.167 -38.667 -42.5 -42v-2c44 -5.33301 79.833 -20 107.5 -44s45.167 -53 52.5 -87
c9.33301 -40.667 20.833 -67.5 34.5 -80.5s33.834 -19.5 60.501 -19.5h5l12 -189h-28c-3.33301 34.667 -8 63 -14 85s-14 38.333 -24 49s-18.167 17.667 -24.5 21s-16.5 7.33301 -30.5 12c-42.667 15.333 -69.334 44.333 -80.001 87c-6 22.667 -10.333 38.5 -13 47.5
s-6.66699 20.5 -12 34.5s-10.666 23.5 -15.999 28.5s-12.666 10.667 -21.999 17s-20 10.333 -32 12s-26.667 2.5 -44 2.5h-28v-141c0 -25.333 3.5 -40.666 10.5 -45.999s28.5 -9.33301 64.5 -12v-29h-244v29c36 2.66699 57.5 6.66699 64.5 12s10.5 20.666 10.5 45.999v141
h-28c-25.333 0 -45.5 -2 -60.5 -6s-27.5 -13.167 -37.5 -27.5s-17.167 -27.833 -21.5 -40.5s-10.833 -35.334 -19.5 -68.001c-16.667 -65.333 -71.334 -98 -164.001 -98h-20z" />
    <glyph glyph-name="uni049A" unicode="&#x49a;" horiz-adv-x="738" 
d="M35 0l0.00195312 28.998c44 2.66699 70 7 78 13s12 23 12 51v506c0 28 -4 45 -12 51s-34 10.333 -78 13v29h279v-29c-44 -2.66699 -70 -7 -78 -13s-12 -23 -12 -51v-219h26c27.333 0 50.833 3.83301 70.5 11.5s35.334 19.834 47.001 36.501s20.667 32.667 27 48
s12.833 35.666 19.5 60.999c13.333 51.333 31.666 92.5 54.999 123.5s49.666 46.5 78.999 46.5c78.667 0 118 -38.667 118 -116c0 -12 -4.33301 -23.333 -13 -34s-22.334 -16 -41.001 -16c-28 0 -42 12 -42 36c0 10.667 1 22.667 3 36s3 23 3 29
c0 8.66699 -2.5 15.834 -7.5 21.501s-12.167 8.5 -21.5 8.5c-14.667 0 -29.834 -11.833 -45.501 -35.5s-28.167 -53.167 -37.5 -88.5c-15.333 -57.333 -30.666 -99.166 -45.999 -125.499s-36 -43.5 -62 -51.5v-3c47.333 -7.33301 91.166 -29.5 131.499 -66.5
s65.5 -80.5 75.5 -130.5c11.333 -58 27.333 -97.667 48 -119s49.334 -32 86.001 -32h16l12 -210h-28c-7.33301 48 -15.5 83.167 -24.5 105.5s-21 38.666 -36 48.999s-38.833 19.5 -71.5 27.5c-27.333 6.66699 -48.833 20 -64.5 40s-27.5 50 -35.5 90
c-17.333 84.667 -39.333 142.334 -66 173.001s-68.667 46 -126 46h-49v-248c0 -28 4 -45 12 -51s34 -10.333 78 -13v-29h-279z" />
    <glyph glyph-name="uni049B" unicode="&#x49b;" horiz-adv-x="600" 
d="M32 0v28.998c36 2.66699 57.5 6.66699 64.5 12s10.5 20.666 10.5 45.999v316c0 25.333 -3.5 40.666 -10.5 45.999s-28.5 9.33301 -64.5 12v29h244v-29c-36 -2.66699 -57.5 -6.66699 -64.5 -12s-10.5 -20.666 -10.5 -45.999v-140h17c38 0 65.667 10.333 83 31s31 50 41 88
c8.66699 33.333 23.167 61.666 43.5 84.999s44.5 35 72.5 35c33.333 0 57.666 -10.167 72.999 -30.5s23 -41.166 23 -62.499c0 -10.667 -3.66699 -21 -11 -31s-18.666 -15 -33.999 -15c-28.667 0 -43 10.667 -43 32c0 4 1 11.833 3 23.5s3 21.167 3 28.5
c0 13.333 -6.33301 20 -19 20c-10.667 0 -23 -8.33301 -37 -25s-23.333 -34 -28 -52c-9.33301 -38 -21.833 -69.333 -37.5 -94s-30.167 -38.667 -43.5 -42v-2c44 -5.33301 80.167 -20.166 108.5 -44.499s46.166 -53.166 53.499 -86.499
c8.66699 -40 20.334 -66.667 35.001 -80s35.667 -20 63 -20h5l12 -189h-28c-3.33301 34.667 -8 63 -14 85s-14 38.333 -24 49s-18.333 17.667 -25 21s-17 7.33301 -31 12c-44.667 15.333 -72 44.333 -82 87c-6.66699 26 -11.667 44.667 -15 56s-8.5 24 -15.5 38
s-14.833 23.667 -23.5 29s-20 9.83301 -34 13.5s-31.667 5.5 -53 5.5h-38v-141c0 -25.333 3.5 -40.666 10.5 -45.999s28.5 -9.33301 64.5 -12v-29h-244z" />
    <glyph glyph-name="uni049E" unicode="&#x49e;" horiz-adv-x="737" 
d="M32 543l0.00195312 37.998h98v18c0 28 -4 45 -12 51s-34 10.333 -78 13v29h279v-29c-44 -2.66699 -70 -7 -78 -13s-12 -23 -12 -51v-18h102v-38h-102v-163h26c27.333 0 50.833 3.83301 70.5 11.5s35.334 19.834 47.001 36.501s20.667 32.667 27 48
s12.833 35.666 19.5 60.999c13.333 51.333 31.666 92.5 54.999 123.5s49.666 46.5 78.999 46.5c78.667 0 118 -38.667 118 -116c0 -12 -4.33301 -23.333 -13 -34s-22.334 -16 -41.001 -16c-28 0 -42 12 -42 36c0 10.667 1 22.667 3 36s3 23 3 29
c0 8.66699 -2.5 15.834 -7.5 21.501s-12.167 8.5 -21.5 8.5c-14.667 0 -29.834 -11.833 -45.501 -35.5s-28.167 -53.167 -37.5 -88.5c-15.333 -57.333 -30.666 -99.166 -45.999 -125.499s-36 -43.5 -62 -51.5v-3c47.333 -7.33301 91.166 -29.5 131.499 -66.5
s65.5 -80.5 75.5 -130.5c11.333 -58 27.333 -97.667 48 -119s49.334 -32 86.001 -32v-35h-58c-53.333 0 -93 9.16699 -119 27.5s-44.333 54.833 -55 109.5c-16.667 84 -38.5 141.5 -65.5 172.5s-69.167 46.5 -126.5 46.5h-49v-248c0 -28 4 -45 12 -51s34 -10.333 78 -13v-29
h-279v29c44 2.66699 70 7 78 13s12 23 12 51v450h-98z" />
    <glyph glyph-name="uni049F" unicode="&#x49f;" horiz-adv-x="590" 
d="M20 554l0.000976562 34.999h83v53c0 17.333 -2 28.666 -6 33.999s-12.667 9 -26 11l-38 5v25l156 25l8 -6v-147h198v-35h-198v-291h17c38 0 65.667 10.333 83 31s31 50 41 88c8.66699 33.333 23.167 61.666 43.5 84.999s44.5 35 72.5 35
c33.333 0 57.666 -10.167 72.999 -30.5s23 -41.166 23 -62.499c0 -10.667 -3.66699 -21 -11 -31s-18.666 -15 -33.999 -15c-28.667 0 -43 10.667 -43 32c0 4 1 11.833 3 23.5s3 21.167 3 28.5c0 13.333 -6.33301 20 -19 20c-10.667 0 -23 -8.33301 -37 -25
s-23.333 -34 -28 -52c-9.33301 -38 -21.833 -69.333 -37.5 -94s-30.167 -38.667 -43.5 -42v-2c44 -5.33301 80.167 -20.166 108.5 -44.499s46.166 -53.166 53.499 -86.499c8.66699 -40 20.334 -66.667 35.001 -80s35.667 -20 63 -20v-33h-20
c-94.667 0 -150.334 32.667 -167.001 98c-6.66699 26 -11.667 44.667 -15 56s-8.5 24 -15.5 38s-14.833 23.667 -23.5 29s-20 9.83301 -34 13.5s-31.667 5.5 -53 5.5h-38v-141c0 -25.333 3.5 -40.666 10.5 -45.999s28.5 -9.33301 64.5 -12v-29h-244v29
c36 2.66699 57.5 6.66699 64.5 12s10.5 20.666 10.5 45.999v467h-83z" />
    <glyph glyph-name="uni04A2" unicode="&#x4a2;" horiz-adv-x="808" 
d="M35 0v29c44 2.66699 70 7 78 13s12 23 12 51v506c0 28 -4 45 -12 51s-34 10.333 -78 13v29h279v-29c-43.333 -3.33301 -69.166 -7.83301 -77.499 -13.5s-12.5 -22.5 -12.5 -50.5v-220h350v220c0 28 -4 45 -12 51s-34 10.333 -78 13v29h279v-29
c-43.333 -3.33301 -69.166 -7.83301 -77.499 -13.5s-12.5 -22.5 -12.5 -50.5v-506c0 -28 4.16699 -44.833 12.5 -50.5s34.166 -10.167 77.499 -13.5h19l13 -219h-28c-5.33301 34 -10.5 60 -15.5 78s-12.167 35.5 -21.5 52.5s-21.833 29.167 -37.5 36.5s-35.5 13 -59.5 17
s-54.667 6 -92 6h-57v29c44 2.66699 70 7 78 13s12 23 12 51v248h-350v-248c0 -28 4.16699 -44.833 12.5 -50.5s34.166 -10.167 77.499 -13.5v-29h-279z" />
    <glyph glyph-name="uni04A3" unicode="&#x4a3;" horiz-adv-x="624" 
d="M32 0l-0.00195312 29.001c36 2.66699 57.5 6.66699 64.5 12s10.5 20.666 10.5 45.999v316c0 25.333 -3.5 40.666 -10.5 45.999s-28.5 9.33301 -64.5 12v29h244v-29c-36 -2.66699 -57.5 -6.66699 -64.5 -12s-10.5 -20.666 -10.5 -45.999v-133h222v133
c0 25.333 -3.5 40.666 -10.5 45.999s-28.5 9.33301 -64.5 12v29h244v-29c-36 -2.66699 -57.5 -6.66699 -64.5 -12s-10.5 -20.666 -10.5 -45.999v-316c0 -25.333 3.5 -40.666 10.5 -45.999s28.5 -9.33301 64.5 -12h2l13 -197h-28
c-7.33301 71.333 -21.666 117.166 -42.999 137.499s-62.666 30.5 -123.999 30.5h-64v29c36 2.66699 57.5 6.66699 64.5 12s10.5 20.666 10.5 45.999v148h-222v-148c0 -25.333 3.5 -40.666 10.5 -45.999s28.5 -9.33301 64.5 -12v-29h-244z" />
    <glyph glyph-name="uni04A4" unicode="&#x4a4;" horiz-adv-x="1003" 
d="M35 0l0.000976562 29.001c44 2.66699 70 7 78 13s12 23 12 51v506c0 28 -4 45 -12 51s-34 10.333 -78 13v29h279v-29c-43.333 -3.33301 -69.166 -7.83301 -77.499 -13.5s-12.5 -22.5 -12.5 -50.5v-220h350v220c0 28 -4 45 -12 51s-34 10.333 -78 13v29h502v-164h-30
c-7.33301 52 -20.833 86.5 -40.5 103.5s-57.834 25.5 -114.501 25.5h-91c-16.667 0 -27 -1.83301 -31 -5.5s-6 -13.834 -6 -30.501v-528c0 -28 4.83301 -45 14.5 -51s40.167 -10.333 91.5 -13v-29h-295v29c44 2.66699 70 7 78 13s12 23 12 51v248h-350v-248
c0 -28 4.16699 -44.833 12.5 -50.5s34.166 -10.167 77.499 -13.5v-29h-279z" />
    <glyph glyph-name="uni04A5" unicode="&#x4a5;" horiz-adv-x="788" 
d="M32 0v29.001c36 2.66699 57.5 6.66699 64.5 12s10.5 20.666 10.5 45.999v316c0 25.333 -3.5 40.666 -10.5 45.999s-28.5 9.33301 -64.5 12v29h244v-29c-36 -2.66699 -57.5 -6.66699 -64.5 -12s-10.5 -20.666 -10.5 -45.999v-133h222v133
c0 25.333 -3.5 40.666 -10.5 45.999s-28.5 9.33301 -64.5 12v29h418v-148h-31c-6.66699 46.667 -18.667 77.167 -36 91.5s-52.666 21.5 -105.999 21.5h-1c-36.667 -1.33301 -58.334 -4.33301 -65.001 -9s-10 -19 -10 -43v-317c0 -25.333 4.5 -40.666 13.5 -45.999
s36.167 -9 81.5 -11v-29h-264v29c36 2.66699 57.5 6.66699 64.5 12s10.5 20.666 10.5 45.999v148h-222v-148c0 -25.333 3.5 -40.666 10.5 -45.999s28.5 -9.33301 64.5 -12v-29h-244z" />
    <glyph glyph-name="uni04A8" unicode="&#x4a8;" horiz-adv-x="852" 
d="M48 346c0 34.667 2.82812 67.8291 8.49512 99.4961s16.334 63.834 32.001 96.501s35.667 60.834 60 84.501s56.833 43 97.5 58s87 22.5 139 22.5v-35c-43.333 0 -80.5 -9.83301 -111.5 -29.5s-54.333 -46.167 -70 -79.5s-26.834 -67.666 -33.501 -102.999
s-10 -73.333 -10 -114s3.83301 -78.667 11.5 -114s20.334 -69.666 38.001 -102.999s44 -59.833 79 -79.5s76.833 -29.5 125.5 -29.5c32.667 0 61 4.33301 85 13c-50.667 31.333 -91.834 74 -123.501 128s-47.5 116.333 -47.5 187c0 100.667 21 177 63 229s94.667 78 158 78
c28.667 0 56.167 -5.66699 82.5 -17s50.833 -28.666 73.5 -51.999s40.834 -55.666 54.501 -96.999s20.5 -89 20.5 -143c0 -38.667 -4.33301 -76.334 -13 -113.001s-26.167 -74.334 -52.5 -113.001s-59.833 -69 -100.5 -91c16 -6 33 -9 51 -9c54.667 0 104.667 21.667 150 65
l21 -21c-27.333 -30.667 -54.666 -51.5 -81.999 -62.5s-59 -16.5 -95 -16.5c-32.667 0 -67 6.66699 -103 20c-41.333 -13.333 -88.666 -20 -141.999 -20c-57.333 0 -108.166 7.5 -152.499 22.5s-79.666 34.333 -105.999 58s-47.833 51.834 -64.5 84.501s-28 64.667 -34 96
s-9 64.666 -9 99.999zM439.995 345.995c0 -54.667 10.667 -107.833 32 -159.5s49.333 -92.5 84 -122.5c40 30 68.667 71 86 123s26 105 26 159c0 86.667 -10 154.167 -30 202.5s-50 72.5 -90 72.5c-72 0 -108 -91.667 -108 -275z" />
    <glyph glyph-name="uni04A9" unicode="&#x4a9;" horiz-adv-x="660" 
d="M49 245c0 171.333 82.3369 256.998 247.004 256.998v-35c-95.333 0 -143 -74 -143 -222c0 -25.333 1.16699 -47.5 3.5 -66.5s7.16602 -38.833 14.499 -59.5s17.166 -37.5 29.499 -50.5s29.5 -23.833 51.5 -32.5s48 -13 78 -13c18 0 32.667 1.33301 44 4
c-36 22 -64.5 51.667 -85.5 89s-31.5 80.333 -31.5 129c0 64.667 15.667 114.834 47 150.501s72.666 53.5 123.999 53.5c45.333 0 85.833 -17.833 121.5 -53.5s53.5 -86.5 53.5 -152.5c0 -103.333 -35.333 -175.666 -106 -216.999c10 -2 20.333 -3 31 -3
c21.333 0 39 3.5 53 10.5s30.667 18.167 50 33.5l17 -19c-39.333 -40 -83 -60 -131 -60c-29.333 0 -57 4 -83 12c-29.333 -8 -64 -12 -104 -12c-46.667 0 -87.334 5.16699 -122.001 15.5s-62 23.333 -82 39s-36 35.334 -48 59.001s-19.833 46.667 -23.5 69
s-5.5 47.166 -5.5 74.499zM361.004 241.998c0 -86.667 24.667 -149.334 74 -188.001c42.667 32.667 64 95.334 64 188.001c0 58 -5.33301 101.167 -16 129.5s-29.667 42.5 -57 42.5c-43.333 0 -65 -57.333 -65 -172z" />
    <glyph glyph-name="uni04AA" unicode="&#x4aa;" horiz-adv-x="680" 
d="M48 341c0 107.333 30.3359 194.999 91.0029 262.999c61.333 68.667 155.333 103 282 103c85.333 0 156 -13 212 -39v-156h-30c-17.333 106.667 -81.333 160 -192 160c-44.667 0 -83.667 -9.16699 -117 -27.5s-59.5 -43.333 -78.5 -75s-33 -66.334 -42 -104.001
s-13.5 -78.167 -13.5 -121.5c0 -27.333 2 -54.333 6 -81s11.667 -55 23 -85s25.833 -56.333 43.5 -79s41.667 -41.5 72 -56.5s65.166 -22.5 104.499 -22.5c61.333 0 107.833 15.5 139.5 46.5s55.167 75.5 70.5 133.5h30l-14 -167
c-24.667 -13.333 -57.834 -24.666 -99.501 -33.999s-82.5 -14 -122.5 -14l-23 -40c59.333 -8 89 -37 89 -87c0 -18 -4.66699 -33.333 -14 -46s-21.333 -21.667 -36 -27s-27.834 -9.16602 -39.501 -11.499s-22.5 -3.5 -32.5 -3.5c-15.333 0 -30 1 -44 3v26
c58.667 0 88 18.667 88 56c0 34 -20.667 52 -62 54l-4 7l39 71c-103.333 4.66699 -180.333 32.334 -231 83.001c-63.333 63.333 -95 153.666 -95 270.999z" />
    <glyph glyph-name="uni04AB" unicode="&#x4ab;" horiz-adv-x="496" 
d="M49 240c0 35.333 4.33496 67.833 13.002 97.5s22 57.167 40 82.5s43.167 45.333 75.5 60s70.5 22 114.5 22c51.333 0 93.166 -10 125.499 -30s48.5 -42.333 48.5 -67c0 -16.667 -6.66699 -29.334 -20 -38.001s-26.666 -13 -39.999 -13c-14 0 -24.333 8.66699 -31 26
c-21.333 58 -52.666 87 -93.999 87c-37.333 0 -68 -17.167 -92 -51.5s-36 -86.833 -36 -157.5c0 -26 2.16699 -50.833 6.5 -74.5s11.666 -46.834 21.999 -69.501s25.666 -40.667 45.999 -54s44.5 -20 72.5 -20c35.333 0 64.166 8.66699 86.499 26s41.5 44 57.5 80l29 -14
c-11.333 -44.667 -33.166 -78.667 -65.499 -102s-67.5 -36.666 -105.5 -39.999l-26 -45c59.333 -8 89 -37 89 -87c0 -18 -4.66699 -33.333 -14 -46s-21.333 -21.667 -36 -27s-27.834 -9.16602 -39.501 -11.499s-22.5 -3.5 -32.5 -3.5c-15.333 0 -30 1 -44 3v26
c58.667 0 88 18.667 88 56c0 34 -20.667 52 -62 54l-4 7l40 74c-68.667 3.33301 -121.167 26 -157.5 68s-54.5 102.667 -54.5 182z" />
    <glyph glyph-name="uni04AC" unicode="&#x4ac;" horiz-adv-x="621" 
d="M22 526v166h577v-166h-30c-6 55.333 -18 91 -36 107s-56 24 -114 24h-59v-564c0 -28 5 -45 15 -51s41.667 -10.333 95 -13h19l13 -219h-28c-5.33301 34 -10.5 60 -15.5 78s-12.167 35.5 -21.5 52.5s-21.833 29.167 -37.5 36.5s-35.5 13 -59.5 17s-54.667 6 -92 6h-97v29
c53.333 2.66699 85 7 95 13s15 23 15 51v564h-59c-58 0 -96 -8 -114 -24s-30 -51.667 -36 -107h-30z" />
    <glyph glyph-name="uni04AD" unicode="&#x4ad;" horiz-adv-x="500" 
d="M22 330l-0.00195312 160.001h456v-160h-31c-15.333 50.667 -29 84.167 -41 100.5s-30.333 24.5 -55 24.5h-6c-20 0 -33 -2.83301 -39 -8.5s-9 -21.167 -9 -46.5v-313c0 -25.333 4.5 -40.666 13.5 -45.999s34.833 -9.33301 77.5 -12h2l13 -197h-28
c-7.33301 71.333 -21.666 117.166 -42.999 137.499s-62.666 30.5 -123.999 30.5h-96v29c42.667 2.66699 68.5 6.66699 77.5 12s13.5 20.666 13.5 45.999v313c0 25.333 -3 40.833 -9 46.5s-19 8.5 -39 8.5h-6c-24.667 0 -43 -8.16699 -55 -24.5s-25.667 -49.833 -41 -100.5
h-31z" />
    <glyph glyph-name="uni04AE" unicode="&#x4ae;" horiz-adv-x="588" 
d="M-12 663l0.00195312 29.001h259v-29l-59 -6c-15.333 -2 -19 -12 -11 -30c41.333 -90.667 92.666 -191.334 153.999 -302.001h2c75.333 147.333 124 247.666 146 300.999c8 19.333 4 30 -12 32l-54 5v29h219v-29c-32.667 -1.33301 -54.167 -5.5 -64.5 -12.5
s-24.5 -24.833 -42.5 -53.5c-38 -61.333 -90.333 -158.666 -157 -291.999c-8.66699 -17.333 -13 -37 -13 -59v-153c0 -28 4.83301 -45 14.5 -51s40.167 -10.333 91.5 -13v-29h-311v29c51.333 2.66699 81.833 7 91.5 13s14.5 23 14.5 51v149c0 19.333 -5 38.666 -15 57.999
c-42 84.667 -96.667 189 -164 313c-10.667 20.667 -21.334 33.834 -32.001 39.501s-29.667 9.16699 -57 10.5z" />
    <glyph glyph-name="uni04AF" unicode="&#x4af;" horiz-adv-x="506" 
d="M-8 461l-0.000976562 28.999h224v-29l-45 -5c-17.333 -2 -22.666 -11.667 -15.999 -29c8.66699 -24 27.667 -80.333 57 -169l64 -190h2l73 207c18.667 52 34.334 103.333 47.001 154c4.66699 16 -0.333008 25 -15 27l-49 5v29h190v-29
c-23.333 -1.33301 -39.333 -4.5 -48 -9.5s-16.667 -16.167 -24 -33.5c-21.333 -49.333 -44.333 -108 -69 -176l-83 -231v-154c0 -25.333 4.5 -40.666 13.5 -45.999s34.833 -9.33301 77.5 -12v-29h-276v29c42.667 2.66699 68.5 6.66699 77.5 12s13.5 20.666 13.5 45.999v155
l-69 204c-22.667 68.667 -47.334 135.334 -74.001 200.001c-7.33301 18 -15 29.5 -23 34.5s-24 8.5 -48 10.5z" />
    <glyph glyph-name="uni04B0" unicode="&#x4b0;" horiz-adv-x="588" 
d="M-12 663l0.00195312 29.001h259v-29l-59 -6c-15.333 -2 -19 -12 -11 -30c41.333 -90.667 92.666 -191.334 153.999 -302.001h2c75.333 147.333 124 247.666 146 300.999c8 19.333 4 30 -12 32l-54 5v29h219v-29c-32.667 -1.33301 -54.167 -5.5 -64.5 -12.5
s-24.5 -24.833 -42.5 -53.5c-38 -61.333 -90.333 -158.666 -157 -291.999c-8.66699 -17.333 -13 -37 -13 -59v-18h124v-38h-124v-97c0 -28 4.83301 -45 14.5 -51s40.167 -10.333 91.5 -13v-29h-311v29c51.333 2.66699 81.833 7 91.5 13s14.5 23 14.5 51v97h-124v38h124v14
c0 19.333 -5 38.666 -15 57.999c-42 84.667 -96.667 189 -164 313c-10.667 20.667 -21.334 33.834 -32.001 39.501s-29.667 9.16699 -57 10.5z" />
    <glyph glyph-name="uni04B1" unicode="&#x4b1;" horiz-adv-x="506" 
d="M-8 461l-0.000976562 28.999h224v-29l-45 -5c-17.333 -2 -22.666 -11.667 -15.999 -29l121 -359h2l73 207c18.667 52 34.334 103.333 47.001 154c4.66699 16 -0.333008 25 -15 27l-49 5v29h190v-29c-23.333 -1.33301 -39.333 -4.5 -48 -9.5s-16.667 -16.167 -24 -33.5
c-21.333 -49.333 -44.333 -108 -69 -176l-83 -231v-31h121v-40h-121v-88c0 -25.333 4.5 -40.666 13.5 -45.999s34.833 -9.33301 77.5 -12v-29h-276v29c42.667 2.66699 68.5 6.66699 77.5 12s13.5 20.666 13.5 45.999v88h-121v40h121v32l-69 204
c-22.667 68.667 -47.334 135.334 -74.001 200.001c-7.33301 18 -15 29.5 -23 34.5s-24 8.5 -48 10.5z" />
    <glyph glyph-name="uni04B2" unicode="&#x4b2;" horiz-adv-x="654" 
d="M-19 0l0.000976562 29.002c32.667 3.33301 54.5 7.66602 65.5 12.999s24.833 19 41.5 41c16 21.333 47 66.333 93 135l86 127l-160 255c-17.333 27.333 -32 44.5 -44 51.5s-33.667 10.833 -65 11.5v29h258v-29l-48 -5c-18.667 -2 -21.667 -13.333 -9 -34l125 -196h2
c50.667 73.333 93.667 139.333 129 198c12 20 9 31 -9 33l-48 4v29h221v-29c-30 -1.33301 -51.333 -5.33301 -64 -12s-29.667 -23 -51 -49c-46.667 -57.333 -98.667 -128.333 -156 -213l196 -303c14.667 -22.667 28.167 -37.167 40.5 -43.5s36.5 -10.833 72.5 -13.5h8
l13 -219h-28c-5.33301 34 -10.5 60 -15.5 78s-12.167 35.5 -21.5 52.5s-21.833 29.167 -37.5 36.5s-35.5 13 -59.5 17s-54.667 6 -92 6h-51v29l55 6c21.333 2 26.666 11.667 15.999 29l-152 241h-2c-56 -86.667 -104.333 -167.334 -145 -242.001
c-10 -16 -6.33301 -25 11 -27l64 -7v-29h-239z" />
    <glyph glyph-name="uni04B3" unicode="&#x4b3;" horiz-adv-x="511" 
d="M1 0l-0.00683594 28.998c24 1.33301 42.333 4.66602 55 9.99902s25 16.333 37 33c26.667 35.333 65.667 90.333 117 165c-63.333 94.667 -106 157 -128 187c-11.333 16 -21.166 25.833 -29.499 29.5s-23.166 6.16699 -44.499 7.5v29h209v-29l-30 -3
c-7.33301 -0.666992 -11.666 -3.5 -12.999 -8.5s0 -10.5 4 -16.5l84 -125h1l80 126c8.66699 13.333 6.33398 21 -6.99902 23l-39 4v29h186v-29c-24.667 -1.33301 -42.167 -4.16602 -52.5 -8.49902s-21.833 -14.166 -34.5 -29.499
c-45.333 -54.667 -82.333 -103.667 -111 -147c40 -64 85.667 -132.667 137 -206c12 -17.333 23.333 -28.166 34 -32.499s28.334 -7.16602 53.001 -8.49902h2l13 -197h-28c-7.33301 71.333 -21.666 117.166 -42.999 137.499s-62.666 30.5 -123.999 30.5h-55v29l42 5
c15.333 2 17.666 11.333 6.99902 28l-89 139h-2c-45.333 -69.333 -74.666 -117 -87.999 -143c-8 -14 -5.66699 -22 7 -24l42 -5v-29h-192z" />
    <glyph glyph-name="uni04B4" unicode="&#x4b4;" horiz-adv-x="930" 
d="M22 526v166h513v-166h-30c-6 55.333 -18 91 -36 107s-56 24 -114 24h-27v-567c0 -25.333 4.33301 -40.833 13 -46.5s31 -8.5 67 -8.5h218c36 0 58.333 2.83301 67 8.5s13 21.167 13 46.5v509c0 28 -4 45 -12 51s-34 10.333 -78 13v29h279v-29
c-44 -2.66699 -70 -7 -78 -13s-12 -23 -12 -51v-509c0 -25.333 4.33301 -40.833 13 -46.5s31 -8.5 67 -8.5h19l13 -225h-28c-5.33301 34 -10.5 60 -15.5 78s-12.167 35.5 -21.5 52.5s-21.833 29.167 -37.5 36.5s-35.5 13 -59.5 17s-54.667 6 -92 6h-524v29
c44 2.66699 70 7 78 13s12 23 12 51v564h-27c-58 0 -96 -8 -114 -24s-30 -51.667 -36 -107h-30z" />
    <glyph glyph-name="uni04B5" unicode="&#x4b5;" horiz-adv-x="757" 
d="M22 330l0.000976562 160.002h412v-160h-31c-10.667 52 -20.667 85.833 -30 101.5s-26 23.5 -50 23.5c-20 0 -33 -2.83301 -39 -8.5s-9 -21.167 -9 -46.5v-310c0 -25.333 3.16699 -40.5 9.5 -45.5s28.166 -8.16699 65.499 -9.5h131c37.333 1.33301 59.166 4.5 65.499 9.5
s9.5 20.167 9.5 45.5v313c0 24.667 -3 39.667 -9 45s-23.333 9.66602 -52 12.999v29h230v-29c-36 -2.66699 -57.5 -6.66699 -64.5 -12s-10.5 -20.666 -10.5 -45.999v-313c0 -25.333 3.16699 -40.5 9.5 -45.5s28.166 -8.16699 65.499 -9.5h2l13 -203h-28
c-7.33301 71.333 -21.666 117.166 -42.999 137.499s-62.666 30.5 -123.999 30.5h-439v29c36 2.66699 57.5 6.66699 64.5 12s10.5 20.666 10.5 45.999v313c0 25.333 -3 40.833 -9 46.5s-19 8.5 -39 8.5c-24 0 -40.667 -7.83301 -50 -23.5s-19.333 -49.5 -30 -101.5h-31z" />
    <glyph glyph-name="uni04B6" unicode="&#x4b6;" horiz-adv-x="758" 
d="M29 663l0.000976562 29h279v-29c-44 -2.66699 -70 -7 -78 -13s-12 -23 -12 -51v-146c0 -46.667 7.33301 -80.667 22 -102s43 -32 85 -32c50.667 0 88 4.66699 112 14c58 23.333 87 49.333 87 78v188c0 28 -4 45 -12 51s-34 10.333 -78 13v29h279v-29
c-44 -2.66699 -70 -7 -78 -13s-12 -23 -12 -51v-506c0 -28 4 -45 12 -51s34 -10.333 78 -13h19l13 -219h-28c-5.33301 34 -10.5 60 -15.5 78s-12.167 35.5 -21.5 52.5s-21.833 29.167 -37.5 36.5s-35.5 13 -59.5 17s-54.667 6 -92 6h-73v29c51.333 2.66699 81.833 7 91.5 13
s14.5 23 14.5 51v250c-72.667 -57.333 -150.334 -86 -233.001 -86c-66 0 -111.167 17.833 -135.5 53.5s-36.5 93.167 -36.5 172.5v116c0 28 -4 45 -12 51s-34 10.333 -78 13z" />
    <glyph glyph-name="uni04B7" unicode="&#x4b7;" horiz-adv-x="582" 
d="M22 461l-0.00195312 29.001h233v-29c-29.333 -2 -47.333 -6.16699 -54 -12.5s-10 -21.5 -10 -45.5v-76c0 -32 6 -53.5 18 -64.5s28.333 -16.5 49 -16.5c40 0 69.5 4.33301 88.5 13s30.5 25.334 34.5 50.001v94c0 24 -3.33301 39.167 -10 45.5s-24.667 10.5 -54 12.5v29
h233v-29c-36 -2.66699 -57.5 -6.66699 -64.5 -12s-10.5 -20.666 -10.5 -45.999v-316c0 -25.333 3.5 -40.666 10.5 -45.999s28.5 -9.33301 64.5 -12h2l13 -197h-28c-7.33301 71.333 -21.666 117.166 -42.999 137.499s-62.666 30.5 -123.999 30.5h-74v29
c41.333 2.66699 65.833 6.66699 73.5 12s11.5 20.666 11.5 45.999v153c-59.333 -32 -116 -48 -170 -48c-38 0 -66.5 10.667 -85.5 32s-28.5 49.666 -28.5 84.999v94c0 25.333 -3.5 40.666 -10.5 45.999s-28.5 9.33301 -64.5 12z" />
    <glyph glyph-name="uni04BA" unicode="&#x4ba;" horiz-adv-x="750" 
d="M35 0v29c44 2.66699 70 7 78 13s12 23 12 51v506c0 28 -4 45 -12 51s-34 10.333 -78 13v29h295v-29c-51.333 -2.66699 -81.833 -7 -91.5 -13s-14.5 -23 -14.5 -51v-250c72.667 57.333 150.667 86 234 86c66.667 0 112.167 -17.833 136.5 -53.5s36.5 -93.167 36.5 -172.5
v-116c0 -28 4 -45 12 -51s34 -10.333 78 -13v-29h-279v29c44 2.66699 70 7 78 13s12 23 12 51v146c0 46.667 -7.5 80.667 -22.5 102s-43.5 32 -85.5 32c-51.333 0 -89 -4.66699 -113 -14c-58 -23.333 -87 -49.333 -87 -78v-188c0 -28 4 -45 12 -51s34 -10.333 78 -13v-29
h-279z" />
    <glyph glyph-name="uni04BB" unicode="&#x4bb;" horiz-adv-x="607" 
d="M21 0l-0.00195312 29.002c34.667 2.66699 55.667 6.83398 63 12.501s11 20.834 11 45.501v555c0 17.333 -2 28.666 -6 33.999s-12.667 9 -26 11l-38 5v25l156 25l7 -6v-310c51.333 34 87.333 55 108 63c23.333 8.66699 47.666 13 72.999 13
c46.667 0 83 -13.833 109 -41.5s39 -66.834 39 -117.501v-256c0 -24.667 3.83301 -39.834 11.5 -45.501s28.834 -9.83398 63.501 -12.501v-29h-244v29c34.667 2.66699 55.834 6.83398 63.501 12.501s11.5 20.834 11.5 45.501v236c0 83.333 -35 125 -105 125
c-25.333 0 -49 -7 -71 -21s-38.333 -31.333 -49 -52c-6 -11.333 -9 -29.333 -9 -54v-234c0 -24.667 3.83301 -39.834 11.5 -45.501s28.834 -9.83398 63.501 -12.501v-29h-243z" />
    <glyph glyph-name="uni04BC" unicode="&#x4bc;" horiz-adv-x="844" 
d="M22 480c0 18.667 3.83105 35.4961 11.498 50.4961s20.167 22.5 37.5 22.5c13.333 0 25.166 -3.83301 35.499 -11.5s15.5 -17.5 15.5 -29.5c0 -8 -4 -22.167 -12 -42.5s-12 -33.166 -12 -38.499c0 -21.333 27.333 -32.333 82 -33c8 90.667 37.333 164.834 88 222.501
s125.667 86.5 225 86.5c56 0 105.167 -8.83301 147.5 -26.5s75.166 -41.667 98.499 -72s40.5 -63 51.5 -98s16.5 -72.5 16.5 -112.5c0 -11.333 -3.16699 -20.5 -9.5 -27.5s-14.833 -10.5 -25.5 -10.5h-482c0 -62.667 7.33301 -118.667 22 -168s40 -90.333 76 -123
s80.333 -49 133 -49c113.333 0 189.333 57 228 171h30l-14 -154c-29.333 -16.667 -66.5 -29.5 -111.5 -38.5s-89.167 -13.5 -132.5 -13.5c-51.333 0 -97.166 6.5 -137.499 19.5s-73.166 30.5 -98.499 52.5s-46.166 48.833 -62.499 80.5s-27.833 64.334 -34.5 98.001
s-10 70.5 -10 110.5v14c-61.333 0.666992 -102.666 11.834 -123.999 33.501s-32 50.5 -32 86.5zM291.998 397.996l382.001 0.000976562c7.33301 0 12.666 1.16699 15.999 3.5s5 7.5 5 15.5c0 68 -18.333 127.5 -55 178.5s-85.667 76.5 -147 76.5
c-42 0 -78.833 -14.333 -110.5 -43s-54.667 -63.334 -69 -104.001s-21.5 -83 -21.5 -127z" />
    <glyph glyph-name="uni04BD" unicode="&#x4bd;" horiz-adv-x="624" 
d="M15 362c0 18 4.00098 33.835 12.001 47.502s19.667 20.5 35 20.5c14 0 25.667 -3.83301 35 -11.5s14 -17.834 14 -30.501c0 -6 -3.66699 -16.167 -11 -30.5s-11 -23.833 -11 -28.5c0 -10 5.5 -17.167 16.5 -21.5s30.167 -6.5 57.5 -6.5c9.33301 62 33.166 111 71.499 147
s89.833 54 154.5 54c34.667 0 65 -5.16699 91 -15.5s45.833 -22.833 59.5 -37.5s24.667 -32 33 -52s13.5 -37.333 15.5 -52s3 -29.334 3 -44.001c0 -25.333 -13.333 -38 -40 -38h-288c-2.66699 -149.333 46.333 -224 147 -224c36 0 65.167 9.33301 87.5 28
s41.5 44.667 57.5 78l30 -16c-32 -94 -97 -141 -195 -141c-154 0 -231 84.333 -231 253c0 2 0.166992 5.66699 0.5 11s0.5 9 0.5 11c-96.667 0.666992 -145 33.667 -145 99zM264.001 301.002h188.996c13.333 0 22.333 2.66699 27 8s7 13.333 7 24c0 9.33301 -0.5 19 -1.5 29
s-3.66699 21.667 -8 35s-10.166 24.833 -17.499 34.5s-17.666 18 -30.999 25s-28.666 10.5 -45.999 10.5c-24 0 -44.667 -6.5 -62 -19.5s-29.666 -29.333 -36.999 -49s-12.5 -37.5 -15.5 -53.5s-4.5 -30.667 -4.5 -44z" />
    <glyph glyph-name="uni04BE" unicode="&#x4be;" horiz-adv-x="844" 
d="M22 480c0 18.667 3.83496 35.4941 11.502 50.4941s20.167 22.5 37.5 22.5c13.333 0 25.166 -3.83301 35.499 -11.5s15.5 -17.5 15.5 -29.5c0 -8 -4 -22.167 -12 -42.5s-12 -33.166 -12 -38.499c0 -21.333 27.333 -32.333 82 -33c8 90.667 37.333 164.834 88 222.501
s125.667 86.5 225 86.5c56 0 105.167 -8.83301 147.5 -26.5s75.166 -41.667 98.499 -72s40.5 -63 51.5 -98s16.5 -72.5 16.5 -112.5c0 -11.333 -3.16699 -20.5 -9.5 -27.5s-14.833 -10.5 -25.5 -10.5h-482c0 -62.667 7.33301 -118.667 22 -168s40 -90.333 76 -123
s80.333 -49 133 -49c113.333 0 189.333 57 228 171h30l-14 -154c-28.667 -16.667 -68 -30 -118 -40c-33.333 -8 -56.333 -16.5 -69 -25.5s-22.167 -24.333 -28.5 -46s-11.833 -60.167 -16.5 -115.5h-28c-4.66699 54 -10.334 92.333 -17.001 115s-15 38 -25 46s-29 17 -57 27
c-42 10.667 -78.167 27.334 -108.5 50.001s-54 49.834 -71 81.501s-29.333 65.334 -37 101.001s-11.5 74.167 -11.5 115.5v14c-61.333 0.666992 -102.666 11.834 -123.999 33.501s-32 50.5 -32 86.5zM292.002 397.994l382.001 0.000976562
c7.33301 0 12.666 1.16699 15.999 3.5s5 7.5 5 15.5c0 68 -18.333 127.5 -55 178.5s-85.667 76.5 -147 76.5c-42 0 -78.833 -14.333 -110.5 -43s-54.667 -63.334 -69 -104.001s-21.5 -83 -21.5 -127z" />
    <glyph glyph-name="uni04BF" unicode="&#x4bf;" horiz-adv-x="624" 
d="M15 362c0 18 4.00195 33.835 12.002 47.502s19.667 20.5 35 20.5c14 0 25.667 -3.83301 35 -11.5s14 -17.834 14 -30.501c0 -6 -3.66699 -16.167 -11 -30.5s-11 -23.833 -11 -28.5c0 -10 5.5 -17.167 16.5 -21.5s30.167 -6.5 57.5 -6.5c9.33301 62 33.166 111 71.499 147
s89.833 54 154.5 54c34.667 0 65 -5.16699 91 -15.5s45.833 -22.833 59.5 -37.5s24.667 -32 33 -52s13.5 -37.333 15.5 -52s3 -29.334 3 -44.001c0 -25.333 -13.333 -38 -40 -38h-288c-2.66699 -149.333 46.333 -224 147 -224c36 0 65.167 9.33301 87.5 28
s41.5 44.667 57.5 78l30 -16c-22.667 -66 -62 -109 -118 -129c-14.667 -6.66699 -25.834 -14.167 -33.501 -22.5s-14.667 -24.166 -21 -47.499s-10.5 -56 -12.5 -98h-32c-3.33301 60 -9.83301 100.667 -19.5 122s-25.167 36.666 -46.5 45.999
c-95.333 28.667 -143 109 -143 241c0 2 0.166992 5.66699 0.5 11s0.5 9 0.5 11c-96.667 0.666992 -145 33.667 -145 99zM264.002 301.002h188.996c13.333 0 22.333 2.66699 27 8s7 13.333 7 24c0 9.33301 -0.5 19 -1.5 29s-3.66699 21.667 -8 35
s-10.166 24.833 -17.499 34.5s-17.666 18 -30.999 25s-28.666 10.5 -45.999 10.5c-24 0 -44.667 -6.5 -62 -19.5s-29.666 -29.333 -36.999 -49s-12.5 -37.5 -15.5 -53.5s-4.5 -30.667 -4.5 -44z" />
    <glyph glyph-name="uni04C0" unicode="&#x4c0;" horiz-adv-x="349" 
d="M35 0v29c44 2.66699 70 7 78 13s12 23 12 51v506c0 28 -4 45 -12 51s-34 10.333 -78 13v29h279v-29c-43.333 -3.33301 -69.166 -7.83301 -77.499 -13.5s-12.5 -22.5 -12.5 -50.5v-506c0 -28 4.16699 -44.833 12.5 -50.5s34.166 -10.167 77.499 -13.5v-29h-279z" />
    <glyph glyph-name="uni04C1" unicode="&#x4c1;" horiz-adv-x="1075" 
d="M387 870h28c0.666992 -8 4.33398 -16 11.001 -24s19.667 -15.833 39 -23.5s43.333 -11.5 72 -11.5s52.667 3.83301 72 11.5s32.333 15.5 39 23.5s10.334 16 11.001 24h28c0 -34 -11.333 -62.667 -34 -86s-61.334 -35 -116.001 -35s-93.334 11.667 -116.001 35
s-34 52 -34 86zM35 -15v35.001c35.333 0 63.333 10.833 84 32.5s36.667 61.167 48 118.5c10 50 34.667 93.5 74 130.5s82.333 59.167 129 66.5v3c-26 8 -46.333 25 -61 51s-29.667 68 -45 126c-8.66699 34.667 -21 64 -37 88s-30.667 36 -44 36
c-10.667 0 -18.167 -3.33301 -22.5 -10s-6.5 -13.334 -6.5 -20.001c0 -7.33301 1 -17.333 3 -30s3 -24.334 3 -35.001c0 -24 -14 -36 -42 -36c-18.667 0 -32.334 5.33301 -41.001 16s-13 22 -13 34c0 77.333 39.333 116 118 116c27.333 0 52.833 -15.667 76.5 -47
s42.167 -72.333 55.5 -123c6.66699 -24.667 13.334 -45 20.001 -61s15.834 -32 27.501 -48s27 -28 46 -36s41.833 -12 68.5 -12h12v219c0 28 -4 45 -12 51s-34 10.333 -78 13v29h279v-29c-44 -2.66699 -70 -7 -78 -13s-12 -23 -12 -51v-219h12c26.667 0 49.5 4 68.5 12
s34.333 20 46 36s20.834 32 27.501 48s13.334 36.333 20.001 61c13.333 50.667 31.833 91.667 55.5 123s49.167 47 76.5 47c78.667 0 118 -38.667 118 -116c0 -12 -4.33301 -23.333 -13 -34s-22.334 -16 -41.001 -16c-28 0 -42 12 -42 36c0 10.667 1 22.334 3 35.001
s3 22.667 3 30c0 4 -0.666992 8 -2 12s-4.33301 8 -9 12s-10.667 6 -18 6c-13.333 0 -28 -12 -44 -36s-28.333 -53.333 -37 -88c-15.333 -58 -30.333 -100 -45 -126s-35 -43 -61 -51v-3c46.667 -7.33301 89.667 -29.5 129 -66.5s64 -80.5 74 -130.5
c11.333 -57.333 27.333 -96.833 48 -118.5s48.667 -32.5 84 -32.5v-35h-56c-53.333 0 -93 9.16699 -119 27.5s-44.333 54.833 -55 109.5c-16.667 84 -38.334 141.5 -65.001 172.5s-67.667 46.5 -123 46.5h-35v-248c0 -28 4 -45 12 -51s34 -10.333 78 -13v-29h-279v29
c44 2.66699 70 7 78 13s12 23 12 51v248h-35c-55.333 0 -96.333 -15.5 -123 -46.5s-48.334 -88.5 -65.001 -172.5c-10.667 -54.667 -29 -91.167 -55 -109.5s-65.667 -27.5 -119 -27.5h-56z" />
    <glyph glyph-name="uni04C2" unicode="&#x4c2;" horiz-adv-x="850" 
d="M287 704h24c1.33301 -16.667 10.333 -32.667 27 -48s45.334 -23 86.001 -23s69.334 7.66699 86.001 23s25.667 31.333 27 48h24c0 -18.667 -1.33301 -34.834 -4 -48.501s-8.33398 -27.834 -17.001 -42.501s-22.667 -25.834 -42 -33.501s-44 -11.5 -74 -11.5
s-54.667 3.83301 -74 11.5s-33.333 18.834 -42 33.501s-14.334 28.834 -17.001 42.501s-4 29.834 -4 48.501zM27 -12l-0.00195312 33c26.667 0 47 6.66699 61 20s25.333 40 34 80c7.33301 34 24.833 63 52.5 87s63.5 38.667 107.5 44v2
c-13.333 3.33301 -27.5 17.333 -42.5 42s-27.167 56 -36.5 94c-4.66699 18 -13.5 35.333 -26.5 52s-24.833 25 -35.5 25c-12.667 0 -19 -6.66699 -19 -20c0 -7.33301 1 -17 3 -29s3 -19.667 3 -23c0 -21.333 -14.333 -32 -43 -32c-15.333 0 -26.666 5 -33.999 15
s-11 20.333 -11 31c0 21.333 7.66699 42.166 23 62.499s39.666 30.5 72.999 30.5c28 0 51.5 -11.5 70.5 -34.5s33.167 -51.5 42.5 -85.5c10 -37.333 23.5 -66.5 40.5 -87.5s44.167 -31.5 81.5 -31.5h7v140c0 25.333 -3.5 40.666 -10.5 45.999s-28.5 9.33301 -64.5 12v29h244
v-29c-36 -2.66699 -57.5 -6.66699 -64.5 -12s-10.5 -20.666 -10.5 -45.999v-140h7c37.333 0 64.5 10.5 81.5 31.5s30.5 50.167 40.5 87.5c9.33301 34 23.5 62.5 42.5 85.5s42.5 34.5 70.5 34.5c33.333 0 57.666 -10.167 72.999 -30.5s23 -41.166 23 -62.499
c0 -10.667 -3.66699 -21 -11 -31s-18.666 -15 -33.999 -15c-28.667 0 -43 10.667 -43 32c0 3.33301 1 11 3 23s3 21.667 3 29c0 13.333 -6.33301 20 -19 20c-10.667 0 -22.5 -8.33301 -35.5 -25s-21.833 -34 -26.5 -52c-9.33301 -38 -21.5 -69.333 -36.5 -94
s-29.167 -38.667 -42.5 -42v-2c44 -5.33301 79.833 -20 107.5 -44s45.167 -53 52.5 -87c8.66699 -40 20 -66.667 34 -80s34.333 -20 61 -20v-33h-20c-92.667 0 -147.334 32.667 -164.001 98c-5.33301 21.333 -9.5 37 -12.5 47s-7.16699 21.833 -12.5 35.5
s-10.666 23.167 -15.999 28.5s-12.666 11 -21.999 17s-20 9.83301 -32 11.5s-26.667 2.5 -44 2.5h-28v-141c0 -25.333 3.5 -40.666 10.5 -45.999s28.5 -9.33301 64.5 -12v-29h-244v29c36 2.66699 57.5 6.66699 64.5 12s10.5 20.666 10.5 45.999v141h-28
c-17.333 0 -32 -0.833008 -44 -2.5s-22.667 -5.5 -32 -11.5s-16.666 -11.667 -21.999 -17s-10.666 -14.833 -15.999 -28.5s-9.5 -25.5 -12.5 -35.5s-7.16699 -25.667 -12.5 -47c-16.667 -65.333 -71.334 -98 -164.001 -98h-20z" />
    <glyph glyph-name="uni04C3" unicode="&#x4c3;" horiz-adv-x="706" 
d="M35 0l0.00195312 29c44 2.66699 70 7 78 13s12 23 12 51v506c0 28 -4 45 -12 51s-34 10.333 -78 13v29h279v-29c-44 -2.66699 -70 -7 -78 -13s-12 -23 -12 -51v-219h26c27.333 0 50.833 3.83301 70.5 11.5s35.334 19.834 47.001 36.501s20.667 32.667 27 48
s12.833 35.666 19.5 60.999c13.333 51.333 31.666 92.5 54.999 123.5s49.666 46.5 78.999 46.5c78.667 0 118 -38.667 118 -116c0 -12 -4.33301 -23.333 -13 -34s-22.334 -16 -41.001 -16c-28 0 -42 12 -42 36c0 10.667 1 22.667 3 36s3 23 3 29
c0 8.66699 -2.5 15.834 -7.5 21.501s-12.167 8.5 -21.5 8.5c-14.667 0 -29.834 -11.833 -45.501 -35.5s-28.167 -53.167 -37.5 -88.5c-14.667 -56.667 -29.334 -97.5 -44.001 -122.5s-34.334 -41.833 -59.001 -50.5v-3c83.333 -3.33301 152 -31.833 206 -85.5
s81 -123.834 81 -210.501c0 -90 -21.667 -165.333 -65 -226s-106 -91 -188 -91c-52.667 0 -98.167 8.66699 -136.5 26s-57.5 40.666 -57.5 69.999c0 14.667 6.33301 28.167 19 40.5s26 18.5 40 18.5c21.333 0 36 -14 44 -42c2.66699 -10.667 5.83398 -20 9.50098 -28
s8.83398 -16.167 15.501 -24.5s15.334 -14.666 26.001 -18.999s23.334 -6.5 38.001 -6.5c26 0 48.667 8 68 24s34.166 37.667 44.499 65s18 57 23 89s7.5 66.667 7.5 104c0 76 -17.833 139.167 -53.5 189.5s-87.5 75.5 -155.5 75.5h-103v-248c0 -28 4 -45 12 -51
s34 -10.333 78 -13v-29h-279z" />
    <glyph glyph-name="uni04C4" unicode="&#x4c4;" horiz-adv-x="594" 
d="M32 0v28.9971c36 2.66699 57.5 6.66699 64.5 12s10.5 20.666 10.5 45.999v316c0 25.333 -3.5 40.666 -10.5 45.999s-28.5 9.33301 -64.5 12v29h244v-29c-36 -2.66699 -57.5 -6.66699 -64.5 -12s-10.5 -20.666 -10.5 -45.999v-140h17c38 0 65.667 10.333 83 31
s31 50 41 88c8.66699 33.333 23.167 61.666 43.5 84.999s44.5 35 72.5 35c33.333 0 57.666 -10.167 72.999 -30.5s23 -41.166 23 -62.499c0 -10.667 -3.66699 -21 -11 -31s-18.666 -15 -33.999 -15c-28.667 0 -43 10.667 -43 32c0 4 1 11.833 3 23.5s3 21.167 3 28.5
c0 13.333 -6.33301 20 -19 20c-10.667 0 -23 -8.33301 -37 -25s-23.333 -34 -28 -52c-9.33301 -36.667 -21.5 -67.167 -36.5 -91.5s-28.167 -38.5 -39.5 -42.5v-2c60.667 -4 114.334 -28.167 161.001 -72.5s70 -104.166 70 -179.499
c0 -67.333 -18.167 -124.666 -54.5 -171.999s-90.833 -71 -163.5 -71c-51.333 0 -94 8.16699 -128 24.5s-51 39.5 -51 69.5c0 14.667 5.33301 26.5 16 35.5s23 13.5 37 13.5c14.667 0 25.667 -5.66699 33 -17s12.166 -23.666 14.499 -36.999s9.83301 -25.666 22.5 -36.999
s30.667 -17 54 -17c77.333 0 116 72.667 116 218c0 65.333 -16.167 117.666 -48.5 156.999s-82.833 59 -151.5 59h-38v-141c0 -25.333 3.5 -40.666 10.5 -45.999s28.5 -9.33301 64.5 -12v-29h-244z" />
    <glyph glyph-name="uni04C7" unicode="&#x4c7;" horiz-adv-x="793" 
d="M35 0l-0.00292969 29.002c44 2.66699 70 7 78 13s12 23 12 51v506c0 28 -4 45 -12 51s-34 10.333 -78 13v29h279v-29c-43.333 -3.33301 -69.166 -7.83301 -77.499 -13.5s-12.5 -22.5 -12.5 -50.5v-220h350v220c0 28 -4 45 -12 51s-34 10.333 -78 13v29h279v-29
c-43.333 -3.33301 -69.166 -7.83301 -77.499 -13.5s-12.5 -22.5 -12.5 -50.5v-559c0 -96 -17.5 -167 -52.5 -213s-80.833 -69 -137.5 -69c-47.333 0 -81 7.33301 -101 22c-16 11.333 -29 25.166 -39 41.499s-15 30.166 -15 41.499c0 14.667 6.33301 26 19 34
s25.667 12 39 12c14.667 0 24.834 -6 30.501 -18s8.5 -25.333 8.5 -40s3.83301 -28 11.5 -40s19.834 -18 36.501 -18c21.333 0 39 5.33301 53 16s24.333 26.667 31 48s11.167 43.5 13.5 66.5s3.5 51.833 3.5 86.5v331h-350v-248c0 -28 4.16699 -44.833 12.5 -50.5
s34.166 -10.167 77.499 -13.5v-29h-279z" />
    <glyph glyph-name="uni04C8" unicode="&#x4c8;" horiz-adv-x="614" 
d="M32 0l-0.000976562 28.999c36 2.66699 57.5 6.66699 64.5 12s10.5 20.666 10.5 45.999v316c0 25.333 -3.5 40.666 -10.5 45.999s-28.5 9.33301 -64.5 12v29h244v-29c-36 -2.66699 -57.5 -6.66699 -64.5 -12s-10.5 -20.666 -10.5 -45.999v-133h222v133
c0 25.333 -3.5 40.666 -10.5 45.999s-28.5 9.33301 -64.5 12v29h244v-29c-36 -2.66699 -57.5 -6.66699 -64.5 -12s-10.5 -20.666 -10.5 -45.999v-428c0 -71.333 -10.333 -122.666 -31 -153.999c-27.333 -42 -66.666 -63 -117.999 -63c-36.667 0 -66.167 7.5 -88.5 22.5
s-33.5 31.167 -33.5 48.5c0 15.333 5 27.333 15 36s20.667 13 32 13c12.667 0 21.667 -5.66699 27 -17c11.333 -26.667 22.5 -44.667 33.5 -54s22.5 -14 34.5 -14c30.667 0 44 35 40 105l-5 102v235h-222v-148c0 -25.333 3.5 -40.666 10.5 -45.999s28.5 -9.33301 64.5 -12
v-29h-244z" />
    <glyph glyph-name="uni04CF" unicode="&#x4cf;" horiz-adv-x="279" 
d="M20 0v29.001c36 2.66699 57.5 6.66699 64.5 12s10.5 20.666 10.5 45.999v555c0 18.667 -2 30.667 -6 36s-12.667 8.66602 -26 9.99902l-38 4v25l157 25l7 -6v-649c0 -25.333 3.5 -40.666 10.5 -45.999s28.5 -9.33301 64.5 -12v-29h-244z" />
    <glyph glyph-name="uni04D0" unicode="&#x4d0;" horiz-adv-x="635" 
d="M170 870h28c0.666992 -8 4.33398 -16 11.001 -24s19.667 -15.833 39 -23.5s43.333 -11.5 72 -11.5s52.667 3.83301 72 11.5s32.333 15.5 39 23.5s10.334 16 11.001 24h28c0 -34 -11.333 -62.667 -34 -86s-61.334 -35 -116.001 -35s-93.334 11.667 -116.001 35
s-34 52 -34 86zM-29 0l-0.00195312 29.002c30.667 1.33301 51.167 6.16602 61.5 14.499s20.833 26.5 31.5 54.5c16.667 42.667 52.667 142 108 298l105 296h74l212 -603c8.66699 -25.333 17.834 -41 27.501 -47s29.5 -10.333 59.5 -13v-29h-256v29l45 4
c16 1.33301 25.833 5.16602 29.5 11.499s2.83398 16.833 -2.49902 31.5l-67 191h-224c-33.333 -104 -53.666 -168.333 -60.999 -193c-4.66699 -13.333 -5.33398 -23 -2.00098 -29s12.333 -9.66699 27 -11l52 -5v-29h-220zM187.998 305.002h199l-99 286h-3z" />
    <glyph glyph-name="uni04D1" unicode="&#x4d1;" horiz-adv-x="523" 
d="M49 130c0 60.667 31 100.333 93 119c10 3.33301 25.833 8.16602 47.5 14.499s38.667 11.5 51 15.5l42.5 14.5c16 5.66699 28.833 11.167 38.5 16.5s16.834 10.333 21.501 15v42c0 36 -8.33301 61.667 -25 77s-36.667 23 -60 23c-49.333 0 -83.666 -32.667 -102.999 -98
c-5.33301 -18.667 -16 -28 -32 -28c-12 0 -24.333 4.16699 -37 12.5s-19 19.833 -19 34.5c0 28.667 20 54.834 60 78.501s87.333 35.5 142 35.5c36 0 65.667 -4 89 -12s40 -19.167 50 -33.5s16.667 -28 20 -41s5 -28.5 5 -46.5v-242c0 -52 11.667 -80.667 35 -86
c14 -4 31 -3.66699 51 1l6 -24c-40 -20 -79.333 -30 -118 -30c-16.667 0 -29.667 5 -39 15s-18 25 -26 45c-60.667 -40 -110.334 -60 -149.001 -60c-44.667 0 -79.834 13.667 -105.501 41s-38.5 61 -38.5 101zM150 143.999c0 -30.667 7.83301 -55.499 23.5 -74.499
s38.5 -28.5 68.5 -28.5c25.333 0 48.5 8 69.5 24s31.5 42 31.5 78v141c-12.667 -8 -51 -24 -115 -48c-28 -10.667 -48 -22.834 -60 -36.501s-18 -32.167 -18 -55.5zM128 704h24c1.33301 -16.667 10.333 -32.667 27 -48s45.334 -23 86.001 -23s69.334 7.66699 86.001 23
s25.667 31.333 27 48h24c0 -18.667 -1.33301 -34.834 -4 -48.501s-8.33398 -27.834 -17.001 -42.501s-22.667 -25.834 -42 -33.501s-44 -11.5 -74 -11.5s-54.667 3.83301 -74 11.5s-33.333 18.834 -42 33.501s-14.334 28.834 -17.001 42.501s-4 29.834 -4 48.501z" />
    <glyph glyph-name="uni04D2" unicode="&#x4d2;" horiz-adv-x="635" 
d="M156 787c0 14.667 5.16699 27.334 15.5 38.001s24.5 16 42.5 16s32.167 -5.33301 42.5 -16s15.5 -23.334 15.5 -38.001s-5.16699 -27.5 -15.5 -38.5s-24.5 -16.5 -42.5 -16.5c-17.333 0 -31.333 5.5 -42 16.5s-16 23.833 -16 38.5zM364 787
c0 14.667 5.16699 27.334 15.5 38.001s24.5 16 42.5 16s32.167 -5.33301 42.5 -16s15.5 -23.334 15.5 -38.001s-5.16699 -27.5 -15.5 -38.5s-24.5 -16.5 -42.5 -16.5c-17.333 0 -31.333 5.5 -42 16.5s-16 23.833 -16 38.5zM-29 0l-0.00195312 29.002
c30.667 1.33301 51.167 6.16602 61.5 14.499s20.833 26.5 31.5 54.5c16.667 42.667 52.667 142 108 298l105 296h74l212 -603c8.66699 -25.333 17.834 -41 27.501 -47s29.5 -10.333 59.5 -13v-29h-256v29l45 4c16 1.33301 25.833 5.16602 29.5 11.499
s2.83398 16.833 -2.49902 31.5l-67 191h-224c-33.333 -104 -53.666 -168.333 -60.999 -193c-4.66699 -13.333 -5.33398 -23 -2.00098 -29s12.333 -9.66699 27 -11l52 -5v-29h-220zM187.998 305.002h199l-99 286h-3z" />
    <glyph glyph-name="uni04D3" unicode="&#x4d3;" horiz-adv-x="523" 
d="M306 627c0 15.333 5.33301 28.5 16 39.5s25.334 16.5 44.001 16.5s33.334 -5.5 44.001 -16.5s16 -24.167 16 -39.5s-5.33301 -28.666 -16 -39.999s-25.334 -17 -44.001 -17s-33.334 5.66699 -44.001 17s-16 24.666 -16 39.999zM98 627c0 15.333 5.33301 28.5 16 39.5
s25.334 16.5 44.001 16.5s33.334 -5.5 44.001 -16.5s16 -24.167 16 -39.5s-5.33301 -28.666 -16 -39.999s-25.334 -17 -44.001 -17s-33.334 5.66699 -44.001 17s-16 24.666 -16 39.999zM49 130c0 60.667 31 100.333 93 119c10 3.33301 25.833 8.16602 47.5 14.499
s38.667 11.5 51 15.5l42.5 14.5c16 5.66699 28.833 11.167 38.5 16.5s16.834 10.333 21.501 15v42c0 36 -8.33301 61.667 -25 77s-36.667 23 -60 23c-49.333 0 -83.666 -32.667 -102.999 -98c-5.33301 -18.667 -16 -28 -32 -28c-12 0 -24.333 4.16699 -37 12.5
s-19 19.833 -19 34.5c0 28.667 20 54.834 60 78.501s87.333 35.5 142 35.5c36 0 65.667 -4 89 -12s40 -19.167 50 -33.5s16.667 -28 20 -41s5 -28.5 5 -46.5v-242c0 -52 11.667 -80.667 35 -86c14 -4 31 -3.66699 51 1l6 -24c-40 -20 -79.333 -30 -118 -30
c-16.667 0 -29.667 5 -39 15s-18 25 -26 45c-60.667 -40 -110.334 -60 -149.001 -60c-44.667 0 -79.834 13.667 -105.501 41s-38.5 61 -38.5 101zM150 143.999c0 -30.667 7.83301 -55.499 23.5 -74.499s38.5 -28.5 68.5 -28.5c25.333 0 48.5 8 69.5 24s31.5 42 31.5 78v141
c-12.667 -8 -51 -24 -115 -48c-28 -10.667 -48 -22.834 -60 -36.501s-18 -32.167 -18 -55.5z" />
    <glyph glyph-name="uni04D4" unicode="&#x4d4;" horiz-adv-x="876" 
d="M-63 0v28.998c28 2.66699 47.333 6.66699 58 12s21.667 17.333 33 36l50 88.5l61.5 114.5l63.5 118l123 225c12 22 8 33.333 -12 34l-75 6v29h571v-164h-30c-7.33301 52.667 -20.333 87.334 -39 104.001s-56 25 -112 25h-98c-16 0 -26.167 -2.16699 -30.5 -6.5
s-6.5 -14.166 -6.5 -29.499v-242h140c21.333 0 38 1.33301 50 4s21.167 8.16699 27.5 16.5s10.666 16.666 12.999 24.999s4.83301 21.833 7.5 40.5h30v-211h-30c-2.66699 19.333 -5.16699 33 -7.5 41s-6.66602 16.333 -12.999 25s-15.5 14.334 -27.5 17.001s-28.667 4 -50 4
h-140v-216c0 -42.667 9 -68.334 27 -77.001s52 -13 102 -13c65.333 0 111.333 8.33301 138 25s45.334 54.334 56.001 113.001h30l-12 -173h-528v29c43.333 3.33301 69.166 8 77.499 14s12.5 23.333 12.5 52v246h-172c-80.667 -154.667 -126.667 -247 -138 -277
c-6.66699 -16.667 -1.66699 -26 15 -28l66 -7v-29h-231zM244 378.998h153v273h-6l-86 -159z" />
    <glyph glyph-name="uni04D5" unicode="&#x4d5;" horiz-adv-x="797" 
d="M49 130c0 60.667 31 100.334 93 119.001c10 3.33301 25.833 8.16602 47.5 14.499s38.667 11.5 51 15.5l42.5 14.5c16 5.66699 28.833 11.167 38.5 16.5s16.834 10.333 21.501 15v44c0 35.333 -8.33301 60.5 -25 75.5s-36.334 22.5 -59.001 22.5
c-50.667 0 -85.667 -32.667 -105 -98c-5.33301 -18.667 -15.333 -28 -30 -28c-12.667 0 -25.5 4.16699 -38.5 12.5s-19.5 19.833 -19.5 34.5c0 28.667 20 54.834 60 78.501s88 35.5 144 35.5c68 0 114.333 -20.667 139 -62c38 41.333 89 62 153 62
c34.667 0 65 -5.16699 91 -15.5s45.833 -22.833 59.5 -37.5s24.667 -32 33 -52s13.5 -37.333 15.5 -52s3 -29.334 3 -44.001c0 -25.333 -13.333 -38 -40 -38h-288c-2.66699 -149.333 46.333 -224 147 -224c36 0 65.167 9.33301 87.5 28s41.5 44.667 57.5 78l30 -16
c-32 -93.333 -97 -140.333 -195 -141c-89.333 -0.666992 -151 28.333 -185 87l-37 -27c-53.333 -38.667 -102 -58.667 -146 -60c-46 0 -81.833 13.667 -107.5 41s-38.5 61 -38.5 101zM150 144c0 -30.667 7.83301 -55.498 23.5 -74.498s38.5 -28.5 68.5 -28.5
c24.667 0 47.667 8.16699 69 24.5s32 42.166 32 77.499v141c-12.667 -8 -51 -24 -115 -48c-28 -10.667 -48 -22.834 -60 -36.501s-18 -32.167 -18 -55.5zM437 301.002h188.997c13.333 0 22.333 2.66699 27 8s7 13.333 7 24c0 9.33301 -0.5 19 -1.5 29s-3.66699 21.667 -8 35
s-10.166 24.833 -17.499 34.5s-17.666 18 -30.999 25s-28.666 10.5 -45.999 10.5c-24 0 -44.5 -6.5 -61.5 -19.5s-29.333 -29.333 -37 -49s-13 -37.5 -16 -53.5s-4.5 -30.667 -4.5 -44z" />
    <glyph glyph-name="uni04D6" unicode="&#x4d6;" horiz-adv-x="606" 
d="M156 870h28c0.666992 -8 4.33398 -16 11.001 -24s19.667 -15.833 39 -23.5s43.333 -11.5 72 -11.5s52.667 3.83301 72 11.5s32.333 15.5 39 23.5s10.334 16 11.001 24h28c0 -34 -11.333 -62.667 -34 -86s-61.334 -35 -116.001 -35s-93.334 11.667 -116.001 35
s-34 52 -34 86zM35 0l-0.000976562 28.998c44 2.66699 70 7 78 13s12 23 12 51v506c0 28 -4 45 -12 51s-34 10.333 -78 13v29h505v-164h-30c-7.33301 52.667 -20.333 87.334 -39 104.001s-56 25 -112 25h-98c-16 0 -26.167 -2 -30.5 -6s-6.5 -14 -6.5 -30v-242h140
c21.333 0 38 1.33301 50 4s21.167 8.16699 27.5 16.5s10.666 16.666 12.999 24.999s4.83301 21.833 7.5 40.5h30v-211h-30c-2.66699 19.333 -5.16699 33 -7.5 41s-6.66602 16.333 -12.999 25s-15.5 14.334 -27.5 17.001s-28.667 4 -50 4h-140v-221
c0 -25.333 1.66699 -43 5 -53s10 -17.333 20 -22c17.333 -6.66699 52 -10 104 -10c66.667 0 112.834 8.33301 138.501 25s44.167 54.334 55.5 113.001h30l-12 -173h-530z" />
    <glyph glyph-name="uni04D7" unicode="&#x4d7;" horiz-adv-x="514" 
d="M141 704h24c1.33301 -16.667 10.333 -32.667 27 -48s45.334 -23 86.001 -23s69.334 7.66699 86.001 23s25.667 31.333 27 48h24c0 -18.667 -1.33301 -34.834 -4 -48.501s-8.33398 -27.834 -17.001 -42.501s-22.667 -25.834 -42 -33.501s-44 -11.5 -74 -11.5
s-54.667 3.83301 -74 11.5s-33.333 18.834 -42 33.501s-14.334 28.834 -17.001 42.501s-4 29.834 -4 48.501zM49 241c0 78.667 19.5 141.834 58.5 189.501s96.167 71.5 171.5 71.5c34.667 0 65 -5.16699 91 -15.5s45.833 -22.833 59.5 -37.5s24.667 -32 33 -52
s13.5 -37.333 15.5 -52s3 -29.334 3 -44.001c0 -25.333 -13.333 -38 -40 -38h-288c-2.66699 -149.333 46.333 -224 147 -224c36 0 65.167 9.33301 87.5 28s41.5 44.667 57.5 78l30 -16c-32 -94 -97 -141 -195 -141c-154 0 -231 84.333 -231 253zM154 301h188.996
c13.333 0 22.333 2.66699 27 8s7 13.333 7 24c0 9.33301 -0.5 19 -1.5 29s-3.66699 21.667 -8 35s-10.166 24.833 -17.499 34.5s-17.666 18 -30.999 25s-28.666 10.5 -45.999 10.5c-24 0 -44.667 -6.5 -62 -19.5s-29.666 -29.333 -36.999 -49s-12.5 -37.5 -15.5 -53.5
s-4.5 -30.667 -4.5 -44z" />
    <glyph glyph-name="uni04D8" unicode="&#x4d8;" horiz-adv-x="710" 
d="M45 306c0 11.333 3.1709 20.501 9.50391 27.501s14.833 10.5 25.5 10.5h470c0 42 -3.33301 81 -10 117s-17.667 70.5 -33 103.5s-37.833 59.167 -67.5 78.5s-64.834 29 -105.501 29c-27.333 0 -54.333 -5.16699 -81 -15.5s-52.834 -30.166 -78.501 -59.499
s-42.834 -66.333 -51.501 -111h-32v170c86 34 167 51 243 51c50.667 0 95.667 -7.5 135 -22.5s70.833 -34.333 94.5 -58s43.167 -51.834 58.5 -84.501s25.833 -64.834 31.5 -96.501s8.5 -64.834 8.5 -99.501c0 -34 -3 -67.167 -9 -99.5s-16.333 -64.666 -31 -96.999
s-33.334 -60.333 -56.001 -84s-52.334 -43 -89.001 -58s-78 -22.5 -124 -22.5c-56 0 -105 10.167 -147 30.5s-74.167 47 -96.5 80s-38.666 67.167 -48.999 102.5s-15.5 71.333 -15.5 108zM157.004 287.001c0 -46.667 6.83105 -89.668 20.498 -129.001
s35.667 -72.166 66 -98.499s66.833 -39.5 109.5 -39.5c42 0 78.333 14.833 109 44.5s52.834 65.667 66.501 108s20.5 86.833 20.5 133.5h-371c-7.33301 0 -12.666 -1.16699 -15.999 -3.5s-5 -7.5 -5 -15.5z" />
    <glyph glyph-name="afii10846" unicode="&#x4d9;" horiz-adv-x="535" 
d="M49 200c0 25.333 13.332 37.999 39.999 37.999h294c0 26.667 -1.66699 51.667 -5 75s-9.33301 47.5 -18 72.5s-22.167 44.833 -40.5 59.5s-40.5 22 -66.5 22c-62.667 0 -104.667 -38.333 -126 -115h-33v103c36 19.333 64.5 32 85.5 38s47.5 9 79.5 9
c72 0 127.833 -22.333 167.5 -67s59.5 -106.667 59.5 -186s-19 -142.666 -57 -189.999s-95 -71 -171 -71c-34.667 0 -65.167 5.33301 -91.5 16s-46.666 23.5 -60.999 38.5s-26 32.833 -35 53.5s-14.833 39 -17.5 55s-4 32.333 -4 49zM152.999 177.999
c0 -15.333 1.16699 -30.499 3.5 -45.499s6.83301 -31.5 13.5 -49.5s17.667 -32.5 33 -43.5s34 -16.5 56 -16.5c24.667 0 45.5 6.16699 62.5 18.5s29.5 28.666 37.5 48.999s13.667 39.333 17 57s5 35.167 5 52.5h-194c-14 0 -23.167 -1.33301 -27.5 -4
s-6.5 -8.66699 -6.5 -18z" />
    </font>
</defs>
</svg>
